<?xml version="1.0" encoding="utf-8" standalone="no"?>
<!DOCTYPE svg PUBLIC "-//W3C//DTD SVG 1.1//EN"
  "http://www.w3.org/Graphics/SVG/1.1/DTD/svg11.dtd">
<svg xmlns:xlink="http://www.w3.org/1999/xlink" width="717.09625pt" height="407.02501pt" viewBox="0 0 717.09625 407.02501" xmlns="http://www.w3.org/2000/svg" version="1.1">
 <metadata>
  <rdf:RDF xmlns:dc="http://purl.org/dc/elements/1.1/" xmlns:cc="http://creativecommons.org/ns#" xmlns:rdf="http://www.w3.org/1999/02/22-rdf-syntax-ns#">
   <cc:Work>
    <dc:type rdf:resource="http://purl.org/dc/dcmitype/StillImage"/>
    <dc:date>2025-07-03T12:28:54.096033</dc:date>
    <dc:format>image/svg+xml</dc:format>
    <dc:creator>
     <cc:Agent>
      <dc:title>Matplotlib v3.7.2, https://matplotlib.org/</dc:title>
     </cc:Agent>
    </dc:creator>
   </cc:Work>
  </rdf:RDF>
 </metadata>
 <defs>
  <style type="text/css">*{stroke-linejoin: round; stroke-linecap: butt}</style>
 </defs>
 <g id="figure_1">
  <g id="patch_1">
   <path d="M 0 407.02501 
L 717.09625 407.02501 
L 717.09625 0 
L 0 0 
z
" style="fill: #ffffff"/>
  </g>
  <g id="axes_1">
   <g id="patch_2">
    <path d="M 40.29625 356.031562 
L 709.89625 356.031562 
L 709.89625 23.391562 
L 40.29625 23.391562 
z
" style="fill: #ffffff"/>
   </g>
   <g id="matplotlib.axis_1">
    <g id="xtick_1">
     <g id="line2d_1">
      <defs>
       <path id="mf58d1cb094" d="M 0 0 
L 0 3.5 
" style="stroke: #262626; stroke-width: 0.8"/>
      </defs>
      <g>
       <use xlink:href="#mf58d1cb094" x="73.77625" y="356.031562" style="fill: #262626; stroke: #262626; stroke-width: 0.8"/>
      </g>
     </g>
     <g id="text_1">
      <!-- TL 1 -->
      <g style="fill: #262626" transform="translate(58.48838 381.975395) rotate(-45) scale(0.1 -0.1)">
       <defs>
        <path id="ArialMT-54" d="M 1659 0 
L 1659 4041 
L 150 4041 
L 150 4581 
L 3781 4581 
L 3781 4041 
L 2266 4041 
L 2266 0 
L 1659 0 
z
" transform="scale(0.015625)"/>
        <path id="ArialMT-4c" d="M 469 0 
L 469 4581 
L 1075 4581 
L 1075 541 
L 3331 541 
L 3331 0 
L 469 0 
z
" transform="scale(0.015625)"/>
        <path id="ArialMT-20" transform="scale(0.015625)"/>
        <path id="ArialMT-31" d="M 2384 0 
L 1822 0 
L 1822 3584 
Q 1619 3391 1289 3197 
Q 959 3003 697 2906 
L 697 3450 
Q 1169 3672 1522 3987 
Q 1875 4303 2022 4600 
L 2384 4600 
L 2384 0 
z
" transform="scale(0.015625)"/>
       </defs>
       <use xlink:href="#ArialMT-54"/>
       <use xlink:href="#ArialMT-4c" x="61.083984"/>
       <use xlink:href="#ArialMT-20" x="112.949219"/>
       <use xlink:href="#ArialMT-31" x="140.732422"/>
      </g>
     </g>
    </g>
    <g id="xtick_2">
     <g id="line2d_2">
      <g>
       <use xlink:href="#mf58d1cb094" x="140.73625" y="356.031562" style="fill: #262626; stroke: #262626; stroke-width: 0.8"/>
      </g>
     </g>
     <g id="text_2">
      <!-- BP 1 -->
      <g style="fill: #262626" transform="translate(124.124765 383.299011) rotate(-45) scale(0.1 -0.1)">
       <defs>
        <path id="ArialMT-42" d="M 469 0 
L 469 4581 
L 2188 4581 
Q 2713 4581 3030 4442 
Q 3347 4303 3526 4014 
Q 3706 3725 3706 3409 
Q 3706 3116 3547 2856 
Q 3388 2597 3066 2438 
Q 3481 2316 3704 2022 
Q 3928 1728 3928 1328 
Q 3928 1006 3792 729 
Q 3656 453 3456 303 
Q 3256 153 2954 76 
Q 2653 0 2216 0 
L 469 0 
z
M 1075 2656 
L 2066 2656 
Q 2469 2656 2644 2709 
Q 2875 2778 2992 2937 
Q 3109 3097 3109 3338 
Q 3109 3566 3000 3739 
Q 2891 3913 2687 3977 
Q 2484 4041 1991 4041 
L 1075 4041 
L 1075 2656 
z
M 1075 541 
L 2216 541 
Q 2509 541 2628 563 
Q 2838 600 2978 687 
Q 3119 775 3209 942 
Q 3300 1109 3300 1328 
Q 3300 1584 3169 1773 
Q 3038 1963 2805 2039 
Q 2572 2116 2134 2116 
L 1075 2116 
L 1075 541 
z
" transform="scale(0.015625)"/>
        <path id="ArialMT-50" d="M 494 0 
L 494 4581 
L 2222 4581 
Q 2678 4581 2919 4538 
Q 3256 4481 3484 4323 
Q 3713 4166 3852 3881 
Q 3991 3597 3991 3256 
Q 3991 2672 3619 2267 
Q 3247 1863 2275 1863 
L 1100 1863 
L 1100 0 
L 494 0 
z
M 1100 2403 
L 2284 2403 
Q 2872 2403 3119 2622 
Q 3366 2841 3366 3238 
Q 3366 3525 3220 3729 
Q 3075 3934 2838 4000 
Q 2684 4041 2272 4041 
L 1100 4041 
L 1100 2403 
z
" transform="scale(0.015625)"/>
       </defs>
       <use xlink:href="#ArialMT-42"/>
       <use xlink:href="#ArialMT-50" x="66.699219"/>
       <use xlink:href="#ArialMT-20" x="131.648438"/>
       <use xlink:href="#ArialMT-31" x="159.431641"/>
      </g>
     </g>
    </g>
    <g id="xtick_3">
     <g id="line2d_3">
      <g>
       <use xlink:href="#mf58d1cb094" x="207.69625" y="356.031562" style="fill: #262626; stroke: #262626; stroke-width: 0.8"/>
      </g>
     </g>
     <g id="text_3">
      <!-- TL 2 -->
      <g style="fill: #262626" transform="translate(192.40838 381.975395) rotate(-45) scale(0.1 -0.1)">
       <defs>
        <path id="ArialMT-32" d="M 3222 541 
L 3222 0 
L 194 0 
Q 188 203 259 391 
Q 375 700 629 1000 
Q 884 1300 1366 1694 
Q 2113 2306 2375 2664 
Q 2638 3022 2638 3341 
Q 2638 3675 2398 3904 
Q 2159 4134 1775 4134 
Q 1369 4134 1125 3890 
Q 881 3647 878 3216 
L 300 3275 
Q 359 3922 746 4261 
Q 1134 4600 1788 4600 
Q 2447 4600 2831 4234 
Q 3216 3869 3216 3328 
Q 3216 3053 3103 2787 
Q 2991 2522 2730 2228 
Q 2469 1934 1863 1422 
Q 1356 997 1212 845 
Q 1069 694 975 541 
L 3222 541 
z
" transform="scale(0.015625)"/>
       </defs>
       <use xlink:href="#ArialMT-54"/>
       <use xlink:href="#ArialMT-4c" x="61.083984"/>
       <use xlink:href="#ArialMT-20" x="112.949219"/>
       <use xlink:href="#ArialMT-32" x="140.732422"/>
      </g>
     </g>
    </g>
    <g id="xtick_4">
     <g id="line2d_4">
      <g>
       <use xlink:href="#mf58d1cb094" x="274.65625" y="356.031562" style="fill: #262626; stroke: #262626; stroke-width: 0.8"/>
      </g>
     </g>
     <g id="text_4">
      <!-- BP 2 -->
      <g style="fill: #262626" transform="translate(258.044765 383.299011) rotate(-45) scale(0.1 -0.1)">
       <use xlink:href="#ArialMT-42"/>
       <use xlink:href="#ArialMT-50" x="66.699219"/>
       <use xlink:href="#ArialMT-20" x="131.648438"/>
       <use xlink:href="#ArialMT-32" x="159.431641"/>
      </g>
     </g>
    </g>
    <g id="xtick_5">
     <g id="line2d_5">
      <g>
       <use xlink:href="#mf58d1cb094" x="341.61625" y="356.031562" style="fill: #262626; stroke: #262626; stroke-width: 0.8"/>
      </g>
     </g>
     <g id="text_5">
      <!-- TL 3 -->
      <g style="fill: #262626" transform="translate(326.32838 381.975395) rotate(-45) scale(0.1 -0.1)">
       <defs>
        <path id="ArialMT-33" d="M 269 1209 
L 831 1284 
Q 928 806 1161 595 
Q 1394 384 1728 384 
Q 2125 384 2398 659 
Q 2672 934 2672 1341 
Q 2672 1728 2419 1979 
Q 2166 2231 1775 2231 
Q 1616 2231 1378 2169 
L 1441 2663 
Q 1497 2656 1531 2656 
Q 1891 2656 2178 2843 
Q 2466 3031 2466 3422 
Q 2466 3731 2256 3934 
Q 2047 4138 1716 4138 
Q 1388 4138 1169 3931 
Q 950 3725 888 3313 
L 325 3413 
Q 428 3978 793 4289 
Q 1159 4600 1703 4600 
Q 2078 4600 2393 4439 
Q 2709 4278 2876 4000 
Q 3044 3722 3044 3409 
Q 3044 3113 2884 2869 
Q 2725 2625 2413 2481 
Q 2819 2388 3044 2092 
Q 3269 1797 3269 1353 
Q 3269 753 2831 336 
Q 2394 -81 1725 -81 
Q 1122 -81 723 278 
Q 325 638 269 1209 
z
" transform="scale(0.015625)"/>
       </defs>
       <use xlink:href="#ArialMT-54"/>
       <use xlink:href="#ArialMT-4c" x="61.083984"/>
       <use xlink:href="#ArialMT-20" x="112.949219"/>
       <use xlink:href="#ArialMT-33" x="140.732422"/>
      </g>
     </g>
    </g>
    <g id="xtick_6">
     <g id="line2d_6">
      <g>
       <use xlink:href="#mf58d1cb094" x="408.57625" y="356.031562" style="fill: #262626; stroke: #262626; stroke-width: 0.8"/>
      </g>
     </g>
     <g id="text_6">
      <!-- BP 3 -->
      <g style="fill: #262626" transform="translate(391.964765 383.299011) rotate(-45) scale(0.1 -0.1)">
       <use xlink:href="#ArialMT-42"/>
       <use xlink:href="#ArialMT-50" x="66.699219"/>
       <use xlink:href="#ArialMT-20" x="131.648438"/>
       <use xlink:href="#ArialMT-33" x="159.431641"/>
      </g>
     </g>
    </g>
    <g id="xtick_7">
     <g id="line2d_7">
      <g>
       <use xlink:href="#mf58d1cb094" x="475.53625" y="356.031562" style="fill: #262626; stroke: #262626; stroke-width: 0.8"/>
      </g>
     </g>
     <g id="text_7">
      <!-- TL 4 -->
      <g style="fill: #262626" transform="translate(460.24838 381.975395) rotate(-45) scale(0.1 -0.1)">
       <defs>
        <path id="ArialMT-34" d="M 2069 0 
L 2069 1097 
L 81 1097 
L 81 1613 
L 2172 4581 
L 2631 4581 
L 2631 1613 
L 3250 1613 
L 3250 1097 
L 2631 1097 
L 2631 0 
L 2069 0 
z
M 2069 1613 
L 2069 3678 
L 634 1613 
L 2069 1613 
z
" transform="scale(0.015625)"/>
       </defs>
       <use xlink:href="#ArialMT-54"/>
       <use xlink:href="#ArialMT-4c" x="61.083984"/>
       <use xlink:href="#ArialMT-20" x="112.949219"/>
       <use xlink:href="#ArialMT-34" x="140.732422"/>
      </g>
     </g>
    </g>
    <g id="xtick_8">
     <g id="line2d_8">
      <g>
       <use xlink:href="#mf58d1cb094" x="542.49625" y="356.031562" style="fill: #262626; stroke: #262626; stroke-width: 0.8"/>
      </g>
     </g>
     <g id="text_8">
      <!-- BP 4 -->
      <g style="fill: #262626" transform="translate(525.884765 383.299011) rotate(-45) scale(0.1 -0.1)">
       <use xlink:href="#ArialMT-42"/>
       <use xlink:href="#ArialMT-50" x="66.699219"/>
       <use xlink:href="#ArialMT-20" x="131.648438"/>
       <use xlink:href="#ArialMT-34" x="159.431641"/>
      </g>
     </g>
    </g>
    <g id="xtick_9">
     <g id="line2d_9">
      <g>
       <use xlink:href="#mf58d1cb094" x="609.45625" y="356.031562" style="fill: #262626; stroke: #262626; stroke-width: 0.8"/>
      </g>
     </g>
     <g id="text_9">
      <!-- TL 5 -->
      <g style="fill: #262626" transform="translate(594.16838 381.975395) rotate(-45) scale(0.1 -0.1)">
       <defs>
        <path id="ArialMT-35" d="M 266 1200 
L 856 1250 
Q 922 819 1161 601 
Q 1400 384 1738 384 
Q 2144 384 2425 690 
Q 2706 997 2706 1503 
Q 2706 1984 2436 2262 
Q 2166 2541 1728 2541 
Q 1456 2541 1237 2417 
Q 1019 2294 894 2097 
L 366 2166 
L 809 4519 
L 3088 4519 
L 3088 3981 
L 1259 3981 
L 1013 2750 
Q 1425 3038 1878 3038 
Q 2478 3038 2890 2622 
Q 3303 2206 3303 1553 
Q 3303 931 2941 478 
Q 2500 -78 1738 -78 
Q 1113 -78 717 272 
Q 322 622 266 1200 
z
" transform="scale(0.015625)"/>
       </defs>
       <use xlink:href="#ArialMT-54"/>
       <use xlink:href="#ArialMT-4c" x="61.083984"/>
       <use xlink:href="#ArialMT-20" x="112.949219"/>
       <use xlink:href="#ArialMT-35" x="140.732422"/>
      </g>
     </g>
    </g>
    <g id="xtick_10">
     <g id="line2d_10">
      <g>
       <use xlink:href="#mf58d1cb094" x="676.41625" y="356.031562" style="fill: #262626; stroke: #262626; stroke-width: 0.8"/>
      </g>
     </g>
     <g id="text_10">
      <!-- BP 5 -->
      <g style="fill: #262626" transform="translate(659.804765 383.299011) rotate(-45) scale(0.1 -0.1)">
       <use xlink:href="#ArialMT-42"/>
       <use xlink:href="#ArialMT-50" x="66.699219"/>
       <use xlink:href="#ArialMT-20" x="131.648438"/>
       <use xlink:href="#ArialMT-35" x="159.431641"/>
      </g>
     </g>
    </g>
    <g id="text_11">
     <!-- Component -->
     <g style="fill: #262626" transform="translate(344.079063 397.44001) scale(0.12 -0.12)">
      <defs>
       <path id="ArialMT-43" d="M 3763 1606 
L 4369 1453 
Q 4178 706 3683 314 
Q 3188 -78 2472 -78 
Q 1731 -78 1267 223 
Q 803 525 561 1097 
Q 319 1669 319 2325 
Q 319 3041 592 3573 
Q 866 4106 1370 4382 
Q 1875 4659 2481 4659 
Q 3169 4659 3637 4309 
Q 4106 3959 4291 3325 
L 3694 3184 
Q 3534 3684 3231 3912 
Q 2928 4141 2469 4141 
Q 1941 4141 1586 3887 
Q 1231 3634 1087 3207 
Q 944 2781 944 2328 
Q 944 1744 1114 1308 
Q 1284 872 1643 656 
Q 2003 441 2422 441 
Q 2931 441 3284 734 
Q 3638 1028 3763 1606 
z
" transform="scale(0.015625)"/>
       <path id="ArialMT-6f" d="M 213 1659 
Q 213 2581 725 3025 
Q 1153 3394 1769 3394 
Q 2453 3394 2887 2945 
Q 3322 2497 3322 1706 
Q 3322 1066 3130 698 
Q 2938 331 2570 128 
Q 2203 -75 1769 -75 
Q 1072 -75 642 372 
Q 213 819 213 1659 
z
M 791 1659 
Q 791 1022 1069 705 
Q 1347 388 1769 388 
Q 2188 388 2466 706 
Q 2744 1025 2744 1678 
Q 2744 2294 2464 2611 
Q 2184 2928 1769 2928 
Q 1347 2928 1069 2612 
Q 791 2297 791 1659 
z
" transform="scale(0.015625)"/>
       <path id="ArialMT-6d" d="M 422 0 
L 422 3319 
L 925 3319 
L 925 2853 
Q 1081 3097 1340 3245 
Q 1600 3394 1931 3394 
Q 2300 3394 2536 3241 
Q 2772 3088 2869 2813 
Q 3263 3394 3894 3394 
Q 4388 3394 4653 3120 
Q 4919 2847 4919 2278 
L 4919 0 
L 4359 0 
L 4359 2091 
Q 4359 2428 4304 2576 
Q 4250 2725 4106 2815 
Q 3963 2906 3769 2906 
Q 3419 2906 3187 2673 
Q 2956 2441 2956 1928 
L 2956 0 
L 2394 0 
L 2394 2156 
Q 2394 2531 2256 2718 
Q 2119 2906 1806 2906 
Q 1569 2906 1367 2781 
Q 1166 2656 1075 2415 
Q 984 2175 984 1722 
L 984 0 
L 422 0 
z
" transform="scale(0.015625)"/>
       <path id="ArialMT-70" d="M 422 -1272 
L 422 3319 
L 934 3319 
L 934 2888 
Q 1116 3141 1344 3267 
Q 1572 3394 1897 3394 
Q 2322 3394 2647 3175 
Q 2972 2956 3137 2557 
Q 3303 2159 3303 1684 
Q 3303 1175 3120 767 
Q 2938 359 2589 142 
Q 2241 -75 1856 -75 
Q 1575 -75 1351 44 
Q 1128 163 984 344 
L 984 -1272 
L 422 -1272 
z
M 931 1641 
Q 931 1000 1190 694 
Q 1450 388 1819 388 
Q 2194 388 2461 705 
Q 2728 1022 2728 1688 
Q 2728 2322 2467 2637 
Q 2206 2953 1844 2953 
Q 1484 2953 1207 2617 
Q 931 2281 931 1641 
z
" transform="scale(0.015625)"/>
       <path id="ArialMT-6e" d="M 422 0 
L 422 3319 
L 928 3319 
L 928 2847 
Q 1294 3394 1984 3394 
Q 2284 3394 2536 3286 
Q 2788 3178 2913 3003 
Q 3038 2828 3088 2588 
Q 3119 2431 3119 2041 
L 3119 0 
L 2556 0 
L 2556 2019 
Q 2556 2363 2490 2533 
Q 2425 2703 2258 2804 
Q 2091 2906 1866 2906 
Q 1506 2906 1245 2678 
Q 984 2450 984 1813 
L 984 0 
L 422 0 
z
" transform="scale(0.015625)"/>
       <path id="ArialMT-65" d="M 2694 1069 
L 3275 997 
Q 3138 488 2766 206 
Q 2394 -75 1816 -75 
Q 1088 -75 661 373 
Q 234 822 234 1631 
Q 234 2469 665 2931 
Q 1097 3394 1784 3394 
Q 2450 3394 2872 2941 
Q 3294 2488 3294 1666 
Q 3294 1616 3291 1516 
L 816 1516 
Q 847 969 1125 678 
Q 1403 388 1819 388 
Q 2128 388 2347 550 
Q 2566 713 2694 1069 
z
M 847 1978 
L 2700 1978 
Q 2663 2397 2488 2606 
Q 2219 2931 1791 2931 
Q 1403 2931 1139 2672 
Q 875 2413 847 1978 
z
" transform="scale(0.015625)"/>
       <path id="ArialMT-74" d="M 1650 503 
L 1731 6 
Q 1494 -44 1306 -44 
Q 1000 -44 831 53 
Q 663 150 594 308 
Q 525 466 525 972 
L 525 2881 
L 113 2881 
L 113 3319 
L 525 3319 
L 525 4141 
L 1084 4478 
L 1084 3319 
L 1650 3319 
L 1650 2881 
L 1084 2881 
L 1084 941 
Q 1084 700 1114 631 
Q 1144 563 1211 522 
Q 1278 481 1403 481 
Q 1497 481 1650 503 
z
" transform="scale(0.015625)"/>
      </defs>
      <use xlink:href="#ArialMT-43"/>
      <use xlink:href="#ArialMT-6f" x="72.216797"/>
      <use xlink:href="#ArialMT-6d" x="127.832031"/>
      <use xlink:href="#ArialMT-70" x="211.132812"/>
      <use xlink:href="#ArialMT-6f" x="266.748047"/>
      <use xlink:href="#ArialMT-6e" x="322.363281"/>
      <use xlink:href="#ArialMT-65" x="377.978516"/>
      <use xlink:href="#ArialMT-6e" x="433.59375"/>
      <use xlink:href="#ArialMT-74" x="489.208984"/>
     </g>
    </g>
   </g>
   <g id="matplotlib.axis_2">
    <g id="ytick_1">
     <g id="line2d_11">
      <defs>
       <path id="m81aa6cb19a" d="M 0 0 
L -3.5 0 
" style="stroke: #262626; stroke-width: 0.8"/>
      </defs>
      <g>
       <use xlink:href="#m81aa6cb19a" x="40.29625" y="324.934288" style="fill: #262626; stroke: #262626; stroke-width: 0.8"/>
      </g>
     </g>
     <g id="text_12">
      <!-- 0 -->
      <g style="fill: #262626" transform="translate(27.735313 328.513194) scale(0.1 -0.1)">
       <defs>
        <path id="ArialMT-30" d="M 266 2259 
Q 266 3072 433 3567 
Q 600 4063 929 4331 
Q 1259 4600 1759 4600 
Q 2128 4600 2406 4451 
Q 2684 4303 2865 4023 
Q 3047 3744 3150 3342 
Q 3253 2941 3253 2259 
Q 3253 1453 3087 958 
Q 2922 463 2592 192 
Q 2263 -78 1759 -78 
Q 1097 -78 719 397 
Q 266 969 266 2259 
z
M 844 2259 
Q 844 1131 1108 757 
Q 1372 384 1759 384 
Q 2147 384 2411 759 
Q 2675 1134 2675 2259 
Q 2675 3391 2411 3762 
Q 2147 4134 1753 4134 
Q 1366 4134 1134 3806 
Q 844 3388 844 2259 
z
" transform="scale(0.015625)"/>
       </defs>
       <use xlink:href="#ArialMT-30"/>
      </g>
     </g>
    </g>
    <g id="ytick_2">
     <g id="line2d_12">
      <g>
       <use xlink:href="#m81aa6cb19a" x="40.29625" y="285.930287" style="fill: #262626; stroke: #262626; stroke-width: 0.8"/>
      </g>
     </g>
     <g id="text_13">
      <!-- 2 -->
      <g style="fill: #262626" transform="translate(27.735313 289.509193) scale(0.1 -0.1)">
       <use xlink:href="#ArialMT-32"/>
      </g>
     </g>
    </g>
    <g id="ytick_3">
     <g id="line2d_13">
      <g>
       <use xlink:href="#m81aa6cb19a" x="40.29625" y="246.926286" style="fill: #262626; stroke: #262626; stroke-width: 0.8"/>
      </g>
     </g>
     <g id="text_14">
      <!-- 4 -->
      <g style="fill: #262626" transform="translate(27.735313 250.505193) scale(0.1 -0.1)">
       <use xlink:href="#ArialMT-34"/>
      </g>
     </g>
    </g>
    <g id="ytick_4">
     <g id="line2d_14">
      <g>
       <use xlink:href="#m81aa6cb19a" x="40.29625" y="207.922285" style="fill: #262626; stroke: #262626; stroke-width: 0.8"/>
      </g>
     </g>
     <g id="text_15">
      <!-- 6 -->
      <g style="fill: #262626" transform="translate(27.735313 211.501192) scale(0.1 -0.1)">
       <defs>
        <path id="ArialMT-36" d="M 3184 3459 
L 2625 3416 
Q 2550 3747 2413 3897 
Q 2184 4138 1850 4138 
Q 1581 4138 1378 3988 
Q 1113 3794 959 3422 
Q 806 3050 800 2363 
Q 1003 2672 1297 2822 
Q 1591 2972 1913 2972 
Q 2475 2972 2870 2558 
Q 3266 2144 3266 1488 
Q 3266 1056 3080 686 
Q 2894 316 2569 119 
Q 2244 -78 1831 -78 
Q 1128 -78 684 439 
Q 241 956 241 2144 
Q 241 3472 731 4075 
Q 1159 4600 1884 4600 
Q 2425 4600 2770 4297 
Q 3116 3994 3184 3459 
z
M 888 1484 
Q 888 1194 1011 928 
Q 1134 663 1356 523 
Q 1578 384 1822 384 
Q 2178 384 2434 671 
Q 2691 959 2691 1453 
Q 2691 1928 2437 2201 
Q 2184 2475 1800 2475 
Q 1419 2475 1153 2201 
Q 888 1928 888 1484 
z
" transform="scale(0.015625)"/>
       </defs>
       <use xlink:href="#ArialMT-36"/>
      </g>
     </g>
    </g>
    <g id="ytick_5">
     <g id="line2d_15">
      <g>
       <use xlink:href="#m81aa6cb19a" x="40.29625" y="168.918285" style="fill: #262626; stroke: #262626; stroke-width: 0.8"/>
      </g>
     </g>
     <g id="text_16">
      <!-- 8 -->
      <g style="fill: #262626" transform="translate(27.735313 172.497191) scale(0.1 -0.1)">
       <defs>
        <path id="ArialMT-38" d="M 1131 2484 
Q 781 2613 612 2850 
Q 444 3088 444 3419 
Q 444 3919 803 4259 
Q 1163 4600 1759 4600 
Q 2359 4600 2725 4251 
Q 3091 3903 3091 3403 
Q 3091 3084 2923 2848 
Q 2756 2613 2416 2484 
Q 2838 2347 3058 2040 
Q 3278 1734 3278 1309 
Q 3278 722 2862 322 
Q 2447 -78 1769 -78 
Q 1091 -78 675 323 
Q 259 725 259 1325 
Q 259 1772 486 2073 
Q 713 2375 1131 2484 
z
M 1019 3438 
Q 1019 3113 1228 2906 
Q 1438 2700 1772 2700 
Q 2097 2700 2305 2904 
Q 2513 3109 2513 3406 
Q 2513 3716 2298 3927 
Q 2084 4138 1766 4138 
Q 1444 4138 1231 3931 
Q 1019 3725 1019 3438 
z
M 838 1322 
Q 838 1081 952 856 
Q 1066 631 1291 507 
Q 1516 384 1775 384 
Q 2178 384 2440 643 
Q 2703 903 2703 1303 
Q 2703 1709 2433 1975 
Q 2163 2241 1756 2241 
Q 1359 2241 1098 1978 
Q 838 1716 838 1322 
z
" transform="scale(0.015625)"/>
       </defs>
       <use xlink:href="#ArialMT-38"/>
      </g>
     </g>
    </g>
    <g id="ytick_6">
     <g id="line2d_16">
      <g>
       <use xlink:href="#m81aa6cb19a" x="40.29625" y="129.914284" style="fill: #262626; stroke: #262626; stroke-width: 0.8"/>
      </g>
     </g>
     <g id="text_17">
      <!-- 10 -->
      <g style="fill: #262626" transform="translate(22.174375 133.49319) scale(0.1 -0.1)">
       <use xlink:href="#ArialMT-31"/>
       <use xlink:href="#ArialMT-30" x="55.615234"/>
      </g>
     </g>
    </g>
    <g id="ytick_7">
     <g id="line2d_17">
      <g>
       <use xlink:href="#m81aa6cb19a" x="40.29625" y="90.910283" style="fill: #262626; stroke: #262626; stroke-width: 0.8"/>
      </g>
     </g>
     <g id="text_18">
      <!-- 12 -->
      <g style="fill: #262626" transform="translate(22.174375 94.489189) scale(0.1 -0.1)">
       <use xlink:href="#ArialMT-31"/>
       <use xlink:href="#ArialMT-32" x="55.615234"/>
      </g>
     </g>
    </g>
    <g id="ytick_8">
     <g id="line2d_18">
      <g>
       <use xlink:href="#m81aa6cb19a" x="40.29625" y="51.906282" style="fill: #262626; stroke: #262626; stroke-width: 0.8"/>
      </g>
     </g>
     <g id="text_19">
      <!-- 14 -->
      <g style="fill: #262626" transform="translate(22.174375 55.485188) scale(0.1 -0.1)">
       <use xlink:href="#ArialMT-31"/>
       <use xlink:href="#ArialMT-34" x="55.615234"/>
      </g>
     </g>
    </g>
    <g id="text_20">
     <!-- Corrected Euclidean Distance -->
     <g style="fill: #262626" transform="translate(15.789375 269.08125) rotate(-90) scale(0.12 -0.12)">
      <defs>
       <path id="ArialMT-72" d="M 416 0 
L 416 3319 
L 922 3319 
L 922 2816 
Q 1116 3169 1280 3281 
Q 1444 3394 1641 3394 
Q 1925 3394 2219 3213 
L 2025 2691 
Q 1819 2813 1613 2813 
Q 1428 2813 1281 2702 
Q 1134 2591 1072 2394 
Q 978 2094 978 1738 
L 978 0 
L 416 0 
z
" transform="scale(0.015625)"/>
       <path id="ArialMT-63" d="M 2588 1216 
L 3141 1144 
Q 3050 572 2676 248 
Q 2303 -75 1759 -75 
Q 1078 -75 664 370 
Q 250 816 250 1647 
Q 250 2184 428 2587 
Q 606 2991 970 3192 
Q 1334 3394 1763 3394 
Q 2303 3394 2647 3120 
Q 2991 2847 3088 2344 
L 2541 2259 
Q 2463 2594 2264 2762 
Q 2066 2931 1784 2931 
Q 1359 2931 1093 2626 
Q 828 2322 828 1663 
Q 828 994 1084 691 
Q 1341 388 1753 388 
Q 2084 388 2306 591 
Q 2528 794 2588 1216 
z
" transform="scale(0.015625)"/>
       <path id="ArialMT-64" d="M 2575 0 
L 2575 419 
Q 2259 -75 1647 -75 
Q 1250 -75 917 144 
Q 584 363 401 755 
Q 219 1147 219 1656 
Q 219 2153 384 2558 
Q 550 2963 881 3178 
Q 1213 3394 1622 3394 
Q 1922 3394 2156 3267 
Q 2391 3141 2538 2938 
L 2538 4581 
L 3097 4581 
L 3097 0 
L 2575 0 
z
M 797 1656 
Q 797 1019 1065 703 
Q 1334 388 1700 388 
Q 2069 388 2326 689 
Q 2584 991 2584 1609 
Q 2584 2291 2321 2609 
Q 2059 2928 1675 2928 
Q 1300 2928 1048 2622 
Q 797 2316 797 1656 
z
" transform="scale(0.015625)"/>
       <path id="ArialMT-45" d="M 506 0 
L 506 4581 
L 3819 4581 
L 3819 4041 
L 1113 4041 
L 1113 2638 
L 3647 2638 
L 3647 2100 
L 1113 2100 
L 1113 541 
L 3925 541 
L 3925 0 
L 506 0 
z
" transform="scale(0.015625)"/>
       <path id="ArialMT-75" d="M 2597 0 
L 2597 488 
Q 2209 -75 1544 -75 
Q 1250 -75 995 37 
Q 741 150 617 320 
Q 494 491 444 738 
Q 409 903 409 1263 
L 409 3319 
L 972 3319 
L 972 1478 
Q 972 1038 1006 884 
Q 1059 663 1231 536 
Q 1403 409 1656 409 
Q 1909 409 2131 539 
Q 2353 669 2445 892 
Q 2538 1116 2538 1541 
L 2538 3319 
L 3100 3319 
L 3100 0 
L 2597 0 
z
" transform="scale(0.015625)"/>
       <path id="ArialMT-6c" d="M 409 0 
L 409 4581 
L 972 4581 
L 972 0 
L 409 0 
z
" transform="scale(0.015625)"/>
       <path id="ArialMT-69" d="M 425 3934 
L 425 4581 
L 988 4581 
L 988 3934 
L 425 3934 
z
M 425 0 
L 425 3319 
L 988 3319 
L 988 0 
L 425 0 
z
" transform="scale(0.015625)"/>
       <path id="ArialMT-61" d="M 2588 409 
Q 2275 144 1986 34 
Q 1697 -75 1366 -75 
Q 819 -75 525 192 
Q 231 459 231 875 
Q 231 1119 342 1320 
Q 453 1522 633 1644 
Q 813 1766 1038 1828 
Q 1203 1872 1538 1913 
Q 2219 1994 2541 2106 
Q 2544 2222 2544 2253 
Q 2544 2597 2384 2738 
Q 2169 2928 1744 2928 
Q 1347 2928 1158 2789 
Q 969 2650 878 2297 
L 328 2372 
Q 403 2725 575 2942 
Q 747 3159 1072 3276 
Q 1397 3394 1825 3394 
Q 2250 3394 2515 3294 
Q 2781 3194 2906 3042 
Q 3031 2891 3081 2659 
Q 3109 2516 3109 2141 
L 3109 1391 
Q 3109 606 3145 398 
Q 3181 191 3288 0 
L 2700 0 
Q 2613 175 2588 409 
z
M 2541 1666 
Q 2234 1541 1622 1453 
Q 1275 1403 1131 1340 
Q 988 1278 909 1158 
Q 831 1038 831 891 
Q 831 666 1001 516 
Q 1172 366 1500 366 
Q 1825 366 2078 508 
Q 2331 650 2450 897 
Q 2541 1088 2541 1459 
L 2541 1666 
z
" transform="scale(0.015625)"/>
       <path id="ArialMT-44" d="M 494 0 
L 494 4581 
L 2072 4581 
Q 2606 4581 2888 4516 
Q 3281 4425 3559 4188 
Q 3922 3881 4101 3404 
Q 4281 2928 4281 2316 
Q 4281 1794 4159 1391 
Q 4038 988 3847 723 
Q 3656 459 3429 307 
Q 3203 156 2883 78 
Q 2563 0 2147 0 
L 494 0 
z
M 1100 541 
L 2078 541 
Q 2531 541 2789 625 
Q 3047 709 3200 863 
Q 3416 1078 3536 1442 
Q 3656 1806 3656 2325 
Q 3656 3044 3420 3430 
Q 3184 3816 2847 3947 
Q 2603 4041 2063 4041 
L 1100 4041 
L 1100 541 
z
" transform="scale(0.015625)"/>
       <path id="ArialMT-73" d="M 197 991 
L 753 1078 
Q 800 744 1014 566 
Q 1228 388 1613 388 
Q 2000 388 2187 545 
Q 2375 703 2375 916 
Q 2375 1106 2209 1216 
Q 2094 1291 1634 1406 
Q 1016 1563 777 1677 
Q 538 1791 414 1992 
Q 291 2194 291 2438 
Q 291 2659 392 2848 
Q 494 3038 669 3163 
Q 800 3259 1026 3326 
Q 1253 3394 1513 3394 
Q 1903 3394 2198 3281 
Q 2494 3169 2634 2976 
Q 2775 2784 2828 2463 
L 2278 2388 
Q 2241 2644 2061 2787 
Q 1881 2931 1553 2931 
Q 1166 2931 1000 2803 
Q 834 2675 834 2503 
Q 834 2394 903 2306 
Q 972 2216 1119 2156 
Q 1203 2125 1616 2013 
Q 2213 1853 2448 1751 
Q 2684 1650 2818 1456 
Q 2953 1263 2953 975 
Q 2953 694 2789 445 
Q 2625 197 2315 61 
Q 2006 -75 1616 -75 
Q 969 -75 630 194 
Q 291 463 197 991 
z
" transform="scale(0.015625)"/>
      </defs>
      <use xlink:href="#ArialMT-43"/>
      <use xlink:href="#ArialMT-6f" x="72.216797"/>
      <use xlink:href="#ArialMT-72" x="127.832031"/>
      <use xlink:href="#ArialMT-72" x="161.132812"/>
      <use xlink:href="#ArialMT-65" x="194.433594"/>
      <use xlink:href="#ArialMT-63" x="250.048828"/>
      <use xlink:href="#ArialMT-74" x="300.048828"/>
      <use xlink:href="#ArialMT-65" x="327.832031"/>
      <use xlink:href="#ArialMT-64" x="383.447266"/>
      <use xlink:href="#ArialMT-20" x="439.0625"/>
      <use xlink:href="#ArialMT-45" x="466.845703"/>
      <use xlink:href="#ArialMT-75" x="533.544922"/>
      <use xlink:href="#ArialMT-63" x="589.160156"/>
      <use xlink:href="#ArialMT-6c" x="639.160156"/>
      <use xlink:href="#ArialMT-69" x="661.376953"/>
      <use xlink:href="#ArialMT-64" x="683.59375"/>
      <use xlink:href="#ArialMT-65" x="739.208984"/>
      <use xlink:href="#ArialMT-61" x="794.824219"/>
      <use xlink:href="#ArialMT-6e" x="850.439453"/>
      <use xlink:href="#ArialMT-20" x="906.054688"/>
      <use xlink:href="#ArialMT-44" x="933.837891"/>
      <use xlink:href="#ArialMT-69" x="1006.054688"/>
      <use xlink:href="#ArialMT-73" x="1028.271484"/>
      <use xlink:href="#ArialMT-74" x="1078.271484"/>
      <use xlink:href="#ArialMT-61" x="1106.054688"/>
      <use xlink:href="#ArialMT-6e" x="1161.669922"/>
      <use xlink:href="#ArialMT-63" x="1217.285156"/>
      <use xlink:href="#ArialMT-65" x="1267.285156"/>
     </g>
    </g>
   </g>
   <g id="patch_3">
    <path d="M 60.38425 334.417684 
L 87.16825 334.417684 
L 87.16825 323.090006 
L 60.38425 323.090006 
L 60.38425 334.417684 
z
" clip-path="url(#p35a8830c15)" style="fill: #0c580c; stroke: #1e1e1e; stroke-linejoin: miter"/>
   </g>
   <g id="line2d_19">
    <path d="M 73.77625 334.417684 
L 73.77625 337.707433 
" clip-path="url(#p35a8830c15)" style="fill: none; stroke: #1e1e1e"/>
   </g>
   <g id="line2d_20">
    <path d="M 73.77625 323.090006 
L 73.77625 307.634001 
" clip-path="url(#p35a8830c15)" style="fill: none; stroke: #1e1e1e"/>
   </g>
   <g id="line2d_21">
    <path d="M 67.08025 337.707433 
L 80.47225 337.707433 
" clip-path="url(#p35a8830c15)" style="fill: none; stroke: #1e1e1e; stroke-linecap: round"/>
   </g>
   <g id="line2d_22">
    <path d="M 67.08025 307.634001 
L 80.47225 307.634001 
" clip-path="url(#p35a8830c15)" style="fill: none; stroke: #1e1e1e; stroke-linecap: round"/>
   </g>
   <g id="patch_4">
    <path d="M 127.34425 253.375871 
L 154.12825 253.375871 
L 154.12825 173.159355 
L 127.34425 173.159355 
L 127.34425 253.375871 
z
" clip-path="url(#p35a8830c15)" style="fill: #2020df; stroke: #1e1e1e; stroke-linejoin: miter"/>
   </g>
   <g id="line2d_23">
    <path d="M 140.73625 253.375871 
L 140.73625 299.695008 
" clip-path="url(#p35a8830c15)" style="fill: none; stroke: #1e1e1e"/>
   </g>
   <g id="line2d_24">
    <path d="M 140.73625 173.159355 
L 140.73625 105.949882 
" clip-path="url(#p35a8830c15)" style="fill: none; stroke: #1e1e1e"/>
   </g>
   <g id="line2d_25">
    <path d="M 134.04025 299.695008 
L 147.43225 299.695008 
" clip-path="url(#p35a8830c15)" style="fill: none; stroke: #1e1e1e; stroke-linecap: round"/>
   </g>
   <g id="line2d_26">
    <path d="M 134.04025 105.949882 
L 147.43225 105.949882 
" clip-path="url(#p35a8830c15)" style="fill: none; stroke: #1e1e1e; stroke-linecap: round"/>
   </g>
   <g id="patch_5">
    <path d="M 194.30425 334.566535 
L 221.08825 334.566535 
L 221.08825 319.563521 
L 194.30425 319.563521 
L 194.30425 334.566535 
z
" clip-path="url(#p35a8830c15)" style="fill: #0c580c; stroke: #1e1e1e; stroke-linejoin: miter"/>
   </g>
   <g id="line2d_27">
    <path d="M 207.69625 334.566535 
L 207.69625 340.911562 
" clip-path="url(#p35a8830c15)" style="fill: none; stroke: #1e1e1e"/>
   </g>
   <g id="line2d_28">
    <path d="M 207.69625 319.563521 
L 207.69625 303.774206 
" clip-path="url(#p35a8830c15)" style="fill: none; stroke: #1e1e1e"/>
   </g>
   <g id="line2d_29">
    <path d="M 201.00025 340.911562 
L 214.39225 340.911562 
" clip-path="url(#p35a8830c15)" style="fill: none; stroke: #1e1e1e; stroke-linecap: round"/>
   </g>
   <g id="line2d_30">
    <path d="M 201.00025 303.774206 
L 214.39225 303.774206 
" clip-path="url(#p35a8830c15)" style="fill: none; stroke: #1e1e1e; stroke-linecap: round"/>
   </g>
   <g id="patch_6">
    <path d="M 261.26425 235.372151 
L 288.04825 235.372151 
L 288.04825 132.99522 
L 261.26425 132.99522 
L 261.26425 235.372151 
z
" clip-path="url(#p35a8830c15)" style="fill: #2020df; stroke: #1e1e1e; stroke-linejoin: miter"/>
   </g>
   <g id="line2d_31">
    <path d="M 274.65625 235.372151 
L 274.65625 298.010287 
" clip-path="url(#p35a8830c15)" style="fill: none; stroke: #1e1e1e"/>
   </g>
   <g id="line2d_32">
    <path d="M 274.65625 132.99522 
L 274.65625 38.511562 
" clip-path="url(#p35a8830c15)" style="fill: none; stroke: #1e1e1e"/>
   </g>
   <g id="line2d_33">
    <path d="M 267.96025 298.010287 
L 281.35225 298.010287 
" clip-path="url(#p35a8830c15)" style="fill: none; stroke: #1e1e1e; stroke-linecap: round"/>
   </g>
   <g id="line2d_34">
    <path d="M 267.96025 38.511562 
L 281.35225 38.511562 
" clip-path="url(#p35a8830c15)" style="fill: none; stroke: #1e1e1e; stroke-linecap: round"/>
   </g>
   <g id="patch_7">
    <path d="M 328.22425 310.324668 
L 355.00825 310.324668 
L 355.00825 302.585578 
L 328.22425 302.585578 
L 328.22425 310.324668 
z
" clip-path="url(#p35a8830c15)" style="fill: #0c580c; stroke: #1e1e1e; stroke-linejoin: miter"/>
   </g>
   <g id="line2d_35">
    <path d="M 341.61625 310.324668 
L 341.61625 317.381487 
" clip-path="url(#p35a8830c15)" style="fill: none; stroke: #1e1e1e"/>
   </g>
   <g id="line2d_36">
    <path d="M 341.61625 302.585578 
L 341.61625 291.15092 
" clip-path="url(#p35a8830c15)" style="fill: none; stroke: #1e1e1e"/>
   </g>
   <g id="line2d_37">
    <path d="M 334.92025 317.381487 
L 348.31225 317.381487 
" clip-path="url(#p35a8830c15)" style="fill: none; stroke: #1e1e1e; stroke-linecap: round"/>
   </g>
   <g id="line2d_38">
    <path d="M 334.92025 291.15092 
L 348.31225 291.15092 
" clip-path="url(#p35a8830c15)" style="fill: none; stroke: #1e1e1e; stroke-linecap: round"/>
   </g>
   <g id="patch_8">
    <path d="M 395.18425 242.311461 
L 421.96825 242.311461 
L 421.96825 139.821138 
L 395.18425 139.821138 
L 395.18425 242.311461 
z
" clip-path="url(#p35a8830c15)" style="fill: #2020df; stroke: #1e1e1e; stroke-linejoin: miter"/>
   </g>
   <g id="line2d_39">
    <path d="M 408.57625 242.311461 
L 408.57625 304.94655 
" clip-path="url(#p35a8830c15)" style="fill: none; stroke: #1e1e1e"/>
   </g>
   <g id="line2d_40">
    <path d="M 408.57625 139.821138 
L 408.57625 41.930852 
" clip-path="url(#p35a8830c15)" style="fill: none; stroke: #1e1e1e"/>
   </g>
   <g id="line2d_41">
    <path d="M 401.88025 304.94655 
L 415.27225 304.94655 
" clip-path="url(#p35a8830c15)" style="fill: none; stroke: #1e1e1e; stroke-linecap: round"/>
   </g>
   <g id="line2d_42">
    <path d="M 401.88025 41.930852 
L 415.27225 41.930852 
" clip-path="url(#p35a8830c15)" style="fill: none; stroke: #1e1e1e; stroke-linecap: round"/>
   </g>
   <g id="patch_9">
    <path d="M 462.14425 308.267217 
L 488.92825 308.267217 
L 488.92825 297.44007 
L 462.14425 297.44007 
L 462.14425 308.267217 
z
" clip-path="url(#p35a8830c15)" style="fill: #0c580c; stroke: #1e1e1e; stroke-linejoin: miter"/>
   </g>
   <g id="line2d_43">
    <path d="M 475.53625 308.267217 
L 475.53625 312.24472 
" clip-path="url(#p35a8830c15)" style="fill: none; stroke: #1e1e1e"/>
   </g>
   <g id="line2d_44">
    <path d="M 475.53625 297.44007 
L 475.53625 293.93958 
" clip-path="url(#p35a8830c15)" style="fill: none; stroke: #1e1e1e"/>
   </g>
   <g id="line2d_45">
    <path d="M 468.84025 312.24472 
L 482.23225 312.24472 
" clip-path="url(#p35a8830c15)" style="fill: none; stroke: #1e1e1e; stroke-linecap: round"/>
   </g>
   <g id="line2d_46">
    <path d="M 468.84025 293.93958 
L 482.23225 293.93958 
" clip-path="url(#p35a8830c15)" style="fill: none; stroke: #1e1e1e; stroke-linecap: round"/>
   </g>
   <g id="patch_10">
    <path d="M 529.10425 239.256728 
L 555.88825 239.256728 
L 555.88825 145.260025 
L 529.10425 145.260025 
L 529.10425 239.256728 
z
" clip-path="url(#p35a8830c15)" style="fill: #2020df; stroke: #1e1e1e; stroke-linejoin: miter"/>
   </g>
   <g id="line2d_47">
    <path d="M 542.49625 239.256728 
L 542.49625 294.910335 
" clip-path="url(#p35a8830c15)" style="fill: none; stroke: #1e1e1e"/>
   </g>
   <g id="line2d_48">
    <path d="M 542.49625 145.260025 
L 542.49625 46.071972 
" clip-path="url(#p35a8830c15)" style="fill: none; stroke: #1e1e1e"/>
   </g>
   <g id="line2d_49">
    <path d="M 535.80025 294.910335 
L 549.19225 294.910335 
" clip-path="url(#p35a8830c15)" style="fill: none; stroke: #1e1e1e; stroke-linecap: round"/>
   </g>
   <g id="line2d_50">
    <path d="M 535.80025 46.071972 
L 549.19225 46.071972 
" clip-path="url(#p35a8830c15)" style="fill: none; stroke: #1e1e1e; stroke-linecap: round"/>
   </g>
   <g id="patch_11">
    <path d="M 596.06425 296.036038 
L 622.84825 296.036038 
L 622.84825 282.942555 
L 596.06425 282.942555 
L 596.06425 296.036038 
z
" clip-path="url(#p35a8830c15)" style="fill: #0c580c; stroke: #1e1e1e; stroke-linejoin: miter"/>
   </g>
   <g id="line2d_51">
    <path d="M 609.45625 296.036038 
L 609.45625 314.335783 
" clip-path="url(#p35a8830c15)" style="fill: none; stroke: #1e1e1e"/>
   </g>
   <g id="line2d_52">
    <path d="M 609.45625 282.942555 
L 609.45625 275.731969 
" clip-path="url(#p35a8830c15)" style="fill: none; stroke: #1e1e1e"/>
   </g>
   <g id="line2d_53">
    <path d="M 602.76025 314.335783 
L 616.15225 314.335783 
" clip-path="url(#p35a8830c15)" style="fill: none; stroke: #1e1e1e; stroke-linecap: round"/>
   </g>
   <g id="line2d_54">
    <path d="M 602.76025 275.731969 
L 616.15225 275.731969 
" clip-path="url(#p35a8830c15)" style="fill: none; stroke: #1e1e1e; stroke-linecap: round"/>
   </g>
   <g id="patch_12">
    <path d="M 663.02425 242.640021 
L 689.80825 242.640021 
L 689.80825 144.496634 
L 663.02425 144.496634 
L 663.02425 242.640021 
z
" clip-path="url(#p35a8830c15)" style="fill: #2020df; stroke: #1e1e1e; stroke-linejoin: miter"/>
   </g>
   <g id="line2d_55">
    <path d="M 676.41625 242.640021 
L 676.41625 297.602896 
" clip-path="url(#p35a8830c15)" style="fill: none; stroke: #1e1e1e"/>
   </g>
   <g id="line2d_56">
    <path d="M 676.41625 144.496634 
L 676.41625 40.048891 
" clip-path="url(#p35a8830c15)" style="fill: none; stroke: #1e1e1e"/>
   </g>
   <g id="line2d_57">
    <path d="M 669.72025 297.602896 
L 683.11225 297.602896 
" clip-path="url(#p35a8830c15)" style="fill: none; stroke: #1e1e1e; stroke-linecap: round"/>
   </g>
   <g id="line2d_58">
    <path d="M 669.72025 40.048891 
L 683.11225 40.048891 
" clip-path="url(#p35a8830c15)" style="fill: none; stroke: #1e1e1e; stroke-linecap: round"/>
   </g>
   <g id="line2d_59">
    <path d="M 60.38425 330.645362 
L 87.16825 330.645362 
" clip-path="url(#p35a8830c15)" style="fill: none; stroke: #1e1e1e"/>
   </g>
   <g id="line2d_60">
    <defs>
     <path id="mc3b9877986" d="M 0 3 
C 0.795609 3 1.55874 2.683901 2.12132 2.12132 
C 2.683901 1.55874 3 0.795609 3 0 
C 3 -0.795609 2.683901 -1.55874 2.12132 -2.12132 
C 1.55874 -2.683901 0.795609 -3 0 -3 
C -0.795609 -3 -1.55874 -2.683901 -2.12132 -2.12132 
C -2.683901 -1.55874 -3 -0.795609 -3 0 
C -3 0.795609 -2.683901 1.55874 -2.12132 2.12132 
C -1.55874 2.683901 -0.795609 3 0 3 
z
" style="stroke: #000000"/>
    </defs>
    <g clip-path="url(#p35a8830c15)">
     <use xlink:href="#mc3b9877986" x="73.77625" y="327.398381" style="fill: #ffffff; stroke: #000000"/>
    </g>
   </g>
   <g id="line2d_61">
    <path d="M 127.34425 242.772152 
L 154.12825 242.772152 
" clip-path="url(#p35a8830c15)" style="fill: none; stroke: #1e1e1e"/>
   </g>
   <g id="line2d_62">
    <g clip-path="url(#p35a8830c15)">
     <use xlink:href="#mc3b9877986" x="140.73625" y="217.027146" style="fill: #ffffff; stroke: #000000"/>
    </g>
   </g>
   <g id="line2d_63">
    <path d="M 194.30425 327.002578 
L 221.08825 327.002578 
" clip-path="url(#p35a8830c15)" style="fill: none; stroke: #1e1e1e"/>
   </g>
   <g id="line2d_64">
    <g clip-path="url(#p35a8830c15)">
     <use xlink:href="#mc3b9877986" x="207.69625" y="324.294717" style="fill: #ffffff; stroke: #000000"/>
    </g>
   </g>
   <g id="line2d_65">
    <path d="M 261.26425 221.418007 
L 288.04825 221.418007 
" clip-path="url(#p35a8830c15)" style="fill: none; stroke: #1e1e1e"/>
   </g>
   <g id="line2d_66">
    <g clip-path="url(#p35a8830c15)">
     <use xlink:href="#mc3b9877986" x="274.65625" y="188.009811" style="fill: #ffffff; stroke: #000000"/>
    </g>
   </g>
   <g id="line2d_67">
    <path d="M 328.22425 302.978948 
L 355.00825 302.978948 
" clip-path="url(#p35a8830c15)" style="fill: none; stroke: #1e1e1e"/>
   </g>
   <g id="line2d_68">
    <g clip-path="url(#p35a8830c15)">
     <use xlink:href="#mc3b9877986" x="341.61625" y="307.923029" style="fill: #ffffff; stroke: #000000"/>
    </g>
   </g>
   <g id="line2d_69">
    <path d="M 395.18425 228.189477 
L 421.96825 228.189477 
" clip-path="url(#p35a8830c15)" style="fill: none; stroke: #1e1e1e"/>
   </g>
   <g id="line2d_70">
    <g clip-path="url(#p35a8830c15)">
     <use xlink:href="#mc3b9877986" x="408.57625" y="193.800296" style="fill: #ffffff; stroke: #000000"/>
    </g>
   </g>
   <g id="line2d_71">
    <path d="M 462.14425 304.394872 
L 488.92825 304.394872 
" clip-path="url(#p35a8830c15)" style="fill: none; stroke: #1e1e1e"/>
   </g>
   <g id="line2d_72">
    <g clip-path="url(#p35a8830c15)">
     <use xlink:href="#mc3b9877986" x="475.53625" y="304.390433" style="fill: #ffffff; stroke: #000000"/>
    </g>
   </g>
   <g id="line2d_73">
    <path d="M 529.10425 230.47261 
L 555.88825 230.47261 
" clip-path="url(#p35a8830c15)" style="fill: none; stroke: #1e1e1e"/>
   </g>
   <g id="line2d_74">
    <g clip-path="url(#p35a8830c15)">
     <use xlink:href="#mc3b9877986" x="542.49625" y="193.408275" style="fill: #ffffff; stroke: #000000"/>
    </g>
   </g>
   <g id="line2d_75">
    <path d="M 596.06425 288.858899 
L 622.84825 288.858899 
" clip-path="url(#p35a8830c15)" style="fill: none; stroke: #1e1e1e"/>
   </g>
   <g id="line2d_76">
    <g clip-path="url(#p35a8830c15)">
     <use xlink:href="#mc3b9877986" x="609.45625" y="289.223813" style="fill: #ffffff; stroke: #000000"/>
    </g>
   </g>
   <g id="line2d_77">
    <path d="M 663.02425 230.196298 
L 689.80825 230.196298 
" clip-path="url(#p35a8830c15)" style="fill: none; stroke: #1e1e1e"/>
   </g>
   <g id="line2d_78">
    <g clip-path="url(#p35a8830c15)">
     <use xlink:href="#mc3b9877986" x="676.41625" y="193.314984" style="fill: #ffffff; stroke: #000000"/>
    </g>
   </g>
   <g id="patch_13">
    <path d="M 40.29625 356.031562 
L 40.29625 23.391562 
" style="fill: none; stroke: #262626; stroke-width: 0.8; stroke-linejoin: miter; stroke-linecap: square"/>
   </g>
   <g id="patch_14">
    <path d="M 709.89625 356.031562 
L 709.89625 23.391562 
" style="fill: none; stroke: #262626; stroke-width: 0.8; stroke-linejoin: miter; stroke-linecap: square"/>
   </g>
   <g id="patch_15">
    <path d="M 40.29625 356.031562 
L 709.89625 356.031562 
" style="fill: none; stroke: #262626; stroke-width: 0.8; stroke-linejoin: miter; stroke-linecap: square"/>
   </g>
   <g id="patch_16">
    <path d="M 40.29625 23.391562 
L 709.89625 23.391562 
" style="fill: none; stroke: #262626; stroke-width: 0.8; stroke-linejoin: miter; stroke-linecap: square"/>
   </g>
   <g id="text_21">
    <!-- CS2 Corrected Distances (TL vs. BP) for First 10 Components -->
    <g style="fill: #262626" transform="translate(182.414688 17.391562) scale(0.14 -0.14)">
     <defs>
      <path id="ArialMT-53" d="M 288 1472 
L 859 1522 
Q 900 1178 1048 958 
Q 1197 738 1509 602 
Q 1822 466 2213 466 
Q 2559 466 2825 569 
Q 3091 672 3220 851 
Q 3350 1031 3350 1244 
Q 3350 1459 3225 1620 
Q 3100 1781 2813 1891 
Q 2628 1963 1997 2114 
Q 1366 2266 1113 2400 
Q 784 2572 623 2826 
Q 463 3081 463 3397 
Q 463 3744 659 4045 
Q 856 4347 1234 4503 
Q 1613 4659 2075 4659 
Q 2584 4659 2973 4495 
Q 3363 4331 3572 4012 
Q 3781 3694 3797 3291 
L 3216 3247 
Q 3169 3681 2898 3903 
Q 2628 4125 2100 4125 
Q 1550 4125 1298 3923 
Q 1047 3722 1047 3438 
Q 1047 3191 1225 3031 
Q 1400 2872 2139 2705 
Q 2878 2538 3153 2413 
Q 3553 2228 3743 1945 
Q 3934 1663 3934 1294 
Q 3934 928 3725 604 
Q 3516 281 3123 101 
Q 2731 -78 2241 -78 
Q 1619 -78 1198 103 
Q 778 284 539 648 
Q 300 1013 288 1472 
z
" transform="scale(0.015625)"/>
      <path id="ArialMT-28" d="M 1497 -1347 
Q 1031 -759 709 28 
Q 388 816 388 1659 
Q 388 2403 628 3084 
Q 909 3875 1497 4659 
L 1900 4659 
Q 1522 4009 1400 3731 
Q 1209 3300 1100 2831 
Q 966 2247 966 1656 
Q 966 153 1900 -1347 
L 1497 -1347 
z
" transform="scale(0.015625)"/>
      <path id="ArialMT-76" d="M 1344 0 
L 81 3319 
L 675 3319 
L 1388 1331 
Q 1503 1009 1600 663 
Q 1675 925 1809 1294 
L 2547 3319 
L 3125 3319 
L 1869 0 
L 1344 0 
z
" transform="scale(0.015625)"/>
      <path id="ArialMT-2e" d="M 581 0 
L 581 641 
L 1222 641 
L 1222 0 
L 581 0 
z
" transform="scale(0.015625)"/>
      <path id="ArialMT-29" d="M 791 -1347 
L 388 -1347 
Q 1322 153 1322 1656 
Q 1322 2244 1188 2822 
Q 1081 3291 891 3722 
Q 769 4003 388 4659 
L 791 4659 
Q 1378 3875 1659 3084 
Q 1900 2403 1900 1659 
Q 1900 816 1576 28 
Q 1253 -759 791 -1347 
z
" transform="scale(0.015625)"/>
      <path id="ArialMT-66" d="M 556 0 
L 556 2881 
L 59 2881 
L 59 3319 
L 556 3319 
L 556 3672 
Q 556 4006 616 4169 
Q 697 4388 901 4523 
Q 1106 4659 1475 4659 
Q 1713 4659 2000 4603 
L 1916 4113 
Q 1741 4144 1584 4144 
Q 1328 4144 1222 4034 
Q 1116 3925 1116 3625 
L 1116 3319 
L 1763 3319 
L 1763 2881 
L 1116 2881 
L 1116 0 
L 556 0 
z
" transform="scale(0.015625)"/>
      <path id="ArialMT-46" d="M 525 0 
L 525 4581 
L 3616 4581 
L 3616 4041 
L 1131 4041 
L 1131 2622 
L 3281 2622 
L 3281 2081 
L 1131 2081 
L 1131 0 
L 525 0 
z
" transform="scale(0.015625)"/>
     </defs>
     <use xlink:href="#ArialMT-43"/>
     <use xlink:href="#ArialMT-53" x="72.216797"/>
     <use xlink:href="#ArialMT-32" x="138.916016"/>
     <use xlink:href="#ArialMT-20" x="194.53125"/>
     <use xlink:href="#ArialMT-43" x="222.314453"/>
     <use xlink:href="#ArialMT-6f" x="294.53125"/>
     <use xlink:href="#ArialMT-72" x="350.146484"/>
     <use xlink:href="#ArialMT-72" x="383.447266"/>
     <use xlink:href="#ArialMT-65" x="416.748047"/>
     <use xlink:href="#ArialMT-63" x="472.363281"/>
     <use xlink:href="#ArialMT-74" x="522.363281"/>
     <use xlink:href="#ArialMT-65" x="550.146484"/>
     <use xlink:href="#ArialMT-64" x="605.761719"/>
     <use xlink:href="#ArialMT-20" x="661.376953"/>
     <use xlink:href="#ArialMT-44" x="689.160156"/>
     <use xlink:href="#ArialMT-69" x="761.376953"/>
     <use xlink:href="#ArialMT-73" x="783.59375"/>
     <use xlink:href="#ArialMT-74" x="833.59375"/>
     <use xlink:href="#ArialMT-61" x="861.376953"/>
     <use xlink:href="#ArialMT-6e" x="916.992188"/>
     <use xlink:href="#ArialMT-63" x="972.607422"/>
     <use xlink:href="#ArialMT-65" x="1022.607422"/>
     <use xlink:href="#ArialMT-73" x="1078.222656"/>
     <use xlink:href="#ArialMT-20" x="1128.222656"/>
     <use xlink:href="#ArialMT-28" x="1156.005859"/>
     <use xlink:href="#ArialMT-54" x="1189.306641"/>
     <use xlink:href="#ArialMT-4c" x="1250.390625"/>
     <use xlink:href="#ArialMT-20" x="1302.255859"/>
     <use xlink:href="#ArialMT-76" x="1330.039062"/>
     <use xlink:href="#ArialMT-73" x="1380.039062"/>
     <use xlink:href="#ArialMT-2e" x="1430.039062"/>
     <use xlink:href="#ArialMT-20" x="1457.822266"/>
     <use xlink:href="#ArialMT-42" x="1485.605469"/>
     <use xlink:href="#ArialMT-50" x="1552.304688"/>
     <use xlink:href="#ArialMT-29" x="1619.003906"/>
     <use xlink:href="#ArialMT-20" x="1652.304688"/>
     <use xlink:href="#ArialMT-66" x="1680.087891"/>
     <use xlink:href="#ArialMT-6f" x="1707.871094"/>
     <use xlink:href="#ArialMT-72" x="1763.486328"/>
     <use xlink:href="#ArialMT-20" x="1796.787109"/>
     <use xlink:href="#ArialMT-46" x="1824.570312"/>
     <use xlink:href="#ArialMT-69" x="1885.654297"/>
     <use xlink:href="#ArialMT-72" x="1907.871094"/>
     <use xlink:href="#ArialMT-73" x="1941.171875"/>
     <use xlink:href="#ArialMT-74" x="1991.171875"/>
     <use xlink:href="#ArialMT-20" x="2018.955078"/>
     <use xlink:href="#ArialMT-31" x="2046.738281"/>
     <use xlink:href="#ArialMT-30" x="2102.353516"/>
     <use xlink:href="#ArialMT-20" x="2157.96875"/>
     <use xlink:href="#ArialMT-43" x="2185.751953"/>
     <use xlink:href="#ArialMT-6f" x="2257.96875"/>
     <use xlink:href="#ArialMT-6d" x="2313.583984"/>
     <use xlink:href="#ArialMT-70" x="2396.884766"/>
     <use xlink:href="#ArialMT-6f" x="2452.5"/>
     <use xlink:href="#ArialMT-6e" x="2508.115234"/>
     <use xlink:href="#ArialMT-65" x="2563.730469"/>
     <use xlink:href="#ArialMT-6e" x="2619.345703"/>
     <use xlink:href="#ArialMT-74" x="2674.960938"/>
     <use xlink:href="#ArialMT-73" x="2702.744141"/>
    </g>
   </g>
  </g>
 </g>
 <defs>
  <clipPath id="p35a8830c15">
   <rect x="40.29625" y="23.391562" width="669.6" height="332.64"/>
  </clipPath>
 </defs>
</svg>
