<?xml version="1.0" encoding="utf-8" standalone="no"?>
<!DOCTYPE svg PUBLIC "-//W3C//DTD SVG 1.1//EN"
  "http://www.w3.org/Graphics/SVG/1.1/DTD/svg11.dtd">
<svg xmlns:xlink="http://www.w3.org/1999/xlink" width="605.49625pt" height="393.041563pt" viewBox="0 0 605.49625 393.041563" xmlns="http://www.w3.org/2000/svg" version="1.1">
 <metadata>
  <rdf:RDF xmlns:dc="http://purl.org/dc/elements/1.1/" xmlns:cc="http://creativecommons.org/ns#" xmlns:rdf="http://www.w3.org/1999/02/22-rdf-syntax-ns#">
   <cc:Work>
    <dc:type rdf:resource="http://purl.org/dc/dcmitype/StillImage"/>
    <dc:date>2025-07-03T12:27:02.070970</dc:date>
    <dc:format>image/svg+xml</dc:format>
    <dc:creator>
     <cc:Agent>
      <dc:title>Matplotlib v3.7.2, https://matplotlib.org/</dc:title>
     </cc:Agent>
    </dc:creator>
   </cc:Work>
  </rdf:RDF>
 </metadata>
 <defs>
  <style type="text/css">*{stroke-linejoin: round; stroke-linecap: butt}</style>
 </defs>
 <g id="figure_1">
  <g id="patch_1">
   <path d="M 0 393.041563 
L 605.49625 393.041563 
L 605.49625 0 
L 0 0 
z
" style="fill: #ffffff"/>
  </g>
  <g id="axes_1">
   <g id="patch_2">
    <path d="M 40.29625 354.575625 
L 598.29625 354.575625 
L 598.29625 21.935625 
L 40.29625 21.935625 
z
" style="fill: #ffffff"/>
   </g>
   <g id="matplotlib.axis_1">
    <g id="xtick_1">
     <g id="line2d_1">
      <defs>
       <path id="mf337834ff1" d="M 0 0 
L 0 3.5 
" style="stroke: #262626; stroke-width: 0.8"/>
      </defs>
      <g>
       <use xlink:href="#mf337834ff1" x="66.123796" y="354.575625" style="fill: #262626; stroke: #262626; stroke-width: 0.8"/>
      </g>
     </g>
     <g id="text_1">
      <!-- 0.2 -->
      <g style="fill: #262626" transform="translate(59.173796 368.733438) scale(0.1 -0.1)">
       <defs>
        <path id="ArialMT-30" d="M 266 2259 
Q 266 3072 433 3567 
Q 600 4063 929 4331 
Q 1259 4600 1759 4600 
Q 2128 4600 2406 4451 
Q 2684 4303 2865 4023 
Q 3047 3744 3150 3342 
Q 3253 2941 3253 2259 
Q 3253 1453 3087 958 
Q 2922 463 2592 192 
Q 2263 -78 1759 -78 
Q 1097 -78 719 397 
Q 266 969 266 2259 
z
M 844 2259 
Q 844 1131 1108 757 
Q 1372 384 1759 384 
Q 2147 384 2411 759 
Q 2675 1134 2675 2259 
Q 2675 3391 2411 3762 
Q 2147 4134 1753 4134 
Q 1366 4134 1134 3806 
Q 844 3388 844 2259 
z
" transform="scale(0.015625)"/>
        <path id="ArialMT-2e" d="M 581 0 
L 581 641 
L 1222 641 
L 1222 0 
L 581 0 
z
" transform="scale(0.015625)"/>
        <path id="ArialMT-32" d="M 3222 541 
L 3222 0 
L 194 0 
Q 188 203 259 391 
Q 375 700 629 1000 
Q 884 1300 1366 1694 
Q 2113 2306 2375 2664 
Q 2638 3022 2638 3341 
Q 2638 3675 2398 3904 
Q 2159 4134 1775 4134 
Q 1369 4134 1125 3890 
Q 881 3647 878 3216 
L 300 3275 
Q 359 3922 746 4261 
Q 1134 4600 1788 4600 
Q 2447 4600 2831 4234 
Q 3216 3869 3216 3328 
Q 3216 3053 3103 2787 
Q 2991 2522 2730 2228 
Q 2469 1934 1863 1422 
Q 1356 997 1212 845 
Q 1069 694 975 541 
L 3222 541 
z
" transform="scale(0.015625)"/>
       </defs>
       <use xlink:href="#ArialMT-30"/>
       <use xlink:href="#ArialMT-2e" x="55.615234"/>
       <use xlink:href="#ArialMT-32" x="83.398438"/>
      </g>
     </g>
    </g>
    <g id="xtick_2">
     <g id="line2d_2">
      <g>
       <use xlink:href="#mf337834ff1" x="129.474898" y="354.575625" style="fill: #262626; stroke: #262626; stroke-width: 0.8"/>
      </g>
     </g>
     <g id="text_2">
      <!-- 0.3 -->
      <g style="fill: #262626" transform="translate(122.524898 368.733438) scale(0.1 -0.1)">
       <defs>
        <path id="ArialMT-33" d="M 269 1209 
L 831 1284 
Q 928 806 1161 595 
Q 1394 384 1728 384 
Q 2125 384 2398 659 
Q 2672 934 2672 1341 
Q 2672 1728 2419 1979 
Q 2166 2231 1775 2231 
Q 1616 2231 1378 2169 
L 1441 2663 
Q 1497 2656 1531 2656 
Q 1891 2656 2178 2843 
Q 2466 3031 2466 3422 
Q 2466 3731 2256 3934 
Q 2047 4138 1716 4138 
Q 1388 4138 1169 3931 
Q 950 3725 888 3313 
L 325 3413 
Q 428 3978 793 4289 
Q 1159 4600 1703 4600 
Q 2078 4600 2393 4439 
Q 2709 4278 2876 4000 
Q 3044 3722 3044 3409 
Q 3044 3113 2884 2869 
Q 2725 2625 2413 2481 
Q 2819 2388 3044 2092 
Q 3269 1797 3269 1353 
Q 3269 753 2831 336 
Q 2394 -81 1725 -81 
Q 1122 -81 723 278 
Q 325 638 269 1209 
z
" transform="scale(0.015625)"/>
       </defs>
       <use xlink:href="#ArialMT-30"/>
       <use xlink:href="#ArialMT-2e" x="55.615234"/>
       <use xlink:href="#ArialMT-33" x="83.398438"/>
      </g>
     </g>
    </g>
    <g id="xtick_3">
     <g id="line2d_3">
      <g>
       <use xlink:href="#mf337834ff1" x="192.826" y="354.575625" style="fill: #262626; stroke: #262626; stroke-width: 0.8"/>
      </g>
     </g>
     <g id="text_3">
      <!-- 0.4 -->
      <g style="fill: #262626" transform="translate(185.876 368.733438) scale(0.1 -0.1)">
       <defs>
        <path id="ArialMT-34" d="M 2069 0 
L 2069 1097 
L 81 1097 
L 81 1613 
L 2172 4581 
L 2631 4581 
L 2631 1613 
L 3250 1613 
L 3250 1097 
L 2631 1097 
L 2631 0 
L 2069 0 
z
M 2069 1613 
L 2069 3678 
L 634 1613 
L 2069 1613 
z
" transform="scale(0.015625)"/>
       </defs>
       <use xlink:href="#ArialMT-30"/>
       <use xlink:href="#ArialMT-2e" x="55.615234"/>
       <use xlink:href="#ArialMT-34" x="83.398438"/>
      </g>
     </g>
    </g>
    <g id="xtick_4">
     <g id="line2d_4">
      <g>
       <use xlink:href="#mf337834ff1" x="256.177103" y="354.575625" style="fill: #262626; stroke: #262626; stroke-width: 0.8"/>
      </g>
     </g>
     <g id="text_4">
      <!-- 0.5 -->
      <g style="fill: #262626" transform="translate(249.227103 368.733438) scale(0.1 -0.1)">
       <defs>
        <path id="ArialMT-35" d="M 266 1200 
L 856 1250 
Q 922 819 1161 601 
Q 1400 384 1738 384 
Q 2144 384 2425 690 
Q 2706 997 2706 1503 
Q 2706 1984 2436 2262 
Q 2166 2541 1728 2541 
Q 1456 2541 1237 2417 
Q 1019 2294 894 2097 
L 366 2166 
L 809 4519 
L 3088 4519 
L 3088 3981 
L 1259 3981 
L 1013 2750 
Q 1425 3038 1878 3038 
Q 2478 3038 2890 2622 
Q 3303 2206 3303 1553 
Q 3303 931 2941 478 
Q 2500 -78 1738 -78 
Q 1113 -78 717 272 
Q 322 622 266 1200 
z
" transform="scale(0.015625)"/>
       </defs>
       <use xlink:href="#ArialMT-30"/>
       <use xlink:href="#ArialMT-2e" x="55.615234"/>
       <use xlink:href="#ArialMT-35" x="83.398438"/>
      </g>
     </g>
    </g>
    <g id="xtick_5">
     <g id="line2d_5">
      <g>
       <use xlink:href="#mf337834ff1" x="319.528205" y="354.575625" style="fill: #262626; stroke: #262626; stroke-width: 0.8"/>
      </g>
     </g>
     <g id="text_5">
      <!-- 0.6 -->
      <g style="fill: #262626" transform="translate(312.578205 368.733438) scale(0.1 -0.1)">
       <defs>
        <path id="ArialMT-36" d="M 3184 3459 
L 2625 3416 
Q 2550 3747 2413 3897 
Q 2184 4138 1850 4138 
Q 1581 4138 1378 3988 
Q 1113 3794 959 3422 
Q 806 3050 800 2363 
Q 1003 2672 1297 2822 
Q 1591 2972 1913 2972 
Q 2475 2972 2870 2558 
Q 3266 2144 3266 1488 
Q 3266 1056 3080 686 
Q 2894 316 2569 119 
Q 2244 -78 1831 -78 
Q 1128 -78 684 439 
Q 241 956 241 2144 
Q 241 3472 731 4075 
Q 1159 4600 1884 4600 
Q 2425 4600 2770 4297 
Q 3116 3994 3184 3459 
z
M 888 1484 
Q 888 1194 1011 928 
Q 1134 663 1356 523 
Q 1578 384 1822 384 
Q 2178 384 2434 671 
Q 2691 959 2691 1453 
Q 2691 1928 2437 2201 
Q 2184 2475 1800 2475 
Q 1419 2475 1153 2201 
Q 888 1928 888 1484 
z
" transform="scale(0.015625)"/>
       </defs>
       <use xlink:href="#ArialMT-30"/>
       <use xlink:href="#ArialMT-2e" x="55.615234"/>
       <use xlink:href="#ArialMT-36" x="83.398438"/>
      </g>
     </g>
    </g>
    <g id="xtick_6">
     <g id="line2d_6">
      <g>
       <use xlink:href="#mf337834ff1" x="382.879307" y="354.575625" style="fill: #262626; stroke: #262626; stroke-width: 0.8"/>
      </g>
     </g>
     <g id="text_6">
      <!-- 0.7 -->
      <g style="fill: #262626" transform="translate(375.929307 368.733438) scale(0.1 -0.1)">
       <defs>
        <path id="ArialMT-37" d="M 303 3981 
L 303 4522 
L 3269 4522 
L 3269 4084 
Q 2831 3619 2401 2847 
Q 1972 2075 1738 1259 
Q 1569 684 1522 0 
L 944 0 
Q 953 541 1156 1306 
Q 1359 2072 1739 2783 
Q 2119 3494 2547 3981 
L 303 3981 
z
" transform="scale(0.015625)"/>
       </defs>
       <use xlink:href="#ArialMT-30"/>
       <use xlink:href="#ArialMT-2e" x="55.615234"/>
       <use xlink:href="#ArialMT-37" x="83.398438"/>
      </g>
     </g>
    </g>
    <g id="xtick_7">
     <g id="line2d_7">
      <g>
       <use xlink:href="#mf337834ff1" x="446.230409" y="354.575625" style="fill: #262626; stroke: #262626; stroke-width: 0.8"/>
      </g>
     </g>
     <g id="text_7">
      <!-- 0.8 -->
      <g style="fill: #262626" transform="translate(439.280409 368.733438) scale(0.1 -0.1)">
       <defs>
        <path id="ArialMT-38" d="M 1131 2484 
Q 781 2613 612 2850 
Q 444 3088 444 3419 
Q 444 3919 803 4259 
Q 1163 4600 1759 4600 
Q 2359 4600 2725 4251 
Q 3091 3903 3091 3403 
Q 3091 3084 2923 2848 
Q 2756 2613 2416 2484 
Q 2838 2347 3058 2040 
Q 3278 1734 3278 1309 
Q 3278 722 2862 322 
Q 2447 -78 1769 -78 
Q 1091 -78 675 323 
Q 259 725 259 1325 
Q 259 1772 486 2073 
Q 713 2375 1131 2484 
z
M 1019 3438 
Q 1019 3113 1228 2906 
Q 1438 2700 1772 2700 
Q 2097 2700 2305 2904 
Q 2513 3109 2513 3406 
Q 2513 3716 2298 3927 
Q 2084 4138 1766 4138 
Q 1444 4138 1231 3931 
Q 1019 3725 1019 3438 
z
M 838 1322 
Q 838 1081 952 856 
Q 1066 631 1291 507 
Q 1516 384 1775 384 
Q 2178 384 2440 643 
Q 2703 903 2703 1303 
Q 2703 1709 2433 1975 
Q 2163 2241 1756 2241 
Q 1359 2241 1098 1978 
Q 838 1716 838 1322 
z
" transform="scale(0.015625)"/>
       </defs>
       <use xlink:href="#ArialMT-30"/>
       <use xlink:href="#ArialMT-2e" x="55.615234"/>
       <use xlink:href="#ArialMT-38" x="83.398438"/>
      </g>
     </g>
    </g>
    <g id="xtick_8">
     <g id="line2d_8">
      <g>
       <use xlink:href="#mf337834ff1" x="509.581511" y="354.575625" style="fill: #262626; stroke: #262626; stroke-width: 0.8"/>
      </g>
     </g>
     <g id="text_8">
      <!-- 0.9 -->
      <g style="fill: #262626" transform="translate(502.631511 368.733438) scale(0.1 -0.1)">
       <defs>
        <path id="ArialMT-39" d="M 350 1059 
L 891 1109 
Q 959 728 1153 556 
Q 1347 384 1650 384 
Q 1909 384 2104 503 
Q 2300 622 2425 820 
Q 2550 1019 2634 1356 
Q 2719 1694 2719 2044 
Q 2719 2081 2716 2156 
Q 2547 1888 2255 1720 
Q 1963 1553 1622 1553 
Q 1053 1553 659 1965 
Q 266 2378 266 3053 
Q 266 3750 677 4175 
Q 1088 4600 1706 4600 
Q 2153 4600 2523 4359 
Q 2894 4119 3086 3673 
Q 3278 3228 3278 2384 
Q 3278 1506 3087 986 
Q 2897 466 2520 194 
Q 2144 -78 1638 -78 
Q 1100 -78 759 220 
Q 419 519 350 1059 
z
M 2653 3081 
Q 2653 3566 2395 3850 
Q 2138 4134 1775 4134 
Q 1400 4134 1122 3828 
Q 844 3522 844 3034 
Q 844 2597 1108 2323 
Q 1372 2050 1759 2050 
Q 2150 2050 2401 2323 
Q 2653 2597 2653 3081 
z
" transform="scale(0.015625)"/>
       </defs>
       <use xlink:href="#ArialMT-30"/>
       <use xlink:href="#ArialMT-2e" x="55.615234"/>
       <use xlink:href="#ArialMT-39" x="83.398438"/>
      </g>
     </g>
    </g>
    <g id="xtick_9">
     <g id="line2d_9">
      <g>
       <use xlink:href="#mf337834ff1" x="572.932614" y="354.575625" style="fill: #262626; stroke: #262626; stroke-width: 0.8"/>
      </g>
     </g>
     <g id="text_9">
      <!-- 1.0 -->
      <g style="fill: #262626" transform="translate(565.982614 368.733438) scale(0.1 -0.1)">
       <defs>
        <path id="ArialMT-31" d="M 2384 0 
L 1822 0 
L 1822 3584 
Q 1619 3391 1289 3197 
Q 959 3003 697 2906 
L 697 3450 
Q 1169 3672 1522 3987 
Q 1875 4303 2022 4600 
L 2384 4600 
L 2384 0 
z
" transform="scale(0.015625)"/>
       </defs>
       <use xlink:href="#ArialMT-31"/>
       <use xlink:href="#ArialMT-2e" x="55.615234"/>
       <use xlink:href="#ArialMT-30" x="83.398438"/>
      </g>
     </g>
    </g>
    <g id="text_10">
     <!-- Cumulative Explained Variance Ratio -->
     <g style="fill: #262626" transform="translate(220.690937 383.456563) scale(0.12 -0.12)">
      <defs>
       <path id="ArialMT-43" d="M 3763 1606 
L 4369 1453 
Q 4178 706 3683 314 
Q 3188 -78 2472 -78 
Q 1731 -78 1267 223 
Q 803 525 561 1097 
Q 319 1669 319 2325 
Q 319 3041 592 3573 
Q 866 4106 1370 4382 
Q 1875 4659 2481 4659 
Q 3169 4659 3637 4309 
Q 4106 3959 4291 3325 
L 3694 3184 
Q 3534 3684 3231 3912 
Q 2928 4141 2469 4141 
Q 1941 4141 1586 3887 
Q 1231 3634 1087 3207 
Q 944 2781 944 2328 
Q 944 1744 1114 1308 
Q 1284 872 1643 656 
Q 2003 441 2422 441 
Q 2931 441 3284 734 
Q 3638 1028 3763 1606 
z
" transform="scale(0.015625)"/>
       <path id="ArialMT-75" d="M 2597 0 
L 2597 488 
Q 2209 -75 1544 -75 
Q 1250 -75 995 37 
Q 741 150 617 320 
Q 494 491 444 738 
Q 409 903 409 1263 
L 409 3319 
L 972 3319 
L 972 1478 
Q 972 1038 1006 884 
Q 1059 663 1231 536 
Q 1403 409 1656 409 
Q 1909 409 2131 539 
Q 2353 669 2445 892 
Q 2538 1116 2538 1541 
L 2538 3319 
L 3100 3319 
L 3100 0 
L 2597 0 
z
" transform="scale(0.015625)"/>
       <path id="ArialMT-6d" d="M 422 0 
L 422 3319 
L 925 3319 
L 925 2853 
Q 1081 3097 1340 3245 
Q 1600 3394 1931 3394 
Q 2300 3394 2536 3241 
Q 2772 3088 2869 2813 
Q 3263 3394 3894 3394 
Q 4388 3394 4653 3120 
Q 4919 2847 4919 2278 
L 4919 0 
L 4359 0 
L 4359 2091 
Q 4359 2428 4304 2576 
Q 4250 2725 4106 2815 
Q 3963 2906 3769 2906 
Q 3419 2906 3187 2673 
Q 2956 2441 2956 1928 
L 2956 0 
L 2394 0 
L 2394 2156 
Q 2394 2531 2256 2718 
Q 2119 2906 1806 2906 
Q 1569 2906 1367 2781 
Q 1166 2656 1075 2415 
Q 984 2175 984 1722 
L 984 0 
L 422 0 
z
" transform="scale(0.015625)"/>
       <path id="ArialMT-6c" d="M 409 0 
L 409 4581 
L 972 4581 
L 972 0 
L 409 0 
z
" transform="scale(0.015625)"/>
       <path id="ArialMT-61" d="M 2588 409 
Q 2275 144 1986 34 
Q 1697 -75 1366 -75 
Q 819 -75 525 192 
Q 231 459 231 875 
Q 231 1119 342 1320 
Q 453 1522 633 1644 
Q 813 1766 1038 1828 
Q 1203 1872 1538 1913 
Q 2219 1994 2541 2106 
Q 2544 2222 2544 2253 
Q 2544 2597 2384 2738 
Q 2169 2928 1744 2928 
Q 1347 2928 1158 2789 
Q 969 2650 878 2297 
L 328 2372 
Q 403 2725 575 2942 
Q 747 3159 1072 3276 
Q 1397 3394 1825 3394 
Q 2250 3394 2515 3294 
Q 2781 3194 2906 3042 
Q 3031 2891 3081 2659 
Q 3109 2516 3109 2141 
L 3109 1391 
Q 3109 606 3145 398 
Q 3181 191 3288 0 
L 2700 0 
Q 2613 175 2588 409 
z
M 2541 1666 
Q 2234 1541 1622 1453 
Q 1275 1403 1131 1340 
Q 988 1278 909 1158 
Q 831 1038 831 891 
Q 831 666 1001 516 
Q 1172 366 1500 366 
Q 1825 366 2078 508 
Q 2331 650 2450 897 
Q 2541 1088 2541 1459 
L 2541 1666 
z
" transform="scale(0.015625)"/>
       <path id="ArialMT-74" d="M 1650 503 
L 1731 6 
Q 1494 -44 1306 -44 
Q 1000 -44 831 53 
Q 663 150 594 308 
Q 525 466 525 972 
L 525 2881 
L 113 2881 
L 113 3319 
L 525 3319 
L 525 4141 
L 1084 4478 
L 1084 3319 
L 1650 3319 
L 1650 2881 
L 1084 2881 
L 1084 941 
Q 1084 700 1114 631 
Q 1144 563 1211 522 
Q 1278 481 1403 481 
Q 1497 481 1650 503 
z
" transform="scale(0.015625)"/>
       <path id="ArialMT-69" d="M 425 3934 
L 425 4581 
L 988 4581 
L 988 3934 
L 425 3934 
z
M 425 0 
L 425 3319 
L 988 3319 
L 988 0 
L 425 0 
z
" transform="scale(0.015625)"/>
       <path id="ArialMT-76" d="M 1344 0 
L 81 3319 
L 675 3319 
L 1388 1331 
Q 1503 1009 1600 663 
Q 1675 925 1809 1294 
L 2547 3319 
L 3125 3319 
L 1869 0 
L 1344 0 
z
" transform="scale(0.015625)"/>
       <path id="ArialMT-65" d="M 2694 1069 
L 3275 997 
Q 3138 488 2766 206 
Q 2394 -75 1816 -75 
Q 1088 -75 661 373 
Q 234 822 234 1631 
Q 234 2469 665 2931 
Q 1097 3394 1784 3394 
Q 2450 3394 2872 2941 
Q 3294 2488 3294 1666 
Q 3294 1616 3291 1516 
L 816 1516 
Q 847 969 1125 678 
Q 1403 388 1819 388 
Q 2128 388 2347 550 
Q 2566 713 2694 1069 
z
M 847 1978 
L 2700 1978 
Q 2663 2397 2488 2606 
Q 2219 2931 1791 2931 
Q 1403 2931 1139 2672 
Q 875 2413 847 1978 
z
" transform="scale(0.015625)"/>
       <path id="ArialMT-20" transform="scale(0.015625)"/>
       <path id="ArialMT-45" d="M 506 0 
L 506 4581 
L 3819 4581 
L 3819 4041 
L 1113 4041 
L 1113 2638 
L 3647 2638 
L 3647 2100 
L 1113 2100 
L 1113 541 
L 3925 541 
L 3925 0 
L 506 0 
z
" transform="scale(0.015625)"/>
       <path id="ArialMT-78" d="M 47 0 
L 1259 1725 
L 138 3319 
L 841 3319 
L 1350 2541 
Q 1494 2319 1581 2169 
Q 1719 2375 1834 2534 
L 2394 3319 
L 3066 3319 
L 1919 1756 
L 3153 0 
L 2463 0 
L 1781 1031 
L 1600 1309 
L 728 0 
L 47 0 
z
" transform="scale(0.015625)"/>
       <path id="ArialMT-70" d="M 422 -1272 
L 422 3319 
L 934 3319 
L 934 2888 
Q 1116 3141 1344 3267 
Q 1572 3394 1897 3394 
Q 2322 3394 2647 3175 
Q 2972 2956 3137 2557 
Q 3303 2159 3303 1684 
Q 3303 1175 3120 767 
Q 2938 359 2589 142 
Q 2241 -75 1856 -75 
Q 1575 -75 1351 44 
Q 1128 163 984 344 
L 984 -1272 
L 422 -1272 
z
M 931 1641 
Q 931 1000 1190 694 
Q 1450 388 1819 388 
Q 2194 388 2461 705 
Q 2728 1022 2728 1688 
Q 2728 2322 2467 2637 
Q 2206 2953 1844 2953 
Q 1484 2953 1207 2617 
Q 931 2281 931 1641 
z
" transform="scale(0.015625)"/>
       <path id="ArialMT-6e" d="M 422 0 
L 422 3319 
L 928 3319 
L 928 2847 
Q 1294 3394 1984 3394 
Q 2284 3394 2536 3286 
Q 2788 3178 2913 3003 
Q 3038 2828 3088 2588 
Q 3119 2431 3119 2041 
L 3119 0 
L 2556 0 
L 2556 2019 
Q 2556 2363 2490 2533 
Q 2425 2703 2258 2804 
Q 2091 2906 1866 2906 
Q 1506 2906 1245 2678 
Q 984 2450 984 1813 
L 984 0 
L 422 0 
z
" transform="scale(0.015625)"/>
       <path id="ArialMT-64" d="M 2575 0 
L 2575 419 
Q 2259 -75 1647 -75 
Q 1250 -75 917 144 
Q 584 363 401 755 
Q 219 1147 219 1656 
Q 219 2153 384 2558 
Q 550 2963 881 3178 
Q 1213 3394 1622 3394 
Q 1922 3394 2156 3267 
Q 2391 3141 2538 2938 
L 2538 4581 
L 3097 4581 
L 3097 0 
L 2575 0 
z
M 797 1656 
Q 797 1019 1065 703 
Q 1334 388 1700 388 
Q 2069 388 2326 689 
Q 2584 991 2584 1609 
Q 2584 2291 2321 2609 
Q 2059 2928 1675 2928 
Q 1300 2928 1048 2622 
Q 797 2316 797 1656 
z
" transform="scale(0.015625)"/>
       <path id="ArialMT-56" d="M 1803 0 
L 28 4581 
L 684 4581 
L 1875 1253 
Q 2019 853 2116 503 
Q 2222 878 2363 1253 
L 3600 4581 
L 4219 4581 
L 2425 0 
L 1803 0 
z
" transform="scale(0.015625)"/>
       <path id="ArialMT-72" d="M 416 0 
L 416 3319 
L 922 3319 
L 922 2816 
Q 1116 3169 1280 3281 
Q 1444 3394 1641 3394 
Q 1925 3394 2219 3213 
L 2025 2691 
Q 1819 2813 1613 2813 
Q 1428 2813 1281 2702 
Q 1134 2591 1072 2394 
Q 978 2094 978 1738 
L 978 0 
L 416 0 
z
" transform="scale(0.015625)"/>
       <path id="ArialMT-63" d="M 2588 1216 
L 3141 1144 
Q 3050 572 2676 248 
Q 2303 -75 1759 -75 
Q 1078 -75 664 370 
Q 250 816 250 1647 
Q 250 2184 428 2587 
Q 606 2991 970 3192 
Q 1334 3394 1763 3394 
Q 2303 3394 2647 3120 
Q 2991 2847 3088 2344 
L 2541 2259 
Q 2463 2594 2264 2762 
Q 2066 2931 1784 2931 
Q 1359 2931 1093 2626 
Q 828 2322 828 1663 
Q 828 994 1084 691 
Q 1341 388 1753 388 
Q 2084 388 2306 591 
Q 2528 794 2588 1216 
z
" transform="scale(0.015625)"/>
       <path id="ArialMT-52" d="M 503 0 
L 503 4581 
L 2534 4581 
Q 3147 4581 3465 4457 
Q 3784 4334 3975 4021 
Q 4166 3709 4166 3331 
Q 4166 2844 3850 2509 
Q 3534 2175 2875 2084 
Q 3116 1969 3241 1856 
Q 3506 1613 3744 1247 
L 4541 0 
L 3778 0 
L 3172 953 
Q 2906 1366 2734 1584 
Q 2563 1803 2427 1890 
Q 2291 1978 2150 2013 
Q 2047 2034 1813 2034 
L 1109 2034 
L 1109 0 
L 503 0 
z
M 1109 2559 
L 2413 2559 
Q 2828 2559 3062 2645 
Q 3297 2731 3419 2920 
Q 3541 3109 3541 3331 
Q 3541 3656 3305 3865 
Q 3069 4075 2559 4075 
L 1109 4075 
L 1109 2559 
z
" transform="scale(0.015625)"/>
       <path id="ArialMT-6f" d="M 213 1659 
Q 213 2581 725 3025 
Q 1153 3394 1769 3394 
Q 2453 3394 2887 2945 
Q 3322 2497 3322 1706 
Q 3322 1066 3130 698 
Q 2938 331 2570 128 
Q 2203 -75 1769 -75 
Q 1072 -75 642 372 
Q 213 819 213 1659 
z
M 791 1659 
Q 791 1022 1069 705 
Q 1347 388 1769 388 
Q 2188 388 2466 706 
Q 2744 1025 2744 1678 
Q 2744 2294 2464 2611 
Q 2184 2928 1769 2928 
Q 1347 2928 1069 2612 
Q 791 2297 791 1659 
z
" transform="scale(0.015625)"/>
      </defs>
      <use xlink:href="#ArialMT-43"/>
      <use xlink:href="#ArialMT-75" x="72.216797"/>
      <use xlink:href="#ArialMT-6d" x="127.832031"/>
      <use xlink:href="#ArialMT-75" x="211.132812"/>
      <use xlink:href="#ArialMT-6c" x="266.748047"/>
      <use xlink:href="#ArialMT-61" x="288.964844"/>
      <use xlink:href="#ArialMT-74" x="344.580078"/>
      <use xlink:href="#ArialMT-69" x="372.363281"/>
      <use xlink:href="#ArialMT-76" x="394.580078"/>
      <use xlink:href="#ArialMT-65" x="444.580078"/>
      <use xlink:href="#ArialMT-20" x="500.195312"/>
      <use xlink:href="#ArialMT-45" x="527.978516"/>
      <use xlink:href="#ArialMT-78" x="594.677734"/>
      <use xlink:href="#ArialMT-70" x="644.677734"/>
      <use xlink:href="#ArialMT-6c" x="700.292969"/>
      <use xlink:href="#ArialMT-61" x="722.509766"/>
      <use xlink:href="#ArialMT-69" x="778.125"/>
      <use xlink:href="#ArialMT-6e" x="800.341797"/>
      <use xlink:href="#ArialMT-65" x="855.957031"/>
      <use xlink:href="#ArialMT-64" x="911.572266"/>
      <use xlink:href="#ArialMT-20" x="967.1875"/>
      <use xlink:href="#ArialMT-56" x="994.970703"/>
      <use xlink:href="#ArialMT-61" x="1054.294922"/>
      <use xlink:href="#ArialMT-72" x="1109.910156"/>
      <use xlink:href="#ArialMT-69" x="1143.210938"/>
      <use xlink:href="#ArialMT-61" x="1165.427734"/>
      <use xlink:href="#ArialMT-6e" x="1221.042969"/>
      <use xlink:href="#ArialMT-63" x="1276.658203"/>
      <use xlink:href="#ArialMT-65" x="1326.658203"/>
      <use xlink:href="#ArialMT-20" x="1382.273438"/>
      <use xlink:href="#ArialMT-52" x="1410.056641"/>
      <use xlink:href="#ArialMT-61" x="1482.273438"/>
      <use xlink:href="#ArialMT-74" x="1537.888672"/>
      <use xlink:href="#ArialMT-69" x="1565.671875"/>
      <use xlink:href="#ArialMT-6f" x="1587.888672"/>
     </g>
    </g>
   </g>
   <g id="matplotlib.axis_2">
    <g id="ytick_1">
     <g id="line2d_10">
      <defs>
       <path id="m426eafd261" d="M 0 0 
L -3.5 0 
" style="stroke: #262626; stroke-width: 0.8"/>
      </defs>
      <g>
       <use xlink:href="#m426eafd261" x="40.29625" y="348.534022" style="fill: #262626; stroke: #262626; stroke-width: 0.8"/>
      </g>
     </g>
     <g id="text_11">
      <!-- 0 -->
      <g style="fill: #262626" transform="translate(27.735313 352.112928) scale(0.1 -0.1)">
       <use xlink:href="#ArialMT-30"/>
      </g>
     </g>
    </g>
    <g id="ytick_2">
     <g id="line2d_11">
      <g>
       <use xlink:href="#m426eafd261" x="40.29625" y="308.78441" style="fill: #262626; stroke: #262626; stroke-width: 0.8"/>
      </g>
     </g>
     <g id="text_12">
      <!-- 2 -->
      <g style="fill: #262626" transform="translate(27.735313 312.363316) scale(0.1 -0.1)">
       <use xlink:href="#ArialMT-32"/>
      </g>
     </g>
    </g>
    <g id="ytick_3">
     <g id="line2d_12">
      <g>
       <use xlink:href="#m426eafd261" x="40.29625" y="269.034798" style="fill: #262626; stroke: #262626; stroke-width: 0.8"/>
      </g>
     </g>
     <g id="text_13">
      <!-- 4 -->
      <g style="fill: #262626" transform="translate(27.735313 272.613704) scale(0.1 -0.1)">
       <use xlink:href="#ArialMT-34"/>
      </g>
     </g>
    </g>
    <g id="ytick_4">
     <g id="line2d_13">
      <g>
       <use xlink:href="#m426eafd261" x="40.29625" y="229.285186" style="fill: #262626; stroke: #262626; stroke-width: 0.8"/>
      </g>
     </g>
     <g id="text_14">
      <!-- 6 -->
      <g style="fill: #262626" transform="translate(27.735313 232.864092) scale(0.1 -0.1)">
       <use xlink:href="#ArialMT-36"/>
      </g>
     </g>
    </g>
    <g id="ytick_5">
     <g id="line2d_14">
      <g>
       <use xlink:href="#m426eafd261" x="40.29625" y="189.535574" style="fill: #262626; stroke: #262626; stroke-width: 0.8"/>
      </g>
     </g>
     <g id="text_15">
      <!-- 8 -->
      <g style="fill: #262626" transform="translate(27.735313 193.11448) scale(0.1 -0.1)">
       <use xlink:href="#ArialMT-38"/>
      </g>
     </g>
    </g>
    <g id="ytick_6">
     <g id="line2d_15">
      <g>
       <use xlink:href="#m426eafd261" x="40.29625" y="149.785962" style="fill: #262626; stroke: #262626; stroke-width: 0.8"/>
      </g>
     </g>
     <g id="text_16">
      <!-- 10 -->
      <g style="fill: #262626" transform="translate(22.174375 153.364868) scale(0.1 -0.1)">
       <use xlink:href="#ArialMT-31"/>
       <use xlink:href="#ArialMT-30" x="55.615234"/>
      </g>
     </g>
    </g>
    <g id="ytick_7">
     <g id="line2d_16">
      <g>
       <use xlink:href="#m426eafd261" x="40.29625" y="110.03635" style="fill: #262626; stroke: #262626; stroke-width: 0.8"/>
      </g>
     </g>
     <g id="text_17">
      <!-- 12 -->
      <g style="fill: #262626" transform="translate(22.174375 113.615256) scale(0.1 -0.1)">
       <use xlink:href="#ArialMT-31"/>
       <use xlink:href="#ArialMT-32" x="55.615234"/>
      </g>
     </g>
    </g>
    <g id="ytick_8">
     <g id="line2d_17">
      <g>
       <use xlink:href="#m426eafd261" x="40.29625" y="70.286738" style="fill: #262626; stroke: #262626; stroke-width: 0.8"/>
      </g>
     </g>
     <g id="text_18">
      <!-- 14 -->
      <g style="fill: #262626" transform="translate(22.174375 73.865644) scale(0.1 -0.1)">
       <use xlink:href="#ArialMT-31"/>
       <use xlink:href="#ArialMT-34" x="55.615234"/>
      </g>
     </g>
    </g>
    <g id="ytick_9">
     <g id="line2d_18">
      <g>
       <use xlink:href="#m426eafd261" x="40.29625" y="30.537125" style="fill: #262626; stroke: #262626; stroke-width: 0.8"/>
      </g>
     </g>
     <g id="text_19">
      <!-- 16 -->
      <g style="fill: #262626" transform="translate(22.174375 34.116032) scale(0.1 -0.1)">
       <use xlink:href="#ArialMT-31"/>
       <use xlink:href="#ArialMT-36" x="55.615234"/>
      </g>
     </g>
    </g>
    <g id="text_20">
     <!-- Absolute Corrected Euclidean Distance -->
     <g style="fill: #262626" transform="translate(15.789375 292.640625) rotate(-90) scale(0.12 -0.12)">
      <defs>
       <path id="ArialMT-41" d="M -9 0 
L 1750 4581 
L 2403 4581 
L 4278 0 
L 3588 0 
L 3053 1388 
L 1138 1388 
L 634 0 
L -9 0 
z
M 1313 1881 
L 2866 1881 
L 2388 3150 
Q 2169 3728 2063 4100 
Q 1975 3659 1816 3225 
L 1313 1881 
z
" transform="scale(0.015625)"/>
       <path id="ArialMT-62" d="M 941 0 
L 419 0 
L 419 4581 
L 981 4581 
L 981 2947 
Q 1338 3394 1891 3394 
Q 2197 3394 2470 3270 
Q 2744 3147 2920 2923 
Q 3097 2700 3197 2384 
Q 3297 2069 3297 1709 
Q 3297 856 2875 390 
Q 2453 -75 1863 -75 
Q 1275 -75 941 416 
L 941 0 
z
M 934 1684 
Q 934 1088 1097 822 
Q 1363 388 1816 388 
Q 2184 388 2453 708 
Q 2722 1028 2722 1663 
Q 2722 2313 2464 2622 
Q 2206 2931 1841 2931 
Q 1472 2931 1203 2611 
Q 934 2291 934 1684 
z
" transform="scale(0.015625)"/>
       <path id="ArialMT-73" d="M 197 991 
L 753 1078 
Q 800 744 1014 566 
Q 1228 388 1613 388 
Q 2000 388 2187 545 
Q 2375 703 2375 916 
Q 2375 1106 2209 1216 
Q 2094 1291 1634 1406 
Q 1016 1563 777 1677 
Q 538 1791 414 1992 
Q 291 2194 291 2438 
Q 291 2659 392 2848 
Q 494 3038 669 3163 
Q 800 3259 1026 3326 
Q 1253 3394 1513 3394 
Q 1903 3394 2198 3281 
Q 2494 3169 2634 2976 
Q 2775 2784 2828 2463 
L 2278 2388 
Q 2241 2644 2061 2787 
Q 1881 2931 1553 2931 
Q 1166 2931 1000 2803 
Q 834 2675 834 2503 
Q 834 2394 903 2306 
Q 972 2216 1119 2156 
Q 1203 2125 1616 2013 
Q 2213 1853 2448 1751 
Q 2684 1650 2818 1456 
Q 2953 1263 2953 975 
Q 2953 694 2789 445 
Q 2625 197 2315 61 
Q 2006 -75 1616 -75 
Q 969 -75 630 194 
Q 291 463 197 991 
z
" transform="scale(0.015625)"/>
       <path id="ArialMT-44" d="M 494 0 
L 494 4581 
L 2072 4581 
Q 2606 4581 2888 4516 
Q 3281 4425 3559 4188 
Q 3922 3881 4101 3404 
Q 4281 2928 4281 2316 
Q 4281 1794 4159 1391 
Q 4038 988 3847 723 
Q 3656 459 3429 307 
Q 3203 156 2883 78 
Q 2563 0 2147 0 
L 494 0 
z
M 1100 541 
L 2078 541 
Q 2531 541 2789 625 
Q 3047 709 3200 863 
Q 3416 1078 3536 1442 
Q 3656 1806 3656 2325 
Q 3656 3044 3420 3430 
Q 3184 3816 2847 3947 
Q 2603 4041 2063 4041 
L 1100 4041 
L 1100 541 
z
" transform="scale(0.015625)"/>
      </defs>
      <use xlink:href="#ArialMT-41"/>
      <use xlink:href="#ArialMT-62" x="66.699219"/>
      <use xlink:href="#ArialMT-73" x="122.314453"/>
      <use xlink:href="#ArialMT-6f" x="172.314453"/>
      <use xlink:href="#ArialMT-6c" x="227.929688"/>
      <use xlink:href="#ArialMT-75" x="250.146484"/>
      <use xlink:href="#ArialMT-74" x="305.761719"/>
      <use xlink:href="#ArialMT-65" x="333.544922"/>
      <use xlink:href="#ArialMT-20" x="389.160156"/>
      <use xlink:href="#ArialMT-43" x="416.943359"/>
      <use xlink:href="#ArialMT-6f" x="489.160156"/>
      <use xlink:href="#ArialMT-72" x="544.775391"/>
      <use xlink:href="#ArialMT-72" x="578.076172"/>
      <use xlink:href="#ArialMT-65" x="611.376953"/>
      <use xlink:href="#ArialMT-63" x="666.992188"/>
      <use xlink:href="#ArialMT-74" x="716.992188"/>
      <use xlink:href="#ArialMT-65" x="744.775391"/>
      <use xlink:href="#ArialMT-64" x="800.390625"/>
      <use xlink:href="#ArialMT-20" x="856.005859"/>
      <use xlink:href="#ArialMT-45" x="883.789062"/>
      <use xlink:href="#ArialMT-75" x="950.488281"/>
      <use xlink:href="#ArialMT-63" x="1006.103516"/>
      <use xlink:href="#ArialMT-6c" x="1056.103516"/>
      <use xlink:href="#ArialMT-69" x="1078.320312"/>
      <use xlink:href="#ArialMT-64" x="1100.537109"/>
      <use xlink:href="#ArialMT-65" x="1156.152344"/>
      <use xlink:href="#ArialMT-61" x="1211.767578"/>
      <use xlink:href="#ArialMT-6e" x="1267.382812"/>
      <use xlink:href="#ArialMT-20" x="1322.998047"/>
      <use xlink:href="#ArialMT-44" x="1350.78125"/>
      <use xlink:href="#ArialMT-69" x="1422.998047"/>
      <use xlink:href="#ArialMT-73" x="1445.214844"/>
      <use xlink:href="#ArialMT-74" x="1495.214844"/>
      <use xlink:href="#ArialMT-61" x="1522.998047"/>
      <use xlink:href="#ArialMT-6e" x="1578.613281"/>
      <use xlink:href="#ArialMT-63" x="1634.228516"/>
      <use xlink:href="#ArialMT-65" x="1684.228516"/>
     </g>
    </g>
   </g>
   <g id="PolyCollection_1">
    <defs>
     <path id="ma89cc4a4a2" d="M 65.659886 -58.51397 
L 65.659886 -53.585938 
L 213.723198 -65.807754 
L 263.092974 -89.141074 
L 284.345413 -100.201505 
L 301.962105 -119.337247 
L 315.537767 -122.586577 
L 327.939382 -125.621643 
L 338.768288 -129.31257 
L 347.833508 -133.348139 
L 356.219773 -134.596387 
L 364.186201 -141.526411 
L 371.83203 -151.149655 
L 379.117585 -155.160867 
L 386.19581 -156.58698 
L 392.811203 -159.027362 
L 399.221166 -160.715245 
L 405.412165 -162.937687 
L 411.535488 -168.259935 
L 417.333841 -174.324366 
L 422.925029 -176.561163 
L 428.442092 -178.952895 
L 433.879136 -180.274364 
L 439.132232 -180.991763 
L 444.253422 -182.484318 
L 449.326335 -183.422435 
L 454.311453 -185.640244 
L 459.172306 -191.313628 
L 463.888233 -192.771377 
L 468.491671 -194.599881 
L 473.000945 -195.736899 
L 477.433031 -197.037462 
L 481.689674 -198.284281 
L 485.879659 -200.077613 
L 490.027727 -203.105947 
L 494.146529 -203.737409 
L 498.165733 -204.76625 
L 502.12847 -205.651163 
L 506.033472 -207.917887 
L 509.758734 -208.791458 
L 513.4599 -209.401658 
L 517.042876 -211.366901 
L 520.5714 -213.569453 
L 524.02727 -215.581902 
L 527.456616 -216.278237 
L 530.804287 -216.739316 
L 534.050178 -217.41584 
L 537.199869 -218.44432 
L 540.337555 -219.545244 
L 543.3902 -221.036991 
L 546.312321 -222.629042 
L 549.21521 -223.706145 
L 552.093863 -224.452363 
L 554.951202 -225.696187 
L 557.739535 -226.78246 
L 560.42448 -227.261833 
L 563.081782 -229.233846 
L 565.68228 -230.080542 
L 568.160426 -230.723907 
L 570.576143 -231.754583 
L 572.932614 -232.943803 
L 572.932614 -233.714816 
L 572.932614 -251.454208 
L 572.932614 -251.454208 
L 572.932614 -250.325908 
L 570.576143 -248.962345 
L 568.160426 -247.680672 
L 565.68228 -246.943818 
L 563.081782 -245.856674 
L 560.42448 -243.96968 
L 557.739535 -243.485225 
L 554.951202 -242.25563 
L 552.093863 -240.476401 
L 549.21521 -238.839765 
L 546.312321 -237.629948 
L 543.3902 -236.260293 
L 540.337555 -234.430011 
L 537.199869 -233.118552 
L 534.050178 -231.381658 
L 530.804287 -230.771962 
L 527.456616 -230.135783 
L 524.02727 -229.216973 
L 520.5714 -226.726172 
L 517.042876 -224.627905 
L 513.4599 -222.023727 
L 509.758734 -221.165842 
L 506.033472 -220.29839 
L 502.12847 -218.34917 
L 498.165733 -217.472324 
L 494.146529 -216.095302 
L 490.027727 -215.089649 
L 485.879659 -212.072623 
L 481.689674 -210.451822 
L 477.433031 -209.069381 
L 473.000945 -207.92411 
L 468.491671 -207.202576 
L 463.888233 -205.529272 
L 459.172306 -203.611375 
L 454.311453 -198.508778 
L 449.326335 -196.036029 
L 444.253422 -195.103266 
L 439.132232 -193.703477 
L 433.879136 -192.414492 
L 428.442092 -191.229798 
L 422.925029 -188.15453 
L 417.333841 -184.999611 
L 411.535488 -179.564305 
L 405.412165 -173.080381 
L 399.221166 -169.710019 
L 392.811203 -167.227841 
L 386.19581 -164.299378 
L 379.117585 -162.723421 
L 371.83203 -158.571878 
L 364.186201 -149.999243 
L 356.219773 -142.271973 
L 347.833508 -141.09621 
L 338.768288 -136.270634 
L 327.939382 -133.869901 
L 315.537767 -130.095532 
L 301.962105 -126.785749 
L 284.345413 -105.051445 
L 263.092974 -97.396566 
L 213.723198 -73.194055 
L 65.659886 -58.51397 
z
" style="stroke: #006400; stroke-opacity: 0.15"/>
    </defs>
    <g clip-path="url(#p5ad25c1bb7)">
     <use xlink:href="#ma89cc4a4a2" x="0" y="393.041563" style="fill: #006400; fill-opacity: 0.15; stroke: #006400; stroke-opacity: 0.15"/>
    </g>
   </g>
   <g id="PolyCollection_2">
    <defs>
     <path id="m32b827c21b" d="M 65.659886 -185.646489 
L 65.659886 -151.415662 
L 213.723198 -185.685178 
L 263.092974 -186.670726 
L 284.345413 -194.034911 
L 301.962105 -198.766544 
L 315.537767 -201.994769 
L 327.939382 -203.114914 
L 338.768288 -210.942627 
L 347.833508 -214.03547 
L 356.219773 -218.20546 
L 364.186201 -219.457878 
L 371.83203 -222.352255 
L 379.117585 -222.980792 
L 386.19581 -226.107148 
L 392.811203 -229.692931 
L 399.221166 -231.137176 
L 405.412165 -233.403001 
L 411.535488 -238.139061 
L 417.333841 -240.814936 
L 422.925029 -242.271115 
L 428.442092 -244.187163 
L 433.879136 -247.452649 
L 439.132232 -249.105719 
L 444.253422 -250.569301 
L 449.326335 -253.410831 
L 454.311453 -256.655925 
L 459.172306 -260.417373 
L 463.888233 -261.297353 
L 468.491671 -263.07761 
L 473.000945 -265.845343 
L 477.433031 -268.486253 
L 481.689674 -269.180857 
L 485.879659 -271.278284 
L 490.027727 -273.165215 
L 494.146529 -274.009457 
L 498.165733 -275.116506 
L 502.12847 -276.856766 
L 506.033472 -279.442108 
L 509.758734 -280.925724 
L 513.4599 -281.595216 
L 517.042876 -284.594882 
L 520.5714 -286.220183 
L 524.02727 -288.103205 
L 527.456616 -289.876941 
L 530.804287 -292.449683 
L 534.050178 -294.347818 
L 537.199869 -295.30571 
L 540.337555 -296.212759 
L 543.3902 -297.654695 
L 546.312321 -298.865626 
L 549.21521 -301.189779 
L 552.093863 -304.418338 
L 554.951202 -306.88638 
L 557.739535 -307.966759 
L 560.42448 -309.510098 
L 563.081782 -311.953438 
L 565.68228 -315.177885 
L 568.160426 -317.17571 
L 570.576143 -318.693528 
L 572.932614 -321.207103 
L 572.932614 -321.857628 
L 572.932614 -355.985938 
L 572.932614 -355.985938 
L 572.932614 -355.270476 
L 570.576143 -353.46009 
L 568.160426 -352.157758 
L 565.68228 -351.072305 
L 563.081782 -348.662824 
L 560.42448 -346.719411 
L 557.739535 -345.630306 
L 554.951202 -344.676627 
L 552.093863 -342.329362 
L 549.21521 -339.360801 
L 546.312321 -337.467189 
L 543.3902 -336.063385 
L 540.337555 -334.631637 
L 537.199869 -333.597705 
L 534.050178 -332.448603 
L 530.804287 -331.195304 
L 527.456616 -329.400768 
L 524.02727 -328.078919 
L 520.5714 -326.329341 
L 517.042876 -324.577078 
L 513.4599 -321.497608 
L 509.758734 -320.850323 
L 506.033472 -319.871993 
L 502.12847 -317.060305 
L 498.165733 -315.471771 
L 494.146529 -314.384277 
L 490.027727 -313.296135 
L 485.879659 -311.362945 
L 481.689674 -309.232023 
L 477.433031 -308.520434 
L 473.000945 -305.489442 
L 468.491671 -303.09563 
L 463.888233 -301.212909 
L 459.172306 -300.40224 
L 454.311453 -296.719653 
L 449.326335 -293.656601 
L 444.253422 -291.166201 
L 439.132232 -290.193811 
L 433.879136 -288.652905 
L 428.442092 -285.730593 
L 422.925029 -283.818183 
L 417.333841 -282.650175 
L 411.535488 -280.113488 
L 405.412165 -276.188641 
L 399.221166 -273.997954 
L 392.811203 -272.759218 
L 386.19581 -269.933851 
L 379.117585 -266.996088 
L 371.83203 -266.431072 
L 364.186201 -264.011614 
L 356.219773 -262.492829 
L 347.833508 -259.005924 
L 338.768288 -255.637186 
L 327.939382 -247.527087 
L 315.537767 -246.566539 
L 301.962105 -242.840946 
L 284.345413 -237.425485 
L 263.092974 -232.475582 
L 213.723198 -231.096962 
L 65.659886 -185.646489 
z
" style="stroke: #0000ff; stroke-opacity: 0.15"/>
    </defs>
    <g clip-path="url(#p5ad25c1bb7)">
     <use xlink:href="#m32b827c21b" x="0" y="393.041563" style="fill: #0000ff; fill-opacity: 0.15; stroke: #0000ff; stroke-opacity: 0.15"/>
    </g>
   </g>
   <g id="line2d_19">
    <path d="M 65.659886 336.991609 
L 213.723198 323.540658 
L 263.092974 299.772743 
L 284.345413 290.415088 
L 301.962105 269.980065 
L 315.537767 266.700508 
L 327.939382 263.295791 
L 338.768288 260.249961 
L 347.833508 255.819388 
L 356.219773 254.607382 
L 364.186201 247.278735 
L 371.83203 238.180796 
L 379.117585 234.099418 
L 386.19581 232.598383 
L 392.811203 229.913961 
L 399.221166 227.828931 
L 405.412165 225.032529 
L 411.535488 219.129442 
L 417.333841 213.379574 
L 422.925029 210.683716 
L 428.442092 207.950216 
L 433.879136 206.697134 
L 439.132232 205.693942 
L 444.253422 204.24777 
L 449.326335 203.312331 
L 454.311453 200.967051 
L 459.172306 195.579061 
L 463.888233 193.891238 
L 468.491671 192.140334 
L 473.000945 191.211058 
L 477.433031 189.988141 
L 481.689674 188.673511 
L 485.879659 186.966444 
L 490.027727 183.943765 
L 494.146529 183.125207 
L 498.165733 181.922276 
L 502.12847 181.041396 
L 506.033472 178.933424 
L 509.758734 178.062913 
L 513.4599 177.32887 
L 517.042876 175.044159 
L 520.5714 172.89375 
L 524.02727 170.642125 
L 527.456616 169.834552 
L 530.804287 169.285924 
L 534.050178 168.642813 
L 537.199869 167.260126 
L 540.337555 166.053935 
L 543.3902 164.39292 
L 546.312321 162.912067 
L 549.21521 161.768608 
L 552.093863 160.57718 
L 554.951202 159.065654 
L 557.739535 157.90772 
L 560.42448 157.425806 
L 563.081782 155.496302 
L 565.68228 154.529383 
L 568.160426 153.839273 
L 570.576143 152.683099 
L 572.932614 151.406707 
L 572.932614 150.45705 
" clip-path="url(#p5ad25c1bb7)" style="fill: none; stroke: #006400; stroke-width: 2; stroke-linecap: round"/>
    <defs>
     <path id="mdb09fd7b0b" d="M 0 3 
C 0.795609 3 1.55874 2.683901 2.12132 2.12132 
C 2.683901 1.55874 3 0.795609 3 0 
C 3 -0.795609 2.683901 -1.55874 2.12132 -2.12132 
C 1.55874 -2.683901 0.795609 -3 0 -3 
C -0.795609 -3 -1.55874 -2.683901 -2.12132 -2.12132 
C -2.683901 -1.55874 -3 -0.795609 -3 0 
C -3 0.795609 -2.683901 1.55874 -2.12132 2.12132 
C -1.55874 2.683901 -0.795609 3 0 3 
z
" style="stroke: #006400"/>
    </defs>
    <g clip-path="url(#p5ad25c1bb7)">
     <use xlink:href="#mdb09fd7b0b" x="65.659886" y="336.991609" style="fill: #006400; stroke: #006400"/>
     <use xlink:href="#mdb09fd7b0b" x="213.723198" y="323.540658" style="fill: #006400; stroke: #006400"/>
     <use xlink:href="#mdb09fd7b0b" x="263.092974" y="299.772743" style="fill: #006400; stroke: #006400"/>
     <use xlink:href="#mdb09fd7b0b" x="284.345413" y="290.415088" style="fill: #006400; stroke: #006400"/>
     <use xlink:href="#mdb09fd7b0b" x="301.962105" y="269.980065" style="fill: #006400; stroke: #006400"/>
     <use xlink:href="#mdb09fd7b0b" x="315.537767" y="266.700508" style="fill: #006400; stroke: #006400"/>
     <use xlink:href="#mdb09fd7b0b" x="327.939382" y="263.295791" style="fill: #006400; stroke: #006400"/>
     <use xlink:href="#mdb09fd7b0b" x="338.768288" y="260.249961" style="fill: #006400; stroke: #006400"/>
     <use xlink:href="#mdb09fd7b0b" x="347.833508" y="255.819388" style="fill: #006400; stroke: #006400"/>
     <use xlink:href="#mdb09fd7b0b" x="356.219773" y="254.607382" style="fill: #006400; stroke: #006400"/>
     <use xlink:href="#mdb09fd7b0b" x="364.186201" y="247.278735" style="fill: #006400; stroke: #006400"/>
     <use xlink:href="#mdb09fd7b0b" x="371.83203" y="238.180796" style="fill: #006400; stroke: #006400"/>
     <use xlink:href="#mdb09fd7b0b" x="379.117585" y="234.099418" style="fill: #006400; stroke: #006400"/>
     <use xlink:href="#mdb09fd7b0b" x="386.19581" y="232.598383" style="fill: #006400; stroke: #006400"/>
     <use xlink:href="#mdb09fd7b0b" x="392.811203" y="229.913961" style="fill: #006400; stroke: #006400"/>
     <use xlink:href="#mdb09fd7b0b" x="399.221166" y="227.828931" style="fill: #006400; stroke: #006400"/>
     <use xlink:href="#mdb09fd7b0b" x="405.412165" y="225.032529" style="fill: #006400; stroke: #006400"/>
     <use xlink:href="#mdb09fd7b0b" x="411.535488" y="219.129442" style="fill: #006400; stroke: #006400"/>
     <use xlink:href="#mdb09fd7b0b" x="417.333841" y="213.379574" style="fill: #006400; stroke: #006400"/>
     <use xlink:href="#mdb09fd7b0b" x="422.925029" y="210.683716" style="fill: #006400; stroke: #006400"/>
     <use xlink:href="#mdb09fd7b0b" x="428.442092" y="207.950216" style="fill: #006400; stroke: #006400"/>
     <use xlink:href="#mdb09fd7b0b" x="433.879136" y="206.697134" style="fill: #006400; stroke: #006400"/>
     <use xlink:href="#mdb09fd7b0b" x="439.132232" y="205.693942" style="fill: #006400; stroke: #006400"/>
     <use xlink:href="#mdb09fd7b0b" x="444.253422" y="204.24777" style="fill: #006400; stroke: #006400"/>
     <use xlink:href="#mdb09fd7b0b" x="449.326335" y="203.312331" style="fill: #006400; stroke: #006400"/>
     <use xlink:href="#mdb09fd7b0b" x="454.311453" y="200.967051" style="fill: #006400; stroke: #006400"/>
     <use xlink:href="#mdb09fd7b0b" x="459.172306" y="195.579061" style="fill: #006400; stroke: #006400"/>
     <use xlink:href="#mdb09fd7b0b" x="463.888233" y="193.891238" style="fill: #006400; stroke: #006400"/>
     <use xlink:href="#mdb09fd7b0b" x="468.491671" y="192.140334" style="fill: #006400; stroke: #006400"/>
     <use xlink:href="#mdb09fd7b0b" x="473.000945" y="191.211058" style="fill: #006400; stroke: #006400"/>
     <use xlink:href="#mdb09fd7b0b" x="477.433031" y="189.988141" style="fill: #006400; stroke: #006400"/>
     <use xlink:href="#mdb09fd7b0b" x="481.689674" y="188.673511" style="fill: #006400; stroke: #006400"/>
     <use xlink:href="#mdb09fd7b0b" x="485.879659" y="186.966444" style="fill: #006400; stroke: #006400"/>
     <use xlink:href="#mdb09fd7b0b" x="490.027727" y="183.943765" style="fill: #006400; stroke: #006400"/>
     <use xlink:href="#mdb09fd7b0b" x="494.146529" y="183.125207" style="fill: #006400; stroke: #006400"/>
     <use xlink:href="#mdb09fd7b0b" x="498.165733" y="181.922276" style="fill: #006400; stroke: #006400"/>
     <use xlink:href="#mdb09fd7b0b" x="502.12847" y="181.041396" style="fill: #006400; stroke: #006400"/>
     <use xlink:href="#mdb09fd7b0b" x="506.033472" y="178.933424" style="fill: #006400; stroke: #006400"/>
     <use xlink:href="#mdb09fd7b0b" x="509.758734" y="178.062913" style="fill: #006400; stroke: #006400"/>
     <use xlink:href="#mdb09fd7b0b" x="513.4599" y="177.32887" style="fill: #006400; stroke: #006400"/>
     <use xlink:href="#mdb09fd7b0b" x="517.042876" y="175.044159" style="fill: #006400; stroke: #006400"/>
     <use xlink:href="#mdb09fd7b0b" x="520.5714" y="172.89375" style="fill: #006400; stroke: #006400"/>
     <use xlink:href="#mdb09fd7b0b" x="524.02727" y="170.642125" style="fill: #006400; stroke: #006400"/>
     <use xlink:href="#mdb09fd7b0b" x="527.456616" y="169.834552" style="fill: #006400; stroke: #006400"/>
     <use xlink:href="#mdb09fd7b0b" x="530.804287" y="169.285924" style="fill: #006400; stroke: #006400"/>
     <use xlink:href="#mdb09fd7b0b" x="534.050178" y="168.642813" style="fill: #006400; stroke: #006400"/>
     <use xlink:href="#mdb09fd7b0b" x="537.199869" y="167.260126" style="fill: #006400; stroke: #006400"/>
     <use xlink:href="#mdb09fd7b0b" x="540.337555" y="166.053935" style="fill: #006400; stroke: #006400"/>
     <use xlink:href="#mdb09fd7b0b" x="543.3902" y="164.39292" style="fill: #006400; stroke: #006400"/>
     <use xlink:href="#mdb09fd7b0b" x="546.312321" y="162.912067" style="fill: #006400; stroke: #006400"/>
     <use xlink:href="#mdb09fd7b0b" x="549.21521" y="161.768608" style="fill: #006400; stroke: #006400"/>
     <use xlink:href="#mdb09fd7b0b" x="552.093863" y="160.57718" style="fill: #006400; stroke: #006400"/>
     <use xlink:href="#mdb09fd7b0b" x="554.951202" y="159.065654" style="fill: #006400; stroke: #006400"/>
     <use xlink:href="#mdb09fd7b0b" x="557.739535" y="157.90772" style="fill: #006400; stroke: #006400"/>
     <use xlink:href="#mdb09fd7b0b" x="560.42448" y="157.425806" style="fill: #006400; stroke: #006400"/>
     <use xlink:href="#mdb09fd7b0b" x="563.081782" y="155.496302" style="fill: #006400; stroke: #006400"/>
     <use xlink:href="#mdb09fd7b0b" x="565.68228" y="154.529383" style="fill: #006400; stroke: #006400"/>
     <use xlink:href="#mdb09fd7b0b" x="568.160426" y="153.839273" style="fill: #006400; stroke: #006400"/>
     <use xlink:href="#mdb09fd7b0b" x="570.576143" y="152.683099" style="fill: #006400; stroke: #006400"/>
     <use xlink:href="#mdb09fd7b0b" x="572.932614" y="151.406707" style="fill: #006400; stroke: #006400"/>
     <use xlink:href="#mdb09fd7b0b" x="572.932614" y="150.45705" style="fill: #006400; stroke: #006400"/>
    </g>
   </g>
   <g id="line2d_20">
    <path d="M 65.659886 224.510487 
L 213.723198 184.650492 
L 263.092974 183.468409 
L 284.345413 177.311364 
L 301.962105 172.237817 
L 315.537767 168.760908 
L 327.939382 167.720562 
L 338.768288 159.751656 
L 347.833508 156.520865 
L 356.219773 152.692418 
L 364.186201 151.306817 
L 371.83203 148.649899 
L 379.117585 148.053123 
L 386.19581 145.021063 
L 392.811203 141.815488 
L 399.221166 140.473998 
L 405.412165 138.245741 
L 411.535488 133.915288 
L 417.333841 131.309007 
L 422.925029 129.996913 
L 428.442092 128.082685 
L 433.879136 124.988785 
L 439.132232 123.391798 
L 444.253422 122.173811 
L 449.326335 119.507846 
L 454.311453 116.353773 
L 459.172306 112.631756 
L 463.888233 111.786432 
L 468.491671 109.954942 
L 473.000945 107.37417 
L 477.433031 104.538219 
L 481.689674 103.835122 
L 485.879659 101.720948 
L 490.027727 99.810887 
L 494.146529 98.844695 
L 498.165733 97.747424 
L 502.12847 96.083027 
L 506.033472 93.384512 
L 509.758734 92.153539 
L 513.4599 91.495151 
L 517.042876 88.455583 
L 520.5714 86.7668 
L 524.02727 84.9505 
L 527.456616 83.402708 
L 530.804287 81.219069 
L 534.050178 79.643352 
L 537.199869 78.589855 
L 540.337555 77.619365 
L 543.3902 76.182522 
L 546.312321 74.875155 
L 549.21521 72.766273 
L 552.093863 69.667712 
L 554.951202 67.260059 
L 557.739535 66.24303 
L 560.42448 64.926808 
L 563.081782 62.733432 
L 565.68228 59.916468 
L 568.160426 58.374829 
L 570.576143 56.964754 
L 572.932614 54.802773 
L 572.932614 54.11978 
" clip-path="url(#p5ad25c1bb7)" style="fill: none; stroke: #0000ff; stroke-width: 2; stroke-linecap: round"/>
    <defs>
     <path id="m9179231004" d="M 0 3 
C 0.795609 3 1.55874 2.683901 2.12132 2.12132 
C 2.683901 1.55874 3 0.795609 3 0 
C 3 -0.795609 2.683901 -1.55874 2.12132 -2.12132 
C 1.55874 -2.683901 0.795609 -3 0 -3 
C -0.795609 -3 -1.55874 -2.683901 -2.12132 -2.12132 
C -2.683901 -1.55874 -3 -0.795609 -3 0 
C -3 0.795609 -2.683901 1.55874 -2.12132 2.12132 
C -1.55874 2.683901 -0.795609 3 0 3 
z
" style="stroke: #0000ff"/>
    </defs>
    <g clip-path="url(#p5ad25c1bb7)">
     <use xlink:href="#m9179231004" x="65.659886" y="224.510487" style="fill: #0000ff; stroke: #0000ff"/>
     <use xlink:href="#m9179231004" x="213.723198" y="184.650492" style="fill: #0000ff; stroke: #0000ff"/>
     <use xlink:href="#m9179231004" x="263.092974" y="183.468409" style="fill: #0000ff; stroke: #0000ff"/>
     <use xlink:href="#m9179231004" x="284.345413" y="177.311364" style="fill: #0000ff; stroke: #0000ff"/>
     <use xlink:href="#m9179231004" x="301.962105" y="172.237817" style="fill: #0000ff; stroke: #0000ff"/>
     <use xlink:href="#m9179231004" x="315.537767" y="168.760908" style="fill: #0000ff; stroke: #0000ff"/>
     <use xlink:href="#m9179231004" x="327.939382" y="167.720562" style="fill: #0000ff; stroke: #0000ff"/>
     <use xlink:href="#m9179231004" x="338.768288" y="159.751656" style="fill: #0000ff; stroke: #0000ff"/>
     <use xlink:href="#m9179231004" x="347.833508" y="156.520865" style="fill: #0000ff; stroke: #0000ff"/>
     <use xlink:href="#m9179231004" x="356.219773" y="152.692418" style="fill: #0000ff; stroke: #0000ff"/>
     <use xlink:href="#m9179231004" x="364.186201" y="151.306817" style="fill: #0000ff; stroke: #0000ff"/>
     <use xlink:href="#m9179231004" x="371.83203" y="148.649899" style="fill: #0000ff; stroke: #0000ff"/>
     <use xlink:href="#m9179231004" x="379.117585" y="148.053123" style="fill: #0000ff; stroke: #0000ff"/>
     <use xlink:href="#m9179231004" x="386.19581" y="145.021063" style="fill: #0000ff; stroke: #0000ff"/>
     <use xlink:href="#m9179231004" x="392.811203" y="141.815488" style="fill: #0000ff; stroke: #0000ff"/>
     <use xlink:href="#m9179231004" x="399.221166" y="140.473998" style="fill: #0000ff; stroke: #0000ff"/>
     <use xlink:href="#m9179231004" x="405.412165" y="138.245741" style="fill: #0000ff; stroke: #0000ff"/>
     <use xlink:href="#m9179231004" x="411.535488" y="133.915288" style="fill: #0000ff; stroke: #0000ff"/>
     <use xlink:href="#m9179231004" x="417.333841" y="131.309007" style="fill: #0000ff; stroke: #0000ff"/>
     <use xlink:href="#m9179231004" x="422.925029" y="129.996913" style="fill: #0000ff; stroke: #0000ff"/>
     <use xlink:href="#m9179231004" x="428.442092" y="128.082685" style="fill: #0000ff; stroke: #0000ff"/>
     <use xlink:href="#m9179231004" x="433.879136" y="124.988785" style="fill: #0000ff; stroke: #0000ff"/>
     <use xlink:href="#m9179231004" x="439.132232" y="123.391798" style="fill: #0000ff; stroke: #0000ff"/>
     <use xlink:href="#m9179231004" x="444.253422" y="122.173811" style="fill: #0000ff; stroke: #0000ff"/>
     <use xlink:href="#m9179231004" x="449.326335" y="119.507846" style="fill: #0000ff; stroke: #0000ff"/>
     <use xlink:href="#m9179231004" x="454.311453" y="116.353773" style="fill: #0000ff; stroke: #0000ff"/>
     <use xlink:href="#m9179231004" x="459.172306" y="112.631756" style="fill: #0000ff; stroke: #0000ff"/>
     <use xlink:href="#m9179231004" x="463.888233" y="111.786432" style="fill: #0000ff; stroke: #0000ff"/>
     <use xlink:href="#m9179231004" x="468.491671" y="109.954942" style="fill: #0000ff; stroke: #0000ff"/>
     <use xlink:href="#m9179231004" x="473.000945" y="107.37417" style="fill: #0000ff; stroke: #0000ff"/>
     <use xlink:href="#m9179231004" x="477.433031" y="104.538219" style="fill: #0000ff; stroke: #0000ff"/>
     <use xlink:href="#m9179231004" x="481.689674" y="103.835122" style="fill: #0000ff; stroke: #0000ff"/>
     <use xlink:href="#m9179231004" x="485.879659" y="101.720948" style="fill: #0000ff; stroke: #0000ff"/>
     <use xlink:href="#m9179231004" x="490.027727" y="99.810887" style="fill: #0000ff; stroke: #0000ff"/>
     <use xlink:href="#m9179231004" x="494.146529" y="98.844695" style="fill: #0000ff; stroke: #0000ff"/>
     <use xlink:href="#m9179231004" x="498.165733" y="97.747424" style="fill: #0000ff; stroke: #0000ff"/>
     <use xlink:href="#m9179231004" x="502.12847" y="96.083027" style="fill: #0000ff; stroke: #0000ff"/>
     <use xlink:href="#m9179231004" x="506.033472" y="93.384512" style="fill: #0000ff; stroke: #0000ff"/>
     <use xlink:href="#m9179231004" x="509.758734" y="92.153539" style="fill: #0000ff; stroke: #0000ff"/>
     <use xlink:href="#m9179231004" x="513.4599" y="91.495151" style="fill: #0000ff; stroke: #0000ff"/>
     <use xlink:href="#m9179231004" x="517.042876" y="88.455583" style="fill: #0000ff; stroke: #0000ff"/>
     <use xlink:href="#m9179231004" x="520.5714" y="86.7668" style="fill: #0000ff; stroke: #0000ff"/>
     <use xlink:href="#m9179231004" x="524.02727" y="84.9505" style="fill: #0000ff; stroke: #0000ff"/>
     <use xlink:href="#m9179231004" x="527.456616" y="83.402708" style="fill: #0000ff; stroke: #0000ff"/>
     <use xlink:href="#m9179231004" x="530.804287" y="81.219069" style="fill: #0000ff; stroke: #0000ff"/>
     <use xlink:href="#m9179231004" x="534.050178" y="79.643352" style="fill: #0000ff; stroke: #0000ff"/>
     <use xlink:href="#m9179231004" x="537.199869" y="78.589855" style="fill: #0000ff; stroke: #0000ff"/>
     <use xlink:href="#m9179231004" x="540.337555" y="77.619365" style="fill: #0000ff; stroke: #0000ff"/>
     <use xlink:href="#m9179231004" x="543.3902" y="76.182522" style="fill: #0000ff; stroke: #0000ff"/>
     <use xlink:href="#m9179231004" x="546.312321" y="74.875155" style="fill: #0000ff; stroke: #0000ff"/>
     <use xlink:href="#m9179231004" x="549.21521" y="72.766273" style="fill: #0000ff; stroke: #0000ff"/>
     <use xlink:href="#m9179231004" x="552.093863" y="69.667712" style="fill: #0000ff; stroke: #0000ff"/>
     <use xlink:href="#m9179231004" x="554.951202" y="67.260059" style="fill: #0000ff; stroke: #0000ff"/>
     <use xlink:href="#m9179231004" x="557.739535" y="66.24303" style="fill: #0000ff; stroke: #0000ff"/>
     <use xlink:href="#m9179231004" x="560.42448" y="64.926808" style="fill: #0000ff; stroke: #0000ff"/>
     <use xlink:href="#m9179231004" x="563.081782" y="62.733432" style="fill: #0000ff; stroke: #0000ff"/>
     <use xlink:href="#m9179231004" x="565.68228" y="59.916468" style="fill: #0000ff; stroke: #0000ff"/>
     <use xlink:href="#m9179231004" x="568.160426" y="58.374829" style="fill: #0000ff; stroke: #0000ff"/>
     <use xlink:href="#m9179231004" x="570.576143" y="56.964754" style="fill: #0000ff; stroke: #0000ff"/>
     <use xlink:href="#m9179231004" x="572.932614" y="54.802773" style="fill: #0000ff; stroke: #0000ff"/>
     <use xlink:href="#m9179231004" x="572.932614" y="54.11978" style="fill: #0000ff; stroke: #0000ff"/>
    </g>
   </g>
   <g id="line2d_21">
    <path d="M 65.659886 334.480412 
L 213.723198 324.192455 
L 263.092974 317.109194 
L 284.345413 311.351664 
L 301.962105 306.373191 
L 315.537767 301.92347 
L 327.939382 297.86301 
L 338.768288 294.104624 
L 347.833508 290.589503 
L 356.219773 287.275756 
L 364.186201 284.13229 
L 371.83203 281.135275 
L 379.117585 278.265971 
L 386.19581 275.509322 
L 392.811203 272.853015 
L 399.221166 270.286832 
L 405.412165 267.802178 
L 411.535488 265.391743 
L 417.333841 263.049249 
L 422.925029 260.769255 
L 428.442092 258.54701 
L 433.879136 256.378337 
L 439.132232 254.259539 
L 444.253422 252.187325 
L 449.326335 250.158751 
L 454.311453 248.171171 
L 459.172306 246.222196 
L 463.888233 244.30966 
L 468.491671 242.431592 
L 473.000945 240.586194 
L 477.433031 238.771818 
L 481.689674 236.98695 
L 485.879659 235.230195 
L 490.027727 233.500265 
L 494.146529 231.795969 
L 498.165733 230.116198 
L 502.12847 228.459924 
L 506.033472 226.826188 
L 509.758734 225.214094 
L 513.4599 223.622803 
L 517.042876 222.051531 
L 520.5714 220.49954 
L 524.02727 218.966139 
L 527.456616 217.450673 
L 530.804287 215.952529 
L 534.050178 214.471126 
L 537.199869 213.005914 
L 540.337555 211.556374 
L 543.3902 210.122014 
L 546.312321 208.702367 
L 549.21521 207.296988 
L 552.093863 205.905457 
L 554.951202 204.527371 
L 557.739535 203.162348 
L 560.42448 201.810025 
L 563.081782 200.470052 
L 565.68228 199.142097 
L 568.160426 197.825843 
L 570.576143 196.520986 
L 572.932614 195.227235 
L 572.932614 193.944311 
" clip-path="url(#p5ad25c1bb7)" style="fill: none; stroke-dasharray: 5.55,2.4; stroke-dashoffset: 0; stroke: #808080; stroke-width: 1.5"/>
   </g>
   <g id="patch_3">
    <path d="M 40.29625 354.575625 
L 40.29625 21.935625 
" style="fill: none; stroke: #262626; stroke-width: 0.8; stroke-linejoin: miter; stroke-linecap: square"/>
   </g>
   <g id="patch_4">
    <path d="M 598.29625 354.575625 
L 598.29625 21.935625 
" style="fill: none; stroke: #262626; stroke-width: 0.8; stroke-linejoin: miter; stroke-linecap: square"/>
   </g>
   <g id="patch_5">
    <path d="M 40.29625 354.575625 
L 598.29625 354.575625 
" style="fill: none; stroke: #262626; stroke-width: 0.8; stroke-linejoin: miter; stroke-linecap: square"/>
   </g>
   <g id="patch_6">
    <path d="M 40.29625 21.935625 
L 598.29625 21.935625 
" style="fill: none; stroke: #262626; stroke-width: 0.8; stroke-linejoin: miter; stroke-linecap: square"/>
   </g>
   <g id="text_21">
    <!-- Mahalanobis Distance vs. Cumulative Explained Variance (CS2) -->
    <g style="fill: #262626" transform="translate(148.999375 15.935625) scale(0.12 -0.12)">
     <defs>
      <path id="ArialMT-4d" d="M 475 0 
L 475 4581 
L 1388 4581 
L 2472 1338 
Q 2622 884 2691 659 
Q 2769 909 2934 1394 
L 4031 4581 
L 4847 4581 
L 4847 0 
L 4263 0 
L 4263 3834 
L 2931 0 
L 2384 0 
L 1059 3900 
L 1059 0 
L 475 0 
z
" transform="scale(0.015625)"/>
      <path id="ArialMT-68" d="M 422 0 
L 422 4581 
L 984 4581 
L 984 2938 
Q 1378 3394 1978 3394 
Q 2347 3394 2619 3248 
Q 2891 3103 3008 2847 
Q 3125 2591 3125 2103 
L 3125 0 
L 2563 0 
L 2563 2103 
Q 2563 2525 2380 2717 
Q 2197 2909 1863 2909 
Q 1613 2909 1392 2779 
Q 1172 2650 1078 2428 
Q 984 2206 984 1816 
L 984 0 
L 422 0 
z
" transform="scale(0.015625)"/>
      <path id="ArialMT-28" d="M 1497 -1347 
Q 1031 -759 709 28 
Q 388 816 388 1659 
Q 388 2403 628 3084 
Q 909 3875 1497 4659 
L 1900 4659 
Q 1522 4009 1400 3731 
Q 1209 3300 1100 2831 
Q 966 2247 966 1656 
Q 966 153 1900 -1347 
L 1497 -1347 
z
" transform="scale(0.015625)"/>
      <path id="ArialMT-53" d="M 288 1472 
L 859 1522 
Q 900 1178 1048 958 
Q 1197 738 1509 602 
Q 1822 466 2213 466 
Q 2559 466 2825 569 
Q 3091 672 3220 851 
Q 3350 1031 3350 1244 
Q 3350 1459 3225 1620 
Q 3100 1781 2813 1891 
Q 2628 1963 1997 2114 
Q 1366 2266 1113 2400 
Q 784 2572 623 2826 
Q 463 3081 463 3397 
Q 463 3744 659 4045 
Q 856 4347 1234 4503 
Q 1613 4659 2075 4659 
Q 2584 4659 2973 4495 
Q 3363 4331 3572 4012 
Q 3781 3694 3797 3291 
L 3216 3247 
Q 3169 3681 2898 3903 
Q 2628 4125 2100 4125 
Q 1550 4125 1298 3923 
Q 1047 3722 1047 3438 
Q 1047 3191 1225 3031 
Q 1400 2872 2139 2705 
Q 2878 2538 3153 2413 
Q 3553 2228 3743 1945 
Q 3934 1663 3934 1294 
Q 3934 928 3725 604 
Q 3516 281 3123 101 
Q 2731 -78 2241 -78 
Q 1619 -78 1198 103 
Q 778 284 539 648 
Q 300 1013 288 1472 
z
" transform="scale(0.015625)"/>
      <path id="ArialMT-29" d="M 791 -1347 
L 388 -1347 
Q 1322 153 1322 1656 
Q 1322 2244 1188 2822 
Q 1081 3291 891 3722 
Q 769 4003 388 4659 
L 791 4659 
Q 1378 3875 1659 3084 
Q 1900 2403 1900 1659 
Q 1900 816 1576 28 
Q 1253 -759 791 -1347 
z
" transform="scale(0.015625)"/>
     </defs>
     <use xlink:href="#ArialMT-4d"/>
     <use xlink:href="#ArialMT-61" x="83.300781"/>
     <use xlink:href="#ArialMT-68" x="138.916016"/>
     <use xlink:href="#ArialMT-61" x="194.53125"/>
     <use xlink:href="#ArialMT-6c" x="250.146484"/>
     <use xlink:href="#ArialMT-61" x="272.363281"/>
     <use xlink:href="#ArialMT-6e" x="327.978516"/>
     <use xlink:href="#ArialMT-6f" x="383.59375"/>
     <use xlink:href="#ArialMT-62" x="439.208984"/>
     <use xlink:href="#ArialMT-69" x="494.824219"/>
     <use xlink:href="#ArialMT-73" x="517.041016"/>
     <use xlink:href="#ArialMT-20" x="567.041016"/>
     <use xlink:href="#ArialMT-44" x="594.824219"/>
     <use xlink:href="#ArialMT-69" x="667.041016"/>
     <use xlink:href="#ArialMT-73" x="689.257812"/>
     <use xlink:href="#ArialMT-74" x="739.257812"/>
     <use xlink:href="#ArialMT-61" x="767.041016"/>
     <use xlink:href="#ArialMT-6e" x="822.65625"/>
     <use xlink:href="#ArialMT-63" x="878.271484"/>
     <use xlink:href="#ArialMT-65" x="928.271484"/>
     <use xlink:href="#ArialMT-20" x="983.886719"/>
     <use xlink:href="#ArialMT-76" x="1011.669922"/>
     <use xlink:href="#ArialMT-73" x="1061.669922"/>
     <use xlink:href="#ArialMT-2e" x="1111.669922"/>
     <use xlink:href="#ArialMT-20" x="1139.453125"/>
     <use xlink:href="#ArialMT-43" x="1167.236328"/>
     <use xlink:href="#ArialMT-75" x="1239.453125"/>
     <use xlink:href="#ArialMT-6d" x="1295.068359"/>
     <use xlink:href="#ArialMT-75" x="1378.369141"/>
     <use xlink:href="#ArialMT-6c" x="1433.984375"/>
     <use xlink:href="#ArialMT-61" x="1456.201172"/>
     <use xlink:href="#ArialMT-74" x="1511.816406"/>
     <use xlink:href="#ArialMT-69" x="1539.599609"/>
     <use xlink:href="#ArialMT-76" x="1561.816406"/>
     <use xlink:href="#ArialMT-65" x="1611.816406"/>
     <use xlink:href="#ArialMT-20" x="1667.431641"/>
     <use xlink:href="#ArialMT-45" x="1695.214844"/>
     <use xlink:href="#ArialMT-78" x="1761.914062"/>
     <use xlink:href="#ArialMT-70" x="1811.914062"/>
     <use xlink:href="#ArialMT-6c" x="1867.529297"/>
     <use xlink:href="#ArialMT-61" x="1889.746094"/>
     <use xlink:href="#ArialMT-69" x="1945.361328"/>
     <use xlink:href="#ArialMT-6e" x="1967.578125"/>
     <use xlink:href="#ArialMT-65" x="2023.193359"/>
     <use xlink:href="#ArialMT-64" x="2078.808594"/>
     <use xlink:href="#ArialMT-20" x="2134.423828"/>
     <use xlink:href="#ArialMT-56" x="2162.207031"/>
     <use xlink:href="#ArialMT-61" x="2221.53125"/>
     <use xlink:href="#ArialMT-72" x="2277.146484"/>
     <use xlink:href="#ArialMT-69" x="2310.447266"/>
     <use xlink:href="#ArialMT-61" x="2332.664062"/>
     <use xlink:href="#ArialMT-6e" x="2388.279297"/>
     <use xlink:href="#ArialMT-63" x="2443.894531"/>
     <use xlink:href="#ArialMT-65" x="2493.894531"/>
     <use xlink:href="#ArialMT-20" x="2549.509766"/>
     <use xlink:href="#ArialMT-28" x="2577.292969"/>
     <use xlink:href="#ArialMT-43" x="2610.59375"/>
     <use xlink:href="#ArialMT-53" x="2682.810547"/>
     <use xlink:href="#ArialMT-32" x="2749.509766"/>
     <use xlink:href="#ArialMT-29" x="2805.125"/>
    </g>
   </g>
  </g>
 </g>
 <defs>
  <clipPath id="p5ad25c1bb7">
   <rect x="40.29625" y="21.935625" width="558" height="332.64"/>
  </clipPath>
 </defs>
</svg>
