<?xml version="1.0" encoding="utf-8" standalone="no"?>
<!DOCTYPE svg PUBLIC "-//W3C//DTD SVG 1.1//EN"
  "http://www.w3.org/Graphics/SVG/1.1/DTD/svg11.dtd">
<svg xmlns:xlink="http://www.w3.org/1999/xlink" width="576pt" height="432pt" viewBox="0 0 576 432" xmlns="http://www.w3.org/2000/svg" version="1.1">
 <metadata>
  <rdf:RDF xmlns:dc="http://purl.org/dc/elements/1.1/" xmlns:cc="http://creativecommons.org/ns#" xmlns:rdf="http://www.w3.org/1999/02/22-rdf-syntax-ns#">
   <cc:Work>
    <dc:type rdf:resource="http://purl.org/dc/dcmitype/StillImage"/>
    <dc:date>2025-07-02T11:52:39.209545</dc:date>
    <dc:format>image/svg+xml</dc:format>
    <dc:creator>
     <cc:Agent>
      <dc:title>Matplotlib v3.7.2, https://matplotlib.org/</dc:title>
     </cc:Agent>
    </dc:creator>
   </cc:Work>
  </rdf:RDF>
 </metadata>
 <defs>
  <style type="text/css">*{stroke-linejoin: round; stroke-linecap: butt}</style>
 </defs>
 <g id="figure_1">
  <g id="patch_1">
   <path d="M 0 432 
L 576 432 
L 576 0 
L 0 0 
z
" style="fill: #ffffff"/>
  </g>
  <g id="axes_1">
   <g id="patch_2">
    <path d="M 51.68 390.04 
L 565.2 390.04 
L 565.2 25.49625 
L 51.68 25.49625 
z
" style="fill: #ffffff"/>
   </g>
   <g id="matplotlib.axis_1">
    <g id="xtick_1">
     <g id="line2d_1">
      <defs>
       <path id="m9116f906f7" d="M 0 0 
L 0 3.5 
" style="stroke: #262626; stroke-width: 0.8"/>
      </defs>
      <g>
       <use xlink:href="#m9116f906f7" x="111.690662" y="390.04" style="fill: #262626; stroke: #262626; stroke-width: 0.8"/>
      </g>
     </g>
     <g id="text_1">
      <!-- −0.2 -->
      <g style="fill: #262626" transform="translate(101.820349 404.197812) scale(0.1 -0.1)">
       <defs>
        <path id="ArialMT-2212" d="M 3381 1997 
L 356 1997 
L 356 2522 
L 3381 2522 
L 3381 1997 
z
" transform="scale(0.015625)"/>
        <path id="ArialMT-30" d="M 266 2259 
Q 266 3072 433 3567 
Q 600 4063 929 4331 
Q 1259 4600 1759 4600 
Q 2128 4600 2406 4451 
Q 2684 4303 2865 4023 
Q 3047 3744 3150 3342 
Q 3253 2941 3253 2259 
Q 3253 1453 3087 958 
Q 2922 463 2592 192 
Q 2263 -78 1759 -78 
Q 1097 -78 719 397 
Q 266 969 266 2259 
z
M 844 2259 
Q 844 1131 1108 757 
Q 1372 384 1759 384 
Q 2147 384 2411 759 
Q 2675 1134 2675 2259 
Q 2675 3391 2411 3762 
Q 2147 4134 1753 4134 
Q 1366 4134 1134 3806 
Q 844 3388 844 2259 
z
" transform="scale(0.015625)"/>
        <path id="ArialMT-2e" d="M 581 0 
L 581 641 
L 1222 641 
L 1222 0 
L 581 0 
z
" transform="scale(0.015625)"/>
        <path id="ArialMT-32" d="M 3222 541 
L 3222 0 
L 194 0 
Q 188 203 259 391 
Q 375 700 629 1000 
Q 884 1300 1366 1694 
Q 2113 2306 2375 2664 
Q 2638 3022 2638 3341 
Q 2638 3675 2398 3904 
Q 2159 4134 1775 4134 
Q 1369 4134 1125 3890 
Q 881 3647 878 3216 
L 300 3275 
Q 359 3922 746 4261 
Q 1134 4600 1788 4600 
Q 2447 4600 2831 4234 
Q 3216 3869 3216 3328 
Q 3216 3053 3103 2787 
Q 2991 2522 2730 2228 
Q 2469 1934 1863 1422 
Q 1356 997 1212 845 
Q 1069 694 975 541 
L 3222 541 
z
" transform="scale(0.015625)"/>
       </defs>
       <use xlink:href="#ArialMT-2212"/>
       <use xlink:href="#ArialMT-30" x="58.398438"/>
       <use xlink:href="#ArialMT-2e" x="114.013672"/>
       <use xlink:href="#ArialMT-32" x="141.796875"/>
      </g>
     </g>
    </g>
    <g id="xtick_2">
     <g id="line2d_2">
      <g>
       <use xlink:href="#m9116f906f7" x="177.398609" y="390.04" style="fill: #262626; stroke: #262626; stroke-width: 0.8"/>
      </g>
     </g>
     <g id="text_2">
      <!-- 0.0 -->
      <g style="fill: #262626" transform="translate(170.448609 404.197812) scale(0.1 -0.1)">
       <use xlink:href="#ArialMT-30"/>
       <use xlink:href="#ArialMT-2e" x="55.615234"/>
       <use xlink:href="#ArialMT-30" x="83.398438"/>
      </g>
     </g>
    </g>
    <g id="xtick_3">
     <g id="line2d_3">
      <g>
       <use xlink:href="#m9116f906f7" x="243.106557" y="390.04" style="fill: #262626; stroke: #262626; stroke-width: 0.8"/>
      </g>
     </g>
     <g id="text_3">
      <!-- 0.2 -->
      <g style="fill: #262626" transform="translate(236.156557 404.197812) scale(0.1 -0.1)">
       <use xlink:href="#ArialMT-30"/>
       <use xlink:href="#ArialMT-2e" x="55.615234"/>
       <use xlink:href="#ArialMT-32" x="83.398438"/>
      </g>
     </g>
    </g>
    <g id="xtick_4">
     <g id="line2d_4">
      <g>
       <use xlink:href="#m9116f906f7" x="308.814505" y="390.04" style="fill: #262626; stroke: #262626; stroke-width: 0.8"/>
      </g>
     </g>
     <g id="text_4">
      <!-- 0.4 -->
      <g style="fill: #262626" transform="translate(301.864505 404.197812) scale(0.1 -0.1)">
       <defs>
        <path id="ArialMT-34" d="M 2069 0 
L 2069 1097 
L 81 1097 
L 81 1613 
L 2172 4581 
L 2631 4581 
L 2631 1613 
L 3250 1613 
L 3250 1097 
L 2631 1097 
L 2631 0 
L 2069 0 
z
M 2069 1613 
L 2069 3678 
L 634 1613 
L 2069 1613 
z
" transform="scale(0.015625)"/>
       </defs>
       <use xlink:href="#ArialMT-30"/>
       <use xlink:href="#ArialMT-2e" x="55.615234"/>
       <use xlink:href="#ArialMT-34" x="83.398438"/>
      </g>
     </g>
    </g>
    <g id="xtick_5">
     <g id="line2d_5">
      <g>
       <use xlink:href="#m9116f906f7" x="374.522453" y="390.04" style="fill: #262626; stroke: #262626; stroke-width: 0.8"/>
      </g>
     </g>
     <g id="text_5">
      <!-- 0.6 -->
      <g style="fill: #262626" transform="translate(367.572453 404.197812) scale(0.1 -0.1)">
       <defs>
        <path id="ArialMT-36" d="M 3184 3459 
L 2625 3416 
Q 2550 3747 2413 3897 
Q 2184 4138 1850 4138 
Q 1581 4138 1378 3988 
Q 1113 3794 959 3422 
Q 806 3050 800 2363 
Q 1003 2672 1297 2822 
Q 1591 2972 1913 2972 
Q 2475 2972 2870 2558 
Q 3266 2144 3266 1488 
Q 3266 1056 3080 686 
Q 2894 316 2569 119 
Q 2244 -78 1831 -78 
Q 1128 -78 684 439 
Q 241 956 241 2144 
Q 241 3472 731 4075 
Q 1159 4600 1884 4600 
Q 2425 4600 2770 4297 
Q 3116 3994 3184 3459 
z
M 888 1484 
Q 888 1194 1011 928 
Q 1134 663 1356 523 
Q 1578 384 1822 384 
Q 2178 384 2434 671 
Q 2691 959 2691 1453 
Q 2691 1928 2437 2201 
Q 2184 2475 1800 2475 
Q 1419 2475 1153 2201 
Q 888 1928 888 1484 
z
" transform="scale(0.015625)"/>
       </defs>
       <use xlink:href="#ArialMT-30"/>
       <use xlink:href="#ArialMT-2e" x="55.615234"/>
       <use xlink:href="#ArialMT-36" x="83.398438"/>
      </g>
     </g>
    </g>
    <g id="xtick_6">
     <g id="line2d_6">
      <g>
       <use xlink:href="#m9116f906f7" x="440.2304" y="390.04" style="fill: #262626; stroke: #262626; stroke-width: 0.8"/>
      </g>
     </g>
     <g id="text_6">
      <!-- 0.8 -->
      <g style="fill: #262626" transform="translate(433.2804 404.197812) scale(0.1 -0.1)">
       <defs>
        <path id="ArialMT-38" d="M 1131 2484 
Q 781 2613 612 2850 
Q 444 3088 444 3419 
Q 444 3919 803 4259 
Q 1163 4600 1759 4600 
Q 2359 4600 2725 4251 
Q 3091 3903 3091 3403 
Q 3091 3084 2923 2848 
Q 2756 2613 2416 2484 
Q 2838 2347 3058 2040 
Q 3278 1734 3278 1309 
Q 3278 722 2862 322 
Q 2447 -78 1769 -78 
Q 1091 -78 675 323 
Q 259 725 259 1325 
Q 259 1772 486 2073 
Q 713 2375 1131 2484 
z
M 1019 3438 
Q 1019 3113 1228 2906 
Q 1438 2700 1772 2700 
Q 2097 2700 2305 2904 
Q 2513 3109 2513 3406 
Q 2513 3716 2298 3927 
Q 2084 4138 1766 4138 
Q 1444 4138 1231 3931 
Q 1019 3725 1019 3438 
z
M 838 1322 
Q 838 1081 952 856 
Q 1066 631 1291 507 
Q 1516 384 1775 384 
Q 2178 384 2440 643 
Q 2703 903 2703 1303 
Q 2703 1709 2433 1975 
Q 2163 2241 1756 2241 
Q 1359 2241 1098 1978 
Q 838 1716 838 1322 
z
" transform="scale(0.015625)"/>
       </defs>
       <use xlink:href="#ArialMT-30"/>
       <use xlink:href="#ArialMT-2e" x="55.615234"/>
       <use xlink:href="#ArialMT-38" x="83.398438"/>
      </g>
     </g>
    </g>
    <g id="xtick_7">
     <g id="line2d_7">
      <g>
       <use xlink:href="#m9116f906f7" x="505.938348" y="390.04" style="fill: #262626; stroke: #262626; stroke-width: 0.8"/>
      </g>
     </g>
     <g id="text_7">
      <!-- 1.0 -->
      <g style="fill: #262626" transform="translate(498.988348 404.197812) scale(0.1 -0.1)">
       <defs>
        <path id="ArialMT-31" d="M 2384 0 
L 1822 0 
L 1822 3584 
Q 1619 3391 1289 3197 
Q 959 3003 697 2906 
L 697 3450 
Q 1169 3672 1522 3987 
Q 1875 4303 2022 4600 
L 2384 4600 
L 2384 0 
z
" transform="scale(0.015625)"/>
       </defs>
       <use xlink:href="#ArialMT-31"/>
       <use xlink:href="#ArialMT-2e" x="55.615234"/>
       <use xlink:href="#ArialMT-30" x="83.398438"/>
      </g>
     </g>
    </g>
    <g id="text_8">
     <!-- Projection -->
     <g style="fill: #262626" transform="translate(286.207187 417.343125) scale(0.1 -0.1)">
      <defs>
       <path id="ArialMT-50" d="M 494 0 
L 494 4581 
L 2222 4581 
Q 2678 4581 2919 4538 
Q 3256 4481 3484 4323 
Q 3713 4166 3852 3881 
Q 3991 3597 3991 3256 
Q 3991 2672 3619 2267 
Q 3247 1863 2275 1863 
L 1100 1863 
L 1100 0 
L 494 0 
z
M 1100 2403 
L 2284 2403 
Q 2872 2403 3119 2622 
Q 3366 2841 3366 3238 
Q 3366 3525 3220 3729 
Q 3075 3934 2838 4000 
Q 2684 4041 2272 4041 
L 1100 4041 
L 1100 2403 
z
" transform="scale(0.015625)"/>
       <path id="ArialMT-72" d="M 416 0 
L 416 3319 
L 922 3319 
L 922 2816 
Q 1116 3169 1280 3281 
Q 1444 3394 1641 3394 
Q 1925 3394 2219 3213 
L 2025 2691 
Q 1819 2813 1613 2813 
Q 1428 2813 1281 2702 
Q 1134 2591 1072 2394 
Q 978 2094 978 1738 
L 978 0 
L 416 0 
z
" transform="scale(0.015625)"/>
       <path id="ArialMT-6f" d="M 213 1659 
Q 213 2581 725 3025 
Q 1153 3394 1769 3394 
Q 2453 3394 2887 2945 
Q 3322 2497 3322 1706 
Q 3322 1066 3130 698 
Q 2938 331 2570 128 
Q 2203 -75 1769 -75 
Q 1072 -75 642 372 
Q 213 819 213 1659 
z
M 791 1659 
Q 791 1022 1069 705 
Q 1347 388 1769 388 
Q 2188 388 2466 706 
Q 2744 1025 2744 1678 
Q 2744 2294 2464 2611 
Q 2184 2928 1769 2928 
Q 1347 2928 1069 2612 
Q 791 2297 791 1659 
z
" transform="scale(0.015625)"/>
       <path id="ArialMT-6a" d="M 419 3928 
L 419 4581 
L 981 4581 
L 981 3928 
L 419 3928 
z
M -294 -1288 
L -188 -809 
Q -19 -853 78 -853 
Q 250 -853 334 -739 
Q 419 -625 419 -169 
L 419 3319 
L 981 3319 
L 981 -181 
Q 981 -794 822 -1034 
Q 619 -1347 147 -1347 
Q -81 -1347 -294 -1288 
z
" transform="scale(0.015625)"/>
       <path id="ArialMT-65" d="M 2694 1069 
L 3275 997 
Q 3138 488 2766 206 
Q 2394 -75 1816 -75 
Q 1088 -75 661 373 
Q 234 822 234 1631 
Q 234 2469 665 2931 
Q 1097 3394 1784 3394 
Q 2450 3394 2872 2941 
Q 3294 2488 3294 1666 
Q 3294 1616 3291 1516 
L 816 1516 
Q 847 969 1125 678 
Q 1403 388 1819 388 
Q 2128 388 2347 550 
Q 2566 713 2694 1069 
z
M 847 1978 
L 2700 1978 
Q 2663 2397 2488 2606 
Q 2219 2931 1791 2931 
Q 1403 2931 1139 2672 
Q 875 2413 847 1978 
z
" transform="scale(0.015625)"/>
       <path id="ArialMT-63" d="M 2588 1216 
L 3141 1144 
Q 3050 572 2676 248 
Q 2303 -75 1759 -75 
Q 1078 -75 664 370 
Q 250 816 250 1647 
Q 250 2184 428 2587 
Q 606 2991 970 3192 
Q 1334 3394 1763 3394 
Q 2303 3394 2647 3120 
Q 2991 2847 3088 2344 
L 2541 2259 
Q 2463 2594 2264 2762 
Q 2066 2931 1784 2931 
Q 1359 2931 1093 2626 
Q 828 2322 828 1663 
Q 828 994 1084 691 
Q 1341 388 1753 388 
Q 2084 388 2306 591 
Q 2528 794 2588 1216 
z
" transform="scale(0.015625)"/>
       <path id="ArialMT-74" d="M 1650 503 
L 1731 6 
Q 1494 -44 1306 -44 
Q 1000 -44 831 53 
Q 663 150 594 308 
Q 525 466 525 972 
L 525 2881 
L 113 2881 
L 113 3319 
L 525 3319 
L 525 4141 
L 1084 4478 
L 1084 3319 
L 1650 3319 
L 1650 2881 
L 1084 2881 
L 1084 941 
Q 1084 700 1114 631 
Q 1144 563 1211 522 
Q 1278 481 1403 481 
Q 1497 481 1650 503 
z
" transform="scale(0.015625)"/>
       <path id="ArialMT-69" d="M 425 3934 
L 425 4581 
L 988 4581 
L 988 3934 
L 425 3934 
z
M 425 0 
L 425 3319 
L 988 3319 
L 988 0 
L 425 0 
z
" transform="scale(0.015625)"/>
       <path id="ArialMT-6e" d="M 422 0 
L 422 3319 
L 928 3319 
L 928 2847 
Q 1294 3394 1984 3394 
Q 2284 3394 2536 3286 
Q 2788 3178 2913 3003 
Q 3038 2828 3088 2588 
Q 3119 2431 3119 2041 
L 3119 0 
L 2556 0 
L 2556 2019 
Q 2556 2363 2490 2533 
Q 2425 2703 2258 2804 
Q 2091 2906 1866 2906 
Q 1506 2906 1245 2678 
Q 984 2450 984 1813 
L 984 0 
L 422 0 
z
" transform="scale(0.015625)"/>
      </defs>
      <use xlink:href="#ArialMT-50"/>
      <use xlink:href="#ArialMT-72" x="66.699219"/>
      <use xlink:href="#ArialMT-6f" x="100"/>
      <use xlink:href="#ArialMT-6a" x="155.615234"/>
      <use xlink:href="#ArialMT-65" x="177.832031"/>
      <use xlink:href="#ArialMT-63" x="233.447266"/>
      <use xlink:href="#ArialMT-74" x="283.447266"/>
      <use xlink:href="#ArialMT-69" x="311.230469"/>
      <use xlink:href="#ArialMT-6f" x="333.447266"/>
      <use xlink:href="#ArialMT-6e" x="389.0625"/>
     </g>
    </g>
   </g>
   <g id="matplotlib.axis_2">
    <g id="ytick_1">
     <g id="line2d_8">
      <defs>
       <path id="m734484b5aa" d="M 0 0 
L -3.5 0 
" style="stroke: #262626; stroke-width: 0.8"/>
      </defs>
      <g>
       <use xlink:href="#m734484b5aa" x="51.68" y="368.333999" style="fill: #262626; stroke: #262626; stroke-width: 0.8"/>
      </g>
     </g>
     <g id="text_9">
      <!-- −0.6 -->
      <g style="fill: #262626" transform="translate(24.939375 371.912905) scale(0.1 -0.1)">
       <use xlink:href="#ArialMT-2212"/>
       <use xlink:href="#ArialMT-30" x="58.398438"/>
       <use xlink:href="#ArialMT-2e" x="114.013672"/>
       <use xlink:href="#ArialMT-36" x="141.796875"/>
      </g>
     </g>
    </g>
    <g id="ytick_2">
     <g id="line2d_9">
      <g>
       <use xlink:href="#m734484b5aa" x="51.68" y="324.307397" style="fill: #262626; stroke: #262626; stroke-width: 0.8"/>
      </g>
     </g>
     <g id="text_10">
      <!-- −0.4 -->
      <g style="fill: #262626" transform="translate(24.939375 327.886303) scale(0.1 -0.1)">
       <use xlink:href="#ArialMT-2212"/>
       <use xlink:href="#ArialMT-30" x="58.398438"/>
       <use xlink:href="#ArialMT-2e" x="114.013672"/>
       <use xlink:href="#ArialMT-34" x="141.796875"/>
      </g>
     </g>
    </g>
    <g id="ytick_3">
     <g id="line2d_10">
      <g>
       <use xlink:href="#m734484b5aa" x="51.68" y="280.280795" style="fill: #262626; stroke: #262626; stroke-width: 0.8"/>
      </g>
     </g>
     <g id="text_11">
      <!-- −0.2 -->
      <g style="fill: #262626" transform="translate(24.939375 283.859701) scale(0.1 -0.1)">
       <use xlink:href="#ArialMT-2212"/>
       <use xlink:href="#ArialMT-30" x="58.398438"/>
       <use xlink:href="#ArialMT-2e" x="114.013672"/>
       <use xlink:href="#ArialMT-32" x="141.796875"/>
      </g>
     </g>
    </g>
    <g id="ytick_4">
     <g id="line2d_11">
      <g>
       <use xlink:href="#m734484b5aa" x="51.68" y="236.254193" style="fill: #262626; stroke: #262626; stroke-width: 0.8"/>
      </g>
     </g>
     <g id="text_12">
      <!-- 0.0 -->
      <g style="fill: #262626" transform="translate(30.78 239.8331) scale(0.1 -0.1)">
       <use xlink:href="#ArialMT-30"/>
       <use xlink:href="#ArialMT-2e" x="55.615234"/>
       <use xlink:href="#ArialMT-30" x="83.398438"/>
      </g>
     </g>
    </g>
    <g id="ytick_5">
     <g id="line2d_12">
      <g>
       <use xlink:href="#m734484b5aa" x="51.68" y="192.227592" style="fill: #262626; stroke: #262626; stroke-width: 0.8"/>
      </g>
     </g>
     <g id="text_13">
      <!-- 0.2 -->
      <g style="fill: #262626" transform="translate(30.78 195.806498) scale(0.1 -0.1)">
       <use xlink:href="#ArialMT-30"/>
       <use xlink:href="#ArialMT-2e" x="55.615234"/>
       <use xlink:href="#ArialMT-32" x="83.398438"/>
      </g>
     </g>
    </g>
    <g id="ytick_6">
     <g id="line2d_13">
      <g>
       <use xlink:href="#m734484b5aa" x="51.68" y="148.20099" style="fill: #262626; stroke: #262626; stroke-width: 0.8"/>
      </g>
     </g>
     <g id="text_14">
      <!-- 0.4 -->
      <g style="fill: #262626" transform="translate(30.78 151.779896) scale(0.1 -0.1)">
       <use xlink:href="#ArialMT-30"/>
       <use xlink:href="#ArialMT-2e" x="55.615234"/>
       <use xlink:href="#ArialMT-34" x="83.398438"/>
      </g>
     </g>
    </g>
    <g id="ytick_7">
     <g id="line2d_14">
      <g>
       <use xlink:href="#m734484b5aa" x="51.68" y="104.174388" style="fill: #262626; stroke: #262626; stroke-width: 0.8"/>
      </g>
     </g>
     <g id="text_15">
      <!-- 0.6 -->
      <g style="fill: #262626" transform="translate(30.78 107.753294) scale(0.1 -0.1)">
       <use xlink:href="#ArialMT-30"/>
       <use xlink:href="#ArialMT-2e" x="55.615234"/>
       <use xlink:href="#ArialMT-36" x="83.398438"/>
      </g>
     </g>
    </g>
    <g id="ytick_8">
     <g id="line2d_15">
      <g>
       <use xlink:href="#m734484b5aa" x="51.68" y="60.147786" style="fill: #262626; stroke: #262626; stroke-width: 0.8"/>
      </g>
     </g>
     <g id="text_16">
      <!-- 0.8 -->
      <g style="fill: #262626" transform="translate(30.78 63.726693) scale(0.1 -0.1)">
       <use xlink:href="#ArialMT-30"/>
       <use xlink:href="#ArialMT-2e" x="55.615234"/>
       <use xlink:href="#ArialMT-38" x="83.398438"/>
      </g>
     </g>
    </g>
    <g id="text_17">
     <!-- PC1 -->
     <g style="fill: #262626" transform="translate(18.951875 217.494687) rotate(-90) scale(0.1 -0.1)">
      <defs>
       <path id="ArialMT-43" d="M 3763 1606 
L 4369 1453 
Q 4178 706 3683 314 
Q 3188 -78 2472 -78 
Q 1731 -78 1267 223 
Q 803 525 561 1097 
Q 319 1669 319 2325 
Q 319 3041 592 3573 
Q 866 4106 1370 4382 
Q 1875 4659 2481 4659 
Q 3169 4659 3637 4309 
Q 4106 3959 4291 3325 
L 3694 3184 
Q 3534 3684 3231 3912 
Q 2928 4141 2469 4141 
Q 1941 4141 1586 3887 
Q 1231 3634 1087 3207 
Q 944 2781 944 2328 
Q 944 1744 1114 1308 
Q 1284 872 1643 656 
Q 2003 441 2422 441 
Q 2931 441 3284 734 
Q 3638 1028 3763 1606 
z
" transform="scale(0.015625)"/>
      </defs>
      <use xlink:href="#ArialMT-50"/>
      <use xlink:href="#ArialMT-43" x="66.699219"/>
      <use xlink:href="#ArialMT-31" x="138.916016"/>
     </g>
    </g>
   </g>
   <g id="PathCollection_1">
    <defs>
     <path id="m054fddf713" d="M 0 5 
C 1.326016 5 2.597899 4.473168 3.535534 3.535534 
C 4.473168 2.597899 5 1.326016 5 0 
C 5 -1.326016 4.473168 -2.597899 3.535534 -3.535534 
C 2.597899 -4.473168 1.326016 -5 0 -5 
C -1.326016 -5 -2.597899 -4.473168 -3.535534 -3.535534 
C -4.473168 -2.597899 -5 -1.326016 -5 0 
C -5 1.326016 -4.473168 2.597899 -3.535534 3.535534 
C -2.597899 4.473168 -1.326016 5 0 5 
z
" style="stroke: #006400"/>
    </defs>
    <g clip-path="url(#pfda502279e)">
     <use xlink:href="#m054fddf713" x="75.021818" y="43.658143" style="fill: #006400; stroke: #006400"/>
     <use xlink:href="#m054fddf713" x="217.499985" y="209.830922" style="fill: #006400; stroke: #006400"/>
     <use xlink:href="#m054fddf713" x="239.674025" y="213.404493" style="fill: #006400; stroke: #006400"/>
     <use xlink:href="#m054fddf713" x="330.723487" y="256.615581" style="fill: #006400; stroke: #006400"/>
     <use xlink:href="#m054fddf713" x="257.796583" y="183.74132" style="fill: #006400; stroke: #006400"/>
     <use xlink:href="#m054fddf713" x="340.794104" y="251.671218" style="fill: #006400; stroke: #006400"/>
     <use xlink:href="#m054fddf713" x="349.917553" y="266.147367" style="fill: #006400; stroke: #006400"/>
     <use xlink:href="#m054fddf713" x="302.134407" y="178.380786" style="fill: #006400; stroke: #006400"/>
     <use xlink:href="#m054fddf713" x="350.845065" y="248.36369" style="fill: #006400; stroke: #006400"/>
     <use xlink:href="#m054fddf713" x="377.580913" y="281.871853" style="fill: #006400; stroke: #006400"/>
     <use xlink:href="#m054fddf713" x="400.527537" y="282.120202" style="fill: #006400; stroke: #006400"/>
     <use xlink:href="#m054fddf713" x="418.676947" y="299.51881" style="fill: #006400; stroke: #006400"/>
     <use xlink:href="#m054fddf713" x="424.664325" y="297.809466" style="fill: #006400; stroke: #006400"/>
     <use xlink:href="#m054fddf713" x="420.972608" y="302.222007" style="fill: #006400; stroke: #006400"/>
     <use xlink:href="#m054fddf713" x="391.778608" y="245.684264" style="fill: #006400; stroke: #006400"/>
     <use xlink:href="#m054fddf713" x="377.214202" y="268.305778" style="fill: #006400; stroke: #006400"/>
     <use xlink:href="#m054fddf713" x="393.844392" y="239.188685" style="fill: #006400; stroke: #006400"/>
     <use xlink:href="#m054fddf713" x="425.123046" y="290.403225" style="fill: #006400; stroke: #006400"/>
     <use xlink:href="#m054fddf713" x="398.212637" y="256.076867" style="fill: #006400; stroke: #006400"/>
     <use xlink:href="#m054fddf713" x="344.487533" y="240.068875" style="fill: #006400; stroke: #006400"/>
     <use xlink:href="#m054fddf713" x="404.991063" y="279.439295" style="fill: #006400; stroke: #006400"/>
     <use xlink:href="#m054fddf713" x="408.265361" y="255.132627" style="fill: #006400; stroke: #006400"/>
     <use xlink:href="#m054fddf713" x="354.223367" y="189.302407" style="fill: #006400; stroke: #006400"/>
     <use xlink:href="#m054fddf713" x="410.627418" y="274.553318" style="fill: #006400; stroke: #006400"/>
     <use xlink:href="#m054fddf713" x="333.756826" y="169.076316" style="fill: #006400; stroke: #006400"/>
     <use xlink:href="#m054fddf713" x="438.861301" y="273.049137" style="fill: #006400; stroke: #006400"/>
     <use xlink:href="#m054fddf713" x="439.971825" y="269.798794" style="fill: #006400; stroke: #006400"/>
     <use xlink:href="#m054fddf713" x="407.103194" y="252.665866" style="fill: #006400; stroke: #006400"/>
     <use xlink:href="#m054fddf713" x="417.03645" y="260.682243" style="fill: #006400; stroke: #006400"/>
     <use xlink:href="#m054fddf713" x="453.957959" y="290.060536" style="fill: #006400; stroke: #006400"/>
     <use xlink:href="#m054fddf713" x="470.716377" y="303.238565" style="fill: #006400; stroke: #006400"/>
     <use xlink:href="#m054fddf713" x="469.506589" y="298.163733" style="fill: #006400; stroke: #006400"/>
     <use xlink:href="#m054fddf713" x="423.573834" y="252.759075" style="fill: #006400; stroke: #006400"/>
     <use xlink:href="#m054fddf713" x="325.084261" y="148.564811" style="fill: #006400; stroke: #006400"/>
     <use xlink:href="#m054fddf713" x="372.527601" y="171.109764" style="fill: #006400; stroke: #006400"/>
     <use xlink:href="#m054fddf713" x="361.876937" y="135.351626" style="fill: #006400; stroke: #006400"/>
     <use xlink:href="#m054fddf713" x="435.541911" y="259.573264" style="fill: #006400; stroke: #006400"/>
     <use xlink:href="#m054fddf713" x="401.799247" y="250.556738" style="fill: #006400; stroke: #006400"/>
     <use xlink:href="#m054fddf713" x="426.185885" y="252.586551" style="fill: #006400; stroke: #006400"/>
     <use xlink:href="#m054fddf713" x="384.059795" y="191.101562" style="fill: #006400; stroke: #006400"/>
     <use xlink:href="#m054fddf713" x="447.997569" y="282.980963" style="fill: #006400; stroke: #006400"/>
     <use xlink:href="#m054fddf713" x="360.244787" y="200.67715" style="fill: #006400; stroke: #006400"/>
     <use xlink:href="#m054fddf713" x="439.075363" y="257.265297" style="fill: #006400; stroke: #006400"/>
     <use xlink:href="#m054fddf713" x="452.998278" y="282.07506" style="fill: #006400; stroke: #006400"/>
     <use xlink:href="#m054fddf713" x="478.361735" y="286.124066" style="fill: #006400; stroke: #006400"/>
     <use xlink:href="#m054fddf713" x="427.483655" y="212.039714" style="fill: #006400; stroke: #006400"/>
     <use xlink:href="#m054fddf713" x="451.543232" y="267.72919" style="fill: #006400; stroke: #006400"/>
     <use xlink:href="#m054fddf713" x="471.786199" y="299.091664" style="fill: #006400; stroke: #006400"/>
     <use xlink:href="#m054fddf713" x="462.790089" y="259.859576" style="fill: #006400; stroke: #006400"/>
     <use xlink:href="#m054fddf713" x="466.255341" y="259.32237" style="fill: #006400; stroke: #006400"/>
     <use xlink:href="#m054fddf713" x="474.023702" y="274.411879" style="fill: #006400; stroke: #006400"/>
     <use xlink:href="#m054fddf713" x="441.24097" y="236.298607" style="fill: #006400; stroke: #006400"/>
     <use xlink:href="#m054fddf713" x="442.714294" y="233.784696" style="fill: #006400; stroke: #006400"/>
     <use xlink:href="#m054fddf713" x="465.284461" y="261.117847" style="fill: #006400; stroke: #006400"/>
     <use xlink:href="#m054fddf713" x="429.102587" y="201.295694" style="fill: #006400; stroke: #006400"/>
     <use xlink:href="#m054fddf713" x="426.540534" y="180.905557" style="fill: #006400; stroke: #006400"/>
     <use xlink:href="#m054fddf713" x="415.384033" y="209.242619" style="fill: #006400; stroke: #006400"/>
     <use xlink:href="#m054fddf713" x="459.170109" y="212.798562" style="fill: #006400; stroke: #006400"/>
     <use xlink:href="#m054fddf713" x="485.626546" y="269.051105" style="fill: #006400; stroke: #006400"/>
     <use xlink:href="#m054fddf713" x="486.358436" y="241.735221" style="fill: #006400; stroke: #006400"/>
     <use xlink:href="#m054fddf713" x="434.732377" y="200.772851" style="fill: #006400; stroke: #006400"/>
     <use xlink:href="#m054fddf713" x="487.271407" y="264.5705" style="fill: #006400; stroke: #006400"/>
     <use xlink:href="#m054fddf713" x="461.665507" y="211.439505" style="fill: #006400; stroke: #006400"/>
     <use xlink:href="#m054fddf713" x="488.548872" y="218.687546" style="fill: #006400; stroke: #006400"/>
     <use xlink:href="#m054fddf713" x="440.384012" y="143.264577" style="fill: #006400; stroke: #006400"/>
     <use xlink:href="#m054fddf713" x="511.426189" y="167.711697" style="fill: #006400; stroke: #006400"/>
     <use xlink:href="#m054fddf713" x="514.697166" y="192.971507" style="fill: #006400; stroke: #006400"/>
     <use xlink:href="#m054fddf713" x="491.691688" y="106.210355" style="fill: #006400; stroke: #006400"/>
    </g>
   </g>
   <g id="PathCollection_2">
    <defs>
     <path id="ma53e4fc18f" d="M 0 5 
C 1.326016 5 2.597899 4.473168 3.535534 3.535534 
C 4.473168 2.597899 5 1.326016 5 0 
C 5 -1.326016 4.473168 -2.597899 3.535534 -3.535534 
C 2.597899 -4.473168 1.326016 -5 0 -5 
C -1.326016 -5 -2.597899 -4.473168 -3.535534 -3.535534 
C -4.473168 -2.597899 -5 -1.326016 -5 0 
C -5 1.326016 -4.473168 2.597899 -3.535534 3.535534 
C -2.597899 4.473168 -1.326016 5 0 5 
z
" style="stroke: #00ff00"/>
    </defs>
    <g clip-path="url(#pfda502279e)">
     <use xlink:href="#ma53e4fc18f" x="460.350321" y="266.788101" style="fill: #00ff00; stroke: #00ff00"/>
     <use xlink:href="#ma53e4fc18f" x="463.086221" y="268.658334" style="fill: #00ff00; stroke: #00ff00"/>
     <use xlink:href="#ma53e4fc18f" x="541.858182" y="353.337571" style="fill: #00ff00; stroke: #00ff00"/>
     <use xlink:href="#ma53e4fc18f" x="504.584388" y="318.714035" style="fill: #00ff00; stroke: #00ff00"/>
     <use xlink:href="#ma53e4fc18f" x="421.419562" y="263.214449" style="fill: #00ff00; stroke: #00ff00"/>
     <use xlink:href="#ma53e4fc18f" x="514.42166" y="332.62163" style="fill: #00ff00; stroke: #00ff00"/>
     <use xlink:href="#ma53e4fc18f" x="460.773897" y="310.967182" style="fill: #00ff00; stroke: #00ff00"/>
     <use xlink:href="#ma53e4fc18f" x="459.796195" y="272.327744" style="fill: #00ff00; stroke: #00ff00"/>
     <use xlink:href="#ma53e4fc18f" x="537.389426" y="373.46983" style="fill: #00ff00; stroke: #00ff00"/>
     <use xlink:href="#ma53e4fc18f" x="396.238241" y="179.076244" style="fill: #00ff00; stroke: #00ff00"/>
     <use xlink:href="#ma53e4fc18f" x="511.623592" y="362.694915" style="fill: #00ff00; stroke: #00ff00"/>
     <use xlink:href="#ma53e4fc18f" x="379.127917" y="153.899617" style="fill: #00ff00; stroke: #00ff00"/>
     <use xlink:href="#ma53e4fc18f" x="501.115394" y="311.315618" style="fill: #00ff00; stroke: #00ff00"/>
     <use xlink:href="#ma53e4fc18f" x="439.997758" y="282.369106" style="fill: #00ff00; stroke: #00ff00"/>
     <use xlink:href="#ma53e4fc18f" x="421.107725" y="193.343827" style="fill: #00ff00; stroke: #00ff00"/>
     <use xlink:href="#ma53e4fc18f" x="468.627686" y="284.027656" style="fill: #00ff00; stroke: #00ff00"/>
     <use xlink:href="#ma53e4fc18f" x="432.557701" y="262.518685" style="fill: #00ff00; stroke: #00ff00"/>
     <use xlink:href="#ma53e4fc18f" x="422.254594" y="209.547385" style="fill: #00ff00; stroke: #00ff00"/>
     <use xlink:href="#ma53e4fc18f" x="448.770337" y="266.363771" style="fill: #00ff00; stroke: #00ff00"/>
     <use xlink:href="#ma53e4fc18f" x="448.622119" y="256.661941" style="fill: #00ff00; stroke: #00ff00"/>
     <use xlink:href="#ma53e4fc18f" x="457.012043" y="246.839694" style="fill: #00ff00; stroke: #00ff00"/>
     <use xlink:href="#ma53e4fc18f" x="426.299372" y="206.963006" style="fill: #00ff00; stroke: #00ff00"/>
     <use xlink:href="#ma53e4fc18f" x="456.137976" y="266.767765" style="fill: #00ff00; stroke: #00ff00"/>
     <use xlink:href="#ma53e4fc18f" x="453.492081" y="227.555669" style="fill: #00ff00; stroke: #00ff00"/>
     <use xlink:href="#ma53e4fc18f" x="431.040457" y="220.383806" style="fill: #00ff00; stroke: #00ff00"/>
     <use xlink:href="#ma53e4fc18f" x="472.523362" y="258.332148" style="fill: #00ff00; stroke: #00ff00"/>
     <use xlink:href="#ma53e4fc18f" x="423.089409" y="194.218076" style="fill: #00ff00; stroke: #00ff00"/>
     <use xlink:href="#ma53e4fc18f" x="437.811887" y="185.949456" style="fill: #00ff00; stroke: #00ff00"/>
     <use xlink:href="#ma53e4fc18f" x="522.007981" y="282.652778" style="fill: #00ff00; stroke: #00ff00"/>
     <use xlink:href="#ma53e4fc18f" x="433.902416" y="179.016609" style="fill: #00ff00; stroke: #00ff00"/>
     <use xlink:href="#ma53e4fc18f" x="351.109314" y="79.246263" style="fill: #00ff00; stroke: #00ff00"/>
     <use xlink:href="#ma53e4fc18f" x="362.210436" y="42.414439" style="fill: #00ff00; stroke: #00ff00"/>
     <use xlink:href="#ma53e4fc18f" x="377.948321" y="127.313418" style="fill: #00ff00; stroke: #00ff00"/>
     <use xlink:href="#ma53e4fc18f" x="481.377096" y="238.257053" style="fill: #00ff00; stroke: #00ff00"/>
     <use xlink:href="#ma53e4fc18f" x="454.791421" y="208.463686" style="fill: #00ff00; stroke: #00ff00"/>
     <use xlink:href="#ma53e4fc18f" x="469.642767" y="208.851936" style="fill: #00ff00; stroke: #00ff00"/>
     <use xlink:href="#ma53e4fc18f" x="374.804744" y="127.25817" style="fill: #00ff00; stroke: #00ff00"/>
     <use xlink:href="#ma53e4fc18f" x="347.757581" y="53.450244" style="fill: #00ff00; stroke: #00ff00"/>
     <use xlink:href="#ma53e4fc18f" x="453.120933" y="253.170223" style="fill: #00ff00; stroke: #00ff00"/>
     <use xlink:href="#ma53e4fc18f" x="388.902407" y="84.783145" style="fill: #00ff00; stroke: #00ff00"/>
     <use xlink:href="#ma53e4fc18f" x="424.919138" y="163.09593" style="fill: #00ff00; stroke: #00ff00"/>
     <use xlink:href="#ma53e4fc18f" x="355.301017" y="101.05505" style="fill: #00ff00; stroke: #00ff00"/>
     <use xlink:href="#ma53e4fc18f" x="421.489859" y="185.091805" style="fill: #00ff00; stroke: #00ff00"/>
     <use xlink:href="#ma53e4fc18f" x="356.609448" y="61.124418" style="fill: #00ff00; stroke: #00ff00"/>
     <use xlink:href="#ma53e4fc18f" x="492.120508" y="241.678241" style="fill: #00ff00; stroke: #00ff00"/>
     <use xlink:href="#ma53e4fc18f" x="498.808318" y="229.147428" style="fill: #00ff00; stroke: #00ff00"/>
     <use xlink:href="#ma53e4fc18f" x="435.620248" y="203.806035" style="fill: #00ff00; stroke: #00ff00"/>
     <use xlink:href="#ma53e4fc18f" x="464.789866" y="197.358206" style="fill: #00ff00; stroke: #00ff00"/>
     <use xlink:href="#ma53e4fc18f" x="421.675805" y="156.909058" style="fill: #00ff00; stroke: #00ff00"/>
    </g>
   </g>
   <g id="line2d_16">
    <path d="M 177.398609 155.631186 
" clip-path="url(#pfda502279e)" style="fill: none; stroke: #000000; stroke-width: 1.5; stroke-linecap: round"/>
    <defs>
     <path id="m9c8de1ab2a" d="M 0 5 
C 1.326016 5 2.597899 4.473168 3.535534 3.535534 
C 4.473168 2.597899 5 1.326016 5 0 
C 5 -1.326016 4.473168 -2.597899 3.535534 -3.535534 
C 2.597899 -4.473168 1.326016 -5 0 -5 
C -1.326016 -5 -2.597899 -4.473168 -3.535534 -3.535534 
C -4.473168 -2.597899 -5 -1.326016 -5 0 
C -5 1.326016 -4.473168 2.597899 -3.535534 3.535534 
C -2.597899 4.473168 -1.326016 5 0 5 
z
" style="stroke: #000000"/>
    </defs>
    <g clip-path="url(#pfda502279e)">
     <use xlink:href="#m9c8de1ab2a" x="177.398609" y="155.631186" style="stroke: #000000"/>
    </g>
   </g>
   <g id="line2d_17">
    <path d="M 505.938348 155.631186 
" clip-path="url(#pfda502279e)" style="fill: none; stroke: #000000; stroke-width: 1.5; stroke-linecap: round"/>
    <g clip-path="url(#pfda502279e)">
     <use xlink:href="#m9c8de1ab2a" x="505.938348" y="155.631186" style="stroke: #000000"/>
    </g>
   </g>
   <g id="line2d_18">
    <path d="M 75.021818 42.06642 
L 79.462983 46.927978 
L 83.904148 51.730952 
L 88.345314 56.475343 
L 92.786479 61.16115 
L 97.227644 65.788374 
L 101.668809 70.357014 
L 106.109974 74.86707 
L 110.551139 79.318543 
L 114.992304 83.711433 
L 119.43347 88.045738 
L 123.874635 92.321461 
L 128.3158 96.5386 
L 132.756965 100.697155 
L 137.19813 104.797127 
L 141.639295 108.838515 
L 146.08046 112.82132 
L 150.521625 116.745541 
L 154.962791 120.611179 
L 159.403956 124.418233 
L 163.845121 128.166704 
L 168.286286 131.856591 
L 172.727451 135.487895 
L 177.168616 139.060615 
L 181.609781 142.574751 
L 186.050947 146.030304 
L 190.492112 149.427274 
L 194.933277 152.76566 
L 199.374442 156.045462 
L 203.815607 159.266681 
L 208.256772 162.429316 
L 212.697937 165.533368 
L 217.139102 168.578837 
L 221.580268 171.565721 
L 226.021433 174.494023 
L 230.462598 177.36374 
L 234.903763 180.174875 
L 239.344928 182.927425 
L 243.786093 185.621392 
L 248.227258 188.256776 
L 252.668424 190.833576 
L 257.109589 193.351793 
L 261.550754 195.811426 
L 265.991919 198.212475 
L 270.433084 200.554941 
L 274.874249 202.838824 
L 279.315414 205.064123 
L 283.756579 207.230838 
L 288.197745 209.33897 
L 292.63891 211.388518 
L 297.080075 213.379483 
L 301.52124 215.311865 
L 305.962405 217.185662 
L 310.40357 219.000877 
L 314.844735 220.757507 
L 319.285901 222.455555 
L 323.727066 224.095018 
L 328.168231 225.675898 
L 332.609396 227.198195 
L 337.050561 228.661908 
L 341.491726 230.067038 
L 345.932891 231.413584 
L 350.374056 232.701546 
L 354.815222 233.930925 
L 359.256387 235.101721 
L 363.697552 236.213933 
L 368.138717 237.267561 
L 372.579882 238.262606 
L 377.021047 239.199067 
L 381.462212 240.076945 
L 385.903378 240.896239 
L 390.344543 241.65695 
L 394.785708 242.359077 
L 399.226873 243.002621 
L 403.668038 243.587581 
L 408.109203 244.113958 
L 412.550368 244.581751 
L 416.991534 244.990961 
L 421.432699 245.341587 
L 425.873864 245.633629 
L 430.315029 245.867088 
L 434.756194 246.041964 
L 439.197359 246.158256 
L 443.638524 246.215964 
L 448.079689 246.215089 
L 452.520855 246.15563 
L 456.96202 246.037588 
L 461.403185 245.860963 
L 465.84435 245.625753 
L 470.285515 245.331961 
L 474.72668 244.979584 
L 479.167845 244.568625 
L 483.609011 244.099081 
L 488.050176 243.570954 
L 492.491341 242.984244 
L 496.932506 242.33895 
L 501.373671 241.635073 
L 505.814836 240.872612 
L 510.256001 240.051567 
L 514.697166 239.171939 
" clip-path="url(#pfda502279e)" style="fill: none; stroke-dasharray: 5.55,2.4; stroke-dashoffset: 0; stroke: #006400; stroke-width: 1.5"/>
   </g>
   <g id="line2d_19">
    <path d="M 347.757581 62.145649 
L 349.718193 66.071727 
L 351.678805 69.975466 
L 353.639417 73.856867 
L 355.600029 77.715931 
L 357.560641 81.552656 
L 359.521254 85.367044 
L 361.481866 89.159094 
L 363.442478 92.928805 
L 365.40309 96.676179 
L 367.363702 100.401214 
L 369.324314 104.103912 
L 371.284926 107.784272 
L 373.245539 111.442294 
L 375.206151 115.077978 
L 377.166763 118.691323 
L 379.127375 122.282331 
L 381.087987 125.851001 
L 383.048599 129.397333 
L 385.009211 132.921327 
L 386.969823 136.422983 
L 388.930436 139.902302 
L 390.891048 143.359282 
L 392.85166 146.793924 
L 394.812272 150.206228 
L 396.772884 153.596194 
L 398.733496 156.963823 
L 400.694108 160.309113 
L 402.65472 163.632065 
L 404.615333 166.93268 
L 406.575945 170.210956 
L 408.536557 173.466895 
L 410.497169 176.700495 
L 412.457781 179.911758 
L 414.418393 183.100682 
L 416.379005 186.267269 
L 418.339618 189.411518 
L 420.30023 192.533429 
L 422.260842 195.633001 
L 424.221454 198.710236 
L 426.182066 201.765133 
L 428.142678 204.797692 
L 430.10329 207.807913 
L 432.063902 210.795796 
L 434.024515 213.761341 
L 435.985127 216.704548 
L 437.945739 219.625417 
L 439.906351 222.523948 
L 441.866963 225.400141 
L 443.827575 228.253996 
L 445.788187 231.085513 
L 447.7488 233.894693 
L 449.709412 236.681534 
L 451.670024 239.446037 
L 453.630636 242.188203 
L 455.591248 244.90803 
L 457.55186 247.60552 
L 459.512472 250.280671 
L 461.473084 252.933485 
L 463.433697 255.56396 
L 465.394309 258.172098 
L 467.354921 260.757897 
L 469.315533 263.321359 
L 471.276145 265.862483 
L 473.236757 268.381269 
L 475.197369 270.877716 
L 477.157981 273.351826 
L 479.118594 275.803598 
L 481.079206 278.233032 
L 483.039818 280.640128 
L 485.00043 283.024886 
L 486.961042 285.387306 
L 488.921654 287.727388 
L 490.882266 290.045132 
L 492.842879 292.340538 
L 494.803491 294.613606 
L 496.764103 296.864337 
L 498.724715 299.092729 
L 500.685327 301.298783 
L 502.645939 303.4825 
L 504.606551 305.643878 
L 506.567163 307.782918 
L 508.527776 309.899621 
L 510.488388 311.993985 
L 512.449 314.066012 
L 514.409612 316.1157 
L 516.370224 318.143051 
L 518.330836 320.148064 
L 520.291448 322.130738 
L 522.252061 324.091075 
L 524.212673 326.029074 
L 526.173285 327.944735 
L 528.133897 329.838057 
L 530.094509 331.709042 
L 532.055121 333.557689 
L 534.015733 335.383998 
L 535.976345 337.187969 
L 537.936958 338.969602 
L 539.89757 340.728897 
L 541.858182 342.465854 
" clip-path="url(#pfda502279e)" style="fill: none; stroke-dasharray: 5.55,2.4; stroke-dashoffset: 0; stroke: #00ff00; stroke-width: 1.5"/>
   </g>
   <g id="patch_3">
    <path d="M 51.68 390.04 
L 51.68 25.49625 
" style="fill: none; stroke: #262626; stroke-width: 0.8; stroke-linejoin: miter; stroke-linecap: square"/>
   </g>
   <g id="patch_4">
    <path d="M 565.2 390.04 
L 565.2 25.49625 
" style="fill: none; stroke: #262626; stroke-width: 0.8; stroke-linejoin: miter; stroke-linecap: square"/>
   </g>
   <g id="patch_5">
    <path d="M 51.68 390.04 
L 565.2 390.04 
" style="fill: none; stroke: #262626; stroke-width: 0.8; stroke-linejoin: miter; stroke-linecap: square"/>
   </g>
   <g id="patch_6">
    <path d="M 51.68 25.49625 
L 565.2 25.49625 
" style="fill: none; stroke: #262626; stroke-width: 0.8; stroke-linejoin: miter; stroke-linecap: square"/>
   </g>
   <g id="text_18">
    <!-- CS1 / R1 (topn=0.3) -->
    <g style="fill: #262626" transform="translate(254.914375 19.49625) scale(0.12 -0.12)">
     <defs>
      <path id="ArialMT-53" d="M 288 1472 
L 859 1522 
Q 900 1178 1048 958 
Q 1197 738 1509 602 
Q 1822 466 2213 466 
Q 2559 466 2825 569 
Q 3091 672 3220 851 
Q 3350 1031 3350 1244 
Q 3350 1459 3225 1620 
Q 3100 1781 2813 1891 
Q 2628 1963 1997 2114 
Q 1366 2266 1113 2400 
Q 784 2572 623 2826 
Q 463 3081 463 3397 
Q 463 3744 659 4045 
Q 856 4347 1234 4503 
Q 1613 4659 2075 4659 
Q 2584 4659 2973 4495 
Q 3363 4331 3572 4012 
Q 3781 3694 3797 3291 
L 3216 3247 
Q 3169 3681 2898 3903 
Q 2628 4125 2100 4125 
Q 1550 4125 1298 3923 
Q 1047 3722 1047 3438 
Q 1047 3191 1225 3031 
Q 1400 2872 2139 2705 
Q 2878 2538 3153 2413 
Q 3553 2228 3743 1945 
Q 3934 1663 3934 1294 
Q 3934 928 3725 604 
Q 3516 281 3123 101 
Q 2731 -78 2241 -78 
Q 1619 -78 1198 103 
Q 778 284 539 648 
Q 300 1013 288 1472 
z
" transform="scale(0.015625)"/>
      <path id="ArialMT-20" transform="scale(0.015625)"/>
      <path id="ArialMT-2f" d="M 0 -78 
L 1328 4659 
L 1778 4659 
L 453 -78 
L 0 -78 
z
" transform="scale(0.015625)"/>
      <path id="ArialMT-52" d="M 503 0 
L 503 4581 
L 2534 4581 
Q 3147 4581 3465 4457 
Q 3784 4334 3975 4021 
Q 4166 3709 4166 3331 
Q 4166 2844 3850 2509 
Q 3534 2175 2875 2084 
Q 3116 1969 3241 1856 
Q 3506 1613 3744 1247 
L 4541 0 
L 3778 0 
L 3172 953 
Q 2906 1366 2734 1584 
Q 2563 1803 2427 1890 
Q 2291 1978 2150 2013 
Q 2047 2034 1813 2034 
L 1109 2034 
L 1109 0 
L 503 0 
z
M 1109 2559 
L 2413 2559 
Q 2828 2559 3062 2645 
Q 3297 2731 3419 2920 
Q 3541 3109 3541 3331 
Q 3541 3656 3305 3865 
Q 3069 4075 2559 4075 
L 1109 4075 
L 1109 2559 
z
" transform="scale(0.015625)"/>
      <path id="ArialMT-28" d="M 1497 -1347 
Q 1031 -759 709 28 
Q 388 816 388 1659 
Q 388 2403 628 3084 
Q 909 3875 1497 4659 
L 1900 4659 
Q 1522 4009 1400 3731 
Q 1209 3300 1100 2831 
Q 966 2247 966 1656 
Q 966 153 1900 -1347 
L 1497 -1347 
z
" transform="scale(0.015625)"/>
      <path id="ArialMT-70" d="M 422 -1272 
L 422 3319 
L 934 3319 
L 934 2888 
Q 1116 3141 1344 3267 
Q 1572 3394 1897 3394 
Q 2322 3394 2647 3175 
Q 2972 2956 3137 2557 
Q 3303 2159 3303 1684 
Q 3303 1175 3120 767 
Q 2938 359 2589 142 
Q 2241 -75 1856 -75 
Q 1575 -75 1351 44 
Q 1128 163 984 344 
L 984 -1272 
L 422 -1272 
z
M 931 1641 
Q 931 1000 1190 694 
Q 1450 388 1819 388 
Q 2194 388 2461 705 
Q 2728 1022 2728 1688 
Q 2728 2322 2467 2637 
Q 2206 2953 1844 2953 
Q 1484 2953 1207 2617 
Q 931 2281 931 1641 
z
" transform="scale(0.015625)"/>
      <path id="ArialMT-3d" d="M 3381 2694 
L 356 2694 
L 356 3219 
L 3381 3219 
L 3381 2694 
z
M 3381 1303 
L 356 1303 
L 356 1828 
L 3381 1828 
L 3381 1303 
z
" transform="scale(0.015625)"/>
      <path id="ArialMT-33" d="M 269 1209 
L 831 1284 
Q 928 806 1161 595 
Q 1394 384 1728 384 
Q 2125 384 2398 659 
Q 2672 934 2672 1341 
Q 2672 1728 2419 1979 
Q 2166 2231 1775 2231 
Q 1616 2231 1378 2169 
L 1441 2663 
Q 1497 2656 1531 2656 
Q 1891 2656 2178 2843 
Q 2466 3031 2466 3422 
Q 2466 3731 2256 3934 
Q 2047 4138 1716 4138 
Q 1388 4138 1169 3931 
Q 950 3725 888 3313 
L 325 3413 
Q 428 3978 793 4289 
Q 1159 4600 1703 4600 
Q 2078 4600 2393 4439 
Q 2709 4278 2876 4000 
Q 3044 3722 3044 3409 
Q 3044 3113 2884 2869 
Q 2725 2625 2413 2481 
Q 2819 2388 3044 2092 
Q 3269 1797 3269 1353 
Q 3269 753 2831 336 
Q 2394 -81 1725 -81 
Q 1122 -81 723 278 
Q 325 638 269 1209 
z
" transform="scale(0.015625)"/>
      <path id="ArialMT-29" d="M 791 -1347 
L 388 -1347 
Q 1322 153 1322 1656 
Q 1322 2244 1188 2822 
Q 1081 3291 891 3722 
Q 769 4003 388 4659 
L 791 4659 
Q 1378 3875 1659 3084 
Q 1900 2403 1900 1659 
Q 1900 816 1576 28 
Q 1253 -759 791 -1347 
z
" transform="scale(0.015625)"/>
     </defs>
     <use xlink:href="#ArialMT-43"/>
     <use xlink:href="#ArialMT-53" x="72.216797"/>
     <use xlink:href="#ArialMT-31" x="138.916016"/>
     <use xlink:href="#ArialMT-20" x="194.53125"/>
     <use xlink:href="#ArialMT-2f" x="222.314453"/>
     <use xlink:href="#ArialMT-20" x="250.097656"/>
     <use xlink:href="#ArialMT-52" x="277.880859"/>
     <use xlink:href="#ArialMT-31" x="350.097656"/>
     <use xlink:href="#ArialMT-20" x="405.712891"/>
     <use xlink:href="#ArialMT-28" x="433.496094"/>
     <use xlink:href="#ArialMT-74" x="466.796875"/>
     <use xlink:href="#ArialMT-6f" x="494.580078"/>
     <use xlink:href="#ArialMT-70" x="550.195312"/>
     <use xlink:href="#ArialMT-6e" x="605.810547"/>
     <use xlink:href="#ArialMT-3d" x="661.425781"/>
     <use xlink:href="#ArialMT-30" x="719.824219"/>
     <use xlink:href="#ArialMT-2e" x="775.439453"/>
     <use xlink:href="#ArialMT-33" x="803.222656"/>
     <use xlink:href="#ArialMT-29" x="858.837891"/>
    </g>
   </g>
   <g id="legend_1">
    <g id="patch_7">
     <path d="M 480.064062 90.463437 
L 558.2 90.463437 
Q 560.2 90.463437 560.2 88.463437 
L 560.2 32.49625 
Q 560.2 30.49625 558.2 30.49625 
L 480.064062 30.49625 
Q 478.064062 30.49625 478.064062 32.49625 
L 478.064062 88.463437 
Q 478.064062 90.463437 480.064062 90.463437 
z
" style="fill: #ffffff; opacity: 0.8; stroke: #cccccc; stroke-linejoin: miter"/>
    </g>
    <g id="PathCollection_3">
     <g>
      <use xlink:href="#m054fddf713" x="492.064062" y="39.029063" style="fill: #006400; stroke: #006400"/>
     </g>
    </g>
    <g id="text_19">
     <!-- CS1 -->
     <g style="fill: #262626" transform="translate(510.064062 41.654063) scale(0.1 -0.1)">
      <use xlink:href="#ArialMT-43"/>
      <use xlink:href="#ArialMT-53" x="72.216797"/>
      <use xlink:href="#ArialMT-31" x="138.916016"/>
     </g>
    </g>
    <g id="PathCollection_4">
     <g>
      <use xlink:href="#ma53e4fc18f" x="492.064062" y="53.174375" style="fill: #00ff00; stroke: #00ff00"/>
     </g>
    </g>
    <g id="text_20">
     <!-- R1 -->
     <g style="fill: #262626" transform="translate(510.064062 55.799375) scale(0.1 -0.1)">
      <use xlink:href="#ArialMT-52"/>
      <use xlink:href="#ArialMT-31" x="72.216797"/>
     </g>
    </g>
    <g id="line2d_20">
     <path d="M 482.064062 66.566563 
L 492.064062 66.566563 
L 502.064062 66.566563 
" style="fill: none; stroke-dasharray: 5.55,2.4; stroke-dashoffset: 0; stroke: #006400; stroke-width: 1.5"/>
    </g>
    <g id="text_21">
     <!-- CS1 poly2 -->
     <g style="fill: #262626" transform="translate(510.064062 70.066563) scale(0.1 -0.1)">
      <defs>
       <path id="ArialMT-6c" d="M 409 0 
L 409 4581 
L 972 4581 
L 972 0 
L 409 0 
z
" transform="scale(0.015625)"/>
       <path id="ArialMT-79" d="M 397 -1278 
L 334 -750 
Q 519 -800 656 -800 
Q 844 -800 956 -737 
Q 1069 -675 1141 -563 
Q 1194 -478 1313 -144 
Q 1328 -97 1363 -6 
L 103 3319 
L 709 3319 
L 1400 1397 
Q 1534 1031 1641 628 
Q 1738 1016 1872 1384 
L 2581 3319 
L 3144 3319 
L 1881 -56 
Q 1678 -603 1566 -809 
Q 1416 -1088 1222 -1217 
Q 1028 -1347 759 -1347 
Q 597 -1347 397 -1278 
z
" transform="scale(0.015625)"/>
      </defs>
      <use xlink:href="#ArialMT-43"/>
      <use xlink:href="#ArialMT-53" x="72.216797"/>
      <use xlink:href="#ArialMT-31" x="138.916016"/>
      <use xlink:href="#ArialMT-20" x="194.53125"/>
      <use xlink:href="#ArialMT-70" x="222.314453"/>
      <use xlink:href="#ArialMT-6f" x="277.929688"/>
      <use xlink:href="#ArialMT-6c" x="333.544922"/>
      <use xlink:href="#ArialMT-79" x="355.761719"/>
      <use xlink:href="#ArialMT-32" x="405.761719"/>
     </g>
    </g>
    <g id="line2d_21">
     <path d="M 482.064062 80.85875 
L 492.064062 80.85875 
L 502.064062 80.85875 
" style="fill: none; stroke-dasharray: 5.55,2.4; stroke-dashoffset: 0; stroke: #00ff00; stroke-width: 1.5"/>
    </g>
    <g id="text_22">
     <!-- R1 poly2 -->
     <g style="fill: #262626" transform="translate(510.064062 84.35875) scale(0.1 -0.1)">
      <use xlink:href="#ArialMT-52"/>
      <use xlink:href="#ArialMT-31" x="72.216797"/>
      <use xlink:href="#ArialMT-20" x="127.832031"/>
      <use xlink:href="#ArialMT-70" x="155.615234"/>
      <use xlink:href="#ArialMT-6f" x="211.230469"/>
      <use xlink:href="#ArialMT-6c" x="266.845703"/>
      <use xlink:href="#ArialMT-79" x="289.0625"/>
      <use xlink:href="#ArialMT-32" x="339.0625"/>
     </g>
    </g>
   </g>
  </g>
 </g>
 <defs>
  <clipPath id="pfda502279e">
   <rect x="51.68" y="25.49625" width="513.52" height="364.54375"/>
  </clipPath>
 </defs>
</svg>
