<?xml version="1.0" encoding="utf-8" standalone="no"?>
<!DOCTYPE svg PUBLIC "-//W3C//DTD SVG 1.1//EN"
  "http://www.w3.org/Graphics/SVG/1.1/DTD/svg11.dtd">
<svg xmlns:xlink="http://www.w3.org/1999/xlink" width="864pt" height="360pt" viewBox="0 0 864 360" xmlns="http://www.w3.org/2000/svg" version="1.1">
 <metadata>
  <rdf:RDF xmlns:dc="http://purl.org/dc/elements/1.1/" xmlns:cc="http://creativecommons.org/ns#" xmlns:rdf="http://www.w3.org/1999/02/22-rdf-syntax-ns#">
   <cc:Work>
    <dc:type rdf:resource="http://purl.org/dc/dcmitype/StillImage"/>
    <dc:date>2025-07-02T11:52:26.857531</dc:date>
    <dc:format>image/svg+xml</dc:format>
    <dc:creator>
     <cc:Agent>
      <dc:title>Matplotlib v3.7.2, https://matplotlib.org/</dc:title>
     </cc:Agent>
    </dc:creator>
   </cc:Work>
  </rdf:RDF>
 </metadata>
 <defs>
  <style type="text/css">*{stroke-linejoin: round; stroke-linecap: butt}</style>
 </defs>
 <g id="figure_1">
  <g id="patch_1">
   <path d="M 0 360 
L 864 360 
L 864 0 
L 0 0 
z
" style="fill: #ffffff"/>
  </g>
  <g id="axes_1">
   <g id="patch_2">
    <path d="M 108 320.4 
L 412.363636 320.4 
L 412.363636 43.2 
L 108 43.2 
z
" style="fill: #ffffff"/>
   </g>
   <g id="matplotlib.axis_1">
    <g id="xtick_1">
     <g id="line2d_1">
      <defs>
       <path id="m164eba49ba" d="M 0 0 
L 0 3.5 
" style="stroke: #262626; stroke-width: 0.8"/>
      </defs>
      <g>
       <use xlink:href="#m164eba49ba" x="112.989568" y="320.4" style="fill: #262626; stroke: #262626; stroke-width: 0.8"/>
      </g>
     </g>
     <g id="text_1">
      <!-- 0 -->
      <g style="fill: #262626" transform="translate(110.209099 334.557813) scale(0.1 -0.1)">
       <defs>
        <path id="ArialMT-30" d="M 266 2259 
Q 266 3072 433 3567 
Q 600 4063 929 4331 
Q 1259 4600 1759 4600 
Q 2128 4600 2406 4451 
Q 2684 4303 2865 4023 
Q 3047 3744 3150 3342 
Q 3253 2941 3253 2259 
Q 3253 1453 3087 958 
Q 2922 463 2592 192 
Q 2263 -78 1759 -78 
Q 1097 -78 719 397 
Q 266 969 266 2259 
z
M 844 2259 
Q 844 1131 1108 757 
Q 1372 384 1759 384 
Q 2147 384 2411 759 
Q 2675 1134 2675 2259 
Q 2675 3391 2411 3762 
Q 2147 4134 1753 4134 
Q 1366 4134 1134 3806 
Q 844 3388 844 2259 
z
" transform="scale(0.015625)"/>
       </defs>
       <use xlink:href="#ArialMT-30"/>
      </g>
     </g>
    </g>
    <g id="xtick_2">
     <g id="line2d_2">
      <g>
       <use xlink:href="#m164eba49ba" x="162.885246" y="320.4" style="fill: #262626; stroke: #262626; stroke-width: 0.8"/>
      </g>
     </g>
     <g id="text_2">
      <!-- 10 -->
      <g style="fill: #262626" transform="translate(157.324308 334.557813) scale(0.1 -0.1)">
       <defs>
        <path id="ArialMT-31" d="M 2384 0 
L 1822 0 
L 1822 3584 
Q 1619 3391 1289 3197 
Q 959 3003 697 2906 
L 697 3450 
Q 1169 3672 1522 3987 
Q 1875 4303 2022 4600 
L 2384 4600 
L 2384 0 
z
" transform="scale(0.015625)"/>
       </defs>
       <use xlink:href="#ArialMT-31"/>
       <use xlink:href="#ArialMT-30" x="55.615234"/>
      </g>
     </g>
    </g>
    <g id="xtick_3">
     <g id="line2d_3">
      <g>
       <use xlink:href="#m164eba49ba" x="212.780924" y="320.4" style="fill: #262626; stroke: #262626; stroke-width: 0.8"/>
      </g>
     </g>
     <g id="text_3">
      <!-- 20 -->
      <g style="fill: #262626" transform="translate(207.219986 334.557813) scale(0.1 -0.1)">
       <defs>
        <path id="ArialMT-32" d="M 3222 541 
L 3222 0 
L 194 0 
Q 188 203 259 391 
Q 375 700 629 1000 
Q 884 1300 1366 1694 
Q 2113 2306 2375 2664 
Q 2638 3022 2638 3341 
Q 2638 3675 2398 3904 
Q 2159 4134 1775 4134 
Q 1369 4134 1125 3890 
Q 881 3647 878 3216 
L 300 3275 
Q 359 3922 746 4261 
Q 1134 4600 1788 4600 
Q 2447 4600 2831 4234 
Q 3216 3869 3216 3328 
Q 3216 3053 3103 2787 
Q 2991 2522 2730 2228 
Q 2469 1934 1863 1422 
Q 1356 997 1212 845 
Q 1069 694 975 541 
L 3222 541 
z
" transform="scale(0.015625)"/>
       </defs>
       <use xlink:href="#ArialMT-32"/>
       <use xlink:href="#ArialMT-30" x="55.615234"/>
      </g>
     </g>
    </g>
    <g id="xtick_4">
     <g id="line2d_4">
      <g>
       <use xlink:href="#m164eba49ba" x="262.676602" y="320.4" style="fill: #262626; stroke: #262626; stroke-width: 0.8"/>
      </g>
     </g>
     <g id="text_4">
      <!-- 30 -->
      <g style="fill: #262626" transform="translate(257.115665 334.557813) scale(0.1 -0.1)">
       <defs>
        <path id="ArialMT-33" d="M 269 1209 
L 831 1284 
Q 928 806 1161 595 
Q 1394 384 1728 384 
Q 2125 384 2398 659 
Q 2672 934 2672 1341 
Q 2672 1728 2419 1979 
Q 2166 2231 1775 2231 
Q 1616 2231 1378 2169 
L 1441 2663 
Q 1497 2656 1531 2656 
Q 1891 2656 2178 2843 
Q 2466 3031 2466 3422 
Q 2466 3731 2256 3934 
Q 2047 4138 1716 4138 
Q 1388 4138 1169 3931 
Q 950 3725 888 3313 
L 325 3413 
Q 428 3978 793 4289 
Q 1159 4600 1703 4600 
Q 2078 4600 2393 4439 
Q 2709 4278 2876 4000 
Q 3044 3722 3044 3409 
Q 3044 3113 2884 2869 
Q 2725 2625 2413 2481 
Q 2819 2388 3044 2092 
Q 3269 1797 3269 1353 
Q 3269 753 2831 336 
Q 2394 -81 1725 -81 
Q 1122 -81 723 278 
Q 325 638 269 1209 
z
" transform="scale(0.015625)"/>
       </defs>
       <use xlink:href="#ArialMT-33"/>
       <use xlink:href="#ArialMT-30" x="55.615234"/>
      </g>
     </g>
    </g>
    <g id="xtick_5">
     <g id="line2d_5">
      <g>
       <use xlink:href="#m164eba49ba" x="312.57228" y="320.4" style="fill: #262626; stroke: #262626; stroke-width: 0.8"/>
      </g>
     </g>
     <g id="text_5">
      <!-- 40 -->
      <g style="fill: #262626" transform="translate(307.011343 334.557813) scale(0.1 -0.1)">
       <defs>
        <path id="ArialMT-34" d="M 2069 0 
L 2069 1097 
L 81 1097 
L 81 1613 
L 2172 4581 
L 2631 4581 
L 2631 1613 
L 3250 1613 
L 3250 1097 
L 2631 1097 
L 2631 0 
L 2069 0 
z
M 2069 1613 
L 2069 3678 
L 634 1613 
L 2069 1613 
z
" transform="scale(0.015625)"/>
       </defs>
       <use xlink:href="#ArialMT-34"/>
       <use xlink:href="#ArialMT-30" x="55.615234"/>
      </g>
     </g>
    </g>
    <g id="xtick_6">
     <g id="line2d_6">
      <g>
       <use xlink:href="#m164eba49ba" x="362.467958" y="320.4" style="fill: #262626; stroke: #262626; stroke-width: 0.8"/>
      </g>
     </g>
     <g id="text_6">
      <!-- 50 -->
      <g style="fill: #262626" transform="translate(356.907021 334.557813) scale(0.1 -0.1)">
       <defs>
        <path id="ArialMT-35" d="M 266 1200 
L 856 1250 
Q 922 819 1161 601 
Q 1400 384 1738 384 
Q 2144 384 2425 690 
Q 2706 997 2706 1503 
Q 2706 1984 2436 2262 
Q 2166 2541 1728 2541 
Q 1456 2541 1237 2417 
Q 1019 2294 894 2097 
L 366 2166 
L 809 4519 
L 3088 4519 
L 3088 3981 
L 1259 3981 
L 1013 2750 
Q 1425 3038 1878 3038 
Q 2478 3038 2890 2622 
Q 3303 2206 3303 1553 
Q 3303 931 2941 478 
Q 2500 -78 1738 -78 
Q 1113 -78 717 272 
Q 322 622 266 1200 
z
" transform="scale(0.015625)"/>
       </defs>
       <use xlink:href="#ArialMT-35"/>
       <use xlink:href="#ArialMT-30" x="55.615234"/>
      </g>
     </g>
    </g>
    <g id="xtick_7">
     <g id="line2d_7">
      <g>
       <use xlink:href="#m164eba49ba" x="412.363636" y="320.4" style="fill: #262626; stroke: #262626; stroke-width: 0.8"/>
      </g>
     </g>
     <g id="text_7">
      <!-- 60 -->
      <g style="fill: #262626" transform="translate(406.802699 334.557813) scale(0.1 -0.1)">
       <defs>
        <path id="ArialMT-36" d="M 3184 3459 
L 2625 3416 
Q 2550 3747 2413 3897 
Q 2184 4138 1850 4138 
Q 1581 4138 1378 3988 
Q 1113 3794 959 3422 
Q 806 3050 800 2363 
Q 1003 2672 1297 2822 
Q 1591 2972 1913 2972 
Q 2475 2972 2870 2558 
Q 3266 2144 3266 1488 
Q 3266 1056 3080 686 
Q 2894 316 2569 119 
Q 2244 -78 1831 -78 
Q 1128 -78 684 439 
Q 241 956 241 2144 
Q 241 3472 731 4075 
Q 1159 4600 1884 4600 
Q 2425 4600 2770 4297 
Q 3116 3994 3184 3459 
z
M 888 1484 
Q 888 1194 1011 928 
Q 1134 663 1356 523 
Q 1578 384 1822 384 
Q 2178 384 2434 671 
Q 2691 959 2691 1453 
Q 2691 1928 2437 2201 
Q 2184 2475 1800 2475 
Q 1419 2475 1153 2201 
Q 888 1928 888 1484 
z
" transform="scale(0.015625)"/>
       </defs>
       <use xlink:href="#ArialMT-36"/>
       <use xlink:href="#ArialMT-30" x="55.615234"/>
      </g>
     </g>
    </g>
    <g id="text_8">
     <!-- Trial number -->
     <g style="fill: #262626" transform="translate(232.307599 347.703125) scale(0.1 -0.1)">
      <defs>
       <path id="ArialMT-54" d="M 1659 0 
L 1659 4041 
L 150 4041 
L 150 4581 
L 3781 4581 
L 3781 4041 
L 2266 4041 
L 2266 0 
L 1659 0 
z
" transform="scale(0.015625)"/>
       <path id="ArialMT-72" d="M 416 0 
L 416 3319 
L 922 3319 
L 922 2816 
Q 1116 3169 1280 3281 
Q 1444 3394 1641 3394 
Q 1925 3394 2219 3213 
L 2025 2691 
Q 1819 2813 1613 2813 
Q 1428 2813 1281 2702 
Q 1134 2591 1072 2394 
Q 978 2094 978 1738 
L 978 0 
L 416 0 
z
" transform="scale(0.015625)"/>
       <path id="ArialMT-69" d="M 425 3934 
L 425 4581 
L 988 4581 
L 988 3934 
L 425 3934 
z
M 425 0 
L 425 3319 
L 988 3319 
L 988 0 
L 425 0 
z
" transform="scale(0.015625)"/>
       <path id="ArialMT-61" d="M 2588 409 
Q 2275 144 1986 34 
Q 1697 -75 1366 -75 
Q 819 -75 525 192 
Q 231 459 231 875 
Q 231 1119 342 1320 
Q 453 1522 633 1644 
Q 813 1766 1038 1828 
Q 1203 1872 1538 1913 
Q 2219 1994 2541 2106 
Q 2544 2222 2544 2253 
Q 2544 2597 2384 2738 
Q 2169 2928 1744 2928 
Q 1347 2928 1158 2789 
Q 969 2650 878 2297 
L 328 2372 
Q 403 2725 575 2942 
Q 747 3159 1072 3276 
Q 1397 3394 1825 3394 
Q 2250 3394 2515 3294 
Q 2781 3194 2906 3042 
Q 3031 2891 3081 2659 
Q 3109 2516 3109 2141 
L 3109 1391 
Q 3109 606 3145 398 
Q 3181 191 3288 0 
L 2700 0 
Q 2613 175 2588 409 
z
M 2541 1666 
Q 2234 1541 1622 1453 
Q 1275 1403 1131 1340 
Q 988 1278 909 1158 
Q 831 1038 831 891 
Q 831 666 1001 516 
Q 1172 366 1500 366 
Q 1825 366 2078 508 
Q 2331 650 2450 897 
Q 2541 1088 2541 1459 
L 2541 1666 
z
" transform="scale(0.015625)"/>
       <path id="ArialMT-6c" d="M 409 0 
L 409 4581 
L 972 4581 
L 972 0 
L 409 0 
z
" transform="scale(0.015625)"/>
       <path id="ArialMT-20" transform="scale(0.015625)"/>
       <path id="ArialMT-6e" d="M 422 0 
L 422 3319 
L 928 3319 
L 928 2847 
Q 1294 3394 1984 3394 
Q 2284 3394 2536 3286 
Q 2788 3178 2913 3003 
Q 3038 2828 3088 2588 
Q 3119 2431 3119 2041 
L 3119 0 
L 2556 0 
L 2556 2019 
Q 2556 2363 2490 2533 
Q 2425 2703 2258 2804 
Q 2091 2906 1866 2906 
Q 1506 2906 1245 2678 
Q 984 2450 984 1813 
L 984 0 
L 422 0 
z
" transform="scale(0.015625)"/>
       <path id="ArialMT-75" d="M 2597 0 
L 2597 488 
Q 2209 -75 1544 -75 
Q 1250 -75 995 37 
Q 741 150 617 320 
Q 494 491 444 738 
Q 409 903 409 1263 
L 409 3319 
L 972 3319 
L 972 1478 
Q 972 1038 1006 884 
Q 1059 663 1231 536 
Q 1403 409 1656 409 
Q 1909 409 2131 539 
Q 2353 669 2445 892 
Q 2538 1116 2538 1541 
L 2538 3319 
L 3100 3319 
L 3100 0 
L 2597 0 
z
" transform="scale(0.015625)"/>
       <path id="ArialMT-6d" d="M 422 0 
L 422 3319 
L 925 3319 
L 925 2853 
Q 1081 3097 1340 3245 
Q 1600 3394 1931 3394 
Q 2300 3394 2536 3241 
Q 2772 3088 2869 2813 
Q 3263 3394 3894 3394 
Q 4388 3394 4653 3120 
Q 4919 2847 4919 2278 
L 4919 0 
L 4359 0 
L 4359 2091 
Q 4359 2428 4304 2576 
Q 4250 2725 4106 2815 
Q 3963 2906 3769 2906 
Q 3419 2906 3187 2673 
Q 2956 2441 2956 1928 
L 2956 0 
L 2394 0 
L 2394 2156 
Q 2394 2531 2256 2718 
Q 2119 2906 1806 2906 
Q 1569 2906 1367 2781 
Q 1166 2656 1075 2415 
Q 984 2175 984 1722 
L 984 0 
L 422 0 
z
" transform="scale(0.015625)"/>
       <path id="ArialMT-62" d="M 941 0 
L 419 0 
L 419 4581 
L 981 4581 
L 981 2947 
Q 1338 3394 1891 3394 
Q 2197 3394 2470 3270 
Q 2744 3147 2920 2923 
Q 3097 2700 3197 2384 
Q 3297 2069 3297 1709 
Q 3297 856 2875 390 
Q 2453 -75 1863 -75 
Q 1275 -75 941 416 
L 941 0 
z
M 934 1684 
Q 934 1088 1097 822 
Q 1363 388 1816 388 
Q 2184 388 2453 708 
Q 2722 1028 2722 1663 
Q 2722 2313 2464 2622 
Q 2206 2931 1841 2931 
Q 1472 2931 1203 2611 
Q 934 2291 934 1684 
z
" transform="scale(0.015625)"/>
       <path id="ArialMT-65" d="M 2694 1069 
L 3275 997 
Q 3138 488 2766 206 
Q 2394 -75 1816 -75 
Q 1088 -75 661 373 
Q 234 822 234 1631 
Q 234 2469 665 2931 
Q 1097 3394 1784 3394 
Q 2450 3394 2872 2941 
Q 3294 2488 3294 1666 
Q 3294 1616 3291 1516 
L 816 1516 
Q 847 969 1125 678 
Q 1403 388 1819 388 
Q 2128 388 2347 550 
Q 2566 713 2694 1069 
z
M 847 1978 
L 2700 1978 
Q 2663 2397 2488 2606 
Q 2219 2931 1791 2931 
Q 1403 2931 1139 2672 
Q 875 2413 847 1978 
z
" transform="scale(0.015625)"/>
      </defs>
      <use xlink:href="#ArialMT-54"/>
      <use xlink:href="#ArialMT-72" x="57.333984"/>
      <use xlink:href="#ArialMT-69" x="90.634766"/>
      <use xlink:href="#ArialMT-61" x="112.851562"/>
      <use xlink:href="#ArialMT-6c" x="168.466797"/>
      <use xlink:href="#ArialMT-20" x="190.683594"/>
      <use xlink:href="#ArialMT-6e" x="218.466797"/>
      <use xlink:href="#ArialMT-75" x="274.082031"/>
      <use xlink:href="#ArialMT-6d" x="329.697266"/>
      <use xlink:href="#ArialMT-62" x="412.998047"/>
      <use xlink:href="#ArialMT-65" x="468.613281"/>
      <use xlink:href="#ArialMT-72" x="524.228516"/>
     </g>
    </g>
   </g>
   <g id="matplotlib.axis_2">
    <g id="ytick_1">
     <g id="line2d_8">
      <defs>
       <path id="m490a816c67" d="M 0 0 
L -3.5 0 
" style="stroke: #262626; stroke-width: 0.8"/>
      </defs>
      <g>
       <use xlink:href="#m490a816c67" x="108" y="286.281636" style="fill: #262626; stroke: #262626; stroke-width: 0.8"/>
      </g>
     </g>
     <g id="text_9">
      <!-- −0.2 -->
      <g style="fill: #262626" transform="translate(81.259375 289.860542) scale(0.1 -0.1)">
       <defs>
        <path id="ArialMT-2212" d="M 3381 1997 
L 356 1997 
L 356 2522 
L 3381 2522 
L 3381 1997 
z
" transform="scale(0.015625)"/>
        <path id="ArialMT-2e" d="M 581 0 
L 581 641 
L 1222 641 
L 1222 0 
L 581 0 
z
" transform="scale(0.015625)"/>
       </defs>
       <use xlink:href="#ArialMT-2212"/>
       <use xlink:href="#ArialMT-30" x="58.398438"/>
       <use xlink:href="#ArialMT-2e" x="114.013672"/>
       <use xlink:href="#ArialMT-32" x="141.796875"/>
      </g>
     </g>
    </g>
    <g id="ytick_2">
     <g id="line2d_9">
      <g>
       <use xlink:href="#m490a816c67" x="108" y="251.368439" style="fill: #262626; stroke: #262626; stroke-width: 0.8"/>
      </g>
     </g>
     <g id="text_10">
      <!-- 0.0 -->
      <g style="fill: #262626" transform="translate(87.1 254.947346) scale(0.1 -0.1)">
       <use xlink:href="#ArialMT-30"/>
       <use xlink:href="#ArialMT-2e" x="55.615234"/>
       <use xlink:href="#ArialMT-30" x="83.398438"/>
      </g>
     </g>
    </g>
    <g id="ytick_3">
     <g id="line2d_10">
      <g>
       <use xlink:href="#m490a816c67" x="108" y="216.455243" style="fill: #262626; stroke: #262626; stroke-width: 0.8"/>
      </g>
     </g>
     <g id="text_11">
      <!-- 0.2 -->
      <g style="fill: #262626" transform="translate(87.1 220.034149) scale(0.1 -0.1)">
       <use xlink:href="#ArialMT-30"/>
       <use xlink:href="#ArialMT-2e" x="55.615234"/>
       <use xlink:href="#ArialMT-32" x="83.398438"/>
      </g>
     </g>
    </g>
    <g id="ytick_4">
     <g id="line2d_11">
      <g>
       <use xlink:href="#m490a816c67" x="108" y="181.542046" style="fill: #262626; stroke: #262626; stroke-width: 0.8"/>
      </g>
     </g>
     <g id="text_12">
      <!-- 0.4 -->
      <g style="fill: #262626" transform="translate(87.1 185.120953) scale(0.1 -0.1)">
       <use xlink:href="#ArialMT-30"/>
       <use xlink:href="#ArialMT-2e" x="55.615234"/>
       <use xlink:href="#ArialMT-34" x="83.398438"/>
      </g>
     </g>
    </g>
    <g id="ytick_5">
     <g id="line2d_12">
      <g>
       <use xlink:href="#m490a816c67" x="108" y="146.62885" style="fill: #262626; stroke: #262626; stroke-width: 0.8"/>
      </g>
     </g>
     <g id="text_13">
      <!-- 0.6 -->
      <g style="fill: #262626" transform="translate(87.1 150.207756) scale(0.1 -0.1)">
       <use xlink:href="#ArialMT-30"/>
       <use xlink:href="#ArialMT-2e" x="55.615234"/>
       <use xlink:href="#ArialMT-36" x="83.398438"/>
      </g>
     </g>
    </g>
    <g id="ytick_6">
     <g id="line2d_13">
      <g>
       <use xlink:href="#m490a816c67" x="108" y="111.715653" style="fill: #262626; stroke: #262626; stroke-width: 0.8"/>
      </g>
     </g>
     <g id="text_14">
      <!-- 0.8 -->
      <g style="fill: #262626" transform="translate(87.1 115.29456) scale(0.1 -0.1)">
       <defs>
        <path id="ArialMT-38" d="M 1131 2484 
Q 781 2613 612 2850 
Q 444 3088 444 3419 
Q 444 3919 803 4259 
Q 1163 4600 1759 4600 
Q 2359 4600 2725 4251 
Q 3091 3903 3091 3403 
Q 3091 3084 2923 2848 
Q 2756 2613 2416 2484 
Q 2838 2347 3058 2040 
Q 3278 1734 3278 1309 
Q 3278 722 2862 322 
Q 2447 -78 1769 -78 
Q 1091 -78 675 323 
Q 259 725 259 1325 
Q 259 1772 486 2073 
Q 713 2375 1131 2484 
z
M 1019 3438 
Q 1019 3113 1228 2906 
Q 1438 2700 1772 2700 
Q 2097 2700 2305 2904 
Q 2513 3109 2513 3406 
Q 2513 3716 2298 3927 
Q 2084 4138 1766 4138 
Q 1444 4138 1231 3931 
Q 1019 3725 1019 3438 
z
M 838 1322 
Q 838 1081 952 856 
Q 1066 631 1291 507 
Q 1516 384 1775 384 
Q 2178 384 2440 643 
Q 2703 903 2703 1303 
Q 2703 1709 2433 1975 
Q 2163 2241 1756 2241 
Q 1359 2241 1098 1978 
Q 838 1716 838 1322 
z
" transform="scale(0.015625)"/>
       </defs>
       <use xlink:href="#ArialMT-30"/>
       <use xlink:href="#ArialMT-2e" x="55.615234"/>
       <use xlink:href="#ArialMT-38" x="83.398438"/>
      </g>
     </g>
    </g>
    <g id="ytick_7">
     <g id="line2d_14">
      <g>
       <use xlink:href="#m490a816c67" x="108" y="76.802457" style="fill: #262626; stroke: #262626; stroke-width: 0.8"/>
      </g>
     </g>
     <g id="text_15">
      <!-- 1.0 -->
      <g style="fill: #262626" transform="translate(87.1 80.381363) scale(0.1 -0.1)">
       <use xlink:href="#ArialMT-31"/>
       <use xlink:href="#ArialMT-2e" x="55.615234"/>
       <use xlink:href="#ArialMT-30" x="83.398438"/>
      </g>
     </g>
    </g>
    <g id="text_16">
     <!-- Similarity to early vs. late -->
     <g style="fill: #262626" transform="translate(64.431562 237.090625) rotate(-90) scale(0.1 -0.1)">
      <defs>
       <path id="ArialMT-53" d="M 288 1472 
L 859 1522 
Q 900 1178 1048 958 
Q 1197 738 1509 602 
Q 1822 466 2213 466 
Q 2559 466 2825 569 
Q 3091 672 3220 851 
Q 3350 1031 3350 1244 
Q 3350 1459 3225 1620 
Q 3100 1781 2813 1891 
Q 2628 1963 1997 2114 
Q 1366 2266 1113 2400 
Q 784 2572 623 2826 
Q 463 3081 463 3397 
Q 463 3744 659 4045 
Q 856 4347 1234 4503 
Q 1613 4659 2075 4659 
Q 2584 4659 2973 4495 
Q 3363 4331 3572 4012 
Q 3781 3694 3797 3291 
L 3216 3247 
Q 3169 3681 2898 3903 
Q 2628 4125 2100 4125 
Q 1550 4125 1298 3923 
Q 1047 3722 1047 3438 
Q 1047 3191 1225 3031 
Q 1400 2872 2139 2705 
Q 2878 2538 3153 2413 
Q 3553 2228 3743 1945 
Q 3934 1663 3934 1294 
Q 3934 928 3725 604 
Q 3516 281 3123 101 
Q 2731 -78 2241 -78 
Q 1619 -78 1198 103 
Q 778 284 539 648 
Q 300 1013 288 1472 
z
" transform="scale(0.015625)"/>
       <path id="ArialMT-74" d="M 1650 503 
L 1731 6 
Q 1494 -44 1306 -44 
Q 1000 -44 831 53 
Q 663 150 594 308 
Q 525 466 525 972 
L 525 2881 
L 113 2881 
L 113 3319 
L 525 3319 
L 525 4141 
L 1084 4478 
L 1084 3319 
L 1650 3319 
L 1650 2881 
L 1084 2881 
L 1084 941 
Q 1084 700 1114 631 
Q 1144 563 1211 522 
Q 1278 481 1403 481 
Q 1497 481 1650 503 
z
" transform="scale(0.015625)"/>
       <path id="ArialMT-79" d="M 397 -1278 
L 334 -750 
Q 519 -800 656 -800 
Q 844 -800 956 -737 
Q 1069 -675 1141 -563 
Q 1194 -478 1313 -144 
Q 1328 -97 1363 -6 
L 103 3319 
L 709 3319 
L 1400 1397 
Q 1534 1031 1641 628 
Q 1738 1016 1872 1384 
L 2581 3319 
L 3144 3319 
L 1881 -56 
Q 1678 -603 1566 -809 
Q 1416 -1088 1222 -1217 
Q 1028 -1347 759 -1347 
Q 597 -1347 397 -1278 
z
" transform="scale(0.015625)"/>
       <path id="ArialMT-6f" d="M 213 1659 
Q 213 2581 725 3025 
Q 1153 3394 1769 3394 
Q 2453 3394 2887 2945 
Q 3322 2497 3322 1706 
Q 3322 1066 3130 698 
Q 2938 331 2570 128 
Q 2203 -75 1769 -75 
Q 1072 -75 642 372 
Q 213 819 213 1659 
z
M 791 1659 
Q 791 1022 1069 705 
Q 1347 388 1769 388 
Q 2188 388 2466 706 
Q 2744 1025 2744 1678 
Q 2744 2294 2464 2611 
Q 2184 2928 1769 2928 
Q 1347 2928 1069 2612 
Q 791 2297 791 1659 
z
" transform="scale(0.015625)"/>
       <path id="ArialMT-76" d="M 1344 0 
L 81 3319 
L 675 3319 
L 1388 1331 
Q 1503 1009 1600 663 
Q 1675 925 1809 1294 
L 2547 3319 
L 3125 3319 
L 1869 0 
L 1344 0 
z
" transform="scale(0.015625)"/>
       <path id="ArialMT-73" d="M 197 991 
L 753 1078 
Q 800 744 1014 566 
Q 1228 388 1613 388 
Q 2000 388 2187 545 
Q 2375 703 2375 916 
Q 2375 1106 2209 1216 
Q 2094 1291 1634 1406 
Q 1016 1563 777 1677 
Q 538 1791 414 1992 
Q 291 2194 291 2438 
Q 291 2659 392 2848 
Q 494 3038 669 3163 
Q 800 3259 1026 3326 
Q 1253 3394 1513 3394 
Q 1903 3394 2198 3281 
Q 2494 3169 2634 2976 
Q 2775 2784 2828 2463 
L 2278 2388 
Q 2241 2644 2061 2787 
Q 1881 2931 1553 2931 
Q 1166 2931 1000 2803 
Q 834 2675 834 2503 
Q 834 2394 903 2306 
Q 972 2216 1119 2156 
Q 1203 2125 1616 2013 
Q 2213 1853 2448 1751 
Q 2684 1650 2818 1456 
Q 2953 1263 2953 975 
Q 2953 694 2789 445 
Q 2625 197 2315 61 
Q 2006 -75 1616 -75 
Q 969 -75 630 194 
Q 291 463 197 991 
z
" transform="scale(0.015625)"/>
      </defs>
      <use xlink:href="#ArialMT-53"/>
      <use xlink:href="#ArialMT-69" x="66.699219"/>
      <use xlink:href="#ArialMT-6d" x="88.916016"/>
      <use xlink:href="#ArialMT-69" x="172.216797"/>
      <use xlink:href="#ArialMT-6c" x="194.433594"/>
      <use xlink:href="#ArialMT-61" x="216.650391"/>
      <use xlink:href="#ArialMT-72" x="272.265625"/>
      <use xlink:href="#ArialMT-69" x="305.566406"/>
      <use xlink:href="#ArialMT-74" x="327.783203"/>
      <use xlink:href="#ArialMT-79" x="355.566406"/>
      <use xlink:href="#ArialMT-20" x="405.566406"/>
      <use xlink:href="#ArialMT-74" x="433.349609"/>
      <use xlink:href="#ArialMT-6f" x="461.132812"/>
      <use xlink:href="#ArialMT-20" x="516.748047"/>
      <use xlink:href="#ArialMT-65" x="544.53125"/>
      <use xlink:href="#ArialMT-61" x="600.146484"/>
      <use xlink:href="#ArialMT-72" x="655.761719"/>
      <use xlink:href="#ArialMT-6c" x="689.0625"/>
      <use xlink:href="#ArialMT-79" x="711.279297"/>
      <use xlink:href="#ArialMT-20" x="761.279297"/>
      <use xlink:href="#ArialMT-76" x="789.0625"/>
      <use xlink:href="#ArialMT-73" x="839.0625"/>
      <use xlink:href="#ArialMT-2e" x="889.0625"/>
      <use xlink:href="#ArialMT-20" x="916.845703"/>
      <use xlink:href="#ArialMT-6c" x="944.628906"/>
      <use xlink:href="#ArialMT-61" x="966.845703"/>
      <use xlink:href="#ArialMT-74" x="1022.460938"/>
      <use xlink:href="#ArialMT-65" x="1050.244141"/>
     </g>
     <!--  S1 response pattern -->
     <g style="fill: #262626" transform="translate(75.271875 228.214844) rotate(-90) scale(0.1 -0.1)">
      <defs>
       <path id="ArialMT-70" d="M 422 -1272 
L 422 3319 
L 934 3319 
L 934 2888 
Q 1116 3141 1344 3267 
Q 1572 3394 1897 3394 
Q 2322 3394 2647 3175 
Q 2972 2956 3137 2557 
Q 3303 2159 3303 1684 
Q 3303 1175 3120 767 
Q 2938 359 2589 142 
Q 2241 -75 1856 -75 
Q 1575 -75 1351 44 
Q 1128 163 984 344 
L 984 -1272 
L 422 -1272 
z
M 931 1641 
Q 931 1000 1190 694 
Q 1450 388 1819 388 
Q 2194 388 2461 705 
Q 2728 1022 2728 1688 
Q 2728 2322 2467 2637 
Q 2206 2953 1844 2953 
Q 1484 2953 1207 2617 
Q 931 2281 931 1641 
z
" transform="scale(0.015625)"/>
      </defs>
      <use xlink:href="#ArialMT-20"/>
      <use xlink:href="#ArialMT-53" x="27.783203"/>
      <use xlink:href="#ArialMT-31" x="94.482422"/>
      <use xlink:href="#ArialMT-20" x="150.097656"/>
      <use xlink:href="#ArialMT-72" x="177.880859"/>
      <use xlink:href="#ArialMT-65" x="211.181641"/>
      <use xlink:href="#ArialMT-73" x="266.796875"/>
      <use xlink:href="#ArialMT-70" x="316.796875"/>
      <use xlink:href="#ArialMT-6f" x="372.412109"/>
      <use xlink:href="#ArialMT-6e" x="428.027344"/>
      <use xlink:href="#ArialMT-73" x="483.642578"/>
      <use xlink:href="#ArialMT-65" x="533.642578"/>
      <use xlink:href="#ArialMT-20" x="589.257812"/>
      <use xlink:href="#ArialMT-70" x="617.041016"/>
      <use xlink:href="#ArialMT-61" x="672.65625"/>
      <use xlink:href="#ArialMT-74" x="728.271484"/>
      <use xlink:href="#ArialMT-74" x="756.054688"/>
      <use xlink:href="#ArialMT-65" x="783.837891"/>
      <use xlink:href="#ArialMT-72" x="839.453125"/>
      <use xlink:href="#ArialMT-6e" x="872.753906"/>
     </g>
    </g>
   </g>
   <g id="PathCollection_1">
    <defs>
     <path id="m6041898b15" d="M 0 2.236068 
C 0.593012 2.236068 1.161816 2.000462 1.581139 1.581139 
C 2.000462 1.161816 2.236068 0.593012 2.236068 0 
C 2.236068 -0.593012 2.000462 -1.161816 1.581139 -1.581139 
C 1.161816 -2.000462 0.593012 -2.236068 0 -2.236068 
C -0.593012 -2.236068 -1.161816 -2.000462 -1.581139 -1.581139 
C -2.000462 -1.161816 -2.236068 -0.593012 -2.236068 0 
C -2.236068 0.593012 -2.000462 1.161816 -1.581139 1.581139 
C -1.161816 2.000462 -0.593012 2.236068 0 2.236068 
z
" style="stroke: #006400"/>
    </defs>
    <g clip-path="url(#pe9ce48825f)">
     <use xlink:href="#m6041898b15" x="112.989568" y="305.765223" style="fill: #006400; stroke: #006400"/>
     <use xlink:href="#m6041898b15" x="117.979136" y="230.061014" style="fill: #006400; stroke: #006400"/>
     <use xlink:href="#m6041898b15" x="122.968703" y="218.279081" style="fill: #006400; stroke: #006400"/>
     <use xlink:href="#m6041898b15" x="127.958271" y="169.900949" style="fill: #006400; stroke: #006400"/>
     <use xlink:href="#m6041898b15" x="132.947839" y="208.649859" style="fill: #006400; stroke: #006400"/>
     <use xlink:href="#m6041898b15" x="137.937407" y="164.550037" style="fill: #006400; stroke: #006400"/>
     <use xlink:href="#m6041898b15" x="142.926975" y="159.702393" style="fill: #006400; stroke: #006400"/>
     <use xlink:href="#m6041898b15" x="147.916542" y="185.091443" style="fill: #006400; stroke: #006400"/>
     <use xlink:href="#m6041898b15" x="152.90611" y="159.20957" style="fill: #006400; stroke: #006400"/>
     <use xlink:href="#m6041898b15" x="157.895678" y="145.00377" style="fill: #006400; stroke: #006400"/>
     <use xlink:href="#m6041898b15" x="162.885246" y="132.811334" style="fill: #006400; stroke: #006400"/>
     <use xlink:href="#m6041898b15" x="167.874814" y="123.167844" style="fill: #006400; stroke: #006400"/>
     <use xlink:href="#m6041898b15" x="172.864382" y="119.986517" style="fill: #006400; stroke: #006400"/>
     <use xlink:href="#m6041898b15" x="177.853949" y="121.94807" style="fill: #006400; stroke: #006400"/>
     <use xlink:href="#m6041898b15" x="182.843517" y="137.459981" style="fill: #006400; stroke: #006400"/>
     <use xlink:href="#m6041898b15" x="187.833085" y="145.198619" style="fill: #006400; stroke: #006400"/>
     <use xlink:href="#m6041898b15" x="192.822653" y="136.36235" style="fill: #006400; stroke: #006400"/>
     <use xlink:href="#m6041898b15" x="197.812221" y="119.74278" style="fill: #006400; stroke: #006400"/>
     <use xlink:href="#m6041898b15" x="202.801788" y="134.041331" style="fill: #006400; stroke: #006400"/>
     <use xlink:href="#m6041898b15" x="207.791356" y="162.587575" style="fill: #006400; stroke: #006400"/>
     <use xlink:href="#m6041898b15" x="212.780924" y="130.439688" style="fill: #006400; stroke: #006400"/>
     <use xlink:href="#m6041898b15" x="217.770492" y="128.699926" style="fill: #006400; stroke: #006400"/>
     <use xlink:href="#m6041898b15" x="222.76006" y="157.414546" style="fill: #006400; stroke: #006400"/>
     <use xlink:href="#m6041898b15" x="227.749627" y="127.444873" style="fill: #006400; stroke: #006400"/>
     <use xlink:href="#m6041898b15" x="232.739195" y="168.289218" style="fill: #006400; stroke: #006400"/>
     <use xlink:href="#m6041898b15" x="237.728763" y="112.443109" style="fill: #006400; stroke: #006400"/>
     <use xlink:href="#m6041898b15" x="242.718331" y="111.853045" style="fill: #006400; stroke: #006400"/>
     <use xlink:href="#m6041898b15" x="247.707899" y="129.317431" style="fill: #006400; stroke: #006400"/>
     <use xlink:href="#m6041898b15" x="252.697466" y="124.039504" style="fill: #006400; stroke: #006400"/>
     <use xlink:href="#m6041898b15" x="257.687034" y="104.421666" style="fill: #006400; stroke: #006400"/>
     <use xlink:href="#m6041898b15" x="262.676602" y="95.517264" style="fill: #006400; stroke: #006400"/>
     <use xlink:href="#m6041898b15" x="267.66617" y="96.160072" style="fill: #006400; stroke: #006400"/>
     <use xlink:href="#m6041898b15" x="272.655738" y="120.565937" style="fill: #006400; stroke: #006400"/>
     <use xlink:href="#m6041898b15" x="277.645306" y="172.89729" style="fill: #006400; stroke: #006400"/>
     <use xlink:href="#m6041898b15" x="282.634873" y="147.688793" style="fill: #006400; stroke: #006400"/>
     <use xlink:href="#m6041898b15" x="287.624441" y="153.347906" style="fill: #006400; stroke: #006400"/>
     <use xlink:href="#m6041898b15" x="292.614009" y="114.206831" style="fill: #006400; stroke: #006400"/>
     <use xlink:href="#m6041898b15" x="297.603577" y="132.135625" style="fill: #006400; stroke: #006400"/>
     <use xlink:href="#m6041898b15" x="302.593145" y="119.178052" style="fill: #006400; stroke: #006400"/>
     <use xlink:href="#m6041898b15" x="307.582712" y="141.561288" style="fill: #006400; stroke: #006400"/>
     <use xlink:href="#m6041898b15" x="312.57228" y="107.588654" style="fill: #006400; stroke: #006400"/>
     <use xlink:href="#m6041898b15" x="317.561848" y="154.215131" style="fill: #006400; stroke: #006400"/>
     <use xlink:href="#m6041898b15" x="322.551416" y="112.32937" style="fill: #006400; stroke: #006400"/>
     <use xlink:href="#m6041898b15" x="327.540984" y="104.931582" style="fill: #006400; stroke: #006400"/>
     <use xlink:href="#m6041898b15" x="332.530551" y="91.454987" style="fill: #006400; stroke: #006400"/>
     <use xlink:href="#m6041898b15" x="337.520119" y="118.488497" style="fill: #006400; stroke: #006400"/>
     <use xlink:href="#m6041898b15" x="342.509687" y="105.704704" style="fill: #006400; stroke: #006400"/>
     <use xlink:href="#m6041898b15" x="347.499255" y="94.948826" style="fill: #006400; stroke: #006400"/>
     <use xlink:href="#m6041898b15" x="352.488823" y="99.728811" style="fill: #006400; stroke: #006400"/>
     <use xlink:href="#m6041898b15" x="357.47839" y="97.887587" style="fill: #006400; stroke: #006400"/>
     <use xlink:href="#m6041898b15" x="362.467958" y="93.759954" style="fill: #006400; stroke: #006400"/>
     <use xlink:href="#m6041898b15" x="367.457526" y="111.178698" style="fill: #006400; stroke: #006400"/>
     <use xlink:href="#m6041898b15" x="372.447094" y="110.395864" style="fill: #006400; stroke: #006400"/>
     <use xlink:href="#m6041898b15" x="377.436662" y="98.403453" style="fill: #006400; stroke: #006400"/>
     <use xlink:href="#m6041898b15" x="382.42623" y="117.628295" style="fill: #006400; stroke: #006400"/>
     <use xlink:href="#m6041898b15" x="387.415797" y="118.989613" style="fill: #006400; stroke: #006400"/>
     <use xlink:href="#m6041898b15" x="392.405365" y="124.917498" style="fill: #006400; stroke: #006400"/>
     <use xlink:href="#m6041898b15" x="397.394933" y="101.652247" style="fill: #006400; stroke: #006400"/>
     <use xlink:href="#m6041898b15" x="402.384501" y="87.59491" style="fill: #006400; stroke: #006400"/>
     <use xlink:href="#m6041898b15" x="407.374069" y="87.206028" style="fill: #006400; stroke: #006400"/>
     <use xlink:href="#m6041898b15" x="412.363636" y="114.636968" style="fill: #006400; stroke: #006400"/>
     <use xlink:href="#m6041898b15" x="417.353204" y="86.720931" style="fill: #006400; stroke: #006400"/>
     <use xlink:href="#m6041898b15" x="422.342772" y="100.326345" style="fill: #006400; stroke: #006400"/>
     <use xlink:href="#m6041898b15" x="427.33234" y="86.042164" style="fill: #006400; stroke: #006400"/>
     <use xlink:href="#m6041898b15" x="432.321908" y="111.634033" style="fill: #006400; stroke: #006400"/>
     <use xlink:href="#m6041898b15" x="437.311475" y="73.886553" style="fill: #006400; stroke: #006400"/>
     <use xlink:href="#m6041898b15" x="442.301043" y="72.148555" style="fill: #006400; stroke: #006400"/>
     <use xlink:href="#m6041898b15" x="447.290611" y="84.372263" style="fill: #006400; stroke: #006400"/>
    </g>
   </g>
   <g id="PathCollection_2">
    <defs>
     <path id="m12948f5f20" d="M 0 2.236068 
C 0.593012 2.236068 1.161816 2.000462 1.581139 1.581139 
C 2.000462 1.161816 2.236068 0.593012 2.236068 0 
C 2.236068 -0.593012 2.000462 -1.161816 1.581139 -1.581139 
C 1.161816 -2.000462 0.593012 -2.236068 0 -2.236068 
C -0.593012 -2.236068 -1.161816 -2.000462 -1.581139 -1.581139 
C -2.000462 -1.161816 -2.236068 -0.593012 -2.236068 0 
C -2.236068 0.593012 -2.000462 1.161816 -1.581139 1.581139 
C -1.161816 2.000462 -0.593012 2.236068 0 2.236068 
z
" style="stroke: #00ff00"/>
    </defs>
    <g clip-path="url(#pe9ce48825f)">
     <use xlink:href="#m12948f5f20" x="112.989568" y="101.025154" style="fill: #00ff00; stroke: #00ff00"/>
     <use xlink:href="#m12948f5f20" x="127.958271" y="99.571464" style="fill: #00ff00; stroke: #00ff00"/>
     <use xlink:href="#m12948f5f20" x="132.947839" y="57.716848" style="fill: #00ff00; stroke: #00ff00"/>
     <use xlink:href="#m12948f5f20" x="132.947839" y="77.521869" style="fill: #00ff00; stroke: #00ff00"/>
     <use xlink:href="#m12948f5f20" x="132.947839" y="121.710586" style="fill: #00ff00; stroke: #00ff00"/>
     <use xlink:href="#m12948f5f20" x="137.937407" y="72.294942" style="fill: #00ff00; stroke: #00ff00"/>
     <use xlink:href="#m12948f5f20" x="142.926975" y="100.800092" style="fill: #00ff00; stroke: #00ff00"/>
     <use xlink:href="#m12948f5f20" x="142.926975" y="101.319583" style="fill: #00ff00; stroke: #00ff00"/>
     <use xlink:href="#m12948f5f20" x="147.916542" y="60.091272" style="fill: #00ff00; stroke: #00ff00"/>
     <use xlink:href="#m12948f5f20" x="147.916542" y="135.090404" style="fill: #00ff00; stroke: #00ff00"/>
     <use xlink:href="#m12948f5f20" x="152.90611" y="73.781665" style="fill: #00ff00; stroke: #00ff00"/>
     <use xlink:href="#m12948f5f20" x="172.864382" y="144.181787" style="fill: #00ff00; stroke: #00ff00"/>
     <use xlink:href="#m12948f5f20" x="177.853949" y="79.36508" style="fill: #00ff00; stroke: #00ff00"/>
     <use xlink:href="#m12948f5f20" x="187.833085" y="111.839265" style="fill: #00ff00; stroke: #00ff00"/>
     <use xlink:href="#m12948f5f20" x="192.822653" y="121.876277" style="fill: #00ff00; stroke: #00ff00"/>
     <use xlink:href="#m12948f5f20" x="192.822653" y="96.627068" style="fill: #00ff00; stroke: #00ff00"/>
     <use xlink:href="#m12948f5f20" x="207.791356" y="115.792458" style="fill: #00ff00; stroke: #00ff00"/>
     <use xlink:href="#m12948f5f20" x="207.791356" y="121.2669" style="fill: #00ff00; stroke: #00ff00"/>
     <use xlink:href="#m12948f5f20" x="207.791356" y="107.178052" style="fill: #00ff00; stroke: #00ff00"/>
     <use xlink:href="#m12948f5f20" x="207.791356" y="107.256806" style="fill: #00ff00; stroke: #00ff00"/>
     <use xlink:href="#m12948f5f20" x="217.770492" y="102.798912" style="fill: #00ff00; stroke: #00ff00"/>
     <use xlink:href="#m12948f5f20" x="217.770492" y="119.117752" style="fill: #00ff00; stroke: #00ff00"/>
     <use xlink:href="#m12948f5f20" x="242.718331" y="103.263338" style="fill: #00ff00; stroke: #00ff00"/>
     <use xlink:href="#m12948f5f20" x="257.687034" y="104.669205" style="fill: #00ff00; stroke: #00ff00"/>
     <use xlink:href="#m12948f5f20" x="262.676602" y="116.598629" style="fill: #00ff00; stroke: #00ff00"/>
     <use xlink:href="#m12948f5f20" x="262.676602" y="94.557143" style="fill: #00ff00; stroke: #00ff00"/>
     <use xlink:href="#m12948f5f20" x="332.530551" y="120.823331" style="fill: #00ff00; stroke: #00ff00"/>
     <use xlink:href="#m12948f5f20" x="387.415797" y="113.000704" style="fill: #00ff00; stroke: #00ff00"/>
     <use xlink:href="#m12948f5f20" x="387.415797" y="68.264034" style="fill: #00ff00; stroke: #00ff00"/>
     <use xlink:href="#m12948f5f20" x="402.384501" y="115.077959" style="fill: #00ff00; stroke: #00ff00"/>
     <use xlink:href="#m12948f5f20" x="407.374069" y="159.069164" style="fill: #00ff00; stroke: #00ff00"/>
     <use xlink:href="#m12948f5f20" x="407.374069" y="153.170705" style="fill: #00ff00; stroke: #00ff00"/>
     <use xlink:href="#m12948f5f20" x="407.374069" y="144.808552" style="fill: #00ff00; stroke: #00ff00"/>
     <use xlink:href="#m12948f5f20" x="407.374069" y="89.852808" style="fill: #00ff00; stroke: #00ff00"/>
     <use xlink:href="#m12948f5f20" x="417.353204" y="103.978815" style="fill: #00ff00; stroke: #00ff00"/>
     <use xlink:href="#m12948f5f20" x="422.342772" y="96.087715" style="fill: #00ff00; stroke: #00ff00"/>
     <use xlink:href="#m12948f5f20" x="422.342772" y="146.478857" style="fill: #00ff00; stroke: #00ff00"/>
     <use xlink:href="#m12948f5f20" x="422.342772" y="160.850071" style="fill: #00ff00; stroke: #00ff00"/>
     <use xlink:href="#m12948f5f20" x="427.33234" y="104.866411" style="fill: #00ff00; stroke: #00ff00"/>
     <use xlink:href="#m12948f5f20" x="427.33234" y="138.988219" style="fill: #00ff00; stroke: #00ff00"/>
     <use xlink:href="#m12948f5f20" x="427.33234" y="119.851125" style="fill: #00ff00; stroke: #00ff00"/>
     <use xlink:href="#m12948f5f20" x="432.321908" y="156.841949" style="fill: #00ff00; stroke: #00ff00"/>
     <use xlink:href="#m12948f5f20" x="437.311475" y="121.673234" style="fill: #00ff00; stroke: #00ff00"/>
     <use xlink:href="#m12948f5f20" x="437.311475" y="156.146728" style="fill: #00ff00; stroke: #00ff00"/>
     <use xlink:href="#m12948f5f20" x="437.311475" y="84.144414" style="fill: #00ff00; stroke: #00ff00"/>
     <use xlink:href="#m12948f5f20" x="437.311475" y="80.59092" style="fill: #00ff00; stroke: #00ff00"/>
     <use xlink:href="#m12948f5f20" x="437.311475" y="114.165207" style="fill: #00ff00; stroke: #00ff00"/>
     <use xlink:href="#m12948f5f20" x="442.301043" y="98.666251" style="fill: #00ff00; stroke: #00ff00"/>
     <use xlink:href="#m12948f5f20" x="442.301043" y="121.574434" style="fill: #00ff00; stroke: #00ff00"/>
    </g>
   </g>
   <g id="line2d_15">
    <path d="M 112.989568 227.501067 
L 117.979136 218.757704 
L 122.968703 210.485574 
L 127.958271 202.671869 
L 132.947839 195.303776 
L 137.937407 188.368484 
L 142.926975 181.853182 
L 147.916542 175.74506 
L 152.90611 170.031305 
L 157.895678 164.699108 
L 162.885246 159.735656 
L 167.874814 155.128139 
L 172.864382 150.863746 
L 177.853949 146.929665 
L 182.843517 143.313085 
L 187.833085 140.001196 
L 192.822653 136.981186 
L 197.812221 134.240244 
L 202.801788 131.765559 
L 207.791356 129.54432 
L 212.780924 127.563716 
L 217.770492 125.810935 
L 222.76006 124.273167 
L 227.749627 122.9376 
L 232.739195 121.791424 
L 237.728763 120.821827 
L 242.718331 120.015998 
L 247.707899 119.361126 
L 252.697466 118.844401 
L 257.687034 118.453009 
L 262.676602 118.174142 
L 267.66617 117.994987 
L 272.655738 117.902734 
L 277.645306 117.884571 
L 282.634873 117.927688 
L 287.624441 118.019273 
L 292.614009 118.146515 
L 297.603577 118.296602 
L 302.593145 118.456725 
L 307.582712 118.614072 
L 312.57228 118.755831 
L 317.561848 118.869192 
L 322.551416 118.941343 
L 327.540984 118.959474 
L 332.530551 118.910772 
L 337.520119 118.782428 
L 342.509687 118.561631 
L 347.499255 118.235568 
L 352.488823 117.791429 
L 357.47839 117.216402 
L 362.467958 116.497678 
L 367.457526 115.622444 
L 372.447094 114.577889 
L 377.436662 113.351202 
L 382.42623 111.929573 
L 387.415797 110.30019 
L 392.405365 108.450242 
L 397.394933 106.366918 
L 402.384501 104.037407 
L 407.374069 101.448897 
L 412.363636 98.588578 
L 417.353204 95.443639 
L 422.342772 92.001268 
L 427.33234 88.248654 
L 432.321908 84.172987 
L 437.311475 79.761454 
L 442.301043 75.001245 
L 447.290611 69.87955 
" clip-path="url(#pe9ce48825f)" style="fill: none; stroke-dasharray: 7.4,3.2; stroke-dashoffset: 0; stroke: #006400; stroke-width: 2"/>
   </g>
   <g id="line2d_16">
    <path d="M 112.989568 87.399461 
L 117.979136 88.870392 
L 122.968703 90.288945 
L 127.958271 91.656198 
L 132.947839 92.97323 
L 137.937407 94.24112 
L 142.926975 95.460946 
L 147.916542 96.633786 
L 152.90611 97.760719 
L 157.895678 98.842823 
L 162.885246 99.881177 
L 167.874814 100.87686 
L 172.864382 101.830948 
L 177.853949 102.744523 
L 182.843517 103.61866 
L 187.833085 104.45444 
L 192.822653 105.252941 
L 197.812221 106.01524 
L 202.801788 106.742417 
L 207.791356 107.43555 
L 212.780924 108.095717 
L 217.770492 108.723997 
L 222.76006 109.321469 
L 227.749627 109.88921 
L 232.739195 110.428299 
L 237.728763 110.939816 
L 242.718331 111.424837 
L 247.707899 111.884442 
L 252.697466 112.319709 
L 257.687034 112.731717 
L 262.676602 113.121544 
L 267.66617 113.490268 
L 272.655738 113.838968 
L 277.645306 114.168723 
L 282.634873 114.48061 
L 287.624441 114.775709 
L 292.614009 115.055098 
L 297.603577 115.319855 
L 302.593145 115.571059 
L 307.582712 115.809788 
L 312.57228 116.03712 
L 317.561848 116.254135 
L 322.551416 116.46191 
L 327.540984 116.661525 
L 332.530551 116.854057 
L 337.520119 117.040585 
L 342.509687 117.222187 
L 347.499255 117.399942 
L 352.488823 117.574929 
L 357.47839 117.748225 
L 362.467958 117.92091 
L 367.457526 118.094062 
L 372.447094 118.268758 
L 377.436662 118.446079 
L 382.42623 118.627101 
L 387.415797 118.812905 
L 392.405365 119.004567 
L 397.394933 119.203167 
L 402.384501 119.409783 
L 407.374069 119.625493 
L 412.363636 119.851376 
L 417.353204 120.088511 
L 422.342772 120.337975 
L 427.33234 120.600848 
L 432.321908 120.878208 
L 437.311475 121.171133 
L 442.301043 121.480701 
L 447.290611 121.807992 
" clip-path="url(#pe9ce48825f)" style="fill: none; stroke-dasharray: 7.4,3.2; stroke-dashoffset: 0; stroke: #00ff00; stroke-width: 2"/>
   </g>
   <g id="patch_3">
    <path d="M 108 320.4 
L 108 43.2 
" style="fill: none; stroke: #262626; stroke-width: 0.8; stroke-linejoin: miter; stroke-linecap: square"/>
   </g>
   <g id="patch_4">
    <path d="M 412.363636 320.4 
L 412.363636 43.2 
" style="fill: none; stroke: #262626; stroke-width: 0.8; stroke-linejoin: miter; stroke-linecap: square"/>
   </g>
   <g id="patch_5">
    <path d="M 108 320.4 
L 412.363636 320.4 
" style="fill: none; stroke: #262626; stroke-width: 0.8; stroke-linejoin: miter; stroke-linecap: square"/>
   </g>
   <g id="patch_6">
    <path d="M 108 43.2 
L 412.363636 43.2 
" style="fill: none; stroke: #262626; stroke-width: 0.8; stroke-linejoin: miter; stroke-linecap: square"/>
   </g>
   <g id="legend_1">
    <g id="line2d_17">
     <path d="M 117 291.767187 
L 127 291.767187 
L 137 291.767187 
" style="fill: none; stroke: #006400; stroke-width: 2; stroke-linecap: round"/>
    </g>
    <g id="text_17">
     <!-- S1 -->
     <g style="fill: #262626" transform="translate(145 295.267187) scale(0.1 -0.1)">
      <use xlink:href="#ArialMT-53"/>
      <use xlink:href="#ArialMT-31" x="66.699219"/>
     </g>
    </g>
    <g id="line2d_18">
     <path d="M 117 305.9125 
L 127 305.9125 
L 137 305.9125 
" style="fill: none; stroke: #00ff00; stroke-width: 2; stroke-linecap: round"/>
    </g>
    <g id="text_18">
     <!-- S1 reactivation -->
     <g style="fill: #262626" transform="translate(145 309.4125) scale(0.1 -0.1)">
      <defs>
       <path id="ArialMT-63" d="M 2588 1216 
L 3141 1144 
Q 3050 572 2676 248 
Q 2303 -75 1759 -75 
Q 1078 -75 664 370 
Q 250 816 250 1647 
Q 250 2184 428 2587 
Q 606 2991 970 3192 
Q 1334 3394 1763 3394 
Q 2303 3394 2647 3120 
Q 2991 2847 3088 2344 
L 2541 2259 
Q 2463 2594 2264 2762 
Q 2066 2931 1784 2931 
Q 1359 2931 1093 2626 
Q 828 2322 828 1663 
Q 828 994 1084 691 
Q 1341 388 1753 388 
Q 2084 388 2306 591 
Q 2528 794 2588 1216 
z
" transform="scale(0.015625)"/>
      </defs>
      <use xlink:href="#ArialMT-53"/>
      <use xlink:href="#ArialMT-31" x="66.699219"/>
      <use xlink:href="#ArialMT-20" x="122.314453"/>
      <use xlink:href="#ArialMT-72" x="150.097656"/>
      <use xlink:href="#ArialMT-65" x="183.398438"/>
      <use xlink:href="#ArialMT-61" x="239.013672"/>
      <use xlink:href="#ArialMT-63" x="294.628906"/>
      <use xlink:href="#ArialMT-74" x="344.628906"/>
      <use xlink:href="#ArialMT-69" x="372.412109"/>
      <use xlink:href="#ArialMT-76" x="394.628906"/>
      <use xlink:href="#ArialMT-61" x="444.628906"/>
      <use xlink:href="#ArialMT-74" x="500.244141"/>
      <use xlink:href="#ArialMT-69" x="528.027344"/>
      <use xlink:href="#ArialMT-6f" x="550.244141"/>
      <use xlink:href="#ArialMT-6e" x="605.859375"/>
     </g>
    </g>
   </g>
  </g>
  <g id="axes_2">
   <g id="patch_7">
    <path d="M 473.236364 320.4 
L 777.6 320.4 
L 777.6 43.2 
L 473.236364 43.2 
z
" style="fill: #ffffff"/>
   </g>
   <g id="matplotlib.axis_3">
    <g id="xtick_8">
     <g id="line2d_19">
      <g>
       <use xlink:href="#m164eba49ba" x="478.225931" y="320.4" style="fill: #262626; stroke: #262626; stroke-width: 0.8"/>
      </g>
     </g>
     <g id="text_19">
      <!-- 0 -->
      <g style="fill: #262626" transform="translate(475.445463 334.557813) scale(0.1 -0.1)">
       <use xlink:href="#ArialMT-30"/>
      </g>
     </g>
    </g>
    <g id="xtick_9">
     <g id="line2d_20">
      <g>
       <use xlink:href="#m164eba49ba" x="528.12161" y="320.4" style="fill: #262626; stroke: #262626; stroke-width: 0.8"/>
      </g>
     </g>
     <g id="text_20">
      <!-- 10 -->
      <g style="fill: #262626" transform="translate(522.560672 334.557813) scale(0.1 -0.1)">
       <use xlink:href="#ArialMT-31"/>
       <use xlink:href="#ArialMT-30" x="55.615234"/>
      </g>
     </g>
    </g>
    <g id="xtick_10">
     <g id="line2d_21">
      <g>
       <use xlink:href="#m164eba49ba" x="578.017288" y="320.4" style="fill: #262626; stroke: #262626; stroke-width: 0.8"/>
      </g>
     </g>
     <g id="text_21">
      <!-- 20 -->
      <g style="fill: #262626" transform="translate(572.45635 334.557813) scale(0.1 -0.1)">
       <use xlink:href="#ArialMT-32"/>
       <use xlink:href="#ArialMT-30" x="55.615234"/>
      </g>
     </g>
    </g>
    <g id="xtick_11">
     <g id="line2d_22">
      <g>
       <use xlink:href="#m164eba49ba" x="627.912966" y="320.4" style="fill: #262626; stroke: #262626; stroke-width: 0.8"/>
      </g>
     </g>
     <g id="text_22">
      <!-- 30 -->
      <g style="fill: #262626" transform="translate(622.352028 334.557813) scale(0.1 -0.1)">
       <use xlink:href="#ArialMT-33"/>
       <use xlink:href="#ArialMT-30" x="55.615234"/>
      </g>
     </g>
    </g>
    <g id="xtick_12">
     <g id="line2d_23">
      <g>
       <use xlink:href="#m164eba49ba" x="677.808644" y="320.4" style="fill: #262626; stroke: #262626; stroke-width: 0.8"/>
      </g>
     </g>
     <g id="text_23">
      <!-- 40 -->
      <g style="fill: #262626" transform="translate(672.247706 334.557813) scale(0.1 -0.1)">
       <use xlink:href="#ArialMT-34"/>
       <use xlink:href="#ArialMT-30" x="55.615234"/>
      </g>
     </g>
    </g>
    <g id="xtick_13">
     <g id="line2d_24">
      <g>
       <use xlink:href="#m164eba49ba" x="727.704322" y="320.4" style="fill: #262626; stroke: #262626; stroke-width: 0.8"/>
      </g>
     </g>
     <g id="text_24">
      <!-- 50 -->
      <g style="fill: #262626" transform="translate(722.143384 334.557813) scale(0.1 -0.1)">
       <use xlink:href="#ArialMT-35"/>
       <use xlink:href="#ArialMT-30" x="55.615234"/>
      </g>
     </g>
    </g>
    <g id="xtick_14">
     <g id="line2d_25">
      <g>
       <use xlink:href="#m164eba49ba" x="777.6" y="320.4" style="fill: #262626; stroke: #262626; stroke-width: 0.8"/>
      </g>
     </g>
     <g id="text_25">
      <!-- 60 -->
      <g style="fill: #262626" transform="translate(772.039062 334.557813) scale(0.1 -0.1)">
       <use xlink:href="#ArialMT-36"/>
       <use xlink:href="#ArialMT-30" x="55.615234"/>
      </g>
     </g>
    </g>
    <g id="text_26">
     <!-- Trial number -->
     <g style="fill: #262626" transform="translate(597.543963 347.703125) scale(0.1 -0.1)">
      <use xlink:href="#ArialMT-54"/>
      <use xlink:href="#ArialMT-72" x="57.333984"/>
      <use xlink:href="#ArialMT-69" x="90.634766"/>
      <use xlink:href="#ArialMT-61" x="112.851562"/>
      <use xlink:href="#ArialMT-6c" x="168.466797"/>
      <use xlink:href="#ArialMT-20" x="190.683594"/>
      <use xlink:href="#ArialMT-6e" x="218.466797"/>
      <use xlink:href="#ArialMT-75" x="274.082031"/>
      <use xlink:href="#ArialMT-6d" x="329.697266"/>
      <use xlink:href="#ArialMT-62" x="412.998047"/>
      <use xlink:href="#ArialMT-65" x="468.613281"/>
      <use xlink:href="#ArialMT-72" x="524.228516"/>
     </g>
    </g>
   </g>
   <g id="matplotlib.axis_4">
    <g id="ytick_8">
     <g id="line2d_26">
      <g>
       <use xlink:href="#m490a816c67" x="473.236364" y="286.281636" style="fill: #262626; stroke: #262626; stroke-width: 0.8"/>
      </g>
     </g>
    </g>
    <g id="ytick_9">
     <g id="line2d_27">
      <g>
       <use xlink:href="#m490a816c67" x="473.236364" y="251.368439" style="fill: #262626; stroke: #262626; stroke-width: 0.8"/>
      </g>
     </g>
    </g>
    <g id="ytick_10">
     <g id="line2d_28">
      <g>
       <use xlink:href="#m490a816c67" x="473.236364" y="216.455243" style="fill: #262626; stroke: #262626; stroke-width: 0.8"/>
      </g>
     </g>
    </g>
    <g id="ytick_11">
     <g id="line2d_29">
      <g>
       <use xlink:href="#m490a816c67" x="473.236364" y="181.542046" style="fill: #262626; stroke: #262626; stroke-width: 0.8"/>
      </g>
     </g>
    </g>
    <g id="ytick_12">
     <g id="line2d_30">
      <g>
       <use xlink:href="#m490a816c67" x="473.236364" y="146.62885" style="fill: #262626; stroke: #262626; stroke-width: 0.8"/>
      </g>
     </g>
    </g>
    <g id="ytick_13">
     <g id="line2d_31">
      <g>
       <use xlink:href="#m490a816c67" x="473.236364" y="111.715653" style="fill: #262626; stroke: #262626; stroke-width: 0.8"/>
      </g>
     </g>
    </g>
    <g id="ytick_14">
     <g id="line2d_32">
      <g>
       <use xlink:href="#m490a816c67" x="473.236364" y="76.802457" style="fill: #262626; stroke: #262626; stroke-width: 0.8"/>
      </g>
     </g>
    </g>
    <g id="text_27">
     <!-- Similarity to early vs. late -->
     <g style="fill: #262626" transform="translate(452.908551 237.090625) rotate(-90) scale(0.1 -0.1)">
      <use xlink:href="#ArialMT-53"/>
      <use xlink:href="#ArialMT-69" x="66.699219"/>
      <use xlink:href="#ArialMT-6d" x="88.916016"/>
      <use xlink:href="#ArialMT-69" x="172.216797"/>
      <use xlink:href="#ArialMT-6c" x="194.433594"/>
      <use xlink:href="#ArialMT-61" x="216.650391"/>
      <use xlink:href="#ArialMT-72" x="272.265625"/>
      <use xlink:href="#ArialMT-69" x="305.566406"/>
      <use xlink:href="#ArialMT-74" x="327.783203"/>
      <use xlink:href="#ArialMT-79" x="355.566406"/>
      <use xlink:href="#ArialMT-20" x="405.566406"/>
      <use xlink:href="#ArialMT-74" x="433.349609"/>
      <use xlink:href="#ArialMT-6f" x="461.132812"/>
      <use xlink:href="#ArialMT-20" x="516.748047"/>
      <use xlink:href="#ArialMT-65" x="544.53125"/>
      <use xlink:href="#ArialMT-61" x="600.146484"/>
      <use xlink:href="#ArialMT-72" x="655.761719"/>
      <use xlink:href="#ArialMT-6c" x="689.0625"/>
      <use xlink:href="#ArialMT-79" x="711.279297"/>
      <use xlink:href="#ArialMT-20" x="761.279297"/>
      <use xlink:href="#ArialMT-76" x="789.0625"/>
      <use xlink:href="#ArialMT-73" x="839.0625"/>
      <use xlink:href="#ArialMT-2e" x="889.0625"/>
      <use xlink:href="#ArialMT-20" x="916.845703"/>
      <use xlink:href="#ArialMT-6c" x="944.628906"/>
      <use xlink:href="#ArialMT-61" x="966.845703"/>
      <use xlink:href="#ArialMT-74" x="1022.460938"/>
      <use xlink:href="#ArialMT-65" x="1050.244141"/>
     </g>
     <!--  S2 response pattern -->
     <g style="fill: #262626" transform="translate(463.748864 228.214844) rotate(-90) scale(0.1 -0.1)">
      <use xlink:href="#ArialMT-20"/>
      <use xlink:href="#ArialMT-53" x="27.783203"/>
      <use xlink:href="#ArialMT-32" x="94.482422"/>
      <use xlink:href="#ArialMT-20" x="150.097656"/>
      <use xlink:href="#ArialMT-72" x="177.880859"/>
      <use xlink:href="#ArialMT-65" x="211.181641"/>
      <use xlink:href="#ArialMT-73" x="266.796875"/>
      <use xlink:href="#ArialMT-70" x="316.796875"/>
      <use xlink:href="#ArialMT-6f" x="372.412109"/>
      <use xlink:href="#ArialMT-6e" x="428.027344"/>
      <use xlink:href="#ArialMT-73" x="483.642578"/>
      <use xlink:href="#ArialMT-65" x="533.642578"/>
      <use xlink:href="#ArialMT-20" x="589.257812"/>
      <use xlink:href="#ArialMT-70" x="617.041016"/>
      <use xlink:href="#ArialMT-61" x="672.65625"/>
      <use xlink:href="#ArialMT-74" x="728.271484"/>
      <use xlink:href="#ArialMT-74" x="756.054688"/>
      <use xlink:href="#ArialMT-65" x="783.837891"/>
      <use xlink:href="#ArialMT-72" x="839.453125"/>
      <use xlink:href="#ArialMT-6e" x="872.753906"/>
     </g>
    </g>
   </g>
   <g id="PathCollection_3">
    <defs>
     <path id="m537ce4227d" d="M 0 2.236068 
C 0.593012 2.236068 1.161816 2.000462 1.581139 1.581139 
C 2.000462 1.161816 2.236068 0.593012 2.236068 0 
C 2.236068 -0.593012 2.000462 -1.161816 1.581139 -1.581139 
C 1.161816 -2.000462 0.593012 -2.236068 0 -2.236068 
C -0.593012 -2.236068 -1.161816 -2.000462 -1.581139 -1.581139 
C -2.000462 -1.161816 -2.236068 -0.593012 -2.236068 0 
C -2.236068 0.593012 -2.000462 1.161816 -1.581139 1.581139 
C -1.161816 2.000462 -0.593012 2.236068 0 2.236068 
z
" style="stroke: #8b0000"/>
    </defs>
    <g clip-path="url(#p759c30af07)">
     <use xlink:href="#m537ce4227d" x="478.225931" y="307.8" style="fill: #8b0000; stroke: #8b0000"/>
     <use xlink:href="#m537ce4227d" x="483.215499" y="231.635547" style="fill: #8b0000; stroke: #8b0000"/>
     <use xlink:href="#m537ce4227d" x="488.205067" y="214.669772" style="fill: #8b0000; stroke: #8b0000"/>
     <use xlink:href="#m537ce4227d" x="493.194635" y="156.775253" style="fill: #8b0000; stroke: #8b0000"/>
     <use xlink:href="#m537ce4227d" x="498.184203" y="170.288018" style="fill: #8b0000; stroke: #8b0000"/>
     <use xlink:href="#m537ce4227d" x="503.17377" y="160.61055" style="fill: #8b0000; stroke: #8b0000"/>
     <use xlink:href="#m537ce4227d" x="508.163338" y="147.376285" style="fill: #8b0000; stroke: #8b0000"/>
     <use xlink:href="#m537ce4227d" x="513.152906" y="155.000914" style="fill: #8b0000; stroke: #8b0000"/>
     <use xlink:href="#m537ce4227d" x="518.142474" y="141.672688" style="fill: #8b0000; stroke: #8b0000"/>
     <use xlink:href="#m537ce4227d" x="523.132042" y="138.430611" style="fill: #8b0000; stroke: #8b0000"/>
     <use xlink:href="#m537ce4227d" x="528.12161" y="134.046826" style="fill: #8b0000; stroke: #8b0000"/>
     <use xlink:href="#m537ce4227d" x="533.111177" y="135.906028" style="fill: #8b0000; stroke: #8b0000"/>
     <use xlink:href="#m537ce4227d" x="538.100745" y="157.857723" style="fill: #8b0000; stroke: #8b0000"/>
     <use xlink:href="#m537ce4227d" x="543.090313" y="134.672024" style="fill: #8b0000; stroke: #8b0000"/>
     <use xlink:href="#m537ce4227d" x="548.079881" y="151.649323" style="fill: #8b0000; stroke: #8b0000"/>
     <use xlink:href="#m537ce4227d" x="553.069449" y="109.160904" style="fill: #8b0000; stroke: #8b0000"/>
     <use xlink:href="#m537ce4227d" x="558.059016" y="185.769982" style="fill: #8b0000; stroke: #8b0000"/>
     <use xlink:href="#m537ce4227d" x="563.048584" y="134.424496" style="fill: #8b0000; stroke: #8b0000"/>
     <use xlink:href="#m537ce4227d" x="568.038152" y="99.542945" style="fill: #8b0000; stroke: #8b0000"/>
     <use xlink:href="#m537ce4227d" x="573.02772" y="137.655233" style="fill: #8b0000; stroke: #8b0000"/>
     <use xlink:href="#m537ce4227d" x="578.017288" y="139.05216" style="fill: #8b0000; stroke: #8b0000"/>
     <use xlink:href="#m537ce4227d" x="583.006855" y="97.737001" style="fill: #8b0000; stroke: #8b0000"/>
     <use xlink:href="#m537ce4227d" x="587.996423" y="133.150683" style="fill: #8b0000; stroke: #8b0000"/>
     <use xlink:href="#m537ce4227d" x="592.985991" y="110.863521" style="fill: #8b0000; stroke: #8b0000"/>
     <use xlink:href="#m537ce4227d" x="597.975559" y="117.398936" style="fill: #8b0000; stroke: #8b0000"/>
     <use xlink:href="#m537ce4227d" x="602.965127" y="168.1419" style="fill: #8b0000; stroke: #8b0000"/>
     <use xlink:href="#m537ce4227d" x="607.954694" y="107.986649" style="fill: #8b0000; stroke: #8b0000"/>
     <use xlink:href="#m537ce4227d" x="612.944262" y="111.464404" style="fill: #8b0000; stroke: #8b0000"/>
     <use xlink:href="#m537ce4227d" x="617.93383" y="147.343535" style="fill: #8b0000; stroke: #8b0000"/>
     <use xlink:href="#m537ce4227d" x="622.923398" y="105.073462" style="fill: #8b0000; stroke: #8b0000"/>
     <use xlink:href="#m537ce4227d" x="627.912966" y="101.29463" style="fill: #8b0000; stroke: #8b0000"/>
     <use xlink:href="#m537ce4227d" x="632.902534" y="168.512321" style="fill: #8b0000; stroke: #8b0000"/>
     <use xlink:href="#m537ce4227d" x="637.892101" y="162.601193" style="fill: #8b0000; stroke: #8b0000"/>
     <use xlink:href="#m537ce4227d" x="642.881669" y="130.717678" style="fill: #8b0000; stroke: #8b0000"/>
     <use xlink:href="#m537ce4227d" x="647.871237" y="103.167531" style="fill: #8b0000; stroke: #8b0000"/>
     <use xlink:href="#m537ce4227d" x="652.860805" y="111.092298" style="fill: #8b0000; stroke: #8b0000"/>
     <use xlink:href="#m537ce4227d" x="657.850373" y="118.617827" style="fill: #8b0000; stroke: #8b0000"/>
     <use xlink:href="#m537ce4227d" x="662.83994" y="107.92727" style="fill: #8b0000; stroke: #8b0000"/>
     <use xlink:href="#m537ce4227d" x="667.829508" y="93.881237" style="fill: #8b0000; stroke: #8b0000"/>
     <use xlink:href="#m537ce4227d" x="672.819076" y="88.724026" style="fill: #8b0000; stroke: #8b0000"/>
     <use xlink:href="#m537ce4227d" x="677.808644" y="91.586887" style="fill: #8b0000; stroke: #8b0000"/>
     <use xlink:href="#m537ce4227d" x="682.798212" y="134.775864" style="fill: #8b0000; stroke: #8b0000"/>
     <use xlink:href="#m537ce4227d" x="687.787779" y="111.220508" style="fill: #8b0000; stroke: #8b0000"/>
     <use xlink:href="#m537ce4227d" x="692.777347" y="135.701638" style="fill: #8b0000; stroke: #8b0000"/>
     <use xlink:href="#m537ce4227d" x="697.766915" y="153.271035" style="fill: #8b0000; stroke: #8b0000"/>
     <use xlink:href="#m537ce4227d" x="702.756483" y="153.806748" style="fill: #8b0000; stroke: #8b0000"/>
     <use xlink:href="#m537ce4227d" x="707.746051" y="109.913288" style="fill: #8b0000; stroke: #8b0000"/>
     <use xlink:href="#m537ce4227d" x="712.735618" y="113.380441" style="fill: #8b0000; stroke: #8b0000"/>
     <use xlink:href="#m537ce4227d" x="717.725186" y="113.280036" style="fill: #8b0000; stroke: #8b0000"/>
     <use xlink:href="#m537ce4227d" x="722.714754" y="89.855628" style="fill: #8b0000; stroke: #8b0000"/>
     <use xlink:href="#m537ce4227d" x="727.704322" y="111.19178" style="fill: #8b0000; stroke: #8b0000"/>
     <use xlink:href="#m537ce4227d" x="732.69389" y="119.777478" style="fill: #8b0000; stroke: #8b0000"/>
     <use xlink:href="#m537ce4227d" x="737.683458" y="99.811123" style="fill: #8b0000; stroke: #8b0000"/>
     <use xlink:href="#m537ce4227d" x="742.673025" y="100.846519" style="fill: #8b0000; stroke: #8b0000"/>
     <use xlink:href="#m537ce4227d" x="747.662593" y="100.771203" style="fill: #8b0000; stroke: #8b0000"/>
     <use xlink:href="#m537ce4227d" x="752.652161" y="142.835343" style="fill: #8b0000; stroke: #8b0000"/>
     <use xlink:href="#m537ce4227d" x="757.641729" y="96.309666" style="fill: #8b0000; stroke: #8b0000"/>
     <use xlink:href="#m537ce4227d" x="762.631297" y="71.011416" style="fill: #8b0000; stroke: #8b0000"/>
     <use xlink:href="#m537ce4227d" x="767.620864" y="74.186306" style="fill: #8b0000; stroke: #8b0000"/>
     <use xlink:href="#m537ce4227d" x="772.610432" y="85.209649" style="fill: #8b0000; stroke: #8b0000"/>
    </g>
   </g>
   <g id="PathCollection_4">
    <defs>
     <path id="mee21a5aab9" d="M 0 2.236068 
C 0.593012 2.236068 1.161816 2.000462 1.581139 1.581139 
C 2.000462 1.161816 2.236068 0.593012 2.236068 0 
C 2.236068 -0.593012 2.000462 -1.161816 1.581139 -1.581139 
C 1.161816 -2.000462 0.593012 -2.236068 0 -2.236068 
C -0.593012 -2.236068 -1.161816 -2.000462 -1.581139 -1.581139 
C -2.000462 -1.161816 -2.236068 -0.593012 -2.236068 0 
C -2.236068 0.593012 -2.000462 1.161816 -1.581139 1.581139 
C -1.161816 2.000462 -0.593012 2.236068 0 2.236068 
z
" style="stroke: #ff69b4"/>
    </defs>
    <g clip-path="url(#p759c30af07)">
     <use xlink:href="#mee21a5aab9" x="478.225931" y="90.234972" style="fill: #ff69b4; stroke: #ff69b4"/>
     <use xlink:href="#mee21a5aab9" x="478.225931" y="98.928483" style="fill: #ff69b4; stroke: #ff69b4"/>
     <use xlink:href="#mee21a5aab9" x="483.215499" y="62.72563" style="fill: #ff69b4; stroke: #ff69b4"/>
     <use xlink:href="#mee21a5aab9" x="488.205067" y="94.53585" style="fill: #ff69b4; stroke: #ff69b4"/>
     <use xlink:href="#mee21a5aab9" x="488.205067" y="78.320648" style="fill: #ff69b4; stroke: #ff69b4"/>
     <use xlink:href="#mee21a5aab9" x="493.194635" y="94.921503" style="fill: #ff69b4; stroke: #ff69b4"/>
     <use xlink:href="#mee21a5aab9" x="503.17377" y="106.563362" style="fill: #ff69b4; stroke: #ff69b4"/>
     <use xlink:href="#mee21a5aab9" x="533.111177" y="108.894348" style="fill: #ff69b4; stroke: #ff69b4"/>
     <use xlink:href="#mee21a5aab9" x="568.038152" y="77.823051" style="fill: #ff69b4; stroke: #ff69b4"/>
     <use xlink:href="#mee21a5aab9" x="573.02772" y="111.462819" style="fill: #ff69b4; stroke: #ff69b4"/>
     <use xlink:href="#mee21a5aab9" x="587.996423" y="55.8" style="fill: #ff69b4; stroke: #ff69b4"/>
     <use xlink:href="#mee21a5aab9" x="602.965127" y="98.54228" style="fill: #ff69b4; stroke: #ff69b4"/>
     <use xlink:href="#mee21a5aab9" x="602.965127" y="89.41425" style="fill: #ff69b4; stroke: #ff69b4"/>
     <use xlink:href="#mee21a5aab9" x="607.954694" y="125.539521" style="fill: #ff69b4; stroke: #ff69b4"/>
     <use xlink:href="#mee21a5aab9" x="617.93383" y="125.945948" style="fill: #ff69b4; stroke: #ff69b4"/>
     <use xlink:href="#mee21a5aab9" x="622.923398" y="172.655188" style="fill: #ff69b4; stroke: #ff69b4"/>
     <use xlink:href="#mee21a5aab9" x="622.923398" y="121.950889" style="fill: #ff69b4; stroke: #ff69b4"/>
     <use xlink:href="#mee21a5aab9" x="722.714754" y="109.351964" style="fill: #ff69b4; stroke: #ff69b4"/>
     <use xlink:href="#mee21a5aab9" x="722.714754" y="107.444778" style="fill: #ff69b4; stroke: #ff69b4"/>
     <use xlink:href="#mee21a5aab9" x="722.714754" y="75.57631" style="fill: #ff69b4; stroke: #ff69b4"/>
     <use xlink:href="#mee21a5aab9" x="742.673025" y="126.315823" style="fill: #ff69b4; stroke: #ff69b4"/>
     <use xlink:href="#mee21a5aab9" x="762.631297" y="68.300269" style="fill: #ff69b4; stroke: #ff69b4"/>
     <use xlink:href="#mee21a5aab9" x="762.631297" y="81.048329" style="fill: #ff69b4; stroke: #ff69b4"/>
     <use xlink:href="#mee21a5aab9" x="762.631297" y="92.292705" style="fill: #ff69b4; stroke: #ff69b4"/>
     <use xlink:href="#mee21a5aab9" x="767.620864" y="103.377973" style="fill: #ff69b4; stroke: #ff69b4"/>
     <use xlink:href="#mee21a5aab9" x="767.620864" y="105.531648" style="fill: #ff69b4; stroke: #ff69b4"/>
    </g>
   </g>
   <g id="line2d_33">
    <path d="M 478.225931 228.819627 
L 483.215499 218.187528 
L 488.205067 208.23545 
L 493.194635 198.942183 
L 498.184203 190.286518 
L 503.17377 182.247246 
L 508.163338 174.803159 
L 513.152906 167.933047 
L 518.142474 161.615701 
L 523.132042 155.829913 
L 528.12161 150.554474 
L 533.111177 145.768175 
L 538.100745 141.449806 
L 543.090313 137.57816 
L 548.079881 134.132026 
L 553.069449 131.090196 
L 558.059016 128.431462 
L 563.048584 126.134613 
L 568.038152 124.178442 
L 573.02772 122.54174 
L 578.017288 121.203296 
L 583.006855 120.141903 
L 587.996423 119.336352 
L 592.985991 118.765433 
L 597.975559 118.407939 
L 602.965127 118.242658 
L 607.954694 118.248384 
L 612.944262 118.403907 
L 617.93383 118.688018 
L 622.923398 119.079507 
L 627.912966 119.557167 
L 632.902534 120.099789 
L 637.892101 120.686162 
L 642.881669 121.295079 
L 647.871237 121.905331 
L 652.860805 122.495707 
L 657.850373 123.045001 
L 662.83994 123.532002 
L 667.829508 123.935502 
L 672.819076 124.234292 
L 677.808644 124.407163 
L 682.798212 124.432906 
L 687.787779 124.290312 
L 692.777347 123.958172 
L 697.766915 123.415277 
L 702.756483 122.640418 
L 707.746051 121.612387 
L 712.735618 120.309974 
L 717.725186 118.711971 
L 722.714754 116.797169 
L 727.704322 114.544358 
L 732.69389 111.93233 
L 737.683458 108.939875 
L 742.673025 105.545786 
L 747.662593 101.728852 
L 752.652161 97.467866 
L 757.641729 92.741617 
L 762.631297 87.528898 
L 767.620864 81.808499 
L 772.610432 75.559212 
" clip-path="url(#p759c30af07)" style="fill: none; stroke-dasharray: 7.4,3.2; stroke-dashoffset: 0; stroke: #8b0000; stroke-width: 2"/>
   </g>
   <g id="line2d_34">
    <path d="M 478.225931 88.127274 
L 483.215499 88.238232 
L 488.205067 88.459076 
L 493.194635 88.783717 
L 498.184203 89.206069 
L 503.17377 89.720045 
L 508.163338 90.319557 
L 513.152906 90.998518 
L 518.142474 91.750841 
L 523.132042 92.570438 
L 528.12161 93.451222 
L 533.111177 94.387105 
L 538.100745 95.372001 
L 543.090313 96.399822 
L 548.079881 97.464481 
L 553.069449 98.559891 
L 558.059016 99.679964 
L 563.048584 100.818613 
L 568.038152 101.96975 
L 573.02772 103.127289 
L 578.017288 104.285142 
L 583.006855 105.437222 
L 587.996423 106.577441 
L 592.985991 107.699712 
L 597.975559 108.797948 
L 602.965127 109.866062 
L 607.954694 110.897967 
L 612.944262 111.887574 
L 617.93383 112.828797 
L 622.923398 113.715548 
L 627.912966 114.541741 
L 632.902534 115.301287 
L 637.892101 115.9881 
L 642.881669 116.596092 
L 647.871237 117.119176 
L 652.860805 117.551265 
L 657.850373 117.886271 
L 662.83994 118.118108 
L 667.829508 118.240687 
L 672.819076 118.247921 
L 677.808644 118.133724 
L 682.798212 117.892008 
L 687.787779 117.516685 
L 692.777347 117.001668 
L 697.766915 116.340871 
L 702.756483 115.528205 
L 707.746051 114.557584 
L 712.735618 113.42292 
L 717.725186 112.118126 
L 722.714754 110.637114 
L 727.704322 108.973797 
L 732.69389 107.122089 
L 737.683458 105.075901 
L 742.673025 102.829147 
L 747.662593 100.375738 
L 752.652161 97.709589 
L 757.641729 94.824611 
L 762.631297 91.714717 
L 767.620864 88.37382 
L 772.610432 84.795832 
" clip-path="url(#p759c30af07)" style="fill: none; stroke-dasharray: 7.4,3.2; stroke-dashoffset: 0; stroke: #ff69b4; stroke-width: 2"/>
   </g>
   <g id="patch_8">
    <path d="M 473.236364 320.4 
L 473.236364 43.2 
" style="fill: none; stroke: #262626; stroke-width: 0.8; stroke-linejoin: miter; stroke-linecap: square"/>
   </g>
   <g id="patch_9">
    <path d="M 777.6 320.4 
L 777.6 43.2 
" style="fill: none; stroke: #262626; stroke-width: 0.8; stroke-linejoin: miter; stroke-linecap: square"/>
   </g>
   <g id="patch_10">
    <path d="M 473.236364 320.4 
L 777.6 320.4 
" style="fill: none; stroke: #262626; stroke-width: 0.8; stroke-linejoin: miter; stroke-linecap: square"/>
   </g>
   <g id="patch_11">
    <path d="M 473.236364 43.2 
L 777.6 43.2 
" style="fill: none; stroke: #262626; stroke-width: 0.8; stroke-linejoin: miter; stroke-linecap: square"/>
   </g>
   <g id="legend_2">
    <g id="line2d_35">
     <path d="M 482.236364 291.767187 
L 492.236364 291.767187 
L 502.236364 291.767187 
" style="fill: none; stroke: #8b0000; stroke-width: 2; stroke-linecap: round"/>
    </g>
    <g id="text_28">
     <!-- S2 -->
     <g style="fill: #262626" transform="translate(510.236364 295.267187) scale(0.1 -0.1)">
      <use xlink:href="#ArialMT-53"/>
      <use xlink:href="#ArialMT-32" x="66.699219"/>
     </g>
    </g>
    <g id="line2d_36">
     <path d="M 482.236364 305.9125 
L 492.236364 305.9125 
L 502.236364 305.9125 
" style="fill: none; stroke: #ff69b4; stroke-width: 2; stroke-linecap: round"/>
    </g>
    <g id="text_29">
     <!-- S2 reactivation -->
     <g style="fill: #262626" transform="translate(510.236364 309.4125) scale(0.1 -0.1)">
      <use xlink:href="#ArialMT-53"/>
      <use xlink:href="#ArialMT-32" x="66.699219"/>
      <use xlink:href="#ArialMT-20" x="122.314453"/>
      <use xlink:href="#ArialMT-72" x="150.097656"/>
      <use xlink:href="#ArialMT-65" x="183.398438"/>
      <use xlink:href="#ArialMT-61" x="239.013672"/>
      <use xlink:href="#ArialMT-63" x="294.628906"/>
      <use xlink:href="#ArialMT-74" x="344.628906"/>
      <use xlink:href="#ArialMT-69" x="372.412109"/>
      <use xlink:href="#ArialMT-76" x="394.628906"/>
      <use xlink:href="#ArialMT-61" x="444.628906"/>
      <use xlink:href="#ArialMT-74" x="500.244141"/>
      <use xlink:href="#ArialMT-69" x="528.027344"/>
      <use xlink:href="#ArialMT-6f" x="550.244141"/>
      <use xlink:href="#ArialMT-6e" x="605.859375"/>
     </g>
    </g>
   </g>
  </g>
 </g>
 <defs>
  <clipPath id="pe9ce48825f">
   <rect x="108" y="43.2" width="304.363636" height="277.2"/>
  </clipPath>
  <clipPath id="p759c30af07">
   <rect x="473.236364" y="43.2" width="304.363636" height="277.2"/>
  </clipPath>
 </defs>
</svg>
