<?xml version="1.0" encoding="utf-8" standalone="no"?>
<!DOCTYPE svg PUBLIC "-//W3C//DTD SVG 1.1//EN"
  "http://www.w3.org/Graphics/SVG/1.1/DTD/svg11.dtd">
<svg xmlns:xlink="http://www.w3.org/1999/xlink" width="495.073203pt" height="481.416641pt" viewBox="0 0 495.073203 481.416641" xmlns="http://www.w3.org/2000/svg" version="1.1">
 <metadata>
  <rdf:RDF xmlns:dc="http://purl.org/dc/elements/1.1/" xmlns:cc="http://creativecommons.org/ns#" xmlns:rdf="http://www.w3.org/1999/02/22-rdf-syntax-ns#">
   <cc:Work>
    <dc:type rdf:resource="http://purl.org/dc/dcmitype/StillImage"/>
    <dc:date>2024-08-12T16:13:53.157092</dc:date>
    <dc:format>image/svg+xml</dc:format>
    <dc:creator>
     <cc:Agent>
      <dc:title>Matplotlib v3.7.2, https://matplotlib.org/</dc:title>
     </cc:Agent>
    </dc:creator>
   </cc:Work>
  </rdf:RDF>
 </metadata>
 <defs>
  <style type="text/css">*{stroke-linejoin: round; stroke-linecap: butt}</style>
 </defs>
 <g id="figure_1">
  <g id="patch_1">
   <path d="M 0 481.416641 
L 495.073203 481.416641 
L 495.073203 0 
L 0 0 
z
" style="fill: #ffffff"/>
  </g>
  <g id="axes_1">
   <g id="patch_2">
    <path d="M 38.414687 454.656797 
L 484.814687 454.656797 
L 484.814687 11.136797 
L 38.414687 11.136797 
z
" style="fill: #ffffff"/>
   </g>
   <g id="matplotlib.axis_1">
    <g id="xtick_1">
     <g id="line2d_1">
      <defs>
       <path id="m8b4ebf7192" d="M 0 0 
L 0 6 
" style="stroke: #262626; stroke-width: 1.25"/>
      </defs>
      <g>
       <use xlink:href="#m8b4ebf7192" x="38.414688" y="454.656797" style="fill: #262626; stroke: #262626; stroke-width: 1.25"/>
      </g>
     </g>
     <g id="text_1">
      <!-- −3 -->
      <g style="fill: #262626" transform="translate(32.143828 472.030391) scale(0.11 -0.11)">
       <defs>
        <path id="ArialMT-2212" d="M 3381 1997 
L 356 1997 
L 356 2522 
L 3381 2522 
L 3381 1997 
z
" transform="scale(0.015625)"/>
        <path id="ArialMT-33" d="M 269 1209 
L 831 1284 
Q 928 806 1161 595 
Q 1394 384 1728 384 
Q 2125 384 2398 659 
Q 2672 934 2672 1341 
Q 2672 1728 2419 1979 
Q 2166 2231 1775 2231 
Q 1616 2231 1378 2169 
L 1441 2663 
Q 1497 2656 1531 2656 
Q 1891 2656 2178 2843 
Q 2466 3031 2466 3422 
Q 2466 3731 2256 3934 
Q 2047 4138 1716 4138 
Q 1388 4138 1169 3931 
Q 950 3725 888 3313 
L 325 3413 
Q 428 3978 793 4289 
Q 1159 4600 1703 4600 
Q 2078 4600 2393 4439 
Q 2709 4278 2876 4000 
Q 3044 3722 3044 3409 
Q 3044 3113 2884 2869 
Q 2725 2625 2413 2481 
Q 2819 2388 3044 2092 
Q 3269 1797 3269 1353 
Q 3269 753 2831 336 
Q 2394 -81 1725 -81 
Q 1122 -81 723 278 
Q 325 638 269 1209 
z
" transform="scale(0.015625)"/>
       </defs>
       <use xlink:href="#ArialMT-2212"/>
       <use xlink:href="#ArialMT-33" x="58.398438"/>
      </g>
     </g>
    </g>
    <g id="xtick_2">
     <g id="line2d_2">
      <g>
       <use xlink:href="#m8b4ebf7192" x="112.814688" y="454.656797" style="fill: #262626; stroke: #262626; stroke-width: 1.25"/>
      </g>
     </g>
     <g id="text_2">
      <!-- −2 -->
      <g style="fill: #262626" transform="translate(106.543828 472.030391) scale(0.11 -0.11)">
       <defs>
        <path id="ArialMT-32" d="M 3222 541 
L 3222 0 
L 194 0 
Q 188 203 259 391 
Q 375 700 629 1000 
Q 884 1300 1366 1694 
Q 2113 2306 2375 2664 
Q 2638 3022 2638 3341 
Q 2638 3675 2398 3904 
Q 2159 4134 1775 4134 
Q 1369 4134 1125 3890 
Q 881 3647 878 3216 
L 300 3275 
Q 359 3922 746 4261 
Q 1134 4600 1788 4600 
Q 2447 4600 2831 4234 
Q 3216 3869 3216 3328 
Q 3216 3053 3103 2787 
Q 2991 2522 2730 2228 
Q 2469 1934 1863 1422 
Q 1356 997 1212 845 
Q 1069 694 975 541 
L 3222 541 
z
" transform="scale(0.015625)"/>
       </defs>
       <use xlink:href="#ArialMT-2212"/>
       <use xlink:href="#ArialMT-32" x="58.398438"/>
      </g>
     </g>
    </g>
    <g id="xtick_3">
     <g id="line2d_3">
      <g>
       <use xlink:href="#m8b4ebf7192" x="187.214688" y="454.656797" style="fill: #262626; stroke: #262626; stroke-width: 1.25"/>
      </g>
     </g>
     <g id="text_3">
      <!-- −1 -->
      <g style="fill: #262626" transform="translate(180.943828 472.030391) scale(0.11 -0.11)">
       <defs>
        <path id="ArialMT-31" d="M 2384 0 
L 1822 0 
L 1822 3584 
Q 1619 3391 1289 3197 
Q 959 3003 697 2906 
L 697 3450 
Q 1169 3672 1522 3987 
Q 1875 4303 2022 4600 
L 2384 4600 
L 2384 0 
z
" transform="scale(0.015625)"/>
       </defs>
       <use xlink:href="#ArialMT-2212"/>
       <use xlink:href="#ArialMT-31" x="58.398438"/>
      </g>
     </g>
    </g>
    <g id="xtick_4">
     <g id="line2d_4">
      <g>
       <use xlink:href="#m8b4ebf7192" x="261.614688" y="454.656797" style="fill: #262626; stroke: #262626; stroke-width: 1.25"/>
      </g>
     </g>
     <g id="text_4">
      <!-- 0 -->
      <g style="fill: #262626" transform="translate(258.556172 472.030391) scale(0.11 -0.11)">
       <defs>
        <path id="ArialMT-30" d="M 266 2259 
Q 266 3072 433 3567 
Q 600 4063 929 4331 
Q 1259 4600 1759 4600 
Q 2128 4600 2406 4451 
Q 2684 4303 2865 4023 
Q 3047 3744 3150 3342 
Q 3253 2941 3253 2259 
Q 3253 1453 3087 958 
Q 2922 463 2592 192 
Q 2263 -78 1759 -78 
Q 1097 -78 719 397 
Q 266 969 266 2259 
z
M 844 2259 
Q 844 1131 1108 757 
Q 1372 384 1759 384 
Q 2147 384 2411 759 
Q 2675 1134 2675 2259 
Q 2675 3391 2411 3762 
Q 2147 4134 1753 4134 
Q 1366 4134 1134 3806 
Q 844 3388 844 2259 
z
" transform="scale(0.015625)"/>
       </defs>
       <use xlink:href="#ArialMT-30"/>
      </g>
     </g>
    </g>
    <g id="xtick_5">
     <g id="line2d_5">
      <g>
       <use xlink:href="#m8b4ebf7192" x="336.014687" y="454.656797" style="fill: #262626; stroke: #262626; stroke-width: 1.25"/>
      </g>
     </g>
     <g id="text_5">
      <!-- 1 -->
      <g style="fill: #262626" transform="translate(332.956172 472.030391) scale(0.11 -0.11)">
       <use xlink:href="#ArialMT-31"/>
      </g>
     </g>
    </g>
    <g id="xtick_6">
     <g id="line2d_6">
      <g>
       <use xlink:href="#m8b4ebf7192" x="410.414688" y="454.656797" style="fill: #262626; stroke: #262626; stroke-width: 1.25"/>
      </g>
     </g>
     <g id="text_6">
      <!-- 2 -->
      <g style="fill: #262626" transform="translate(407.356172 472.030391) scale(0.11 -0.11)">
       <use xlink:href="#ArialMT-32"/>
      </g>
     </g>
    </g>
    <g id="xtick_7">
     <g id="line2d_7">
      <g>
       <use xlink:href="#m8b4ebf7192" x="484.814687" y="454.656797" style="fill: #262626; stroke: #262626; stroke-width: 1.25"/>
      </g>
     </g>
     <g id="text_7">
      <!-- 3 -->
      <g style="fill: #262626" transform="translate(481.756172 472.030391) scale(0.11 -0.11)">
       <use xlink:href="#ArialMT-33"/>
      </g>
     </g>
    </g>
   </g>
   <g id="matplotlib.axis_2">
    <g id="ytick_1">
     <g id="line2d_8">
      <defs>
       <path id="m6d0931af00" d="M 0 0 
L -6 0 
" style="stroke: #262626; stroke-width: 1.25"/>
      </defs>
      <g>
       <use xlink:href="#m6d0931af00" x="38.414687" y="454.656797" style="fill: #262626; stroke: #262626; stroke-width: 1.25"/>
      </g>
     </g>
     <g id="text_8">
      <!-- −2.0 -->
      <g style="fill: #262626" transform="translate(7.2 458.593594) scale(0.11 -0.11)">
       <defs>
        <path id="ArialMT-2e" d="M 581 0 
L 581 641 
L 1222 641 
L 1222 0 
L 581 0 
z
" transform="scale(0.015625)"/>
       </defs>
       <use xlink:href="#ArialMT-2212"/>
       <use xlink:href="#ArialMT-32" x="58.398438"/>
       <use xlink:href="#ArialMT-2e" x="114.013672"/>
       <use xlink:href="#ArialMT-30" x="141.796875"/>
      </g>
     </g>
    </g>
    <g id="ytick_2">
     <g id="line2d_9">
      <g>
       <use xlink:href="#m6d0931af00" x="38.414687" y="399.216797" style="fill: #262626; stroke: #262626; stroke-width: 1.25"/>
      </g>
     </g>
     <g id="text_9">
      <!-- −1.5 -->
      <g style="fill: #262626" transform="translate(7.2 403.153594) scale(0.11 -0.11)">
       <defs>
        <path id="ArialMT-35" d="M 266 1200 
L 856 1250 
Q 922 819 1161 601 
Q 1400 384 1738 384 
Q 2144 384 2425 690 
Q 2706 997 2706 1503 
Q 2706 1984 2436 2262 
Q 2166 2541 1728 2541 
Q 1456 2541 1237 2417 
Q 1019 2294 894 2097 
L 366 2166 
L 809 4519 
L 3088 4519 
L 3088 3981 
L 1259 3981 
L 1013 2750 
Q 1425 3038 1878 3038 
Q 2478 3038 2890 2622 
Q 3303 2206 3303 1553 
Q 3303 931 2941 478 
Q 2500 -78 1738 -78 
Q 1113 -78 717 272 
Q 322 622 266 1200 
z
" transform="scale(0.015625)"/>
       </defs>
       <use xlink:href="#ArialMT-2212"/>
       <use xlink:href="#ArialMT-31" x="58.398438"/>
       <use xlink:href="#ArialMT-2e" x="114.013672"/>
       <use xlink:href="#ArialMT-35" x="141.796875"/>
      </g>
     </g>
    </g>
    <g id="ytick_3">
     <g id="line2d_10">
      <g>
       <use xlink:href="#m6d0931af00" x="38.414687" y="343.776797" style="fill: #262626; stroke: #262626; stroke-width: 1.25"/>
      </g>
     </g>
     <g id="text_10">
      <!-- −1.0 -->
      <g style="fill: #262626" transform="translate(7.2 347.713594) scale(0.11 -0.11)">
       <use xlink:href="#ArialMT-2212"/>
       <use xlink:href="#ArialMT-31" x="58.398438"/>
       <use xlink:href="#ArialMT-2e" x="114.013672"/>
       <use xlink:href="#ArialMT-30" x="141.796875"/>
      </g>
     </g>
    </g>
    <g id="ytick_4">
     <g id="line2d_11">
      <g>
       <use xlink:href="#m6d0931af00" x="38.414687" y="288.336797" style="fill: #262626; stroke: #262626; stroke-width: 1.25"/>
      </g>
     </g>
     <g id="text_11">
      <!-- −0.5 -->
      <g style="fill: #262626" transform="translate(7.2 292.273594) scale(0.11 -0.11)">
       <use xlink:href="#ArialMT-2212"/>
       <use xlink:href="#ArialMT-30" x="58.398438"/>
       <use xlink:href="#ArialMT-2e" x="114.013672"/>
       <use xlink:href="#ArialMT-35" x="141.796875"/>
      </g>
     </g>
    </g>
    <g id="ytick_5">
     <g id="line2d_12">
      <g>
       <use xlink:href="#m6d0931af00" x="38.414687" y="232.896797" style="fill: #262626; stroke: #262626; stroke-width: 1.25"/>
      </g>
     </g>
     <g id="text_12">
      <!-- 0.0 -->
      <g style="fill: #262626" transform="translate(13.624687 236.833594) scale(0.11 -0.11)">
       <use xlink:href="#ArialMT-30"/>
       <use xlink:href="#ArialMT-2e" x="55.615234"/>
       <use xlink:href="#ArialMT-30" x="83.398438"/>
      </g>
     </g>
    </g>
    <g id="ytick_6">
     <g id="line2d_13">
      <g>
       <use xlink:href="#m6d0931af00" x="38.414687" y="177.456797" style="fill: #262626; stroke: #262626; stroke-width: 1.25"/>
      </g>
     </g>
     <g id="text_13">
      <!-- 0.5 -->
      <g style="fill: #262626" transform="translate(13.624687 181.393594) scale(0.11 -0.11)">
       <use xlink:href="#ArialMT-30"/>
       <use xlink:href="#ArialMT-2e" x="55.615234"/>
       <use xlink:href="#ArialMT-35" x="83.398438"/>
      </g>
     </g>
    </g>
    <g id="ytick_7">
     <g id="line2d_14">
      <g>
       <use xlink:href="#m6d0931af00" x="38.414687" y="122.016797" style="fill: #262626; stroke: #262626; stroke-width: 1.25"/>
      </g>
     </g>
     <g id="text_14">
      <!-- 1.0 -->
      <g style="fill: #262626" transform="translate(13.624687 125.953594) scale(0.11 -0.11)">
       <use xlink:href="#ArialMT-31"/>
       <use xlink:href="#ArialMT-2e" x="55.615234"/>
       <use xlink:href="#ArialMT-30" x="83.398438"/>
      </g>
     </g>
    </g>
    <g id="ytick_8">
     <g id="line2d_15">
      <g>
       <use xlink:href="#m6d0931af00" x="38.414687" y="66.576797" style="fill: #262626; stroke: #262626; stroke-width: 1.25"/>
      </g>
     </g>
     <g id="text_15">
      <!-- 1.5 -->
      <g style="fill: #262626" transform="translate(13.624687 70.513594) scale(0.11 -0.11)">
       <use xlink:href="#ArialMT-31"/>
       <use xlink:href="#ArialMT-2e" x="55.615234"/>
       <use xlink:href="#ArialMT-35" x="83.398438"/>
      </g>
     </g>
    </g>
    <g id="ytick_9">
     <g id="line2d_16">
      <g>
       <use xlink:href="#m6d0931af00" x="38.414687" y="11.136797" style="fill: #262626; stroke: #262626; stroke-width: 1.25"/>
      </g>
     </g>
     <g id="text_16">
      <!-- 2.0 -->
      <g style="fill: #262626" transform="translate(13.624687 15.073594) scale(0.11 -0.11)">
       <use xlink:href="#ArialMT-32"/>
       <use xlink:href="#ArialMT-2e" x="55.615234"/>
       <use xlink:href="#ArialMT-30" x="83.398438"/>
      </g>
     </g>
    </g>
   </g>
   <g id="line2d_17">
    <defs>
     <path id="m46cab029c8" d="M 0 3 
C 0.795609 3 1.55874 2.683901 2.12132 2.12132 
C 2.683901 1.55874 3 0.795609 3 0 
C 3 -0.795609 2.683901 -1.55874 2.12132 -2.12132 
C 1.55874 -2.683901 0.795609 -3 0 -3 
C -0.795609 -3 -1.55874 -2.683901 -2.12132 -2.12132 
C -2.683901 -1.55874 -3 -0.795609 -3 0 
C -3 0.795609 -2.683901 1.55874 -2.12132 2.12132 
C -1.55874 2.683901 -0.795609 3 0 3 
z
" style="stroke: #8b0000"/>
    </defs>
    <g clip-path="url(#pe22e3fcfcb)">
     <use xlink:href="#m46cab029c8" x="327.784689" y="234.783397" style="fill: #8b0000; stroke: #8b0000"/>
     <use xlink:href="#m46cab029c8" x="276.52677" y="279.6571" style="fill: #8b0000; stroke: #8b0000"/>
     <use xlink:href="#m46cab029c8" x="316.451147" y="234.679631" style="fill: #8b0000; stroke: #8b0000"/>
     <use xlink:href="#m46cab029c8" x="320.284268" y="242.537613" style="fill: #8b0000; stroke: #8b0000"/>
     <use xlink:href="#m46cab029c8" x="332.489392" y="197.572639" style="fill: #8b0000; stroke: #8b0000"/>
     <use xlink:href="#m46cab029c8" x="193.88211" y="309.688251" style="fill: #8b0000; stroke: #8b0000"/>
     <use xlink:href="#m46cab029c8" x="321.277307" y="183.309116" style="fill: #8b0000; stroke: #8b0000"/>
     <use xlink:href="#m46cab029c8" x="255.377326" y="263.27315" style="fill: #8b0000; stroke: #8b0000"/>
     <use xlink:href="#m46cab029c8" x="283.933443" y="210.237642" style="fill: #8b0000; stroke: #8b0000"/>
     <use xlink:href="#m46cab029c8" x="311.717108" y="214.275956" style="fill: #8b0000; stroke: #8b0000"/>
     <use xlink:href="#m46cab029c8" x="296.165121" y="210.152308" style="fill: #8b0000; stroke: #8b0000"/>
     <use xlink:href="#m46cab029c8" x="260.904607" y="299.839551" style="fill: #8b0000; stroke: #8b0000"/>
     <use xlink:href="#m46cab029c8" x="313.389714" y="230.370422" style="fill: #8b0000; stroke: #8b0000"/>
     <use xlink:href="#m46cab029c8" x="305.592099" y="219.147367" style="fill: #8b0000; stroke: #8b0000"/>
     <use xlink:href="#m46cab029c8" x="271.846258" y="297.604798" style="fill: #8b0000; stroke: #8b0000"/>
     <use xlink:href="#m46cab029c8" x="112.154897" y="398.230216" style="fill: #8b0000; stroke: #8b0000"/>
     <use xlink:href="#m46cab029c8" x="111.890218" y="391.274964" style="fill: #8b0000; stroke: #8b0000"/>
     <use xlink:href="#m46cab029c8" x="305.569782" y="153.572201" style="fill: #8b0000; stroke: #8b0000"/>
     <use xlink:href="#m46cab029c8" x="258.218406" y="254.347791" style="fill: #8b0000; stroke: #8b0000"/>
     <use xlink:href="#m46cab029c8" x="203.829267" y="340.439436" style="fill: #8b0000; stroke: #8b0000"/>
     <use xlink:href="#m46cab029c8" x="313.621601" y="235.888592" style="fill: #8b0000; stroke: #8b0000"/>
     <use xlink:href="#m46cab029c8" x="232.480792" y="262.720276" style="fill: #8b0000; stroke: #8b0000"/>
     <use xlink:href="#m46cab029c8" x="229.881453" y="294.115119" style="fill: #8b0000; stroke: #8b0000"/>
     <use xlink:href="#m46cab029c8" x="355.842554" y="188.538474" style="fill: #8b0000; stroke: #8b0000"/>
     <use xlink:href="#m46cab029c8" x="295.337942" y="242.197759" style="fill: #8b0000; stroke: #8b0000"/>
     <use xlink:href="#m46cab029c8" x="360.976542" y="167.142461" style="fill: #8b0000; stroke: #8b0000"/>
     <use xlink:href="#m46cab029c8" x="177.849975" y="366.10042" style="fill: #8b0000; stroke: #8b0000"/>
     <use xlink:href="#m46cab029c8" x="193.811438" y="347.828452" style="fill: #8b0000; stroke: #8b0000"/>
     <use xlink:href="#m46cab029c8" x="270.788946" y="291.794691" style="fill: #8b0000; stroke: #8b0000"/>
     <use xlink:href="#m46cab029c8" x="249.994435" y="297.107218" style="fill: #8b0000; stroke: #8b0000"/>
     <use xlink:href="#m46cab029c8" x="289.680378" y="237.077209" style="fill: #8b0000; stroke: #8b0000"/>
     <use xlink:href="#m46cab029c8" x="319.06293" y="254.174206" style="fill: #8b0000; stroke: #8b0000"/>
     <use xlink:href="#m46cab029c8" x="213.878692" y="285.104326" style="fill: #8b0000; stroke: #8b0000"/>
     <use xlink:href="#m46cab029c8" x="130.608469" y="402.324273" style="fill: #8b0000; stroke: #8b0000"/>
     <use xlink:href="#m46cab029c8" x="233.265702" y="307.930576" style="fill: #8b0000; stroke: #8b0000"/>
     <use xlink:href="#m46cab029c8" x="260.597673" y="265.794605" style="fill: #8b0000; stroke: #8b0000"/>
     <use xlink:href="#m46cab029c8" x="275.491705" y="221.442755" style="fill: #8b0000; stroke: #8b0000"/>
     <use xlink:href="#m46cab029c8" x="343.13172" y="210.779203" style="fill: #8b0000; stroke: #8b0000"/>
     <use xlink:href="#m46cab029c8" x="249.033775" y="247.056888" style="fill: #8b0000; stroke: #8b0000"/>
     <use xlink:href="#m46cab029c8" x="311.258427" y="273.595074" style="fill: #8b0000; stroke: #8b0000"/>
     <use xlink:href="#m46cab029c8" x="291.431163" y="173.067528" style="fill: #8b0000; stroke: #8b0000"/>
     <use xlink:href="#m46cab029c8" x="342.63973" y="154.543906" style="fill: #8b0000; stroke: #8b0000"/>
     <use xlink:href="#m46cab029c8" x="353.424385" y="164.523943" style="fill: #8b0000; stroke: #8b0000"/>
     <use xlink:href="#m46cab029c8" x="374.046513" y="137.336559" style="fill: #8b0000; stroke: #8b0000"/>
     <use xlink:href="#m46cab029c8" x="214.587554" y="301.164521" style="fill: #8b0000; stroke: #8b0000"/>
     <use xlink:href="#m46cab029c8" x="334.757033" y="179.261056" style="fill: #8b0000; stroke: #8b0000"/>
     <use xlink:href="#m46cab029c8" x="330.019046" y="250.041792" style="fill: #8b0000; stroke: #8b0000"/>
     <use xlink:href="#m46cab029c8" x="266.427545" y="243.694419" style="fill: #8b0000; stroke: #8b0000"/>
     <use xlink:href="#m46cab029c8" x="306.2353" y="256.582094" style="fill: #8b0000; stroke: #8b0000"/>
     <use xlink:href="#m46cab029c8" x="349.156149" y="111.773907" style="fill: #8b0000; stroke: #8b0000"/>
     <use xlink:href="#m46cab029c8" x="292.551173" y="268.978132" style="fill: #8b0000; stroke: #8b0000"/>
     <use xlink:href="#m46cab029c8" x="345.266538" y="236.173051" style="fill: #8b0000; stroke: #8b0000"/>
     <use xlink:href="#m46cab029c8" x="405.785527" y="68.175611" style="fill: #8b0000; stroke: #8b0000"/>
     <use xlink:href="#m46cab029c8" x="156.049938" y="354.11837" style="fill: #8b0000; stroke: #8b0000"/>
     <use xlink:href="#m46cab029c8" x="266.199708" y="259.005039" style="fill: #8b0000; stroke: #8b0000"/>
     <use xlink:href="#m46cab029c8" x="255.793452" y="223.776759" style="fill: #8b0000; stroke: #8b0000"/>
     <use xlink:href="#m46cab029c8" x="293.435663" y="244.213292" style="fill: #8b0000; stroke: #8b0000"/>
     <use xlink:href="#m46cab029c8" x="350.05592" y="190.340963" style="fill: #8b0000; stroke: #8b0000"/>
     <use xlink:href="#m46cab029c8" x="307.632025" y="250.081902" style="fill: #8b0000; stroke: #8b0000"/>
     <use xlink:href="#m46cab029c8" x="178.023581" y="323.842312" style="fill: #8b0000; stroke: #8b0000"/>
     <use xlink:href="#m46cab029c8" x="368.032952" y="141.391037" style="fill: #8b0000; stroke: #8b0000"/>
     <use xlink:href="#m46cab029c8" x="357.777222" y="182.039342" style="fill: #8b0000; stroke: #8b0000"/>
     <use xlink:href="#m46cab029c8" x="192.322556" y="364.181318" style="fill: #8b0000; stroke: #8b0000"/>
     <use xlink:href="#m46cab029c8" x="334.775351" y="54.459158" style="fill: #8b0000; stroke: #8b0000"/>
     <use xlink:href="#m46cab029c8" x="242.094997" y="267.991468" style="fill: #8b0000; stroke: #8b0000"/>
     <use xlink:href="#m46cab029c8" x="229.23149" y="263.60603" style="fill: #8b0000; stroke: #8b0000"/>
     <use xlink:href="#m46cab029c8" x="451.327992" y="76.967174" style="fill: #8b0000; stroke: #8b0000"/>
     <use xlink:href="#m46cab029c8" x="189.72223" y="308.705633" style="fill: #8b0000; stroke: #8b0000"/>
     <use xlink:href="#m46cab029c8" x="235.232658" y="285.495026" style="fill: #8b0000; stroke: #8b0000"/>
     <use xlink:href="#m46cab029c8" x="184.309785" y="261.629377" style="fill: #8b0000; stroke: #8b0000"/>
     <use xlink:href="#m46cab029c8" x="210.979427" y="321.584445" style="fill: #8b0000; stroke: #8b0000"/>
     <use xlink:href="#m46cab029c8" x="271.219395" y="275.567359" style="fill: #8b0000; stroke: #8b0000"/>
     <use xlink:href="#m46cab029c8" x="275.667771" y="230.840177" style="fill: #8b0000; stroke: #8b0000"/>
     <use xlink:href="#m46cab029c8" x="404.320418" y="144.347737" style="fill: #8b0000; stroke: #8b0000"/>
     <use xlink:href="#m46cab029c8" x="300.865087" y="194.5957" style="fill: #8b0000; stroke: #8b0000"/>
     <use xlink:href="#m46cab029c8" x="343.048242" y="130.813481" style="fill: #8b0000; stroke: #8b0000"/>
     <use xlink:href="#m46cab029c8" x="297.041015" y="201.774862" style="fill: #8b0000; stroke: #8b0000"/>
     <use xlink:href="#m46cab029c8" x="367.590258" y="160.085966" style="fill: #8b0000; stroke: #8b0000"/>
     <use xlink:href="#m46cab029c8" x="249.854834" y="263.801861" style="fill: #8b0000; stroke: #8b0000"/>
     <use xlink:href="#m46cab029c8" x="450.452128" y="30.19749" style="fill: #8b0000; stroke: #8b0000"/>
     <use xlink:href="#m46cab029c8" x="281.943206" y="231.148383" style="fill: #8b0000; stroke: #8b0000"/>
     <use xlink:href="#m46cab029c8" x="332.52742" y="250.047186" style="fill: #8b0000; stroke: #8b0000"/>
     <use xlink:href="#m46cab029c8" x="320.789292" y="222.680987" style="fill: #8b0000; stroke: #8b0000"/>
     <use xlink:href="#m46cab029c8" x="299.413424" y="286.780027" style="fill: #8b0000; stroke: #8b0000"/>
     <use xlink:href="#m46cab029c8" x="275.495228" y="233.741448" style="fill: #8b0000; stroke: #8b0000"/>
     <use xlink:href="#m46cab029c8" x="194.65269" y="334.968595" style="fill: #8b0000; stroke: #8b0000"/>
     <use xlink:href="#m46cab029c8" x="352.394113" y="79.763608" style="fill: #8b0000; stroke: #8b0000"/>
     <use xlink:href="#m46cab029c8" x="368.96101" y="142.357907" style="fill: #8b0000; stroke: #8b0000"/>
     <use xlink:href="#m46cab029c8" x="298.684638" y="204.8371" style="fill: #8b0000; stroke: #8b0000"/>
     <use xlink:href="#m46cab029c8" x="282.924099" y="220.993496" style="fill: #8b0000; stroke: #8b0000"/>
     <use xlink:href="#m46cab029c8" x="154.515185" y="383.692075" style="fill: #8b0000; stroke: #8b0000"/>
     <use xlink:href="#m46cab029c8" x="409.792703" y="63.136291" style="fill: #8b0000; stroke: #8b0000"/>
     <use xlink:href="#m46cab029c8" x="278.29424" y="197.077216" style="fill: #8b0000; stroke: #8b0000"/>
     <use xlink:href="#m46cab029c8" x="467.989007" y="13.427728" style="fill: #8b0000; stroke: #8b0000"/>
     <use xlink:href="#m46cab029c8" x="164.414834" y="296.40061" style="fill: #8b0000; stroke: #8b0000"/>
     <use xlink:href="#m46cab029c8" x="307.939944" y="204.005158" style="fill: #8b0000; stroke: #8b0000"/>
     <use xlink:href="#m46cab029c8" x="326.794974" y="189.605927" style="fill: #8b0000; stroke: #8b0000"/>
     <use xlink:href="#m46cab029c8" x="313.115875" y="236.807405" style="fill: #8b0000; stroke: #8b0000"/>
     <use xlink:href="#m46cab029c8" x="280.536005" y="167.477434" style="fill: #8b0000; stroke: #8b0000"/>
     <use xlink:href="#m46cab029c8" x="294.152214" y="222.275742" style="fill: #8b0000; stroke: #8b0000"/>
     <use xlink:href="#m46cab029c8" x="302.778162" y="198.862323" style="fill: #8b0000; stroke: #8b0000"/>
     <use xlink:href="#m46cab029c8" x="316.741441" y="165.033741" style="fill: #8b0000; stroke: #8b0000"/>
     <use xlink:href="#m46cab029c8" x="220.02682" y="298.633072" style="fill: #8b0000; stroke: #8b0000"/>
     <use xlink:href="#m46cab029c8" x="328.348063" y="175.533099" style="fill: #8b0000; stroke: #8b0000"/>
     <use xlink:href="#m46cab029c8" x="321.176949" y="229.19282" style="fill: #8b0000; stroke: #8b0000"/>
     <use xlink:href="#m46cab029c8" x="339.255523" y="213.231179" style="fill: #8b0000; stroke: #8b0000"/>
     <use xlink:href="#m46cab029c8" x="263.337949" y="266.420451" style="fill: #8b0000; stroke: #8b0000"/>
     <use xlink:href="#m46cab029c8" x="263.608315" y="252.131412" style="fill: #8b0000; stroke: #8b0000"/>
     <use xlink:href="#m46cab029c8" x="217.364728" y="259.459031" style="fill: #8b0000; stroke: #8b0000"/>
     <use xlink:href="#m46cab029c8" x="247.571771" y="319.578268" style="fill: #8b0000; stroke: #8b0000"/>
     <use xlink:href="#m46cab029c8" x="253.737736" y="349.538487" style="fill: #8b0000; stroke: #8b0000"/>
     <use xlink:href="#m46cab029c8" x="311.998957" y="255.126305" style="fill: #8b0000; stroke: #8b0000"/>
     <use xlink:href="#m46cab029c8" x="293.558425" y="223.204813" style="fill: #8b0000; stroke: #8b0000"/>
     <use xlink:href="#m46cab029c8" x="253.160987" y="322.059577" style="fill: #8b0000; stroke: #8b0000"/>
     <use xlink:href="#m46cab029c8" x="280.321873" y="293.645298" style="fill: #8b0000; stroke: #8b0000"/>
     <use xlink:href="#m46cab029c8" x="257.639318" y="280.299432" style="fill: #8b0000; stroke: #8b0000"/>
     <use xlink:href="#m46cab029c8" x="233.090763" y="365.676718" style="fill: #8b0000; stroke: #8b0000"/>
     <use xlink:href="#m46cab029c8" x="288.55415" y="281.465046" style="fill: #8b0000; stroke: #8b0000"/>
     <use xlink:href="#m46cab029c8" x="438.55926" y="80.025913" style="fill: #8b0000; stroke: #8b0000"/>
     <use xlink:href="#m46cab029c8" x="315.393229" y="247.825699" style="fill: #8b0000; stroke: #8b0000"/>
     <use xlink:href="#m46cab029c8" x="214.726052" y="373.212138" style="fill: #8b0000; stroke: #8b0000"/>
     <use xlink:href="#m46cab029c8" x="279.310667" y="223.343258" style="fill: #8b0000; stroke: #8b0000"/>
     <use xlink:href="#m46cab029c8" x="370.485933" y="143.3867" style="fill: #8b0000; stroke: #8b0000"/>
     <use xlink:href="#m46cab029c8" x="228.588487" y="325.091697" style="fill: #8b0000; stroke: #8b0000"/>
     <use xlink:href="#m46cab029c8" x="220.339847" y="309.23508" style="fill: #8b0000; stroke: #8b0000"/>
     <use xlink:href="#m46cab029c8" x="458.139478" y="75.042318" style="fill: #8b0000; stroke: #8b0000"/>
     <use xlink:href="#m46cab029c8" x="229.426354" y="348.437341" style="fill: #8b0000; stroke: #8b0000"/>
     <use xlink:href="#m46cab029c8" x="337.048505" y="78.605982" style="fill: #8b0000; stroke: #8b0000"/>
     <use xlink:href="#m46cab029c8" x="396.662721" y="118.815428" style="fill: #8b0000; stroke: #8b0000"/>
     <use xlink:href="#m46cab029c8" x="380.451151" y="162.310018" style="fill: #8b0000; stroke: #8b0000"/>
     <use xlink:href="#m46cab029c8" x="472.21737" y="25.554609" style="fill: #8b0000; stroke: #8b0000"/>
     <use xlink:href="#m46cab029c8" x="419.747406" y="103.891247" style="fill: #8b0000; stroke: #8b0000"/>
     <use xlink:href="#m46cab029c8" x="320.003539" y="174.496316" style="fill: #8b0000; stroke: #8b0000"/>
    </g>
   </g>
   <g id="line2d_18">
    <path d="M 49.946111 482.416641 
L 51.94196 480.343907 
L 56.451051 475.661117 
L 60.960142 470.978326 
L 65.469233 466.295536 
L 69.978324 461.612746 
L 74.487415 456.929955 
L 78.996506 452.247165 
L 83.505597 447.564375 
L 88.014688 442.881584 
L 92.523778 438.198794 
L 97.032869 433.516004 
L 101.54196 428.833213 
L 106.051051 424.150423 
L 110.560142 419.467633 
L 115.069233 414.784843 
L 119.578324 410.102052 
L 124.087415 405.419262 
L 128.596506 400.736472 
L 133.105597 396.053681 
L 137.614688 391.370891 
L 142.123778 386.688101 
L 146.632869 382.00531 
L 151.14196 377.32252 
L 155.651051 372.63973 
L 160.160142 367.956939 
L 164.669233 363.274149 
L 169.178324 358.591359 
L 173.687415 353.908569 
L 178.196506 349.225778 
L 182.705597 344.542988 
L 187.214688 339.860198 
L 191.723778 335.177407 
L 196.232869 330.494617 
L 200.74196 325.811827 
L 205.251051 321.129036 
L 209.760142 316.446246 
L 214.269233 311.763456 
L 218.778324 307.080665 
L 223.287415 302.397875 
L 227.796506 297.715085 
L 232.305597 293.032295 
L 236.814688 288.349504 
L 241.323778 283.666714 
L 245.832869 278.983924 
L 250.34196 274.301133 
L 254.851051 269.618343 
L 259.360142 264.935553 
L 263.869233 260.252762 
L 268.378324 255.569972 
L 272.887415 250.887182 
L 277.396506 246.204391 
L 281.905597 241.521601 
L 286.414688 236.838811 
L 290.923778 232.156021 
L 295.432869 227.47323 
L 299.94196 222.79044 
L 304.451051 218.10765 
L 308.960142 213.424859 
L 313.469233 208.742069 
L 317.978324 204.059279 
L 322.487415 199.376488 
L 326.996506 194.693698 
L 331.505597 190.010908 
L 336.014687 185.328117 
L 340.523778 180.645327 
L 345.032869 175.962537 
L 349.54196 171.279746 
L 354.051051 166.596956 
L 358.560142 161.914166 
L 363.069233 157.231376 
L 367.578324 152.548585 
L 372.087415 147.865795 
L 376.596506 143.183005 
L 381.105597 138.500214 
L 385.614688 133.817424 
L 390.123778 129.134634 
L 394.632869 124.451843 
L 399.14196 119.769053 
L 403.651051 115.086263 
L 408.160142 110.403472 
L 412.669233 105.720682 
L 417.178324 101.037892 
L 421.687415 96.355102 
L 426.196506 91.672311 
L 430.705597 86.989521 
L 435.214688 82.306731 
L 439.723778 77.62394 
L 444.232869 72.94115 
L 448.74196 68.25836 
L 453.251051 63.575569 
L 457.760142 58.892779 
L 462.269233 54.209989 
L 466.778324 49.527198 
L 471.287415 44.844408 
L 475.796506 40.161618 
L 480.305597 35.478828 
L 484.814687 30.796037 
" clip-path="url(#pe22e3fcfcb)" style="fill: none; stroke: #8b0000; stroke-width: 1.5; stroke-linecap: round"/>
   </g>
   <g id="patch_3">
    <path d="M 38.414687 454.656797 
L 38.414687 11.136797 
" style="fill: none; stroke: #262626; stroke-width: 1.25; stroke-linejoin: miter; stroke-linecap: square"/>
   </g>
   <g id="patch_4">
    <path d="M 484.814687 454.656797 
L 484.814687 11.136797 
" style="fill: none; stroke: #262626; stroke-width: 1.25; stroke-linejoin: miter; stroke-linecap: square"/>
   </g>
   <g id="patch_5">
    <path d="M 38.414688 454.656797 
L 484.814687 454.656797 
" style="fill: none; stroke: #262626; stroke-width: 1.25; stroke-linejoin: miter; stroke-linecap: square"/>
   </g>
   <g id="patch_6">
    <path d="M 38.414688 11.136797 
L 484.814687 11.136797 
" style="fill: none; stroke: #262626; stroke-width: 1.25; stroke-linejoin: miter; stroke-linecap: square"/>
   </g>
   <g id="text_17">
    <!-- R-squared: 0.80 -->
    <g style="fill: #262626" transform="translate(75.614688 66.576797) scale(0.12 -0.12)">
     <defs>
      <path id="ArialMT-52" d="M 503 0 
L 503 4581 
L 2534 4581 
Q 3147 4581 3465 4457 
Q 3784 4334 3975 4021 
Q 4166 3709 4166 3331 
Q 4166 2844 3850 2509 
Q 3534 2175 2875 2084 
Q 3116 1969 3241 1856 
Q 3506 1613 3744 1247 
L 4541 0 
L 3778 0 
L 3172 953 
Q 2906 1366 2734 1584 
Q 2563 1803 2427 1890 
Q 2291 1978 2150 2013 
Q 2047 2034 1813 2034 
L 1109 2034 
L 1109 0 
L 503 0 
z
M 1109 2559 
L 2413 2559 
Q 2828 2559 3062 2645 
Q 3297 2731 3419 2920 
Q 3541 3109 3541 3331 
Q 3541 3656 3305 3865 
Q 3069 4075 2559 4075 
L 1109 4075 
L 1109 2559 
z
" transform="scale(0.015625)"/>
      <path id="ArialMT-2d" d="M 203 1375 
L 203 1941 
L 1931 1941 
L 1931 1375 
L 203 1375 
z
" transform="scale(0.015625)"/>
      <path id="ArialMT-73" d="M 197 991 
L 753 1078 
Q 800 744 1014 566 
Q 1228 388 1613 388 
Q 2000 388 2187 545 
Q 2375 703 2375 916 
Q 2375 1106 2209 1216 
Q 2094 1291 1634 1406 
Q 1016 1563 777 1677 
Q 538 1791 414 1992 
Q 291 2194 291 2438 
Q 291 2659 392 2848 
Q 494 3038 669 3163 
Q 800 3259 1026 3326 
Q 1253 3394 1513 3394 
Q 1903 3394 2198 3281 
Q 2494 3169 2634 2976 
Q 2775 2784 2828 2463 
L 2278 2388 
Q 2241 2644 2061 2787 
Q 1881 2931 1553 2931 
Q 1166 2931 1000 2803 
Q 834 2675 834 2503 
Q 834 2394 903 2306 
Q 972 2216 1119 2156 
Q 1203 2125 1616 2013 
Q 2213 1853 2448 1751 
Q 2684 1650 2818 1456 
Q 2953 1263 2953 975 
Q 2953 694 2789 445 
Q 2625 197 2315 61 
Q 2006 -75 1616 -75 
Q 969 -75 630 194 
Q 291 463 197 991 
z
" transform="scale(0.015625)"/>
      <path id="ArialMT-71" d="M 2538 -1272 
L 2538 353 
Q 2406 169 2170 47 
Q 1934 -75 1669 -75 
Q 1078 -75 651 397 
Q 225 869 225 1691 
Q 225 2191 398 2587 
Q 572 2984 901 3189 
Q 1231 3394 1625 3394 
Q 2241 3394 2594 2875 
L 2594 3319 
L 3100 3319 
L 3100 -1272 
L 2538 -1272 
z
M 803 1669 
Q 803 1028 1072 708 
Q 1341 388 1716 388 
Q 2075 388 2334 692 
Q 2594 997 2594 1619 
Q 2594 2281 2320 2615 
Q 2047 2950 1678 2950 
Q 1313 2950 1058 2639 
Q 803 2328 803 1669 
z
" transform="scale(0.015625)"/>
      <path id="ArialMT-75" d="M 2597 0 
L 2597 488 
Q 2209 -75 1544 -75 
Q 1250 -75 995 37 
Q 741 150 617 320 
Q 494 491 444 738 
Q 409 903 409 1263 
L 409 3319 
L 972 3319 
L 972 1478 
Q 972 1038 1006 884 
Q 1059 663 1231 536 
Q 1403 409 1656 409 
Q 1909 409 2131 539 
Q 2353 669 2445 892 
Q 2538 1116 2538 1541 
L 2538 3319 
L 3100 3319 
L 3100 0 
L 2597 0 
z
" transform="scale(0.015625)"/>
      <path id="ArialMT-61" d="M 2588 409 
Q 2275 144 1986 34 
Q 1697 -75 1366 -75 
Q 819 -75 525 192 
Q 231 459 231 875 
Q 231 1119 342 1320 
Q 453 1522 633 1644 
Q 813 1766 1038 1828 
Q 1203 1872 1538 1913 
Q 2219 1994 2541 2106 
Q 2544 2222 2544 2253 
Q 2544 2597 2384 2738 
Q 2169 2928 1744 2928 
Q 1347 2928 1158 2789 
Q 969 2650 878 2297 
L 328 2372 
Q 403 2725 575 2942 
Q 747 3159 1072 3276 
Q 1397 3394 1825 3394 
Q 2250 3394 2515 3294 
Q 2781 3194 2906 3042 
Q 3031 2891 3081 2659 
Q 3109 2516 3109 2141 
L 3109 1391 
Q 3109 606 3145 398 
Q 3181 191 3288 0 
L 2700 0 
Q 2613 175 2588 409 
z
M 2541 1666 
Q 2234 1541 1622 1453 
Q 1275 1403 1131 1340 
Q 988 1278 909 1158 
Q 831 1038 831 891 
Q 831 666 1001 516 
Q 1172 366 1500 366 
Q 1825 366 2078 508 
Q 2331 650 2450 897 
Q 2541 1088 2541 1459 
L 2541 1666 
z
" transform="scale(0.015625)"/>
      <path id="ArialMT-72" d="M 416 0 
L 416 3319 
L 922 3319 
L 922 2816 
Q 1116 3169 1280 3281 
Q 1444 3394 1641 3394 
Q 1925 3394 2219 3213 
L 2025 2691 
Q 1819 2813 1613 2813 
Q 1428 2813 1281 2702 
Q 1134 2591 1072 2394 
Q 978 2094 978 1738 
L 978 0 
L 416 0 
z
" transform="scale(0.015625)"/>
      <path id="ArialMT-65" d="M 2694 1069 
L 3275 997 
Q 3138 488 2766 206 
Q 2394 -75 1816 -75 
Q 1088 -75 661 373 
Q 234 822 234 1631 
Q 234 2469 665 2931 
Q 1097 3394 1784 3394 
Q 2450 3394 2872 2941 
Q 3294 2488 3294 1666 
Q 3294 1616 3291 1516 
L 816 1516 
Q 847 969 1125 678 
Q 1403 388 1819 388 
Q 2128 388 2347 550 
Q 2566 713 2694 1069 
z
M 847 1978 
L 2700 1978 
Q 2663 2397 2488 2606 
Q 2219 2931 1791 2931 
Q 1403 2931 1139 2672 
Q 875 2413 847 1978 
z
" transform="scale(0.015625)"/>
      <path id="ArialMT-64" d="M 2575 0 
L 2575 419 
Q 2259 -75 1647 -75 
Q 1250 -75 917 144 
Q 584 363 401 755 
Q 219 1147 219 1656 
Q 219 2153 384 2558 
Q 550 2963 881 3178 
Q 1213 3394 1622 3394 
Q 1922 3394 2156 3267 
Q 2391 3141 2538 2938 
L 2538 4581 
L 3097 4581 
L 3097 0 
L 2575 0 
z
M 797 1656 
Q 797 1019 1065 703 
Q 1334 388 1700 388 
Q 2069 388 2326 689 
Q 2584 991 2584 1609 
Q 2584 2291 2321 2609 
Q 2059 2928 1675 2928 
Q 1300 2928 1048 2622 
Q 797 2316 797 1656 
z
" transform="scale(0.015625)"/>
      <path id="ArialMT-3a" d="M 578 2678 
L 578 3319 
L 1219 3319 
L 1219 2678 
L 578 2678 
z
M 578 0 
L 578 641 
L 1219 641 
L 1219 0 
L 578 0 
z
" transform="scale(0.015625)"/>
      <path id="ArialMT-20" transform="scale(0.015625)"/>
      <path id="ArialMT-38" d="M 1131 2484 
Q 781 2613 612 2850 
Q 444 3088 444 3419 
Q 444 3919 803 4259 
Q 1163 4600 1759 4600 
Q 2359 4600 2725 4251 
Q 3091 3903 3091 3403 
Q 3091 3084 2923 2848 
Q 2756 2613 2416 2484 
Q 2838 2347 3058 2040 
Q 3278 1734 3278 1309 
Q 3278 722 2862 322 
Q 2447 -78 1769 -78 
Q 1091 -78 675 323 
Q 259 725 259 1325 
Q 259 1772 486 2073 
Q 713 2375 1131 2484 
z
M 1019 3438 
Q 1019 3113 1228 2906 
Q 1438 2700 1772 2700 
Q 2097 2700 2305 2904 
Q 2513 3109 2513 3406 
Q 2513 3716 2298 3927 
Q 2084 4138 1766 4138 
Q 1444 4138 1231 3931 
Q 1019 3725 1019 3438 
z
M 838 1322 
Q 838 1081 952 856 
Q 1066 631 1291 507 
Q 1516 384 1775 384 
Q 2178 384 2440 643 
Q 2703 903 2703 1303 
Q 2703 1709 2433 1975 
Q 2163 2241 1756 2241 
Q 1359 2241 1098 1978 
Q 838 1716 838 1322 
z
" transform="scale(0.015625)"/>
     </defs>
     <use xlink:href="#ArialMT-52"/>
     <use xlink:href="#ArialMT-2d" x="72.216797"/>
     <use xlink:href="#ArialMT-73" x="105.517578"/>
     <use xlink:href="#ArialMT-71" x="155.517578"/>
     <use xlink:href="#ArialMT-75" x="211.132812"/>
     <use xlink:href="#ArialMT-61" x="266.748047"/>
     <use xlink:href="#ArialMT-72" x="322.363281"/>
     <use xlink:href="#ArialMT-65" x="355.664062"/>
     <use xlink:href="#ArialMT-64" x="411.279297"/>
     <use xlink:href="#ArialMT-3a" x="466.894531"/>
     <use xlink:href="#ArialMT-20" x="494.677734"/>
     <use xlink:href="#ArialMT-30" x="522.460938"/>
     <use xlink:href="#ArialMT-2e" x="578.076172"/>
     <use xlink:href="#ArialMT-38" x="605.859375"/>
     <use xlink:href="#ArialMT-30" x="661.474609"/>
    </g>
   </g>
  </g>
 </g>
 <defs>
  <clipPath id="pe22e3fcfcb">
   <rect x="38.414687" y="11.136797" width="446.4" height="443.52"/>
  </clipPath>
 </defs>
</svg>
