<?xml version="1.0" encoding="utf-8" standalone="no"?>
<!DOCTYPE svg PUBLIC "-//W3C//DTD SVG 1.1//EN"
  "http://www.w3.org/Graphics/SVG/1.1/DTD/svg11.dtd">
<svg xmlns:xlink="http://www.w3.org/1999/xlink" width="491.707031pt" height="366.599844pt" viewBox="0 0 491.707031 366.599844" xmlns="http://www.w3.org/2000/svg" version="1.1">
 <metadata>
  <rdf:RDF xmlns:dc="http://purl.org/dc/elements/1.1/" xmlns:cc="http://creativecommons.org/ns#" xmlns:rdf="http://www.w3.org/1999/02/22-rdf-syntax-ns#">
   <cc:Work>
    <dc:type rdf:resource="http://purl.org/dc/dcmitype/StillImage"/>
    <dc:date>2024-08-26T12:42:09.669279</dc:date>
    <dc:format>image/svg+xml</dc:format>
    <dc:creator>
     <cc:Agent>
      <dc:title>Matplotlib v3.7.2, https://matplotlib.org/</dc:title>
     </cc:Agent>
    </dc:creator>
   </cc:Work>
  </rdf:RDF>
 </metadata>
 <defs>
  <style type="text/css">*{stroke-linejoin: round; stroke-linecap: butt}</style>
 </defs>
 <g id="figure_1">
  <g id="patch_1">
   <path d="M 0 366.599844 
L 491.707031 366.599844 
L 491.707031 0 
L 0 0 
z
" style="fill: #ffffff"/>
  </g>
  <g id="axes_1">
   <g id="patch_2">
    <path d="M 38.107031 339.84 
L 484.507031 339.84 
L 484.507031 7.2 
L 38.107031 7.2 
z
" style="fill: #ffffff"/>
   </g>
   <g id="matplotlib.axis_1">
    <g id="xtick_1">
     <g id="line2d_1">
      <defs>
       <path id="m3fdd9cbd31" d="M 0 0 
L 0 6 
" style="stroke: #262626; stroke-width: 1.25"/>
      </defs>
      <g>
       <use xlink:href="#m3fdd9cbd31" x="38.107031" y="339.84" style="fill: #262626; stroke: #262626; stroke-width: 1.25"/>
      </g>
     </g>
     <g id="text_1">
      <!-- 0 -->
      <g style="fill: #262626" transform="translate(35.048516 357.213594) scale(0.11 -0.11)">
       <defs>
        <path id="ArialMT-30" d="M 266 2259 
Q 266 3072 433 3567 
Q 600 4063 929 4331 
Q 1259 4600 1759 4600 
Q 2128 4600 2406 4451 
Q 2684 4303 2865 4023 
Q 3047 3744 3150 3342 
Q 3253 2941 3253 2259 
Q 3253 1453 3087 958 
Q 2922 463 2592 192 
Q 2263 -78 1759 -78 
Q 1097 -78 719 397 
Q 266 969 266 2259 
z
M 844 2259 
Q 844 1131 1108 757 
Q 1372 384 1759 384 
Q 2147 384 2411 759 
Q 2675 1134 2675 2259 
Q 2675 3391 2411 3762 
Q 2147 4134 1753 4134 
Q 1366 4134 1134 3806 
Q 844 3388 844 2259 
z
" transform="scale(0.015625)"/>
       </defs>
       <use xlink:href="#ArialMT-30"/>
      </g>
     </g>
    </g>
    <g id="xtick_2">
     <g id="line2d_2">
      <g>
       <use xlink:href="#m3fdd9cbd31" x="103.75409" y="339.84" style="fill: #262626; stroke: #262626; stroke-width: 1.25"/>
      </g>
     </g>
     <g id="text_2">
      <!-- 10 -->
      <g style="fill: #262626" transform="translate(97.637059 357.213594) scale(0.11 -0.11)">
       <defs>
        <path id="ArialMT-31" d="M 2384 0 
L 1822 0 
L 1822 3584 
Q 1619 3391 1289 3197 
Q 959 3003 697 2906 
L 697 3450 
Q 1169 3672 1522 3987 
Q 1875 4303 2022 4600 
L 2384 4600 
L 2384 0 
z
" transform="scale(0.015625)"/>
       </defs>
       <use xlink:href="#ArialMT-31"/>
       <use xlink:href="#ArialMT-30" x="55.615234"/>
      </g>
     </g>
    </g>
    <g id="xtick_3">
     <g id="line2d_3">
      <g>
       <use xlink:href="#m3fdd9cbd31" x="169.401149" y="339.84" style="fill: #262626; stroke: #262626; stroke-width: 1.25"/>
      </g>
     </g>
     <g id="text_3">
      <!-- 20 -->
      <g style="fill: #262626" transform="translate(163.284118 357.213594) scale(0.11 -0.11)">
       <defs>
        <path id="ArialMT-32" d="M 3222 541 
L 3222 0 
L 194 0 
Q 188 203 259 391 
Q 375 700 629 1000 
Q 884 1300 1366 1694 
Q 2113 2306 2375 2664 
Q 2638 3022 2638 3341 
Q 2638 3675 2398 3904 
Q 2159 4134 1775 4134 
Q 1369 4134 1125 3890 
Q 881 3647 878 3216 
L 300 3275 
Q 359 3922 746 4261 
Q 1134 4600 1788 4600 
Q 2447 4600 2831 4234 
Q 3216 3869 3216 3328 
Q 3216 3053 3103 2787 
Q 2991 2522 2730 2228 
Q 2469 1934 1863 1422 
Q 1356 997 1212 845 
Q 1069 694 975 541 
L 3222 541 
z
" transform="scale(0.015625)"/>
       </defs>
       <use xlink:href="#ArialMT-32"/>
       <use xlink:href="#ArialMT-30" x="55.615234"/>
      </g>
     </g>
    </g>
    <g id="xtick_4">
     <g id="line2d_4">
      <g>
       <use xlink:href="#m3fdd9cbd31" x="235.048208" y="339.84" style="fill: #262626; stroke: #262626; stroke-width: 1.25"/>
      </g>
     </g>
     <g id="text_4">
      <!-- 30 -->
      <g style="fill: #262626" transform="translate(228.931176 357.213594) scale(0.11 -0.11)">
       <defs>
        <path id="ArialMT-33" d="M 269 1209 
L 831 1284 
Q 928 806 1161 595 
Q 1394 384 1728 384 
Q 2125 384 2398 659 
Q 2672 934 2672 1341 
Q 2672 1728 2419 1979 
Q 2166 2231 1775 2231 
Q 1616 2231 1378 2169 
L 1441 2663 
Q 1497 2656 1531 2656 
Q 1891 2656 2178 2843 
Q 2466 3031 2466 3422 
Q 2466 3731 2256 3934 
Q 2047 4138 1716 4138 
Q 1388 4138 1169 3931 
Q 950 3725 888 3313 
L 325 3413 
Q 428 3978 793 4289 
Q 1159 4600 1703 4600 
Q 2078 4600 2393 4439 
Q 2709 4278 2876 4000 
Q 3044 3722 3044 3409 
Q 3044 3113 2884 2869 
Q 2725 2625 2413 2481 
Q 2819 2388 3044 2092 
Q 3269 1797 3269 1353 
Q 3269 753 2831 336 
Q 2394 -81 1725 -81 
Q 1122 -81 723 278 
Q 325 638 269 1209 
z
" transform="scale(0.015625)"/>
       </defs>
       <use xlink:href="#ArialMT-33"/>
       <use xlink:href="#ArialMT-30" x="55.615234"/>
      </g>
     </g>
    </g>
    <g id="xtick_5">
     <g id="line2d_5">
      <g>
       <use xlink:href="#m3fdd9cbd31" x="300.695267" y="339.84" style="fill: #262626; stroke: #262626; stroke-width: 1.25"/>
      </g>
     </g>
     <g id="text_5">
      <!-- 40 -->
      <g style="fill: #262626" transform="translate(294.578235 357.213594) scale(0.11 -0.11)">
       <defs>
        <path id="ArialMT-34" d="M 2069 0 
L 2069 1097 
L 81 1097 
L 81 1613 
L 2172 4581 
L 2631 4581 
L 2631 1613 
L 3250 1613 
L 3250 1097 
L 2631 1097 
L 2631 0 
L 2069 0 
z
M 2069 1613 
L 2069 3678 
L 634 1613 
L 2069 1613 
z
" transform="scale(0.015625)"/>
       </defs>
       <use xlink:href="#ArialMT-34"/>
       <use xlink:href="#ArialMT-30" x="55.615234"/>
      </g>
     </g>
    </g>
    <g id="xtick_6">
     <g id="line2d_6">
      <g>
       <use xlink:href="#m3fdd9cbd31" x="366.342325" y="339.84" style="fill: #262626; stroke: #262626; stroke-width: 1.25"/>
      </g>
     </g>
     <g id="text_6">
      <!-- 50 -->
      <g style="fill: #262626" transform="translate(360.225294 357.213594) scale(0.11 -0.11)">
       <defs>
        <path id="ArialMT-35" d="M 266 1200 
L 856 1250 
Q 922 819 1161 601 
Q 1400 384 1738 384 
Q 2144 384 2425 690 
Q 2706 997 2706 1503 
Q 2706 1984 2436 2262 
Q 2166 2541 1728 2541 
Q 1456 2541 1237 2417 
Q 1019 2294 894 2097 
L 366 2166 
L 809 4519 
L 3088 4519 
L 3088 3981 
L 1259 3981 
L 1013 2750 
Q 1425 3038 1878 3038 
Q 2478 3038 2890 2622 
Q 3303 2206 3303 1553 
Q 3303 931 2941 478 
Q 2500 -78 1738 -78 
Q 1113 -78 717 272 
Q 322 622 266 1200 
z
" transform="scale(0.015625)"/>
       </defs>
       <use xlink:href="#ArialMT-35"/>
       <use xlink:href="#ArialMT-30" x="55.615234"/>
      </g>
     </g>
    </g>
    <g id="xtick_7">
     <g id="line2d_7">
      <g>
       <use xlink:href="#m3fdd9cbd31" x="431.989384" y="339.84" style="fill: #262626; stroke: #262626; stroke-width: 1.25"/>
      </g>
     </g>
     <g id="text_7">
      <!-- 60 -->
      <g style="fill: #262626" transform="translate(425.872353 357.213594) scale(0.11 -0.11)">
       <defs>
        <path id="ArialMT-36" d="M 3184 3459 
L 2625 3416 
Q 2550 3747 2413 3897 
Q 2184 4138 1850 4138 
Q 1581 4138 1378 3988 
Q 1113 3794 959 3422 
Q 806 3050 800 2363 
Q 1003 2672 1297 2822 
Q 1591 2972 1913 2972 
Q 2475 2972 2870 2558 
Q 3266 2144 3266 1488 
Q 3266 1056 3080 686 
Q 2894 316 2569 119 
Q 2244 -78 1831 -78 
Q 1128 -78 684 439 
Q 241 956 241 2144 
Q 241 3472 731 4075 
Q 1159 4600 1884 4600 
Q 2425 4600 2770 4297 
Q 3116 3994 3184 3459 
z
M 888 1484 
Q 888 1194 1011 928 
Q 1134 663 1356 523 
Q 1578 384 1822 384 
Q 2178 384 2434 671 
Q 2691 959 2691 1453 
Q 2691 1928 2437 2201 
Q 2184 2475 1800 2475 
Q 1419 2475 1153 2201 
Q 888 1928 888 1484 
z
" transform="scale(0.015625)"/>
       </defs>
       <use xlink:href="#ArialMT-36"/>
       <use xlink:href="#ArialMT-30" x="55.615234"/>
      </g>
     </g>
    </g>
   </g>
   <g id="matplotlib.axis_2">
    <g id="ytick_1">
     <g id="line2d_8">
      <defs>
       <path id="m3d7f9eea0c" d="M 0 0 
L -6 0 
" style="stroke: #262626; stroke-width: 1.25"/>
      </defs>
      <g>
       <use xlink:href="#m3d7f9eea0c" x="38.107031" y="326.944253" style="fill: #262626; stroke: #262626; stroke-width: 1.25"/>
      </g>
     </g>
     <g id="text_8">
      <!-- 0.75 -->
      <g style="fill: #262626" transform="translate(7.2 330.88105) scale(0.11 -0.11)">
       <defs>
        <path id="ArialMT-2e" d="M 581 0 
L 581 641 
L 1222 641 
L 1222 0 
L 581 0 
z
" transform="scale(0.015625)"/>
        <path id="ArialMT-37" d="M 303 3981 
L 303 4522 
L 3269 4522 
L 3269 4084 
Q 2831 3619 2401 2847 
Q 1972 2075 1738 1259 
Q 1569 684 1522 0 
L 944 0 
Q 953 541 1156 1306 
Q 1359 2072 1739 2783 
Q 2119 3494 2547 3981 
L 303 3981 
z
" transform="scale(0.015625)"/>
       </defs>
       <use xlink:href="#ArialMT-30"/>
       <use xlink:href="#ArialMT-2e" x="55.615234"/>
       <use xlink:href="#ArialMT-37" x="83.398438"/>
       <use xlink:href="#ArialMT-35" x="139.013672"/>
      </g>
     </g>
    </g>
    <g id="ytick_2">
     <g id="line2d_9">
      <g>
       <use xlink:href="#m3d7f9eea0c" x="38.107031" y="265.357023" style="fill: #262626; stroke: #262626; stroke-width: 1.25"/>
      </g>
     </g>
     <g id="text_9">
      <!-- 0.80 -->
      <g style="fill: #262626" transform="translate(7.2 269.293819) scale(0.11 -0.11)">
       <defs>
        <path id="ArialMT-38" d="M 1131 2484 
Q 781 2613 612 2850 
Q 444 3088 444 3419 
Q 444 3919 803 4259 
Q 1163 4600 1759 4600 
Q 2359 4600 2725 4251 
Q 3091 3903 3091 3403 
Q 3091 3084 2923 2848 
Q 2756 2613 2416 2484 
Q 2838 2347 3058 2040 
Q 3278 1734 3278 1309 
Q 3278 722 2862 322 
Q 2447 -78 1769 -78 
Q 1091 -78 675 323 
Q 259 725 259 1325 
Q 259 1772 486 2073 
Q 713 2375 1131 2484 
z
M 1019 3438 
Q 1019 3113 1228 2906 
Q 1438 2700 1772 2700 
Q 2097 2700 2305 2904 
Q 2513 3109 2513 3406 
Q 2513 3716 2298 3927 
Q 2084 4138 1766 4138 
Q 1444 4138 1231 3931 
Q 1019 3725 1019 3438 
z
M 838 1322 
Q 838 1081 952 856 
Q 1066 631 1291 507 
Q 1516 384 1775 384 
Q 2178 384 2440 643 
Q 2703 903 2703 1303 
Q 2703 1709 2433 1975 
Q 2163 2241 1756 2241 
Q 1359 2241 1098 1978 
Q 838 1716 838 1322 
z
" transform="scale(0.015625)"/>
       </defs>
       <use xlink:href="#ArialMT-30"/>
       <use xlink:href="#ArialMT-2e" x="55.615234"/>
       <use xlink:href="#ArialMT-38" x="83.398438"/>
       <use xlink:href="#ArialMT-30" x="139.013672"/>
      </g>
     </g>
    </g>
    <g id="ytick_3">
     <g id="line2d_10">
      <g>
       <use xlink:href="#m3d7f9eea0c" x="38.107031" y="203.769792" style="fill: #262626; stroke: #262626; stroke-width: 1.25"/>
      </g>
     </g>
     <g id="text_10">
      <!-- 0.85 -->
      <g style="fill: #262626" transform="translate(7.2 207.706589) scale(0.11 -0.11)">
       <use xlink:href="#ArialMT-30"/>
       <use xlink:href="#ArialMT-2e" x="55.615234"/>
       <use xlink:href="#ArialMT-38" x="83.398438"/>
       <use xlink:href="#ArialMT-35" x="139.013672"/>
      </g>
     </g>
    </g>
    <g id="ytick_4">
     <g id="line2d_11">
      <g>
       <use xlink:href="#m3d7f9eea0c" x="38.107031" y="142.182562" style="fill: #262626; stroke: #262626; stroke-width: 1.25"/>
      </g>
     </g>
     <g id="text_11">
      <!-- 0.90 -->
      <g style="fill: #262626" transform="translate(7.2 146.119359) scale(0.11 -0.11)">
       <defs>
        <path id="ArialMT-39" d="M 350 1059 
L 891 1109 
Q 959 728 1153 556 
Q 1347 384 1650 384 
Q 1909 384 2104 503 
Q 2300 622 2425 820 
Q 2550 1019 2634 1356 
Q 2719 1694 2719 2044 
Q 2719 2081 2716 2156 
Q 2547 1888 2255 1720 
Q 1963 1553 1622 1553 
Q 1053 1553 659 1965 
Q 266 2378 266 3053 
Q 266 3750 677 4175 
Q 1088 4600 1706 4600 
Q 2153 4600 2523 4359 
Q 2894 4119 3086 3673 
Q 3278 3228 3278 2384 
Q 3278 1506 3087 986 
Q 2897 466 2520 194 
Q 2144 -78 1638 -78 
Q 1100 -78 759 220 
Q 419 519 350 1059 
z
M 2653 3081 
Q 2653 3566 2395 3850 
Q 2138 4134 1775 4134 
Q 1400 4134 1122 3828 
Q 844 3522 844 3034 
Q 844 2597 1108 2323 
Q 1372 2050 1759 2050 
Q 2150 2050 2401 2323 
Q 2653 2597 2653 3081 
z
" transform="scale(0.015625)"/>
       </defs>
       <use xlink:href="#ArialMT-30"/>
       <use xlink:href="#ArialMT-2e" x="55.615234"/>
       <use xlink:href="#ArialMT-39" x="83.398438"/>
       <use xlink:href="#ArialMT-30" x="139.013672"/>
      </g>
     </g>
    </g>
    <g id="ytick_5">
     <g id="line2d_12">
      <g>
       <use xlink:href="#m3d7f9eea0c" x="38.107031" y="80.595332" style="fill: #262626; stroke: #262626; stroke-width: 1.25"/>
      </g>
     </g>
     <g id="text_12">
      <!-- 0.95 -->
      <g style="fill: #262626" transform="translate(7.2 84.532129) scale(0.11 -0.11)">
       <use xlink:href="#ArialMT-30"/>
       <use xlink:href="#ArialMT-2e" x="55.615234"/>
       <use xlink:href="#ArialMT-39" x="83.398438"/>
       <use xlink:href="#ArialMT-35" x="139.013672"/>
      </g>
     </g>
    </g>
    <g id="ytick_6">
     <g id="line2d_13">
      <g>
       <use xlink:href="#m3d7f9eea0c" x="38.107031" y="19.008102" style="fill: #262626; stroke: #262626; stroke-width: 1.25"/>
      </g>
     </g>
     <g id="text_13">
      <!-- 1.00 -->
      <g style="fill: #262626" transform="translate(7.2 22.944899) scale(0.11 -0.11)">
       <use xlink:href="#ArialMT-31"/>
       <use xlink:href="#ArialMT-2e" x="55.615234"/>
       <use xlink:href="#ArialMT-30" x="83.398438"/>
       <use xlink:href="#ArialMT-30" x="139.013672"/>
      </g>
     </g>
    </g>
   </g>
   <g id="PathCollection_1">
    <defs>
     <path id="mcc20f2c8bd" d="M 0 3 
C 0.795609 3 1.55874 2.683901 2.12132 2.12132 
C 2.683901 1.55874 3 0.795609 3 0 
C 3 -0.795609 2.683901 -1.55874 2.12132 -2.12132 
C 1.55874 -2.683901 0.795609 -3 0 -3 
C -0.795609 -3 -1.55874 -2.683901 -2.12132 -2.12132 
C -2.683901 -1.55874 -3 -0.795609 -3 0 
C -3 0.795609 -2.683901 1.55874 -2.12132 2.12132 
C -1.55874 2.683901 -0.795609 3 0 3 
z
" style="stroke: #8b0000"/>
    </defs>
    <g clip-path="url(#p034fd6c0b6)">
     <use xlink:href="#mcc20f2c8bd" x="38.107031" y="207.223117" style="fill: #8b0000; stroke: #8b0000"/>
     <use xlink:href="#mcc20f2c8bd" x="44.671737" y="246.807131" style="fill: #8b0000; stroke: #8b0000"/>
     <use xlink:href="#mcc20f2c8bd" x="51.236443" y="303.063542" style="fill: #8b0000; stroke: #8b0000"/>
     <use xlink:href="#mcc20f2c8bd" x="57.801149" y="248.044955" style="fill: #8b0000; stroke: #8b0000"/>
     <use xlink:href="#mcc20f2c8bd" x="64.365855" y="242.602082" style="fill: #8b0000; stroke: #8b0000"/>
     <use xlink:href="#mcc20f2c8bd" x="70.930561" y="274.623302" style="fill: #8b0000; stroke: #8b0000"/>
     <use xlink:href="#mcc20f2c8bd" x="77.495267" y="249.247262" style="fill: #8b0000; stroke: #8b0000"/>
     <use xlink:href="#mcc20f2c8bd" x="84.059972" y="237.087355" style="fill: #8b0000; stroke: #8b0000"/>
     <use xlink:href="#mcc20f2c8bd" x="90.624678" y="269.008418" style="fill: #8b0000; stroke: #8b0000"/>
     <use xlink:href="#mcc20f2c8bd" x="97.189384" y="242.696199" style="fill: #8b0000; stroke: #8b0000"/>
     <use xlink:href="#mcc20f2c8bd" x="103.75409" y="242.129956" style="fill: #8b0000; stroke: #8b0000"/>
     <use xlink:href="#mcc20f2c8bd" x="110.318796" y="283.9623" style="fill: #8b0000; stroke: #8b0000"/>
     <use xlink:href="#mcc20f2c8bd" x="116.883502" y="213.759047" style="fill: #8b0000; stroke: #8b0000"/>
     <use xlink:href="#mcc20f2c8bd" x="123.448208" y="242.492071" style="fill: #8b0000; stroke: #8b0000"/>
     <use xlink:href="#mcc20f2c8bd" x="130.012914" y="225.961919" style="fill: #8b0000; stroke: #8b0000"/>
     <use xlink:href="#mcc20f2c8bd" x="136.577619" y="232.374304" style="fill: #8b0000; stroke: #8b0000"/>
     <use xlink:href="#mcc20f2c8bd" x="143.142325" y="228.492465" style="fill: #8b0000; stroke: #8b0000"/>
     <use xlink:href="#mcc20f2c8bd" x="149.707031" y="262.324482" style="fill: #8b0000; stroke: #8b0000"/>
     <use xlink:href="#mcc20f2c8bd" x="156.271737" y="216.605696" style="fill: #8b0000; stroke: #8b0000"/>
     <use xlink:href="#mcc20f2c8bd" x="162.836443" y="254.651879" style="fill: #8b0000; stroke: #8b0000"/>
     <use xlink:href="#mcc20f2c8bd" x="169.401149" y="183.046953" style="fill: #8b0000; stroke: #8b0000"/>
     <use xlink:href="#mcc20f2c8bd" x="175.965855" y="209.433032" style="fill: #8b0000; stroke: #8b0000"/>
     <use xlink:href="#mcc20f2c8bd" x="182.530561" y="195.766397" style="fill: #8b0000; stroke: #8b0000"/>
     <use xlink:href="#mcc20f2c8bd" x="189.095267" y="233.7392" style="fill: #8b0000; stroke: #8b0000"/>
     <use xlink:href="#mcc20f2c8bd" x="195.659972" y="269.807289" style="fill: #8b0000; stroke: #8b0000"/>
     <use xlink:href="#mcc20f2c8bd" x="202.224678" y="270.221691" style="fill: #8b0000; stroke: #8b0000"/>
     <use xlink:href="#mcc20f2c8bd" x="208.789384" y="212.951413" style="fill: #8b0000; stroke: #8b0000"/>
     <use xlink:href="#mcc20f2c8bd" x="215.35409" y="214.927182" style="fill: #8b0000; stroke: #8b0000"/>
     <use xlink:href="#mcc20f2c8bd" x="221.918796" y="223.089739" style="fill: #8b0000; stroke: #8b0000"/>
     <use xlink:href="#mcc20f2c8bd" x="228.483502" y="210.465459" style="fill: #8b0000; stroke: #8b0000"/>
     <use xlink:href="#mcc20f2c8bd" x="235.048208" y="249.209497" style="fill: #8b0000; stroke: #8b0000"/>
     <use xlink:href="#mcc20f2c8bd" x="241.612914" y="193.068496" style="fill: #8b0000; stroke: #8b0000"/>
     <use xlink:href="#mcc20f2c8bd" x="248.177619" y="219.349437" style="fill: #8b0000; stroke: #8b0000"/>
     <use xlink:href="#mcc20f2c8bd" x="254.742325" y="209.92939" style="fill: #8b0000; stroke: #8b0000"/>
     <use xlink:href="#mcc20f2c8bd" x="261.307031" y="201.58403" style="fill: #8b0000; stroke: #8b0000"/>
     <use xlink:href="#mcc20f2c8bd" x="267.871737" y="255.502996" style="fill: #8b0000; stroke: #8b0000"/>
     <use xlink:href="#mcc20f2c8bd" x="274.436443" y="248.795693" style="fill: #8b0000; stroke: #8b0000"/>
     <use xlink:href="#mcc20f2c8bd" x="281.001149" y="205.350165" style="fill: #8b0000; stroke: #8b0000"/>
     <use xlink:href="#mcc20f2c8bd" x="287.565855" y="182.34001" style="fill: #8b0000; stroke: #8b0000"/>
     <use xlink:href="#mcc20f2c8bd" x="294.130561" y="246.431631" style="fill: #8b0000; stroke: #8b0000"/>
     <use xlink:href="#mcc20f2c8bd" x="300.695267" y="194.844085" style="fill: #8b0000; stroke: #8b0000"/>
     <use xlink:href="#mcc20f2c8bd" x="307.259972" y="222.020214" style="fill: #8b0000; stroke: #8b0000"/>
     <use xlink:href="#mcc20f2c8bd" x="313.824678" y="218.874855" style="fill: #8b0000; stroke: #8b0000"/>
     <use xlink:href="#mcc20f2c8bd" x="320.389384" y="219.588781" style="fill: #8b0000; stroke: #8b0000"/>
     <use xlink:href="#mcc20f2c8bd" x="326.95409" y="259.76881" style="fill: #8b0000; stroke: #8b0000"/>
     <use xlink:href="#mcc20f2c8bd" x="333.518796" y="221.601313" style="fill: #8b0000; stroke: #8b0000"/>
     <use xlink:href="#mcc20f2c8bd" x="340.083502" y="221.685151" style="fill: #8b0000; stroke: #8b0000"/>
     <use xlink:href="#mcc20f2c8bd" x="346.648208" y="207.279647" style="fill: #8b0000; stroke: #8b0000"/>
     <use xlink:href="#mcc20f2c8bd" x="353.212914" y="197.518538" style="fill: #8b0000; stroke: #8b0000"/>
     <use xlink:href="#mcc20f2c8bd" x="359.777619" y="207.541173" style="fill: #8b0000; stroke: #8b0000"/>
     <use xlink:href="#mcc20f2c8bd" x="366.342325" y="195.815608" style="fill: #8b0000; stroke: #8b0000"/>
     <use xlink:href="#mcc20f2c8bd" x="372.907031" y="278.573354" style="fill: #8b0000; stroke: #8b0000"/>
     <use xlink:href="#mcc20f2c8bd" x="379.471737" y="190.712848" style="fill: #8b0000; stroke: #8b0000"/>
     <use xlink:href="#mcc20f2c8bd" x="386.036443" y="200.233821" style="fill: #8b0000; stroke: #8b0000"/>
     <use xlink:href="#mcc20f2c8bd" x="392.601149" y="189.805172" style="fill: #8b0000; stroke: #8b0000"/>
     <use xlink:href="#mcc20f2c8bd" x="399.165855" y="192.577463" style="fill: #8b0000; stroke: #8b0000"/>
     <use xlink:href="#mcc20f2c8bd" x="405.730561" y="219.293962" style="fill: #8b0000; stroke: #8b0000"/>
     <use xlink:href="#mcc20f2c8bd" x="412.295267" y="175.352266" style="fill: #8b0000; stroke: #8b0000"/>
     <use xlink:href="#mcc20f2c8bd" x="418.859972" y="185.856225" style="fill: #8b0000; stroke: #8b0000"/>
     <use xlink:href="#mcc20f2c8bd" x="425.424678" y="324.72" style="fill: #8b0000; stroke: #8b0000"/>
     <use xlink:href="#mcc20f2c8bd" x="431.989384" y="259.378321" style="fill: #8b0000; stroke: #8b0000"/>
     <use xlink:href="#mcc20f2c8bd" x="438.55409" y="204.108876" style="fill: #8b0000; stroke: #8b0000"/>
     <use xlink:href="#mcc20f2c8bd" x="445.118796" y="175.774557" style="fill: #8b0000; stroke: #8b0000"/>
     <use xlink:href="#mcc20f2c8bd" x="451.683502" y="168.086945" style="fill: #8b0000; stroke: #8b0000"/>
     <use xlink:href="#mcc20f2c8bd" x="458.248208" y="172.055725" style="fill: #8b0000; stroke: #8b0000"/>
     <use xlink:href="#mcc20f2c8bd" x="464.812914" y="126.636324" style="fill: #8b0000; stroke: #8b0000"/>
     <use xlink:href="#mcc20f2c8bd" x="471.377619" y="140.575757" style="fill: #8b0000; stroke: #8b0000"/>
     <use xlink:href="#mcc20f2c8bd" x="477.942325" y="140.387267" style="fill: #8b0000; stroke: #8b0000"/>
    </g>
   </g>
   <g id="PathCollection_2">
    <defs>
     <path id="m2850953306" d="M 0 3 
C 0.795609 3 1.55874 2.683901 2.12132 2.12132 
C 2.683901 1.55874 3 0.795609 3 0 
C 3 -0.795609 2.683901 -1.55874 2.12132 -2.12132 
C 1.55874 -2.683901 0.795609 -3 0 -3 
C -0.795609 -3 -1.55874 -2.683901 -2.12132 -2.12132 
C -2.683901 -1.55874 -3 -0.795609 -3 0 
C -3 0.795609 -2.683901 1.55874 -2.12132 2.12132 
C -1.55874 2.683901 -0.795609 3 0 3 
z
" style="stroke: #ff69b4"/>
    </defs>
    <g clip-path="url(#p034fd6c0b6)">
     <use xlink:href="#m2850953306" x="38.107031" y="22.32" style="fill: #ff69b4; stroke: #ff69b4"/>
     <use xlink:href="#m2850953306" x="38.107031" y="134.094223" style="fill: #ff69b4; stroke: #ff69b4"/>
     <use xlink:href="#m2850953306" x="38.107031" y="54.283476" style="fill: #ff69b4; stroke: #ff69b4"/>
     <use xlink:href="#m2850953306" x="38.107031" y="55.319957" style="fill: #ff69b4; stroke: #ff69b4"/>
     <use xlink:href="#m2850953306" x="38.107031" y="69.660845" style="fill: #ff69b4; stroke: #ff69b4"/>
     <use xlink:href="#m2850953306" x="38.107031" y="67.612013" style="fill: #ff69b4; stroke: #ff69b4"/>
     <use xlink:href="#m2850953306" x="38.107031" y="98.73062" style="fill: #ff69b4; stroke: #ff69b4"/>
     <use xlink:href="#m2850953306" x="44.671737" y="75.581404" style="fill: #ff69b4; stroke: #ff69b4"/>
     <use xlink:href="#m2850953306" x="44.671737" y="132.116626" style="fill: #ff69b4; stroke: #ff69b4"/>
     <use xlink:href="#m2850953306" x="44.671737" y="130.84455" style="fill: #ff69b4; stroke: #ff69b4"/>
     <use xlink:href="#m2850953306" x="51.236443" y="52.758161" style="fill: #ff69b4; stroke: #ff69b4"/>
     <use xlink:href="#m2850953306" x="51.236443" y="73.706095" style="fill: #ff69b4; stroke: #ff69b4"/>
     <use xlink:href="#m2850953306" x="51.236443" y="51.829075" style="fill: #ff69b4; stroke: #ff69b4"/>
     <use xlink:href="#m2850953306" x="51.236443" y="153.225687" style="fill: #ff69b4; stroke: #ff69b4"/>
     <use xlink:href="#m2850953306" x="51.236443" y="98.350478" style="fill: #ff69b4; stroke: #ff69b4"/>
     <use xlink:href="#m2850953306" x="51.236443" y="61.46654" style="fill: #ff69b4; stroke: #ff69b4"/>
     <use xlink:href="#m2850953306" x="57.801149" y="106.850553" style="fill: #ff69b4; stroke: #ff69b4"/>
     <use xlink:href="#m2850953306" x="64.365855" y="27.938097" style="fill: #ff69b4; stroke: #ff69b4"/>
     <use xlink:href="#m2850953306" x="64.365855" y="71.516276" style="fill: #ff69b4; stroke: #ff69b4"/>
     <use xlink:href="#m2850953306" x="64.365855" y="79.255675" style="fill: #ff69b4; stroke: #ff69b4"/>
     <use xlink:href="#m2850953306" x="64.365855" y="57.284856" style="fill: #ff69b4; stroke: #ff69b4"/>
     <use xlink:href="#m2850953306" x="70.930561" y="42.575209" style="fill: #ff69b4; stroke: #ff69b4"/>
     <use xlink:href="#m2850953306" x="70.930561" y="77.504049" style="fill: #ff69b4; stroke: #ff69b4"/>
     <use xlink:href="#m2850953306" x="70.930561" y="46.779393" style="fill: #ff69b4; stroke: #ff69b4"/>
     <use xlink:href="#m2850953306" x="70.930561" y="103.076487" style="fill: #ff69b4; stroke: #ff69b4"/>
     <use xlink:href="#m2850953306" x="70.930561" y="137.051561" style="fill: #ff69b4; stroke: #ff69b4"/>
     <use xlink:href="#m2850953306" x="70.930561" y="85.270271" style="fill: #ff69b4; stroke: #ff69b4"/>
     <use xlink:href="#m2850953306" x="70.930561" y="118.279848" style="fill: #ff69b4; stroke: #ff69b4"/>
     <use xlink:href="#m2850953306" x="77.495267" y="95.248424" style="fill: #ff69b4; stroke: #ff69b4"/>
     <use xlink:href="#m2850953306" x="77.495267" y="107.507288" style="fill: #ff69b4; stroke: #ff69b4"/>
     <use xlink:href="#m2850953306" x="77.495267" y="140.831523" style="fill: #ff69b4; stroke: #ff69b4"/>
     <use xlink:href="#m2850953306" x="77.495267" y="67.549554" style="fill: #ff69b4; stroke: #ff69b4"/>
     <use xlink:href="#m2850953306" x="84.059972" y="147.225717" style="fill: #ff69b4; stroke: #ff69b4"/>
     <use xlink:href="#m2850953306" x="84.059972" y="102.508007" style="fill: #ff69b4; stroke: #ff69b4"/>
     <use xlink:href="#m2850953306" x="90.624678" y="70.254796" style="fill: #ff69b4; stroke: #ff69b4"/>
     <use xlink:href="#m2850953306" x="90.624678" y="72.131721" style="fill: #ff69b4; stroke: #ff69b4"/>
     <use xlink:href="#m2850953306" x="90.624678" y="84.119385" style="fill: #ff69b4; stroke: #ff69b4"/>
     <use xlink:href="#m2850953306" x="97.189384" y="61.534754" style="fill: #ff69b4; stroke: #ff69b4"/>
     <use xlink:href="#m2850953306" x="97.189384" y="65.994984" style="fill: #ff69b4; stroke: #ff69b4"/>
     <use xlink:href="#m2850953306" x="97.189384" y="40.280415" style="fill: #ff69b4; stroke: #ff69b4"/>
     <use xlink:href="#m2850953306" x="97.189384" y="160.34928" style="fill: #ff69b4; stroke: #ff69b4"/>
     <use xlink:href="#m2850953306" x="97.189384" y="40.007148" style="fill: #ff69b4; stroke: #ff69b4"/>
     <use xlink:href="#m2850953306" x="97.189384" y="109.793405" style="fill: #ff69b4; stroke: #ff69b4"/>
     <use xlink:href="#m2850953306" x="103.75409" y="44.060126" style="fill: #ff69b4; stroke: #ff69b4"/>
     <use xlink:href="#m2850953306" x="116.883502" y="37.052535" style="fill: #ff69b4; stroke: #ff69b4"/>
     <use xlink:href="#m2850953306" x="116.883502" y="37.864038" style="fill: #ff69b4; stroke: #ff69b4"/>
     <use xlink:href="#m2850953306" x="123.448208" y="152.484165" style="fill: #ff69b4; stroke: #ff69b4"/>
     <use xlink:href="#m2850953306" x="130.012914" y="58.575033" style="fill: #ff69b4; stroke: #ff69b4"/>
     <use xlink:href="#m2850953306" x="136.577619" y="136.565582" style="fill: #ff69b4; stroke: #ff69b4"/>
     <use xlink:href="#m2850953306" x="136.577619" y="71.845815" style="fill: #ff69b4; stroke: #ff69b4"/>
     <use xlink:href="#m2850953306" x="136.577619" y="115.730339" style="fill: #ff69b4; stroke: #ff69b4"/>
     <use xlink:href="#m2850953306" x="143.142325" y="97.27213" style="fill: #ff69b4; stroke: #ff69b4"/>
     <use xlink:href="#m2850953306" x="149.707031" y="36.126849" style="fill: #ff69b4; stroke: #ff69b4"/>
     <use xlink:href="#m2850953306" x="149.707031" y="48.402612" style="fill: #ff69b4; stroke: #ff69b4"/>
     <use xlink:href="#m2850953306" x="156.271737" y="76.747478" style="fill: #ff69b4; stroke: #ff69b4"/>
     <use xlink:href="#m2850953306" x="156.271737" y="72.529753" style="fill: #ff69b4; stroke: #ff69b4"/>
     <use xlink:href="#m2850953306" x="156.271737" y="140.802272" style="fill: #ff69b4; stroke: #ff69b4"/>
     <use xlink:href="#m2850953306" x="162.836443" y="154.213956" style="fill: #ff69b4; stroke: #ff69b4"/>
     <use xlink:href="#m2850953306" x="169.401149" y="53.779638" style="fill: #ff69b4; stroke: #ff69b4"/>
     <use xlink:href="#m2850953306" x="169.401149" y="103.06464" style="fill: #ff69b4; stroke: #ff69b4"/>
     <use xlink:href="#m2850953306" x="169.401149" y="42.727978" style="fill: #ff69b4; stroke: #ff69b4"/>
     <use xlink:href="#m2850953306" x="169.401149" y="63.78866" style="fill: #ff69b4; stroke: #ff69b4"/>
     <use xlink:href="#m2850953306" x="169.401149" y="88.628508" style="fill: #ff69b4; stroke: #ff69b4"/>
     <use xlink:href="#m2850953306" x="175.965855" y="40.009075" style="fill: #ff69b4; stroke: #ff69b4"/>
     <use xlink:href="#m2850953306" x="175.965855" y="145.249175" style="fill: #ff69b4; stroke: #ff69b4"/>
     <use xlink:href="#m2850953306" x="182.530561" y="121.719671" style="fill: #ff69b4; stroke: #ff69b4"/>
     <use xlink:href="#m2850953306" x="182.530561" y="120.822001" style="fill: #ff69b4; stroke: #ff69b4"/>
     <use xlink:href="#m2850953306" x="189.095267" y="75.824121" style="fill: #ff69b4; stroke: #ff69b4"/>
     <use xlink:href="#m2850953306" x="189.095267" y="115.384448" style="fill: #ff69b4; stroke: #ff69b4"/>
     <use xlink:href="#m2850953306" x="189.095267" y="95.000295" style="fill: #ff69b4; stroke: #ff69b4"/>
     <use xlink:href="#m2850953306" x="189.095267" y="233.886734" style="fill: #ff69b4; stroke: #ff69b4"/>
     <use xlink:href="#m2850953306" x="195.659972" y="111.001699" style="fill: #ff69b4; stroke: #ff69b4"/>
     <use xlink:href="#m2850953306" x="195.659972" y="63.64194" style="fill: #ff69b4; stroke: #ff69b4"/>
     <use xlink:href="#m2850953306" x="195.659972" y="133.314586" style="fill: #ff69b4; stroke: #ff69b4"/>
     <use xlink:href="#m2850953306" x="202.224678" y="83.813037" style="fill: #ff69b4; stroke: #ff69b4"/>
     <use xlink:href="#m2850953306" x="202.224678" y="51.287494" style="fill: #ff69b4; stroke: #ff69b4"/>
     <use xlink:href="#m2850953306" x="202.224678" y="40.495269" style="fill: #ff69b4; stroke: #ff69b4"/>
     <use xlink:href="#m2850953306" x="202.224678" y="131.741001" style="fill: #ff69b4; stroke: #ff69b4"/>
     <use xlink:href="#m2850953306" x="202.224678" y="130.886023" style="fill: #ff69b4; stroke: #ff69b4"/>
     <use xlink:href="#m2850953306" x="202.224678" y="60.008692" style="fill: #ff69b4; stroke: #ff69b4"/>
     <use xlink:href="#m2850953306" x="202.224678" y="43.621782" style="fill: #ff69b4; stroke: #ff69b4"/>
     <use xlink:href="#m2850953306" x="202.224678" y="176.593126" style="fill: #ff69b4; stroke: #ff69b4"/>
     <use xlink:href="#m2850953306" x="208.789384" y="72.319334" style="fill: #ff69b4; stroke: #ff69b4"/>
     <use xlink:href="#m2850953306" x="208.789384" y="39.270119" style="fill: #ff69b4; stroke: #ff69b4"/>
     <use xlink:href="#m2850953306" x="208.789384" y="97.289288" style="fill: #ff69b4; stroke: #ff69b4"/>
     <use xlink:href="#m2850953306" x="208.789384" y="74.537746" style="fill: #ff69b4; stroke: #ff69b4"/>
     <use xlink:href="#m2850953306" x="215.35409" y="80.724201" style="fill: #ff69b4; stroke: #ff69b4"/>
     <use xlink:href="#m2850953306" x="215.35409" y="192.771405" style="fill: #ff69b4; stroke: #ff69b4"/>
     <use xlink:href="#m2850953306" x="215.35409" y="119.401621" style="fill: #ff69b4; stroke: #ff69b4"/>
     <use xlink:href="#m2850953306" x="215.35409" y="75.406158" style="fill: #ff69b4; stroke: #ff69b4"/>
     <use xlink:href="#m2850953306" x="221.918796" y="58.901583" style="fill: #ff69b4; stroke: #ff69b4"/>
     <use xlink:href="#m2850953306" x="221.918796" y="117.982456" style="fill: #ff69b4; stroke: #ff69b4"/>
     <use xlink:href="#m2850953306" x="221.918796" y="45.246399" style="fill: #ff69b4; stroke: #ff69b4"/>
     <use xlink:href="#m2850953306" x="228.483502" y="133.113922" style="fill: #ff69b4; stroke: #ff69b4"/>
     <use xlink:href="#m2850953306" x="228.483502" y="174.346432" style="fill: #ff69b4; stroke: #ff69b4"/>
     <use xlink:href="#m2850953306" x="228.483502" y="120.267481" style="fill: #ff69b4; stroke: #ff69b4"/>
     <use xlink:href="#m2850953306" x="235.048208" y="94.331379" style="fill: #ff69b4; stroke: #ff69b4"/>
     <use xlink:href="#m2850953306" x="241.612914" y="42.282919" style="fill: #ff69b4; stroke: #ff69b4"/>
     <use xlink:href="#m2850953306" x="241.612914" y="67.306783" style="fill: #ff69b4; stroke: #ff69b4"/>
     <use xlink:href="#m2850953306" x="241.612914" y="140.67585" style="fill: #ff69b4; stroke: #ff69b4"/>
     <use xlink:href="#m2850953306" x="241.612914" y="72.223655" style="fill: #ff69b4; stroke: #ff69b4"/>
     <use xlink:href="#m2850953306" x="241.612914" y="128.803594" style="fill: #ff69b4; stroke: #ff69b4"/>
     <use xlink:href="#m2850953306" x="241.612914" y="34.482593" style="fill: #ff69b4; stroke: #ff69b4"/>
     <use xlink:href="#m2850953306" x="241.612914" y="83.837645" style="fill: #ff69b4; stroke: #ff69b4"/>
     <use xlink:href="#m2850953306" x="241.612914" y="96.305672" style="fill: #ff69b4; stroke: #ff69b4"/>
     <use xlink:href="#m2850953306" x="241.612914" y="134.813335" style="fill: #ff69b4; stroke: #ff69b4"/>
     <use xlink:href="#m2850953306" x="241.612914" y="111.412427" style="fill: #ff69b4; stroke: #ff69b4"/>
     <use xlink:href="#m2850953306" x="248.177619" y="92.616262" style="fill: #ff69b4; stroke: #ff69b4"/>
     <use xlink:href="#m2850953306" x="254.742325" y="87.974181" style="fill: #ff69b4; stroke: #ff69b4"/>
     <use xlink:href="#m2850953306" x="261.307031" y="125.738989" style="fill: #ff69b4; stroke: #ff69b4"/>
     <use xlink:href="#m2850953306" x="261.307031" y="71.325752" style="fill: #ff69b4; stroke: #ff69b4"/>
     <use xlink:href="#m2850953306" x="261.307031" y="81.446454" style="fill: #ff69b4; stroke: #ff69b4"/>
     <use xlink:href="#m2850953306" x="261.307031" y="73.573144" style="fill: #ff69b4; stroke: #ff69b4"/>
     <use xlink:href="#m2850953306" x="261.307031" y="79.90909" style="fill: #ff69b4; stroke: #ff69b4"/>
     <use xlink:href="#m2850953306" x="261.307031" y="275.308506" style="fill: #ff69b4; stroke: #ff69b4"/>
     <use xlink:href="#m2850953306" x="267.871737" y="91.368529" style="fill: #ff69b4; stroke: #ff69b4"/>
     <use xlink:href="#m2850953306" x="267.871737" y="51.155942" style="fill: #ff69b4; stroke: #ff69b4"/>
     <use xlink:href="#m2850953306" x="274.436443" y="105.254252" style="fill: #ff69b4; stroke: #ff69b4"/>
     <use xlink:href="#m2850953306" x="274.436443" y="42.601526" style="fill: #ff69b4; stroke: #ff69b4"/>
     <use xlink:href="#m2850953306" x="294.130561" y="91.243969" style="fill: #ff69b4; stroke: #ff69b4"/>
     <use xlink:href="#m2850953306" x="294.130561" y="60.81048" style="fill: #ff69b4; stroke: #ff69b4"/>
     <use xlink:href="#m2850953306" x="294.130561" y="73.115169" style="fill: #ff69b4; stroke: #ff69b4"/>
     <use xlink:href="#m2850953306" x="300.695267" y="71.818371" style="fill: #ff69b4; stroke: #ff69b4"/>
     <use xlink:href="#m2850953306" x="307.259972" y="71.204949" style="fill: #ff69b4; stroke: #ff69b4"/>
     <use xlink:href="#m2850953306" x="313.824678" y="123.779738" style="fill: #ff69b4; stroke: #ff69b4"/>
     <use xlink:href="#m2850953306" x="313.824678" y="211.313843" style="fill: #ff69b4; stroke: #ff69b4"/>
     <use xlink:href="#m2850953306" x="320.389384" y="125.900144" style="fill: #ff69b4; stroke: #ff69b4"/>
     <use xlink:href="#m2850953306" x="320.389384" y="50.643821" style="fill: #ff69b4; stroke: #ff69b4"/>
     <use xlink:href="#m2850953306" x="333.518796" y="121.02621" style="fill: #ff69b4; stroke: #ff69b4"/>
     <use xlink:href="#m2850953306" x="340.083502" y="90.610556" style="fill: #ff69b4; stroke: #ff69b4"/>
     <use xlink:href="#m2850953306" x="340.083502" y="157.411849" style="fill: #ff69b4; stroke: #ff69b4"/>
     <use xlink:href="#m2850953306" x="346.648208" y="164.920383" style="fill: #ff69b4; stroke: #ff69b4"/>
     <use xlink:href="#m2850953306" x="359.777619" y="60.178788" style="fill: #ff69b4; stroke: #ff69b4"/>
     <use xlink:href="#m2850953306" x="366.342325" y="63.74945" style="fill: #ff69b4; stroke: #ff69b4"/>
     <use xlink:href="#m2850953306" x="366.342325" y="115.24434" style="fill: #ff69b4; stroke: #ff69b4"/>
     <use xlink:href="#m2850953306" x="366.342325" y="106.206961" style="fill: #ff69b4; stroke: #ff69b4"/>
     <use xlink:href="#m2850953306" x="366.342325" y="79.929898" style="fill: #ff69b4; stroke: #ff69b4"/>
     <use xlink:href="#m2850953306" x="372.907031" y="66.544232" style="fill: #ff69b4; stroke: #ff69b4"/>
     <use xlink:href="#m2850953306" x="372.907031" y="58.537735" style="fill: #ff69b4; stroke: #ff69b4"/>
     <use xlink:href="#m2850953306" x="372.907031" y="163.833394" style="fill: #ff69b4; stroke: #ff69b4"/>
     <use xlink:href="#m2850953306" x="372.907031" y="71.633355" style="fill: #ff69b4; stroke: #ff69b4"/>
     <use xlink:href="#m2850953306" x="372.907031" y="108.589293" style="fill: #ff69b4; stroke: #ff69b4"/>
     <use xlink:href="#m2850953306" x="386.036443" y="71.871351" style="fill: #ff69b4; stroke: #ff69b4"/>
     <use xlink:href="#m2850953306" x="386.036443" y="157.658034" style="fill: #ff69b4; stroke: #ff69b4"/>
     <use xlink:href="#m2850953306" x="386.036443" y="154.516012" style="fill: #ff69b4; stroke: #ff69b4"/>
     <use xlink:href="#m2850953306" x="386.036443" y="130.166954" style="fill: #ff69b4; stroke: #ff69b4"/>
     <use xlink:href="#m2850953306" x="392.601149" y="89.555134" style="fill: #ff69b4; stroke: #ff69b4"/>
     <use xlink:href="#m2850953306" x="399.165855" y="101.179156" style="fill: #ff69b4; stroke: #ff69b4"/>
     <use xlink:href="#m2850953306" x="399.165855" y="126.595149" style="fill: #ff69b4; stroke: #ff69b4"/>
     <use xlink:href="#m2850953306" x="399.165855" y="178.617287" style="fill: #ff69b4; stroke: #ff69b4"/>
     <use xlink:href="#m2850953306" x="399.165855" y="65.376682" style="fill: #ff69b4; stroke: #ff69b4"/>
     <use xlink:href="#m2850953306" x="405.730561" y="141.213141" style="fill: #ff69b4; stroke: #ff69b4"/>
     <use xlink:href="#m2850953306" x="405.730561" y="146.577771" style="fill: #ff69b4; stroke: #ff69b4"/>
     <use xlink:href="#m2850953306" x="405.730561" y="84.64361" style="fill: #ff69b4; stroke: #ff69b4"/>
     <use xlink:href="#m2850953306" x="405.730561" y="101.743961" style="fill: #ff69b4; stroke: #ff69b4"/>
     <use xlink:href="#m2850953306" x="412.295267" y="149.32868" style="fill: #ff69b4; stroke: #ff69b4"/>
     <use xlink:href="#m2850953306" x="412.295267" y="82.964737" style="fill: #ff69b4; stroke: #ff69b4"/>
     <use xlink:href="#m2850953306" x="418.859972" y="64.987492" style="fill: #ff69b4; stroke: #ff69b4"/>
     <use xlink:href="#m2850953306" x="418.859972" y="118.46926" style="fill: #ff69b4; stroke: #ff69b4"/>
     <use xlink:href="#m2850953306" x="418.859972" y="130.391978" style="fill: #ff69b4; stroke: #ff69b4"/>
     <use xlink:href="#m2850953306" x="418.859972" y="116.145216" style="fill: #ff69b4; stroke: #ff69b4"/>
     <use xlink:href="#m2850953306" x="418.859972" y="87.316933" style="fill: #ff69b4; stroke: #ff69b4"/>
     <use xlink:href="#m2850953306" x="425.424678" y="53.572275" style="fill: #ff69b4; stroke: #ff69b4"/>
     <use xlink:href="#m2850953306" x="425.424678" y="95.4334" style="fill: #ff69b4; stroke: #ff69b4"/>
     <use xlink:href="#m2850953306" x="425.424678" y="112.571127" style="fill: #ff69b4; stroke: #ff69b4"/>
     <use xlink:href="#m2850953306" x="425.424678" y="67.395721" style="fill: #ff69b4; stroke: #ff69b4"/>
     <use xlink:href="#m2850953306" x="425.424678" y="115.936577" style="fill: #ff69b4; stroke: #ff69b4"/>
     <use xlink:href="#m2850953306" x="425.424678" y="148.308534" style="fill: #ff69b4; stroke: #ff69b4"/>
     <use xlink:href="#m2850953306" x="425.424678" y="44.589167" style="fill: #ff69b4; stroke: #ff69b4"/>
     <use xlink:href="#m2850953306" x="425.424678" y="57.704936" style="fill: #ff69b4; stroke: #ff69b4"/>
     <use xlink:href="#m2850953306" x="425.424678" y="53.382362" style="fill: #ff69b4; stroke: #ff69b4"/>
     <use xlink:href="#m2850953306" x="431.989384" y="135.346395" style="fill: #ff69b4; stroke: #ff69b4"/>
     <use xlink:href="#m2850953306" x="431.989384" y="119.464924" style="fill: #ff69b4; stroke: #ff69b4"/>
     <use xlink:href="#m2850953306" x="431.989384" y="165.606139" style="fill: #ff69b4; stroke: #ff69b4"/>
     <use xlink:href="#m2850953306" x="438.55409" y="128.226869" style="fill: #ff69b4; stroke: #ff69b4"/>
     <use xlink:href="#m2850953306" x="438.55409" y="176.895134" style="fill: #ff69b4; stroke: #ff69b4"/>
     <use xlink:href="#m2850953306" x="445.118796" y="125.190191" style="fill: #ff69b4; stroke: #ff69b4"/>
     <use xlink:href="#m2850953306" x="458.248208" y="116.937724" style="fill: #ff69b4; stroke: #ff69b4"/>
     <use xlink:href="#m2850953306" x="458.248208" y="90.052487" style="fill: #ff69b4; stroke: #ff69b4"/>
     <use xlink:href="#m2850953306" x="464.812914" y="81.904491" style="fill: #ff69b4; stroke: #ff69b4"/>
     <use xlink:href="#m2850953306" x="471.377619" y="106.992279" style="fill: #ff69b4; stroke: #ff69b4"/>
     <use xlink:href="#m2850953306" x="471.377619" y="170.504539" style="fill: #ff69b4; stroke: #ff69b4"/>
     <use xlink:href="#m2850953306" x="471.377619" y="99.212579" style="fill: #ff69b4; stroke: #ff69b4"/>
     <use xlink:href="#m2850953306" x="471.377619" y="128.430334" style="fill: #ff69b4; stroke: #ff69b4"/>
     <use xlink:href="#m2850953306" x="471.377619" y="137.661717" style="fill: #ff69b4; stroke: #ff69b4"/>
    </g>
   </g>
   <g id="line2d_14">
    <path d="M 38.107031 253.33804 
L 44.671737 252.957618 
L 51.236443 252.492999 
L 57.801149 251.980615 
L 64.365855 251.432864 
L 70.930561 250.856133 
L 77.495267 250.254718 
L 84.059972 249.61179 
L 90.624678 248.885589 
L 97.189384 247.982593 
L 103.75409 246.598404 
L 110.318796 244.617004 
L 116.883502 242.411453 
L 123.448208 239.955904 
L 130.012914 237.290792 
L 136.577619 234.832278 
L 143.142325 232.96622 
L 149.707031 231.644869 
L 156.271737 230.732237 
L 162.836443 230.084128 
L 169.401149 229.513404 
L 175.965855 228.968854 
L 182.530561 228.305463 
L 189.095267 227.39242 
L 195.659972 226.362797 
L 202.224678 225.391657 
L 208.789384 224.787502 
L 215.35409 224.689435 
L 221.918796 224.851621 
L 228.483502 224.79081 
L 235.048208 224.298477 
L 241.612914 223.210101 
L 248.177619 221.741152 
L 254.742325 220.279503 
L 261.307031 219.264626 
L 267.871737 218.984426 
L 274.436443 219.304656 
L 281.001149 219.886107 
L 287.565855 220.454053 
L 294.130561 220.787047 
L 300.695267 220.754831 
L 307.259972 220.342557 
L 313.824678 219.767527 
L 320.389384 219.19191 
L 326.95409 218.660492 
L 333.518796 218.171583 
L 340.083502 217.655742 
L 346.648208 216.881401 
L 353.212914 215.545604 
L 359.777619 213.793328 
L 366.342325 212.383367 
L 372.907031 211.732501 
L 379.471737 211.867869 
L 386.036443 212.381475 
L 392.601149 212.789711 
L 399.165855 212.638246 
L 405.730561 211.403729 
L 412.295267 208.891183 
L 418.859972 203.407609 
L 425.424678 198.005032 
L 431.989384 192.848088 
L 438.55409 187.77702 
L 445.118796 182.63422 
L 451.683502 177.308221 
L 458.248208 171.728341 
L 464.812914 165.852132 
L 471.377619 159.658443 
L 477.942325 153.158043 
" clip-path="url(#p034fd6c0b6)" style="fill: none; stroke: #8b0000; stroke-width: 1.5; stroke-linecap: round"/>
   </g>
   <g id="line2d_15">
    <path d="M 38.107031 83.448237 
L 44.671737 83.584515 
L 51.236443 83.687903 
L 57.801149 83.761797 
L 64.365855 83.806955 
L 70.930561 83.824162 
L 77.495267 83.829269 
L 84.059972 83.843557 
L 90.624678 83.871305 
L 97.189384 83.873779 
L 103.75409 83.801451 
L 110.318796 84.323687 
L 116.883502 84.391461 
L 123.448208 84.590986 
L 130.012914 85.15818 
L 136.577619 84.375278 
L 143.142325 86.829785 
L 149.707031 88.152082 
L 156.271737 89.911104 
L 162.836443 91.736816 
L 169.401149 93.225684 
L 175.965855 94.356721 
L 182.530561 95.065122 
L 189.095267 96.260419 
L 195.659972 97.588586 
L 202.224678 98.472811 
L 208.789384 99.101696 
L 215.35409 98.757153 
L 221.918796 98.061883 
L 228.483502 98.277725 
L 235.048208 97.995598 
L 241.612914 97.441718 
L 248.177619 96.519746 
L 254.742325 95.200961 
L 261.307031 95.114344 
L 267.871737 96.225485 
L 274.436443 97.138265 
L 281.001149 99.553221 
L 287.565855 100.989438 
L 294.130561 101.591044 
L 300.695267 101.48379 
L 307.259972 101.297663 
L 313.824678 101.270864 
L 320.389384 101.559602 
L 326.95409 102.112058 
L 333.518796 102.909659 
L 340.083502 104.351355 
L 346.648208 106.044118 
L 353.212914 107.389579 
L 359.777619 107.588148 
L 366.342325 108.137048 
L 372.907031 108.284934 
L 379.471737 107.79873 
L 386.036443 107.113724 
L 392.601149 106.429075 
L 399.165855 106.952123 
L 405.730561 107.7564 
L 412.295267 108.716432 
L 418.859972 109.723991 
L 425.424678 110.72852 
L 431.989384 111.720183 
L 438.55409 112.720325 
L 445.118796 113.74162 
L 451.683502 114.784878 
L 458.248208 115.848155 
L 464.812914 116.930354 
L 471.377619 118.034791 
" clip-path="url(#p034fd6c0b6)" style="fill: none; stroke: #ff69b4; stroke-width: 1.5; stroke-linecap: round"/>
   </g>
   <g id="patch_3">
    <path d="M 38.107031 339.84 
L 38.107031 7.2 
" style="fill: none; stroke: #262626; stroke-width: 1.25; stroke-linejoin: miter; stroke-linecap: square"/>
   </g>
   <g id="patch_4">
    <path d="M 484.507031 339.84 
L 484.507031 7.2 
" style="fill: none; stroke: #262626; stroke-width: 1.25; stroke-linejoin: miter; stroke-linecap: square"/>
   </g>
   <g id="patch_5">
    <path d="M 38.107031 339.84 
L 484.507031 339.84 
" style="fill: none; stroke: #262626; stroke-width: 1.25; stroke-linejoin: miter; stroke-linecap: square"/>
   </g>
   <g id="patch_6">
    <path d="M 38.107031 7.2 
L 484.507031 7.2 
" style="fill: none; stroke: #262626; stroke-width: 1.25; stroke-linejoin: miter; stroke-linecap: square"/>
   </g>
  </g>
 </g>
 <defs>
  <clipPath id="p034fd6c0b6">
   <rect x="38.107031" y="7.2" width="446.4" height="332.64"/>
  </clipPath>
 </defs>
</svg>
