<?xml version="1.0" encoding="utf-8" standalone="no"?>
<!DOCTYPE svg PUBLIC "-//W3C//DTD SVG 1.1//EN"
  "http://www.w3.org/Graphics/SVG/1.1/DTD/svg11.dtd">
<svg xmlns:xlink="http://www.w3.org/1999/xlink" width="855.226334pt" height="351.091875pt" viewBox="0 0 855.226334 351.091875" xmlns="http://www.w3.org/2000/svg" version="1.1">
 <metadata>
  <rdf:RDF xmlns:dc="http://purl.org/dc/elements/1.1/" xmlns:cc="http://creativecommons.org/ns#" xmlns:rdf="http://www.w3.org/1999/02/22-rdf-syntax-ns#">
   <cc:Work>
    <dc:type rdf:resource="http://purl.org/dc/dcmitype/StillImage"/>
    <dc:date>2025-07-01T11:18:43.674151</dc:date>
    <dc:format>image/svg+xml</dc:format>
    <dc:creator>
     <cc:Agent>
      <dc:title>Matplotlib v3.7.2, https://matplotlib.org/</dc:title>
     </cc:Agent>
    </dc:creator>
   </cc:Work>
  </rdf:RDF>
 </metadata>
 <defs>
  <style type="text/css">*{stroke-linejoin: round; stroke-linecap: butt}</style>
 </defs>
 <g id="figure_1">
  <g id="patch_1">
   <path d="M 0 351.091875 
L 855.226334 351.091875 
L 855.226334 0 
L 0 0 
z
" style="fill: #ffffff"/>
  </g>
  <g id="axes_1">
   <g id="patch_2">
    <path d="M 41.367188 314.479375 
L 434.882589 314.479375 
L 434.882589 21.935625 
L 41.367188 21.935625 
z
" style="fill: #ffffff"/>
   </g>
   <g id="matplotlib.axis_1">
    <g id="xtick_1">
     <g id="line2d_1">
      <defs>
       <path id="mbb906db6c4" d="M 0 0 
L 0 3.5 
" style="stroke: #262626; stroke-width: 0.8"/>
      </defs>
      <g>
       <use xlink:href="#mbb906db6c4" x="41.367188" y="314.479375" style="fill: #262626; stroke: #262626; stroke-width: 0.8"/>
      </g>
     </g>
     <g id="text_1">
      <!-- 0 -->
      <g style="fill: #262626" transform="translate(38.586719 328.637187) scale(0.1 -0.1)">
       <defs>
        <path id="ArialMT-30" d="M 266 2259 
Q 266 3072 433 3567 
Q 600 4063 929 4331 
Q 1259 4600 1759 4600 
Q 2128 4600 2406 4451 
Q 2684 4303 2865 4023 
Q 3047 3744 3150 3342 
Q 3253 2941 3253 2259 
Q 3253 1453 3087 958 
Q 2922 463 2592 192 
Q 2263 -78 1759 -78 
Q 1097 -78 719 397 
Q 266 969 266 2259 
z
M 844 2259 
Q 844 1131 1108 757 
Q 1372 384 1759 384 
Q 2147 384 2411 759 
Q 2675 1134 2675 2259 
Q 2675 3391 2411 3762 
Q 2147 4134 1753 4134 
Q 1366 4134 1134 3806 
Q 844 3388 844 2259 
z
" transform="scale(0.015625)"/>
       </defs>
       <use xlink:href="#ArialMT-30"/>
      </g>
     </g>
    </g>
    <g id="xtick_2">
     <g id="line2d_2">
      <g>
       <use xlink:href="#mbb906db6c4" x="106.411056" y="314.479375" style="fill: #262626; stroke: #262626; stroke-width: 0.8"/>
      </g>
     </g>
     <g id="text_2">
      <!-- 10 -->
      <g style="fill: #262626" transform="translate(100.850118 328.637187) scale(0.1 -0.1)">
       <defs>
        <path id="ArialMT-31" d="M 2384 0 
L 1822 0 
L 1822 3584 
Q 1619 3391 1289 3197 
Q 959 3003 697 2906 
L 697 3450 
Q 1169 3672 1522 3987 
Q 1875 4303 2022 4600 
L 2384 4600 
L 2384 0 
z
" transform="scale(0.015625)"/>
       </defs>
       <use xlink:href="#ArialMT-31"/>
       <use xlink:href="#ArialMT-30" x="55.615234"/>
      </g>
     </g>
    </g>
    <g id="xtick_3">
     <g id="line2d_3">
      <g>
       <use xlink:href="#mbb906db6c4" x="171.454924" y="314.479375" style="fill: #262626; stroke: #262626; stroke-width: 0.8"/>
      </g>
     </g>
     <g id="text_3">
      <!-- 20 -->
      <g style="fill: #262626" transform="translate(165.893986 328.637187) scale(0.1 -0.1)">
       <defs>
        <path id="ArialMT-32" d="M 3222 541 
L 3222 0 
L 194 0 
Q 188 203 259 391 
Q 375 700 629 1000 
Q 884 1300 1366 1694 
Q 2113 2306 2375 2664 
Q 2638 3022 2638 3341 
Q 2638 3675 2398 3904 
Q 2159 4134 1775 4134 
Q 1369 4134 1125 3890 
Q 881 3647 878 3216 
L 300 3275 
Q 359 3922 746 4261 
Q 1134 4600 1788 4600 
Q 2447 4600 2831 4234 
Q 3216 3869 3216 3328 
Q 3216 3053 3103 2787 
Q 2991 2522 2730 2228 
Q 2469 1934 1863 1422 
Q 1356 997 1212 845 
Q 1069 694 975 541 
L 3222 541 
z
" transform="scale(0.015625)"/>
       </defs>
       <use xlink:href="#ArialMT-32"/>
       <use xlink:href="#ArialMT-30" x="55.615234"/>
      </g>
     </g>
    </g>
    <g id="xtick_4">
     <g id="line2d_4">
      <g>
       <use xlink:href="#mbb906db6c4" x="236.498792" y="314.479375" style="fill: #262626; stroke: #262626; stroke-width: 0.8"/>
      </g>
     </g>
     <g id="text_4">
      <!-- 30 -->
      <g style="fill: #262626" transform="translate(230.937854 328.637187) scale(0.1 -0.1)">
       <defs>
        <path id="ArialMT-33" d="M 269 1209 
L 831 1284 
Q 928 806 1161 595 
Q 1394 384 1728 384 
Q 2125 384 2398 659 
Q 2672 934 2672 1341 
Q 2672 1728 2419 1979 
Q 2166 2231 1775 2231 
Q 1616 2231 1378 2169 
L 1441 2663 
Q 1497 2656 1531 2656 
Q 1891 2656 2178 2843 
Q 2466 3031 2466 3422 
Q 2466 3731 2256 3934 
Q 2047 4138 1716 4138 
Q 1388 4138 1169 3931 
Q 950 3725 888 3313 
L 325 3413 
Q 428 3978 793 4289 
Q 1159 4600 1703 4600 
Q 2078 4600 2393 4439 
Q 2709 4278 2876 4000 
Q 3044 3722 3044 3409 
Q 3044 3113 2884 2869 
Q 2725 2625 2413 2481 
Q 2819 2388 3044 2092 
Q 3269 1797 3269 1353 
Q 3269 753 2831 336 
Q 2394 -81 1725 -81 
Q 1122 -81 723 278 
Q 325 638 269 1209 
z
" transform="scale(0.015625)"/>
       </defs>
       <use xlink:href="#ArialMT-33"/>
       <use xlink:href="#ArialMT-30" x="55.615234"/>
      </g>
     </g>
    </g>
    <g id="xtick_5">
     <g id="line2d_5">
      <g>
       <use xlink:href="#mbb906db6c4" x="301.54266" y="314.479375" style="fill: #262626; stroke: #262626; stroke-width: 0.8"/>
      </g>
     </g>
     <g id="text_5">
      <!-- 40 -->
      <g style="fill: #262626" transform="translate(295.981722 328.637187) scale(0.1 -0.1)">
       <defs>
        <path id="ArialMT-34" d="M 2069 0 
L 2069 1097 
L 81 1097 
L 81 1613 
L 2172 4581 
L 2631 4581 
L 2631 1613 
L 3250 1613 
L 3250 1097 
L 2631 1097 
L 2631 0 
L 2069 0 
z
M 2069 1613 
L 2069 3678 
L 634 1613 
L 2069 1613 
z
" transform="scale(0.015625)"/>
       </defs>
       <use xlink:href="#ArialMT-34"/>
       <use xlink:href="#ArialMT-30" x="55.615234"/>
      </g>
     </g>
    </g>
    <g id="xtick_6">
     <g id="line2d_6">
      <g>
       <use xlink:href="#mbb906db6c4" x="366.586528" y="314.479375" style="fill: #262626; stroke: #262626; stroke-width: 0.8"/>
      </g>
     </g>
     <g id="text_6">
      <!-- 50 -->
      <g style="fill: #262626" transform="translate(361.02559 328.637187) scale(0.1 -0.1)">
       <defs>
        <path id="ArialMT-35" d="M 266 1200 
L 856 1250 
Q 922 819 1161 601 
Q 1400 384 1738 384 
Q 2144 384 2425 690 
Q 2706 997 2706 1503 
Q 2706 1984 2436 2262 
Q 2166 2541 1728 2541 
Q 1456 2541 1237 2417 
Q 1019 2294 894 2097 
L 366 2166 
L 809 4519 
L 3088 4519 
L 3088 3981 
L 1259 3981 
L 1013 2750 
Q 1425 3038 1878 3038 
Q 2478 3038 2890 2622 
Q 3303 2206 3303 1553 
Q 3303 931 2941 478 
Q 2500 -78 1738 -78 
Q 1113 -78 717 272 
Q 322 622 266 1200 
z
" transform="scale(0.015625)"/>
       </defs>
       <use xlink:href="#ArialMT-35"/>
       <use xlink:href="#ArialMT-30" x="55.615234"/>
      </g>
     </g>
    </g>
    <g id="xtick_7">
     <g id="line2d_7">
      <g>
       <use xlink:href="#mbb906db6c4" x="431.630396" y="314.479375" style="fill: #262626; stroke: #262626; stroke-width: 0.8"/>
      </g>
     </g>
     <g id="text_7">
      <!-- 60 -->
      <g style="fill: #262626" transform="translate(426.069459 328.637187) scale(0.1 -0.1)">
       <defs>
        <path id="ArialMT-36" d="M 3184 3459 
L 2625 3416 
Q 2550 3747 2413 3897 
Q 2184 4138 1850 4138 
Q 1581 4138 1378 3988 
Q 1113 3794 959 3422 
Q 806 3050 800 2363 
Q 1003 2672 1297 2822 
Q 1591 2972 1913 2972 
Q 2475 2972 2870 2558 
Q 3266 2144 3266 1488 
Q 3266 1056 3080 686 
Q 2894 316 2569 119 
Q 2244 -78 1831 -78 
Q 1128 -78 684 439 
Q 241 956 241 2144 
Q 241 3472 731 4075 
Q 1159 4600 1884 4600 
Q 2425 4600 2770 4297 
Q 3116 3994 3184 3459 
z
M 888 1484 
Q 888 1194 1011 928 
Q 1134 663 1356 523 
Q 1578 384 1822 384 
Q 2178 384 2434 671 
Q 2691 959 2691 1453 
Q 2691 1928 2437 2201 
Q 2184 2475 1800 2475 
Q 1419 2475 1153 2201 
Q 888 1928 888 1484 
z
" transform="scale(0.015625)"/>
       </defs>
       <use xlink:href="#ArialMT-36"/>
       <use xlink:href="#ArialMT-30" x="55.615234"/>
      </g>
     </g>
    </g>
    <g id="text_8">
     <!-- Component -->
     <g style="fill: #262626" transform="translate(212.277232 341.904375) scale(0.1 -0.1)">
      <defs>
       <path id="ArialMT-43" d="M 3763 1606 
L 4369 1453 
Q 4178 706 3683 314 
Q 3188 -78 2472 -78 
Q 1731 -78 1267 223 
Q 803 525 561 1097 
Q 319 1669 319 2325 
Q 319 3041 592 3573 
Q 866 4106 1370 4382 
Q 1875 4659 2481 4659 
Q 3169 4659 3637 4309 
Q 4106 3959 4291 3325 
L 3694 3184 
Q 3534 3684 3231 3912 
Q 2928 4141 2469 4141 
Q 1941 4141 1586 3887 
Q 1231 3634 1087 3207 
Q 944 2781 944 2328 
Q 944 1744 1114 1308 
Q 1284 872 1643 656 
Q 2003 441 2422 441 
Q 2931 441 3284 734 
Q 3638 1028 3763 1606 
z
" transform="scale(0.015625)"/>
       <path id="ArialMT-6f" d="M 213 1659 
Q 213 2581 725 3025 
Q 1153 3394 1769 3394 
Q 2453 3394 2887 2945 
Q 3322 2497 3322 1706 
Q 3322 1066 3130 698 
Q 2938 331 2570 128 
Q 2203 -75 1769 -75 
Q 1072 -75 642 372 
Q 213 819 213 1659 
z
M 791 1659 
Q 791 1022 1069 705 
Q 1347 388 1769 388 
Q 2188 388 2466 706 
Q 2744 1025 2744 1678 
Q 2744 2294 2464 2611 
Q 2184 2928 1769 2928 
Q 1347 2928 1069 2612 
Q 791 2297 791 1659 
z
" transform="scale(0.015625)"/>
       <path id="ArialMT-6d" d="M 422 0 
L 422 3319 
L 925 3319 
L 925 2853 
Q 1081 3097 1340 3245 
Q 1600 3394 1931 3394 
Q 2300 3394 2536 3241 
Q 2772 3088 2869 2813 
Q 3263 3394 3894 3394 
Q 4388 3394 4653 3120 
Q 4919 2847 4919 2278 
L 4919 0 
L 4359 0 
L 4359 2091 
Q 4359 2428 4304 2576 
Q 4250 2725 4106 2815 
Q 3963 2906 3769 2906 
Q 3419 2906 3187 2673 
Q 2956 2441 2956 1928 
L 2956 0 
L 2394 0 
L 2394 2156 
Q 2394 2531 2256 2718 
Q 2119 2906 1806 2906 
Q 1569 2906 1367 2781 
Q 1166 2656 1075 2415 
Q 984 2175 984 1722 
L 984 0 
L 422 0 
z
" transform="scale(0.015625)"/>
       <path id="ArialMT-70" d="M 422 -1272 
L 422 3319 
L 934 3319 
L 934 2888 
Q 1116 3141 1344 3267 
Q 1572 3394 1897 3394 
Q 2322 3394 2647 3175 
Q 2972 2956 3137 2557 
Q 3303 2159 3303 1684 
Q 3303 1175 3120 767 
Q 2938 359 2589 142 
Q 2241 -75 1856 -75 
Q 1575 -75 1351 44 
Q 1128 163 984 344 
L 984 -1272 
L 422 -1272 
z
M 931 1641 
Q 931 1000 1190 694 
Q 1450 388 1819 388 
Q 2194 388 2461 705 
Q 2728 1022 2728 1688 
Q 2728 2322 2467 2637 
Q 2206 2953 1844 2953 
Q 1484 2953 1207 2617 
Q 931 2281 931 1641 
z
" transform="scale(0.015625)"/>
       <path id="ArialMT-6e" d="M 422 0 
L 422 3319 
L 928 3319 
L 928 2847 
Q 1294 3394 1984 3394 
Q 2284 3394 2536 3286 
Q 2788 3178 2913 3003 
Q 3038 2828 3088 2588 
Q 3119 2431 3119 2041 
L 3119 0 
L 2556 0 
L 2556 2019 
Q 2556 2363 2490 2533 
Q 2425 2703 2258 2804 
Q 2091 2906 1866 2906 
Q 1506 2906 1245 2678 
Q 984 2450 984 1813 
L 984 0 
L 422 0 
z
" transform="scale(0.015625)"/>
       <path id="ArialMT-65" d="M 2694 1069 
L 3275 997 
Q 3138 488 2766 206 
Q 2394 -75 1816 -75 
Q 1088 -75 661 373 
Q 234 822 234 1631 
Q 234 2469 665 2931 
Q 1097 3394 1784 3394 
Q 2450 3394 2872 2941 
Q 3294 2488 3294 1666 
Q 3294 1616 3291 1516 
L 816 1516 
Q 847 969 1125 678 
Q 1403 388 1819 388 
Q 2128 388 2347 550 
Q 2566 713 2694 1069 
z
M 847 1978 
L 2700 1978 
Q 2663 2397 2488 2606 
Q 2219 2931 1791 2931 
Q 1403 2931 1139 2672 
Q 875 2413 847 1978 
z
" transform="scale(0.015625)"/>
       <path id="ArialMT-74" d="M 1650 503 
L 1731 6 
Q 1494 -44 1306 -44 
Q 1000 -44 831 53 
Q 663 150 594 308 
Q 525 466 525 972 
L 525 2881 
L 113 2881 
L 113 3319 
L 525 3319 
L 525 4141 
L 1084 4478 
L 1084 3319 
L 1650 3319 
L 1650 2881 
L 1084 2881 
L 1084 941 
Q 1084 700 1114 631 
Q 1144 563 1211 522 
Q 1278 481 1403 481 
Q 1497 481 1650 503 
z
" transform="scale(0.015625)"/>
      </defs>
      <use xlink:href="#ArialMT-43"/>
      <use xlink:href="#ArialMT-6f" x="72.216797"/>
      <use xlink:href="#ArialMT-6d" x="127.832031"/>
      <use xlink:href="#ArialMT-70" x="211.132812"/>
      <use xlink:href="#ArialMT-6f" x="266.748047"/>
      <use xlink:href="#ArialMT-6e" x="322.363281"/>
      <use xlink:href="#ArialMT-65" x="377.978516"/>
      <use xlink:href="#ArialMT-6e" x="433.59375"/>
      <use xlink:href="#ArialMT-74" x="489.208984"/>
     </g>
    </g>
   </g>
   <g id="matplotlib.axis_2">
    <g id="ytick_1">
     <g id="line2d_8">
      <defs>
       <path id="m43159a8d3c" d="M 0 0 
L -3.5 0 
" style="stroke: #262626; stroke-width: 0.8"/>
      </defs>
      <g>
       <use xlink:href="#m43159a8d3c" x="41.367188" y="314.479375" style="fill: #262626; stroke: #262626; stroke-width: 0.8"/>
      </g>
     </g>
     <g id="text_9">
      <!-- 0.0 -->
      <g style="fill: #262626" transform="translate(20.467188 318.058281) scale(0.1 -0.1)">
       <defs>
        <path id="ArialMT-2e" d="M 581 0 
L 581 641 
L 1222 641 
L 1222 0 
L 581 0 
z
" transform="scale(0.015625)"/>
       </defs>
       <use xlink:href="#ArialMT-30"/>
       <use xlink:href="#ArialMT-2e" x="55.615234"/>
       <use xlink:href="#ArialMT-30" x="83.398438"/>
      </g>
     </g>
    </g>
    <g id="ytick_2">
     <g id="line2d_9">
      <g>
       <use xlink:href="#m43159a8d3c" x="41.367188" y="258.756756" style="fill: #262626; stroke: #262626; stroke-width: 0.8"/>
      </g>
     </g>
     <g id="text_10">
      <!-- 0.2 -->
      <g style="fill: #262626" transform="translate(20.467188 262.335662) scale(0.1 -0.1)">
       <use xlink:href="#ArialMT-30"/>
       <use xlink:href="#ArialMT-2e" x="55.615234"/>
       <use xlink:href="#ArialMT-32" x="83.398438"/>
      </g>
     </g>
    </g>
    <g id="ytick_3">
     <g id="line2d_10">
      <g>
       <use xlink:href="#m43159a8d3c" x="41.367188" y="203.034137" style="fill: #262626; stroke: #262626; stroke-width: 0.8"/>
      </g>
     </g>
     <g id="text_11">
      <!-- 0.4 -->
      <g style="fill: #262626" transform="translate(20.467188 206.613043) scale(0.1 -0.1)">
       <use xlink:href="#ArialMT-30"/>
       <use xlink:href="#ArialMT-2e" x="55.615234"/>
       <use xlink:href="#ArialMT-34" x="83.398438"/>
      </g>
     </g>
    </g>
    <g id="ytick_4">
     <g id="line2d_11">
      <g>
       <use xlink:href="#m43159a8d3c" x="41.367188" y="147.311518" style="fill: #262626; stroke: #262626; stroke-width: 0.8"/>
      </g>
     </g>
     <g id="text_12">
      <!-- 0.6 -->
      <g style="fill: #262626" transform="translate(20.467188 150.890424) scale(0.1 -0.1)">
       <use xlink:href="#ArialMT-30"/>
       <use xlink:href="#ArialMT-2e" x="55.615234"/>
       <use xlink:href="#ArialMT-36" x="83.398438"/>
      </g>
     </g>
    </g>
    <g id="ytick_5">
     <g id="line2d_12">
      <g>
       <use xlink:href="#m43159a8d3c" x="41.367188" y="91.588899" style="fill: #262626; stroke: #262626; stroke-width: 0.8"/>
      </g>
     </g>
     <g id="text_13">
      <!-- 0.8 -->
      <g style="fill: #262626" transform="translate(20.467188 95.167805) scale(0.1 -0.1)">
       <defs>
        <path id="ArialMT-38" d="M 1131 2484 
Q 781 2613 612 2850 
Q 444 3088 444 3419 
Q 444 3919 803 4259 
Q 1163 4600 1759 4600 
Q 2359 4600 2725 4251 
Q 3091 3903 3091 3403 
Q 3091 3084 2923 2848 
Q 2756 2613 2416 2484 
Q 2838 2347 3058 2040 
Q 3278 1734 3278 1309 
Q 3278 722 2862 322 
Q 2447 -78 1769 -78 
Q 1091 -78 675 323 
Q 259 725 259 1325 
Q 259 1772 486 2073 
Q 713 2375 1131 2484 
z
M 1019 3438 
Q 1019 3113 1228 2906 
Q 1438 2700 1772 2700 
Q 2097 2700 2305 2904 
Q 2513 3109 2513 3406 
Q 2513 3716 2298 3927 
Q 2084 4138 1766 4138 
Q 1444 4138 1231 3931 
Q 1019 3725 1019 3438 
z
M 838 1322 
Q 838 1081 952 856 
Q 1066 631 1291 507 
Q 1516 384 1775 384 
Q 2178 384 2440 643 
Q 2703 903 2703 1303 
Q 2703 1709 2433 1975 
Q 2163 2241 1756 2241 
Q 1359 2241 1098 1978 
Q 838 1716 838 1322 
z
" transform="scale(0.015625)"/>
       </defs>
       <use xlink:href="#ArialMT-30"/>
       <use xlink:href="#ArialMT-2e" x="55.615234"/>
       <use xlink:href="#ArialMT-38" x="83.398438"/>
      </g>
     </g>
    </g>
    <g id="ytick_6">
     <g id="line2d_13">
      <g>
       <use xlink:href="#m43159a8d3c" x="41.367188" y="35.86628" style="fill: #262626; stroke: #262626; stroke-width: 0.8"/>
      </g>
     </g>
     <g id="text_14">
      <!-- 1.0 -->
      <g style="fill: #262626" transform="translate(20.467188 39.445186) scale(0.1 -0.1)">
       <use xlink:href="#ArialMT-31"/>
       <use xlink:href="#ArialMT-2e" x="55.615234"/>
       <use xlink:href="#ArialMT-30" x="83.398438"/>
      </g>
     </g>
    </g>
    <g id="text_15">
     <!-- Cumulative Explained Variance Ratio -->
     <g style="fill: #262626" transform="translate(14.479688 250.378594) rotate(-90) scale(0.1 -0.1)">
      <defs>
       <path id="ArialMT-75" d="M 2597 0 
L 2597 488 
Q 2209 -75 1544 -75 
Q 1250 -75 995 37 
Q 741 150 617 320 
Q 494 491 444 738 
Q 409 903 409 1263 
L 409 3319 
L 972 3319 
L 972 1478 
Q 972 1038 1006 884 
Q 1059 663 1231 536 
Q 1403 409 1656 409 
Q 1909 409 2131 539 
Q 2353 669 2445 892 
Q 2538 1116 2538 1541 
L 2538 3319 
L 3100 3319 
L 3100 0 
L 2597 0 
z
" transform="scale(0.015625)"/>
       <path id="ArialMT-6c" d="M 409 0 
L 409 4581 
L 972 4581 
L 972 0 
L 409 0 
z
" transform="scale(0.015625)"/>
       <path id="ArialMT-61" d="M 2588 409 
Q 2275 144 1986 34 
Q 1697 -75 1366 -75 
Q 819 -75 525 192 
Q 231 459 231 875 
Q 231 1119 342 1320 
Q 453 1522 633 1644 
Q 813 1766 1038 1828 
Q 1203 1872 1538 1913 
Q 2219 1994 2541 2106 
Q 2544 2222 2544 2253 
Q 2544 2597 2384 2738 
Q 2169 2928 1744 2928 
Q 1347 2928 1158 2789 
Q 969 2650 878 2297 
L 328 2372 
Q 403 2725 575 2942 
Q 747 3159 1072 3276 
Q 1397 3394 1825 3394 
Q 2250 3394 2515 3294 
Q 2781 3194 2906 3042 
Q 3031 2891 3081 2659 
Q 3109 2516 3109 2141 
L 3109 1391 
Q 3109 606 3145 398 
Q 3181 191 3288 0 
L 2700 0 
Q 2613 175 2588 409 
z
M 2541 1666 
Q 2234 1541 1622 1453 
Q 1275 1403 1131 1340 
Q 988 1278 909 1158 
Q 831 1038 831 891 
Q 831 666 1001 516 
Q 1172 366 1500 366 
Q 1825 366 2078 508 
Q 2331 650 2450 897 
Q 2541 1088 2541 1459 
L 2541 1666 
z
" transform="scale(0.015625)"/>
       <path id="ArialMT-69" d="M 425 3934 
L 425 4581 
L 988 4581 
L 988 3934 
L 425 3934 
z
M 425 0 
L 425 3319 
L 988 3319 
L 988 0 
L 425 0 
z
" transform="scale(0.015625)"/>
       <path id="ArialMT-76" d="M 1344 0 
L 81 3319 
L 675 3319 
L 1388 1331 
Q 1503 1009 1600 663 
Q 1675 925 1809 1294 
L 2547 3319 
L 3125 3319 
L 1869 0 
L 1344 0 
z
" transform="scale(0.015625)"/>
       <path id="ArialMT-20" transform="scale(0.015625)"/>
       <path id="ArialMT-45" d="M 506 0 
L 506 4581 
L 3819 4581 
L 3819 4041 
L 1113 4041 
L 1113 2638 
L 3647 2638 
L 3647 2100 
L 1113 2100 
L 1113 541 
L 3925 541 
L 3925 0 
L 506 0 
z
" transform="scale(0.015625)"/>
       <path id="ArialMT-78" d="M 47 0 
L 1259 1725 
L 138 3319 
L 841 3319 
L 1350 2541 
Q 1494 2319 1581 2169 
Q 1719 2375 1834 2534 
L 2394 3319 
L 3066 3319 
L 1919 1756 
L 3153 0 
L 2463 0 
L 1781 1031 
L 1600 1309 
L 728 0 
L 47 0 
z
" transform="scale(0.015625)"/>
       <path id="ArialMT-64" d="M 2575 0 
L 2575 419 
Q 2259 -75 1647 -75 
Q 1250 -75 917 144 
Q 584 363 401 755 
Q 219 1147 219 1656 
Q 219 2153 384 2558 
Q 550 2963 881 3178 
Q 1213 3394 1622 3394 
Q 1922 3394 2156 3267 
Q 2391 3141 2538 2938 
L 2538 4581 
L 3097 4581 
L 3097 0 
L 2575 0 
z
M 797 1656 
Q 797 1019 1065 703 
Q 1334 388 1700 388 
Q 2069 388 2326 689 
Q 2584 991 2584 1609 
Q 2584 2291 2321 2609 
Q 2059 2928 1675 2928 
Q 1300 2928 1048 2622 
Q 797 2316 797 1656 
z
" transform="scale(0.015625)"/>
       <path id="ArialMT-56" d="M 1803 0 
L 28 4581 
L 684 4581 
L 1875 1253 
Q 2019 853 2116 503 
Q 2222 878 2363 1253 
L 3600 4581 
L 4219 4581 
L 2425 0 
L 1803 0 
z
" transform="scale(0.015625)"/>
       <path id="ArialMT-72" d="M 416 0 
L 416 3319 
L 922 3319 
L 922 2816 
Q 1116 3169 1280 3281 
Q 1444 3394 1641 3394 
Q 1925 3394 2219 3213 
L 2025 2691 
Q 1819 2813 1613 2813 
Q 1428 2813 1281 2702 
Q 1134 2591 1072 2394 
Q 978 2094 978 1738 
L 978 0 
L 416 0 
z
" transform="scale(0.015625)"/>
       <path id="ArialMT-63" d="M 2588 1216 
L 3141 1144 
Q 3050 572 2676 248 
Q 2303 -75 1759 -75 
Q 1078 -75 664 370 
Q 250 816 250 1647 
Q 250 2184 428 2587 
Q 606 2991 970 3192 
Q 1334 3394 1763 3394 
Q 2303 3394 2647 3120 
Q 2991 2847 3088 2344 
L 2541 2259 
Q 2463 2594 2264 2762 
Q 2066 2931 1784 2931 
Q 1359 2931 1093 2626 
Q 828 2322 828 1663 
Q 828 994 1084 691 
Q 1341 388 1753 388 
Q 2084 388 2306 591 
Q 2528 794 2588 1216 
z
" transform="scale(0.015625)"/>
       <path id="ArialMT-52" d="M 503 0 
L 503 4581 
L 2534 4581 
Q 3147 4581 3465 4457 
Q 3784 4334 3975 4021 
Q 4166 3709 4166 3331 
Q 4166 2844 3850 2509 
Q 3534 2175 2875 2084 
Q 3116 1969 3241 1856 
Q 3506 1613 3744 1247 
L 4541 0 
L 3778 0 
L 3172 953 
Q 2906 1366 2734 1584 
Q 2563 1803 2427 1890 
Q 2291 1978 2150 2013 
Q 2047 2034 1813 2034 
L 1109 2034 
L 1109 0 
L 503 0 
z
M 1109 2559 
L 2413 2559 
Q 2828 2559 3062 2645 
Q 3297 2731 3419 2920 
Q 3541 3109 3541 3331 
Q 3541 3656 3305 3865 
Q 3069 4075 2559 4075 
L 1109 4075 
L 1109 2559 
z
" transform="scale(0.015625)"/>
      </defs>
      <use xlink:href="#ArialMT-43"/>
      <use xlink:href="#ArialMT-75" x="72.216797"/>
      <use xlink:href="#ArialMT-6d" x="127.832031"/>
      <use xlink:href="#ArialMT-75" x="211.132812"/>
      <use xlink:href="#ArialMT-6c" x="266.748047"/>
      <use xlink:href="#ArialMT-61" x="288.964844"/>
      <use xlink:href="#ArialMT-74" x="344.580078"/>
      <use xlink:href="#ArialMT-69" x="372.363281"/>
      <use xlink:href="#ArialMT-76" x="394.580078"/>
      <use xlink:href="#ArialMT-65" x="444.580078"/>
      <use xlink:href="#ArialMT-20" x="500.195312"/>
      <use xlink:href="#ArialMT-45" x="527.978516"/>
      <use xlink:href="#ArialMT-78" x="594.677734"/>
      <use xlink:href="#ArialMT-70" x="644.677734"/>
      <use xlink:href="#ArialMT-6c" x="700.292969"/>
      <use xlink:href="#ArialMT-61" x="722.509766"/>
      <use xlink:href="#ArialMT-69" x="778.125"/>
      <use xlink:href="#ArialMT-6e" x="800.341797"/>
      <use xlink:href="#ArialMT-65" x="855.957031"/>
      <use xlink:href="#ArialMT-64" x="911.572266"/>
      <use xlink:href="#ArialMT-20" x="967.1875"/>
      <use xlink:href="#ArialMT-56" x="994.970703"/>
      <use xlink:href="#ArialMT-61" x="1054.294922"/>
      <use xlink:href="#ArialMT-72" x="1109.910156"/>
      <use xlink:href="#ArialMT-69" x="1143.210938"/>
      <use xlink:href="#ArialMT-61" x="1165.427734"/>
      <use xlink:href="#ArialMT-6e" x="1221.042969"/>
      <use xlink:href="#ArialMT-63" x="1276.658203"/>
      <use xlink:href="#ArialMT-65" x="1326.658203"/>
      <use xlink:href="#ArialMT-20" x="1382.273438"/>
      <use xlink:href="#ArialMT-52" x="1410.056641"/>
      <use xlink:href="#ArialMT-61" x="1482.273438"/>
      <use xlink:href="#ArialMT-74" x="1537.888672"/>
      <use xlink:href="#ArialMT-69" x="1565.671875"/>
      <use xlink:href="#ArialMT-6f" x="1587.888672"/>
     </g>
    </g>
   </g>
   <g id="line2d_14">
    <path d="M 47.871574 290.941264 
L 54.375961 247.778569 
L 60.880348 220.96114 
L 67.384735 209.540517 
L 73.889122 199.379628 
L 80.393508 190.318176 
L 86.897895 181.889548 
L 93.402282 175.579472 
L 99.906669 170.574194 
L 106.411056 165.733702 
L 112.915442 161.082362 
L 119.419829 156.5496 
L 125.924216 152.422059 
L 132.428603 148.512669 
L 138.93299 144.734146 
L 145.437376 141.107504 
L 151.941763 137.583882 
L 158.44615 134.201988 
L 164.950537 130.927318 
L 171.454924 127.799916 
L 177.95931 124.801567 
L 184.463697 121.877137 
L 190.968084 119.022203 
L 197.472471 116.21156 
L 203.976858 113.501806 
L 210.481245 110.869997 
L 216.985631 108.290165 
L 223.490018 105.747411 
L 229.994405 103.236362 
L 236.498792 100.812476 
L 243.003179 98.403942 
L 249.507565 96.101557 
L 256.011952 93.811002 
L 262.516339 91.530095 
L 269.020726 89.304207 
L 275.525113 87.148209 
L 282.029499 85.028051 
L 288.533886 82.935959 
L 295.038273 80.910264 
L 301.54266 78.898952 
L 308.047047 76.919337 
L 314.551433 74.957909 
L 321.05582 73.014445 
L 327.560207 71.118606 
L 334.064594 69.24597 
L 340.568981 67.386704 
L 347.073368 65.572286 
L 353.577754 63.764755 
L 360.082141 62.003917 
L 366.586528 60.268459 
L 373.090915 58.552863 
L 379.595302 56.850705 
L 386.099688 55.176368 
L 392.604075 53.554667 
L 399.108462 51.953048 
L 405.612849 50.377634 
L 412.117236 48.835606 
L 418.621622 47.298123 
L 425.126009 45.833889 
L 431.630396 44.416591 
L 438.134783 43.003666 
" clip-path="url(#p92d9a772e9)" style="fill: none; stroke: #1f77b4; stroke-width: 1.5; stroke-linecap: round"/>
    <defs>
     <path id="m5434f7248c" d="M 0 3 
C 0.795609 3 1.55874 2.683901 2.12132 2.12132 
C 2.683901 1.55874 3 0.795609 3 0 
C 3 -0.795609 2.683901 -1.55874 2.12132 -2.12132 
C 1.55874 -2.683901 0.795609 -3 0 -3 
C -0.795609 -3 -1.55874 -2.683901 -2.12132 -2.12132 
C -2.683901 -1.55874 -3 -0.795609 -3 0 
C -3 0.795609 -2.683901 1.55874 -2.12132 2.12132 
C -1.55874 2.683901 -0.795609 3 0 3 
z
" style="stroke: #1f77b4"/>
    </defs>
    <g clip-path="url(#p92d9a772e9)">
     <use xlink:href="#m5434f7248c" x="47.871574" y="290.941264" style="fill: #1f77b4; stroke: #1f77b4"/>
     <use xlink:href="#m5434f7248c" x="54.375961" y="247.778569" style="fill: #1f77b4; stroke: #1f77b4"/>
     <use xlink:href="#m5434f7248c" x="60.880348" y="220.96114" style="fill: #1f77b4; stroke: #1f77b4"/>
     <use xlink:href="#m5434f7248c" x="67.384735" y="209.540517" style="fill: #1f77b4; stroke: #1f77b4"/>
     <use xlink:href="#m5434f7248c" x="73.889122" y="199.379628" style="fill: #1f77b4; stroke: #1f77b4"/>
     <use xlink:href="#m5434f7248c" x="80.393508" y="190.318176" style="fill: #1f77b4; stroke: #1f77b4"/>
     <use xlink:href="#m5434f7248c" x="86.897895" y="181.889548" style="fill: #1f77b4; stroke: #1f77b4"/>
     <use xlink:href="#m5434f7248c" x="93.402282" y="175.579472" style="fill: #1f77b4; stroke: #1f77b4"/>
     <use xlink:href="#m5434f7248c" x="99.906669" y="170.574194" style="fill: #1f77b4; stroke: #1f77b4"/>
     <use xlink:href="#m5434f7248c" x="106.411056" y="165.733702" style="fill: #1f77b4; stroke: #1f77b4"/>
     <use xlink:href="#m5434f7248c" x="112.915442" y="161.082362" style="fill: #1f77b4; stroke: #1f77b4"/>
     <use xlink:href="#m5434f7248c" x="119.419829" y="156.5496" style="fill: #1f77b4; stroke: #1f77b4"/>
     <use xlink:href="#m5434f7248c" x="125.924216" y="152.422059" style="fill: #1f77b4; stroke: #1f77b4"/>
     <use xlink:href="#m5434f7248c" x="132.428603" y="148.512669" style="fill: #1f77b4; stroke: #1f77b4"/>
     <use xlink:href="#m5434f7248c" x="138.93299" y="144.734146" style="fill: #1f77b4; stroke: #1f77b4"/>
     <use xlink:href="#m5434f7248c" x="145.437376" y="141.107504" style="fill: #1f77b4; stroke: #1f77b4"/>
     <use xlink:href="#m5434f7248c" x="151.941763" y="137.583882" style="fill: #1f77b4; stroke: #1f77b4"/>
     <use xlink:href="#m5434f7248c" x="158.44615" y="134.201988" style="fill: #1f77b4; stroke: #1f77b4"/>
     <use xlink:href="#m5434f7248c" x="164.950537" y="130.927318" style="fill: #1f77b4; stroke: #1f77b4"/>
     <use xlink:href="#m5434f7248c" x="171.454924" y="127.799916" style="fill: #1f77b4; stroke: #1f77b4"/>
     <use xlink:href="#m5434f7248c" x="177.95931" y="124.801567" style="fill: #1f77b4; stroke: #1f77b4"/>
     <use xlink:href="#m5434f7248c" x="184.463697" y="121.877137" style="fill: #1f77b4; stroke: #1f77b4"/>
     <use xlink:href="#m5434f7248c" x="190.968084" y="119.022203" style="fill: #1f77b4; stroke: #1f77b4"/>
     <use xlink:href="#m5434f7248c" x="197.472471" y="116.21156" style="fill: #1f77b4; stroke: #1f77b4"/>
     <use xlink:href="#m5434f7248c" x="203.976858" y="113.501806" style="fill: #1f77b4; stroke: #1f77b4"/>
     <use xlink:href="#m5434f7248c" x="210.481245" y="110.869997" style="fill: #1f77b4; stroke: #1f77b4"/>
     <use xlink:href="#m5434f7248c" x="216.985631" y="108.290165" style="fill: #1f77b4; stroke: #1f77b4"/>
     <use xlink:href="#m5434f7248c" x="223.490018" y="105.747411" style="fill: #1f77b4; stroke: #1f77b4"/>
     <use xlink:href="#m5434f7248c" x="229.994405" y="103.236362" style="fill: #1f77b4; stroke: #1f77b4"/>
     <use xlink:href="#m5434f7248c" x="236.498792" y="100.812476" style="fill: #1f77b4; stroke: #1f77b4"/>
     <use xlink:href="#m5434f7248c" x="243.003179" y="98.403942" style="fill: #1f77b4; stroke: #1f77b4"/>
     <use xlink:href="#m5434f7248c" x="249.507565" y="96.101557" style="fill: #1f77b4; stroke: #1f77b4"/>
     <use xlink:href="#m5434f7248c" x="256.011952" y="93.811002" style="fill: #1f77b4; stroke: #1f77b4"/>
     <use xlink:href="#m5434f7248c" x="262.516339" y="91.530095" style="fill: #1f77b4; stroke: #1f77b4"/>
     <use xlink:href="#m5434f7248c" x="269.020726" y="89.304207" style="fill: #1f77b4; stroke: #1f77b4"/>
     <use xlink:href="#m5434f7248c" x="275.525113" y="87.148209" style="fill: #1f77b4; stroke: #1f77b4"/>
     <use xlink:href="#m5434f7248c" x="282.029499" y="85.028051" style="fill: #1f77b4; stroke: #1f77b4"/>
     <use xlink:href="#m5434f7248c" x="288.533886" y="82.935959" style="fill: #1f77b4; stroke: #1f77b4"/>
     <use xlink:href="#m5434f7248c" x="295.038273" y="80.910264" style="fill: #1f77b4; stroke: #1f77b4"/>
     <use xlink:href="#m5434f7248c" x="301.54266" y="78.898952" style="fill: #1f77b4; stroke: #1f77b4"/>
     <use xlink:href="#m5434f7248c" x="308.047047" y="76.919337" style="fill: #1f77b4; stroke: #1f77b4"/>
     <use xlink:href="#m5434f7248c" x="314.551433" y="74.957909" style="fill: #1f77b4; stroke: #1f77b4"/>
     <use xlink:href="#m5434f7248c" x="321.05582" y="73.014445" style="fill: #1f77b4; stroke: #1f77b4"/>
     <use xlink:href="#m5434f7248c" x="327.560207" y="71.118606" style="fill: #1f77b4; stroke: #1f77b4"/>
     <use xlink:href="#m5434f7248c" x="334.064594" y="69.24597" style="fill: #1f77b4; stroke: #1f77b4"/>
     <use xlink:href="#m5434f7248c" x="340.568981" y="67.386704" style="fill: #1f77b4; stroke: #1f77b4"/>
     <use xlink:href="#m5434f7248c" x="347.073368" y="65.572286" style="fill: #1f77b4; stroke: #1f77b4"/>
     <use xlink:href="#m5434f7248c" x="353.577754" y="63.764755" style="fill: #1f77b4; stroke: #1f77b4"/>
     <use xlink:href="#m5434f7248c" x="360.082141" y="62.003917" style="fill: #1f77b4; stroke: #1f77b4"/>
     <use xlink:href="#m5434f7248c" x="366.586528" y="60.268459" style="fill: #1f77b4; stroke: #1f77b4"/>
     <use xlink:href="#m5434f7248c" x="373.090915" y="58.552863" style="fill: #1f77b4; stroke: #1f77b4"/>
     <use xlink:href="#m5434f7248c" x="379.595302" y="56.850705" style="fill: #1f77b4; stroke: #1f77b4"/>
     <use xlink:href="#m5434f7248c" x="386.099688" y="55.176368" style="fill: #1f77b4; stroke: #1f77b4"/>
     <use xlink:href="#m5434f7248c" x="392.604075" y="53.554667" style="fill: #1f77b4; stroke: #1f77b4"/>
     <use xlink:href="#m5434f7248c" x="399.108462" y="51.953048" style="fill: #1f77b4; stroke: #1f77b4"/>
     <use xlink:href="#m5434f7248c" x="405.612849" y="50.377634" style="fill: #1f77b4; stroke: #1f77b4"/>
     <use xlink:href="#m5434f7248c" x="412.117236" y="48.835606" style="fill: #1f77b4; stroke: #1f77b4"/>
     <use xlink:href="#m5434f7248c" x="418.621622" y="47.298123" style="fill: #1f77b4; stroke: #1f77b4"/>
     <use xlink:href="#m5434f7248c" x="425.126009" y="45.833889" style="fill: #1f77b4; stroke: #1f77b4"/>
     <use xlink:href="#m5434f7248c" x="431.630396" y="44.416591" style="fill: #1f77b4; stroke: #1f77b4"/>
     <use xlink:href="#m5434f7248c" x="438.134783" y="43.003666" style="fill: #1f77b4; stroke: #1f77b4"/>
    </g>
   </g>
   <g id="patch_3">
    <path d="M 41.367188 314.479375 
L 41.367188 21.935625 
" style="fill: none; stroke: #262626; stroke-width: 0.8; stroke-linejoin: miter; stroke-linecap: square"/>
   </g>
   <g id="patch_4">
    <path d="M 434.882589 314.479375 
L 434.882589 21.935625 
" style="fill: none; stroke: #262626; stroke-width: 0.8; stroke-linejoin: miter; stroke-linecap: square"/>
   </g>
   <g id="patch_5">
    <path d="M 41.367188 314.479375 
L 434.882589 314.479375 
" style="fill: none; stroke: #262626; stroke-width: 0.8; stroke-linejoin: miter; stroke-linecap: square"/>
   </g>
   <g id="patch_6">
    <path d="M 41.367188 21.935625 
L 434.882589 21.935625 
" style="fill: none; stroke: #262626; stroke-width: 0.8; stroke-linejoin: miter; stroke-linecap: square"/>
   </g>
   <g id="text_16">
    <!-- Cumulative Explained Variance Ratio of PCA_1 -->
    <g style="fill: #262626" transform="translate(112.171763 15.935625) scale(0.12 -0.12)">
     <defs>
      <path id="ArialMT-66" d="M 556 0 
L 556 2881 
L 59 2881 
L 59 3319 
L 556 3319 
L 556 3672 
Q 556 4006 616 4169 
Q 697 4388 901 4523 
Q 1106 4659 1475 4659 
Q 1713 4659 2000 4603 
L 1916 4113 
Q 1741 4144 1584 4144 
Q 1328 4144 1222 4034 
Q 1116 3925 1116 3625 
L 1116 3319 
L 1763 3319 
L 1763 2881 
L 1116 2881 
L 1116 0 
L 556 0 
z
" transform="scale(0.015625)"/>
      <path id="ArialMT-50" d="M 494 0 
L 494 4581 
L 2222 4581 
Q 2678 4581 2919 4538 
Q 3256 4481 3484 4323 
Q 3713 4166 3852 3881 
Q 3991 3597 3991 3256 
Q 3991 2672 3619 2267 
Q 3247 1863 2275 1863 
L 1100 1863 
L 1100 0 
L 494 0 
z
M 1100 2403 
L 2284 2403 
Q 2872 2403 3119 2622 
Q 3366 2841 3366 3238 
Q 3366 3525 3220 3729 
Q 3075 3934 2838 4000 
Q 2684 4041 2272 4041 
L 1100 4041 
L 1100 2403 
z
" transform="scale(0.015625)"/>
      <path id="ArialMT-41" d="M -9 0 
L 1750 4581 
L 2403 4581 
L 4278 0 
L 3588 0 
L 3053 1388 
L 1138 1388 
L 634 0 
L -9 0 
z
M 1313 1881 
L 2866 1881 
L 2388 3150 
Q 2169 3728 2063 4100 
Q 1975 3659 1816 3225 
L 1313 1881 
z
" transform="scale(0.015625)"/>
      <path id="ArialMT-5f" d="M -97 -1272 
L -97 -866 
L 3631 -866 
L 3631 -1272 
L -97 -1272 
z
" transform="scale(0.015625)"/>
     </defs>
     <use xlink:href="#ArialMT-43"/>
     <use xlink:href="#ArialMT-75" x="72.216797"/>
     <use xlink:href="#ArialMT-6d" x="127.832031"/>
     <use xlink:href="#ArialMT-75" x="211.132812"/>
     <use xlink:href="#ArialMT-6c" x="266.748047"/>
     <use xlink:href="#ArialMT-61" x="288.964844"/>
     <use xlink:href="#ArialMT-74" x="344.580078"/>
     <use xlink:href="#ArialMT-69" x="372.363281"/>
     <use xlink:href="#ArialMT-76" x="394.580078"/>
     <use xlink:href="#ArialMT-65" x="444.580078"/>
     <use xlink:href="#ArialMT-20" x="500.195312"/>
     <use xlink:href="#ArialMT-45" x="527.978516"/>
     <use xlink:href="#ArialMT-78" x="594.677734"/>
     <use xlink:href="#ArialMT-70" x="644.677734"/>
     <use xlink:href="#ArialMT-6c" x="700.292969"/>
     <use xlink:href="#ArialMT-61" x="722.509766"/>
     <use xlink:href="#ArialMT-69" x="778.125"/>
     <use xlink:href="#ArialMT-6e" x="800.341797"/>
     <use xlink:href="#ArialMT-65" x="855.957031"/>
     <use xlink:href="#ArialMT-64" x="911.572266"/>
     <use xlink:href="#ArialMT-20" x="967.1875"/>
     <use xlink:href="#ArialMT-56" x="994.970703"/>
     <use xlink:href="#ArialMT-61" x="1054.294922"/>
     <use xlink:href="#ArialMT-72" x="1109.910156"/>
     <use xlink:href="#ArialMT-69" x="1143.210938"/>
     <use xlink:href="#ArialMT-61" x="1165.427734"/>
     <use xlink:href="#ArialMT-6e" x="1221.042969"/>
     <use xlink:href="#ArialMT-63" x="1276.658203"/>
     <use xlink:href="#ArialMT-65" x="1326.658203"/>
     <use xlink:href="#ArialMT-20" x="1382.273438"/>
     <use xlink:href="#ArialMT-52" x="1410.056641"/>
     <use xlink:href="#ArialMT-61" x="1482.273438"/>
     <use xlink:href="#ArialMT-74" x="1537.888672"/>
     <use xlink:href="#ArialMT-69" x="1565.671875"/>
     <use xlink:href="#ArialMT-6f" x="1587.888672"/>
     <use xlink:href="#ArialMT-20" x="1643.503906"/>
     <use xlink:href="#ArialMT-6f" x="1671.287109"/>
     <use xlink:href="#ArialMT-66" x="1726.902344"/>
     <use xlink:href="#ArialMT-20" x="1754.685547"/>
     <use xlink:href="#ArialMT-50" x="1782.46875"/>
     <use xlink:href="#ArialMT-43" x="1849.167969"/>
     <use xlink:href="#ArialMT-41" x="1921.384766"/>
     <use xlink:href="#ArialMT-5f" x="1988.083984"/>
     <use xlink:href="#ArialMT-31" x="2043.699219"/>
    </g>
   </g>
  </g>
  <g id="axes_2">
   <g id="patch_7">
    <path d="M 452.202187 314.479375 
L 845.717589 314.479375 
L 845.717589 21.935625 
L 452.202187 21.935625 
z
" style="fill: #ffffff"/>
   </g>
   <g id="matplotlib.axis_3">
    <g id="xtick_8">
     <g id="line2d_15">
      <g>
       <use xlink:href="#mbb906db6c4" x="452.202187" y="314.479375" style="fill: #262626; stroke: #262626; stroke-width: 0.8"/>
      </g>
     </g>
     <g id="text_17">
      <!-- 0 -->
      <g style="fill: #262626" transform="translate(449.421719 328.637187) scale(0.1 -0.1)">
       <use xlink:href="#ArialMT-30"/>
      </g>
     </g>
    </g>
    <g id="xtick_9">
     <g id="line2d_16">
      <g>
       <use xlink:href="#mbb906db6c4" x="517.246056" y="314.479375" style="fill: #262626; stroke: #262626; stroke-width: 0.8"/>
      </g>
     </g>
     <g id="text_18">
      <!-- 10 -->
      <g style="fill: #262626" transform="translate(511.685118 328.637187) scale(0.1 -0.1)">
       <use xlink:href="#ArialMT-31"/>
       <use xlink:href="#ArialMT-30" x="55.615234"/>
      </g>
     </g>
    </g>
    <g id="xtick_10">
     <g id="line2d_17">
      <g>
       <use xlink:href="#mbb906db6c4" x="582.289924" y="314.479375" style="fill: #262626; stroke: #262626; stroke-width: 0.8"/>
      </g>
     </g>
     <g id="text_19">
      <!-- 20 -->
      <g style="fill: #262626" transform="translate(576.728986 328.637187) scale(0.1 -0.1)">
       <use xlink:href="#ArialMT-32"/>
       <use xlink:href="#ArialMT-30" x="55.615234"/>
      </g>
     </g>
    </g>
    <g id="xtick_11">
     <g id="line2d_18">
      <g>
       <use xlink:href="#mbb906db6c4" x="647.333792" y="314.479375" style="fill: #262626; stroke: #262626; stroke-width: 0.8"/>
      </g>
     </g>
     <g id="text_20">
      <!-- 30 -->
      <g style="fill: #262626" transform="translate(641.772854 328.637187) scale(0.1 -0.1)">
       <use xlink:href="#ArialMT-33"/>
       <use xlink:href="#ArialMT-30" x="55.615234"/>
      </g>
     </g>
    </g>
    <g id="xtick_12">
     <g id="line2d_19">
      <g>
       <use xlink:href="#mbb906db6c4" x="712.37766" y="314.479375" style="fill: #262626; stroke: #262626; stroke-width: 0.8"/>
      </g>
     </g>
     <g id="text_21">
      <!-- 40 -->
      <g style="fill: #262626" transform="translate(706.816722 328.637187) scale(0.1 -0.1)">
       <use xlink:href="#ArialMT-34"/>
       <use xlink:href="#ArialMT-30" x="55.615234"/>
      </g>
     </g>
    </g>
    <g id="xtick_13">
     <g id="line2d_20">
      <g>
       <use xlink:href="#mbb906db6c4" x="777.421528" y="314.479375" style="fill: #262626; stroke: #262626; stroke-width: 0.8"/>
      </g>
     </g>
     <g id="text_22">
      <!-- 50 -->
      <g style="fill: #262626" transform="translate(771.86059 328.637187) scale(0.1 -0.1)">
       <use xlink:href="#ArialMT-35"/>
       <use xlink:href="#ArialMT-30" x="55.615234"/>
      </g>
     </g>
    </g>
    <g id="xtick_14">
     <g id="line2d_21">
      <g>
       <use xlink:href="#mbb906db6c4" x="842.465396" y="314.479375" style="fill: #262626; stroke: #262626; stroke-width: 0.8"/>
      </g>
     </g>
     <g id="text_23">
      <!-- 60 -->
      <g style="fill: #262626" transform="translate(836.904459 328.637187) scale(0.1 -0.1)">
       <use xlink:href="#ArialMT-36"/>
       <use xlink:href="#ArialMT-30" x="55.615234"/>
      </g>
     </g>
    </g>
    <g id="text_24">
     <!-- Component -->
     <g style="fill: #262626" transform="translate(623.112232 341.904375) scale(0.1 -0.1)">
      <use xlink:href="#ArialMT-43"/>
      <use xlink:href="#ArialMT-6f" x="72.216797"/>
      <use xlink:href="#ArialMT-6d" x="127.832031"/>
      <use xlink:href="#ArialMT-70" x="211.132812"/>
      <use xlink:href="#ArialMT-6f" x="266.748047"/>
      <use xlink:href="#ArialMT-6e" x="322.363281"/>
      <use xlink:href="#ArialMT-65" x="377.978516"/>
      <use xlink:href="#ArialMT-6e" x="433.59375"/>
      <use xlink:href="#ArialMT-74" x="489.208984"/>
     </g>
    </g>
   </g>
   <g id="matplotlib.axis_4">
    <g id="ytick_7">
     <g id="line2d_22">
      <g>
       <use xlink:href="#m43159a8d3c" x="452.202187" y="314.479375" style="fill: #262626; stroke: #262626; stroke-width: 0.8"/>
      </g>
     </g>
    </g>
    <g id="ytick_8">
     <g id="line2d_23">
      <g>
       <use xlink:href="#m43159a8d3c" x="452.202187" y="258.756756" style="fill: #262626; stroke: #262626; stroke-width: 0.8"/>
      </g>
     </g>
    </g>
    <g id="ytick_9">
     <g id="line2d_24">
      <g>
       <use xlink:href="#m43159a8d3c" x="452.202187" y="203.034137" style="fill: #262626; stroke: #262626; stroke-width: 0.8"/>
      </g>
     </g>
    </g>
    <g id="ytick_10">
     <g id="line2d_25">
      <g>
       <use xlink:href="#m43159a8d3c" x="452.202187" y="147.311518" style="fill: #262626; stroke: #262626; stroke-width: 0.8"/>
      </g>
     </g>
    </g>
    <g id="ytick_11">
     <g id="line2d_26">
      <g>
       <use xlink:href="#m43159a8d3c" x="452.202187" y="91.588899" style="fill: #262626; stroke: #262626; stroke-width: 0.8"/>
      </g>
     </g>
    </g>
    <g id="ytick_12">
     <g id="line2d_27">
      <g>
       <use xlink:href="#m43159a8d3c" x="452.202187" y="35.86628" style="fill: #262626; stroke: #262626; stroke-width: 0.8"/>
      </g>
     </g>
    </g>
   </g>
   <g id="line2d_28">
    <path d="M 458.706574 287.261623 
L 465.210961 246.140676 
L 471.715348 220.619043 
L 478.219735 207.888025 
L 484.724122 197.204862 
L 491.228508 189.152268 
L 497.732895 181.658471 
L 504.237282 175.124581 
L 510.741669 169.637783 
L 517.246056 164.63121 
L 523.750442 159.857379 
L 530.254829 155.243496 
L 536.759216 150.862505 
L 543.263603 146.587102 
L 549.76799 142.575989 
L 556.272376 138.688853 
L 562.776763 134.935677 
L 569.28115 131.230065 
L 575.785537 127.741102 
L 582.289924 124.353036 
L 588.79431 121.024078 
L 595.298697 117.728339 
L 601.803084 114.542742 
L 608.307471 111.437322 
L 614.811858 108.361954 
L 621.316245 105.338864 
L 627.820631 102.391561 
L 634.325018 99.534531 
L 640.829405 96.747793 
L 647.333792 94.01546 
L 653.838179 91.330379 
L 660.342565 88.751034 
L 666.846952 86.210653 
L 673.351339 83.696894 
L 679.855726 81.19951 
L 686.360113 78.764894 
L 692.864499 76.362139 
L 699.368886 73.99436 
L 705.873273 71.736205 
L 712.37766 69.492591 
L 718.882047 67.320703 
L 725.386433 65.181684 
L 731.89082 63.093671 
L 738.395207 61.014653 
L 744.899594 58.986581 
L 751.403981 57.019231 
L 757.908368 55.110002 
L 764.412754 53.207679 
L 770.917141 51.356901 
L 777.421528 49.585028 
L 783.925915 47.82467 
L 790.430302 46.079042 
L 796.934688 44.346337 
L 803.439075 42.655554 
L 809.943462 41.02773 
L 816.447849 39.416821 
L 822.952236 37.840213 
L 829.456622 36.337849 
L 835.961009 34.872911 
L 842.465396 33.444006 
L 848.969783 33.444006 
" clip-path="url(#p7c05f22219)" style="fill: none; stroke: #1f77b4; stroke-width: 1.5; stroke-linecap: round"/>
    <g clip-path="url(#p7c05f22219)">
     <use xlink:href="#m5434f7248c" x="458.706574" y="287.261623" style="fill: #1f77b4; stroke: #1f77b4"/>
     <use xlink:href="#m5434f7248c" x="465.210961" y="246.140676" style="fill: #1f77b4; stroke: #1f77b4"/>
     <use xlink:href="#m5434f7248c" x="471.715348" y="220.619043" style="fill: #1f77b4; stroke: #1f77b4"/>
     <use xlink:href="#m5434f7248c" x="478.219735" y="207.888025" style="fill: #1f77b4; stroke: #1f77b4"/>
     <use xlink:href="#m5434f7248c" x="484.724122" y="197.204862" style="fill: #1f77b4; stroke: #1f77b4"/>
     <use xlink:href="#m5434f7248c" x="491.228508" y="189.152268" style="fill: #1f77b4; stroke: #1f77b4"/>
     <use xlink:href="#m5434f7248c" x="497.732895" y="181.658471" style="fill: #1f77b4; stroke: #1f77b4"/>
     <use xlink:href="#m5434f7248c" x="504.237282" y="175.124581" style="fill: #1f77b4; stroke: #1f77b4"/>
     <use xlink:href="#m5434f7248c" x="510.741669" y="169.637783" style="fill: #1f77b4; stroke: #1f77b4"/>
     <use xlink:href="#m5434f7248c" x="517.246056" y="164.63121" style="fill: #1f77b4; stroke: #1f77b4"/>
     <use xlink:href="#m5434f7248c" x="523.750442" y="159.857379" style="fill: #1f77b4; stroke: #1f77b4"/>
     <use xlink:href="#m5434f7248c" x="530.254829" y="155.243496" style="fill: #1f77b4; stroke: #1f77b4"/>
     <use xlink:href="#m5434f7248c" x="536.759216" y="150.862505" style="fill: #1f77b4; stroke: #1f77b4"/>
     <use xlink:href="#m5434f7248c" x="543.263603" y="146.587102" style="fill: #1f77b4; stroke: #1f77b4"/>
     <use xlink:href="#m5434f7248c" x="549.76799" y="142.575989" style="fill: #1f77b4; stroke: #1f77b4"/>
     <use xlink:href="#m5434f7248c" x="556.272376" y="138.688853" style="fill: #1f77b4; stroke: #1f77b4"/>
     <use xlink:href="#m5434f7248c" x="562.776763" y="134.935677" style="fill: #1f77b4; stroke: #1f77b4"/>
     <use xlink:href="#m5434f7248c" x="569.28115" y="131.230065" style="fill: #1f77b4; stroke: #1f77b4"/>
     <use xlink:href="#m5434f7248c" x="575.785537" y="127.741102" style="fill: #1f77b4; stroke: #1f77b4"/>
     <use xlink:href="#m5434f7248c" x="582.289924" y="124.353036" style="fill: #1f77b4; stroke: #1f77b4"/>
     <use xlink:href="#m5434f7248c" x="588.79431" y="121.024078" style="fill: #1f77b4; stroke: #1f77b4"/>
     <use xlink:href="#m5434f7248c" x="595.298697" y="117.728339" style="fill: #1f77b4; stroke: #1f77b4"/>
     <use xlink:href="#m5434f7248c" x="601.803084" y="114.542742" style="fill: #1f77b4; stroke: #1f77b4"/>
     <use xlink:href="#m5434f7248c" x="608.307471" y="111.437322" style="fill: #1f77b4; stroke: #1f77b4"/>
     <use xlink:href="#m5434f7248c" x="614.811858" y="108.361954" style="fill: #1f77b4; stroke: #1f77b4"/>
     <use xlink:href="#m5434f7248c" x="621.316245" y="105.338864" style="fill: #1f77b4; stroke: #1f77b4"/>
     <use xlink:href="#m5434f7248c" x="627.820631" y="102.391561" style="fill: #1f77b4; stroke: #1f77b4"/>
     <use xlink:href="#m5434f7248c" x="634.325018" y="99.534531" style="fill: #1f77b4; stroke: #1f77b4"/>
     <use xlink:href="#m5434f7248c" x="640.829405" y="96.747793" style="fill: #1f77b4; stroke: #1f77b4"/>
     <use xlink:href="#m5434f7248c" x="647.333792" y="94.01546" style="fill: #1f77b4; stroke: #1f77b4"/>
     <use xlink:href="#m5434f7248c" x="653.838179" y="91.330379" style="fill: #1f77b4; stroke: #1f77b4"/>
     <use xlink:href="#m5434f7248c" x="660.342565" y="88.751034" style="fill: #1f77b4; stroke: #1f77b4"/>
     <use xlink:href="#m5434f7248c" x="666.846952" y="86.210653" style="fill: #1f77b4; stroke: #1f77b4"/>
     <use xlink:href="#m5434f7248c" x="673.351339" y="83.696894" style="fill: #1f77b4; stroke: #1f77b4"/>
     <use xlink:href="#m5434f7248c" x="679.855726" y="81.19951" style="fill: #1f77b4; stroke: #1f77b4"/>
     <use xlink:href="#m5434f7248c" x="686.360113" y="78.764894" style="fill: #1f77b4; stroke: #1f77b4"/>
     <use xlink:href="#m5434f7248c" x="692.864499" y="76.362139" style="fill: #1f77b4; stroke: #1f77b4"/>
     <use xlink:href="#m5434f7248c" x="699.368886" y="73.99436" style="fill: #1f77b4; stroke: #1f77b4"/>
     <use xlink:href="#m5434f7248c" x="705.873273" y="71.736205" style="fill: #1f77b4; stroke: #1f77b4"/>
     <use xlink:href="#m5434f7248c" x="712.37766" y="69.492591" style="fill: #1f77b4; stroke: #1f77b4"/>
     <use xlink:href="#m5434f7248c" x="718.882047" y="67.320703" style="fill: #1f77b4; stroke: #1f77b4"/>
     <use xlink:href="#m5434f7248c" x="725.386433" y="65.181684" style="fill: #1f77b4; stroke: #1f77b4"/>
     <use xlink:href="#m5434f7248c" x="731.89082" y="63.093671" style="fill: #1f77b4; stroke: #1f77b4"/>
     <use xlink:href="#m5434f7248c" x="738.395207" y="61.014653" style="fill: #1f77b4; stroke: #1f77b4"/>
     <use xlink:href="#m5434f7248c" x="744.899594" y="58.986581" style="fill: #1f77b4; stroke: #1f77b4"/>
     <use xlink:href="#m5434f7248c" x="751.403981" y="57.019231" style="fill: #1f77b4; stroke: #1f77b4"/>
     <use xlink:href="#m5434f7248c" x="757.908368" y="55.110002" style="fill: #1f77b4; stroke: #1f77b4"/>
     <use xlink:href="#m5434f7248c" x="764.412754" y="53.207679" style="fill: #1f77b4; stroke: #1f77b4"/>
     <use xlink:href="#m5434f7248c" x="770.917141" y="51.356901" style="fill: #1f77b4; stroke: #1f77b4"/>
     <use xlink:href="#m5434f7248c" x="777.421528" y="49.585028" style="fill: #1f77b4; stroke: #1f77b4"/>
     <use xlink:href="#m5434f7248c" x="783.925915" y="47.82467" style="fill: #1f77b4; stroke: #1f77b4"/>
     <use xlink:href="#m5434f7248c" x="790.430302" y="46.079042" style="fill: #1f77b4; stroke: #1f77b4"/>
     <use xlink:href="#m5434f7248c" x="796.934688" y="44.346337" style="fill: #1f77b4; stroke: #1f77b4"/>
     <use xlink:href="#m5434f7248c" x="803.439075" y="42.655554" style="fill: #1f77b4; stroke: #1f77b4"/>
     <use xlink:href="#m5434f7248c" x="809.943462" y="41.02773" style="fill: #1f77b4; stroke: #1f77b4"/>
     <use xlink:href="#m5434f7248c" x="816.447849" y="39.416821" style="fill: #1f77b4; stroke: #1f77b4"/>
     <use xlink:href="#m5434f7248c" x="822.952236" y="37.840213" style="fill: #1f77b4; stroke: #1f77b4"/>
     <use xlink:href="#m5434f7248c" x="829.456622" y="36.337849" style="fill: #1f77b4; stroke: #1f77b4"/>
     <use xlink:href="#m5434f7248c" x="835.961009" y="34.872911" style="fill: #1f77b4; stroke: #1f77b4"/>
     <use xlink:href="#m5434f7248c" x="842.465396" y="33.444006" style="fill: #1f77b4; stroke: #1f77b4"/>
     <use xlink:href="#m5434f7248c" x="848.969783" y="33.444006" style="fill: #1f77b4; stroke: #1f77b4"/>
    </g>
   </g>
   <g id="patch_8">
    <path d="M 452.202187 314.479375 
L 452.202187 21.935625 
" style="fill: none; stroke: #262626; stroke-width: 0.8; stroke-linejoin: miter; stroke-linecap: square"/>
   </g>
   <g id="patch_9">
    <path d="M 845.717589 314.479375 
L 845.717589 21.935625 
" style="fill: none; stroke: #262626; stroke-width: 0.8; stroke-linejoin: miter; stroke-linecap: square"/>
   </g>
   <g id="patch_10">
    <path d="M 452.202187 314.479375 
L 845.717589 314.479375 
" style="fill: none; stroke: #262626; stroke-width: 0.8; stroke-linejoin: miter; stroke-linecap: square"/>
   </g>
   <g id="patch_11">
    <path d="M 452.202187 21.935625 
L 845.717589 21.935625 
" style="fill: none; stroke: #262626; stroke-width: 0.8; stroke-linejoin: miter; stroke-linecap: square"/>
   </g>
   <g id="text_25">
    <!-- Cumulative Explained Variance Ratio of PCA_2 -->
    <g style="fill: #262626" transform="translate(523.006763 15.935625) scale(0.12 -0.12)">
     <use xlink:href="#ArialMT-43"/>
     <use xlink:href="#ArialMT-75" x="72.216797"/>
     <use xlink:href="#ArialMT-6d" x="127.832031"/>
     <use xlink:href="#ArialMT-75" x="211.132812"/>
     <use xlink:href="#ArialMT-6c" x="266.748047"/>
     <use xlink:href="#ArialMT-61" x="288.964844"/>
     <use xlink:href="#ArialMT-74" x="344.580078"/>
     <use xlink:href="#ArialMT-69" x="372.363281"/>
     <use xlink:href="#ArialMT-76" x="394.580078"/>
     <use xlink:href="#ArialMT-65" x="444.580078"/>
     <use xlink:href="#ArialMT-20" x="500.195312"/>
     <use xlink:href="#ArialMT-45" x="527.978516"/>
     <use xlink:href="#ArialMT-78" x="594.677734"/>
     <use xlink:href="#ArialMT-70" x="644.677734"/>
     <use xlink:href="#ArialMT-6c" x="700.292969"/>
     <use xlink:href="#ArialMT-61" x="722.509766"/>
     <use xlink:href="#ArialMT-69" x="778.125"/>
     <use xlink:href="#ArialMT-6e" x="800.341797"/>
     <use xlink:href="#ArialMT-65" x="855.957031"/>
     <use xlink:href="#ArialMT-64" x="911.572266"/>
     <use xlink:href="#ArialMT-20" x="967.1875"/>
     <use xlink:href="#ArialMT-56" x="994.970703"/>
     <use xlink:href="#ArialMT-61" x="1054.294922"/>
     <use xlink:href="#ArialMT-72" x="1109.910156"/>
     <use xlink:href="#ArialMT-69" x="1143.210938"/>
     <use xlink:href="#ArialMT-61" x="1165.427734"/>
     <use xlink:href="#ArialMT-6e" x="1221.042969"/>
     <use xlink:href="#ArialMT-63" x="1276.658203"/>
     <use xlink:href="#ArialMT-65" x="1326.658203"/>
     <use xlink:href="#ArialMT-20" x="1382.273438"/>
     <use xlink:href="#ArialMT-52" x="1410.056641"/>
     <use xlink:href="#ArialMT-61" x="1482.273438"/>
     <use xlink:href="#ArialMT-74" x="1537.888672"/>
     <use xlink:href="#ArialMT-69" x="1565.671875"/>
     <use xlink:href="#ArialMT-6f" x="1587.888672"/>
     <use xlink:href="#ArialMT-20" x="1643.503906"/>
     <use xlink:href="#ArialMT-6f" x="1671.287109"/>
     <use xlink:href="#ArialMT-66" x="1726.902344"/>
     <use xlink:href="#ArialMT-20" x="1754.685547"/>
     <use xlink:href="#ArialMT-50" x="1782.46875"/>
     <use xlink:href="#ArialMT-43" x="1849.167969"/>
     <use xlink:href="#ArialMT-41" x="1921.384766"/>
     <use xlink:href="#ArialMT-5f" x="1988.083984"/>
     <use xlink:href="#ArialMT-32" x="2043.699219"/>
    </g>
   </g>
  </g>
 </g>
 <defs>
  <clipPath id="p92d9a772e9">
   <rect x="41.367188" y="21.935625" width="393.515402" height="292.54375"/>
  </clipPath>
  <clipPath id="p7c05f22219">
   <rect x="452.202187" y="21.935625" width="393.515402" height="292.54375"/>
  </clipPath>
 </defs>
</svg>
