<?xml version="1.0" encoding="utf-8" standalone="no"?>
<!DOCTYPE svg PUBLIC "-//W3C//DTD SVG 1.1//EN"
  "http://www.w3.org/Graphics/SVG/1.1/DTD/svg11.dtd">
<svg xmlns:xlink="http://www.w3.org/1999/xlink" width="1155.471875pt" height="588.524219pt" viewBox="0 0 1155.471875 588.524219" xmlns="http://www.w3.org/2000/svg" version="1.1">
 <metadata>
  <rdf:RDF xmlns:dc="http://purl.org/dc/elements/1.1/" xmlns:cc="http://creativecommons.org/ns#" xmlns:rdf="http://www.w3.org/1999/02/22-rdf-syntax-ns#">
   <cc:Work>
    <dc:type rdf:resource="http://purl.org/dc/dcmitype/StillImage"/>
    <dc:date>2025-07-01T14:29:45.643067</dc:date>
    <dc:format>image/svg+xml</dc:format>
    <dc:creator>
     <cc:Agent>
      <dc:title>Matplotlib v3.7.2, https://matplotlib.org/</dc:title>
     </cc:Agent>
    </dc:creator>
   </cc:Work>
  </rdf:RDF>
 </metadata>
 <defs>
  <style type="text/css">*{stroke-linejoin: round; stroke-linecap: butt}</style>
 </defs>
 <g id="figure_1">
  <g id="patch_1">
   <path d="M 0 588.524219 
L 1155.471875 588.524219 
L 1155.471875 0 
L 0 0 
z
" style="fill: #ffffff"/>
  </g>
  <g id="axes_1">
   <g id="patch_2">
    <path d="M 25.321875 565.178906 
L 1141.321875 565.178906 
L 1141.321875 10.778906 
L 25.321875 10.778906 
z
" style="fill: #ffffff"/>
   </g>
   <g id="matplotlib.axis_1">
    <g id="xtick_1">
     <g id="line2d_1">
      <defs>
       <path id="m46b8640fbb" d="M 0 0 
L 0 3.5 
" style="stroke: #262626; stroke-width: 0.8"/>
      </defs>
      <g>
       <use xlink:href="#m46b8640fbb" x="25.321875" y="565.178906" style="fill: #262626; stroke: #262626; stroke-width: 0.8"/>
      </g>
     </g>
     <g id="text_1">
      <!-- 0.0 -->
      <g style="fill: #262626" transform="translate(18.371875 579.336719) scale(0.1 -0.1)">
       <defs>
        <path id="ArialMT-30" d="M 266 2259 
Q 266 3072 433 3567 
Q 600 4063 929 4331 
Q 1259 4600 1759 4600 
Q 2128 4600 2406 4451 
Q 2684 4303 2865 4023 
Q 3047 3744 3150 3342 
Q 3253 2941 3253 2259 
Q 3253 1453 3087 958 
Q 2922 463 2592 192 
Q 2263 -78 1759 -78 
Q 1097 -78 719 397 
Q 266 969 266 2259 
z
M 844 2259 
Q 844 1131 1108 757 
Q 1372 384 1759 384 
Q 2147 384 2411 759 
Q 2675 1134 2675 2259 
Q 2675 3391 2411 3762 
Q 2147 4134 1753 4134 
Q 1366 4134 1134 3806 
Q 844 3388 844 2259 
z
" transform="scale(0.015625)"/>
        <path id="ArialMT-2e" d="M 581 0 
L 581 641 
L 1222 641 
L 1222 0 
L 581 0 
z
" transform="scale(0.015625)"/>
       </defs>
       <use xlink:href="#ArialMT-30"/>
       <use xlink:href="#ArialMT-2e" x="55.615234"/>
       <use xlink:href="#ArialMT-30" x="83.398438"/>
      </g>
     </g>
    </g>
    <g id="xtick_2">
     <g id="line2d_2">
      <g>
       <use xlink:href="#m46b8640fbb" x="211.321875" y="565.178906" style="fill: #262626; stroke: #262626; stroke-width: 0.8"/>
      </g>
     </g>
     <g id="text_2">
      <!-- 0.5 -->
      <g style="fill: #262626" transform="translate(204.371875 579.336719) scale(0.1 -0.1)">
       <defs>
        <path id="ArialMT-35" d="M 266 1200 
L 856 1250 
Q 922 819 1161 601 
Q 1400 384 1738 384 
Q 2144 384 2425 690 
Q 2706 997 2706 1503 
Q 2706 1984 2436 2262 
Q 2166 2541 1728 2541 
Q 1456 2541 1237 2417 
Q 1019 2294 894 2097 
L 366 2166 
L 809 4519 
L 3088 4519 
L 3088 3981 
L 1259 3981 
L 1013 2750 
Q 1425 3038 1878 3038 
Q 2478 3038 2890 2622 
Q 3303 2206 3303 1553 
Q 3303 931 2941 478 
Q 2500 -78 1738 -78 
Q 1113 -78 717 272 
Q 322 622 266 1200 
z
" transform="scale(0.015625)"/>
       </defs>
       <use xlink:href="#ArialMT-30"/>
       <use xlink:href="#ArialMT-2e" x="55.615234"/>
       <use xlink:href="#ArialMT-35" x="83.398438"/>
      </g>
     </g>
    </g>
    <g id="xtick_3">
     <g id="line2d_3">
      <g>
       <use xlink:href="#m46b8640fbb" x="397.321875" y="565.178906" style="fill: #262626; stroke: #262626; stroke-width: 0.8"/>
      </g>
     </g>
     <g id="text_3">
      <!-- 1.0 -->
      <g style="fill: #262626" transform="translate(390.371875 579.336719) scale(0.1 -0.1)">
       <defs>
        <path id="ArialMT-31" d="M 2384 0 
L 1822 0 
L 1822 3584 
Q 1619 3391 1289 3197 
Q 959 3003 697 2906 
L 697 3450 
Q 1169 3672 1522 3987 
Q 1875 4303 2022 4600 
L 2384 4600 
L 2384 0 
z
" transform="scale(0.015625)"/>
       </defs>
       <use xlink:href="#ArialMT-31"/>
       <use xlink:href="#ArialMT-2e" x="55.615234"/>
       <use xlink:href="#ArialMT-30" x="83.398438"/>
      </g>
     </g>
    </g>
    <g id="xtick_4">
     <g id="line2d_4">
      <g>
       <use xlink:href="#m46b8640fbb" x="583.321875" y="565.178906" style="fill: #262626; stroke: #262626; stroke-width: 0.8"/>
      </g>
     </g>
     <g id="text_4">
      <!-- 1.5 -->
      <g style="fill: #262626" transform="translate(576.371875 579.336719) scale(0.1 -0.1)">
       <use xlink:href="#ArialMT-31"/>
       <use xlink:href="#ArialMT-2e" x="55.615234"/>
       <use xlink:href="#ArialMT-35" x="83.398438"/>
      </g>
     </g>
    </g>
    <g id="xtick_5">
     <g id="line2d_5">
      <g>
       <use xlink:href="#m46b8640fbb" x="769.321875" y="565.178906" style="fill: #262626; stroke: #262626; stroke-width: 0.8"/>
      </g>
     </g>
     <g id="text_5">
      <!-- 2.0 -->
      <g style="fill: #262626" transform="translate(762.371875 579.336719) scale(0.1 -0.1)">
       <defs>
        <path id="ArialMT-32" d="M 3222 541 
L 3222 0 
L 194 0 
Q 188 203 259 391 
Q 375 700 629 1000 
Q 884 1300 1366 1694 
Q 2113 2306 2375 2664 
Q 2638 3022 2638 3341 
Q 2638 3675 2398 3904 
Q 2159 4134 1775 4134 
Q 1369 4134 1125 3890 
Q 881 3647 878 3216 
L 300 3275 
Q 359 3922 746 4261 
Q 1134 4600 1788 4600 
Q 2447 4600 2831 4234 
Q 3216 3869 3216 3328 
Q 3216 3053 3103 2787 
Q 2991 2522 2730 2228 
Q 2469 1934 1863 1422 
Q 1356 997 1212 845 
Q 1069 694 975 541 
L 3222 541 
z
" transform="scale(0.015625)"/>
       </defs>
       <use xlink:href="#ArialMT-32"/>
       <use xlink:href="#ArialMT-2e" x="55.615234"/>
       <use xlink:href="#ArialMT-30" x="83.398438"/>
      </g>
     </g>
    </g>
    <g id="xtick_6">
     <g id="line2d_6">
      <g>
       <use xlink:href="#m46b8640fbb" x="955.321875" y="565.178906" style="fill: #262626; stroke: #262626; stroke-width: 0.8"/>
      </g>
     </g>
     <g id="text_6">
      <!-- 2.5 -->
      <g style="fill: #262626" transform="translate(948.371875 579.336719) scale(0.1 -0.1)">
       <use xlink:href="#ArialMT-32"/>
       <use xlink:href="#ArialMT-2e" x="55.615234"/>
       <use xlink:href="#ArialMT-35" x="83.398438"/>
      </g>
     </g>
    </g>
    <g id="xtick_7">
     <g id="line2d_7">
      <g>
       <use xlink:href="#m46b8640fbb" x="1141.321875" y="565.178906" style="fill: #262626; stroke: #262626; stroke-width: 0.8"/>
      </g>
     </g>
     <g id="text_7">
      <!-- 3.0 -->
      <g style="fill: #262626" transform="translate(1134.371875 579.336719) scale(0.1 -0.1)">
       <defs>
        <path id="ArialMT-33" d="M 269 1209 
L 831 1284 
Q 928 806 1161 595 
Q 1394 384 1728 384 
Q 2125 384 2398 659 
Q 2672 934 2672 1341 
Q 2672 1728 2419 1979 
Q 2166 2231 1775 2231 
Q 1616 2231 1378 2169 
L 1441 2663 
Q 1497 2656 1531 2656 
Q 1891 2656 2178 2843 
Q 2466 3031 2466 3422 
Q 2466 3731 2256 3934 
Q 2047 4138 1716 4138 
Q 1388 4138 1169 3931 
Q 950 3725 888 3313 
L 325 3413 
Q 428 3978 793 4289 
Q 1159 4600 1703 4600 
Q 2078 4600 2393 4439 
Q 2709 4278 2876 4000 
Q 3044 3722 3044 3409 
Q 3044 3113 2884 2869 
Q 2725 2625 2413 2481 
Q 2819 2388 3044 2092 
Q 3269 1797 3269 1353 
Q 3269 753 2831 336 
Q 2394 -81 1725 -81 
Q 1122 -81 723 278 
Q 325 638 269 1209 
z
" transform="scale(0.015625)"/>
       </defs>
       <use xlink:href="#ArialMT-33"/>
       <use xlink:href="#ArialMT-2e" x="55.615234"/>
       <use xlink:href="#ArialMT-30" x="83.398438"/>
      </g>
     </g>
    </g>
   </g>
   <g id="matplotlib.axis_2">
    <g id="ytick_1">
     <g id="line2d_8">
      <defs>
       <path id="m08145b1df2" d="M 0 0 
L -3.5 0 
" style="stroke: #262626; stroke-width: 0.8"/>
      </defs>
      <g>
       <use xlink:href="#m08145b1df2" x="25.321875" y="565.178906" style="fill: #262626; stroke: #262626; stroke-width: 0.8"/>
      </g>
     </g>
     <g id="text_8">
      <!-- 0 -->
      <g style="fill: #262626" transform="translate(12.760937 568.757813) scale(0.1 -0.1)">
       <use xlink:href="#ArialMT-30"/>
      </g>
     </g>
    </g>
    <g id="ytick_2">
     <g id="line2d_9">
      <g>
       <use xlink:href="#m08145b1df2" x="25.321875" y="472.778906" style="fill: #262626; stroke: #262626; stroke-width: 0.8"/>
      </g>
     </g>
     <g id="text_9">
      <!-- 5 -->
      <g style="fill: #262626" transform="translate(12.760937 476.357813) scale(0.1 -0.1)">
       <use xlink:href="#ArialMT-35"/>
      </g>
     </g>
    </g>
    <g id="ytick_3">
     <g id="line2d_10">
      <g>
       <use xlink:href="#m08145b1df2" x="25.321875" y="380.378906" style="fill: #262626; stroke: #262626; stroke-width: 0.8"/>
      </g>
     </g>
     <g id="text_10">
      <!-- 10 -->
      <g style="fill: #262626" transform="translate(7.2 383.957813) scale(0.1 -0.1)">
       <use xlink:href="#ArialMT-31"/>
       <use xlink:href="#ArialMT-30" x="55.615234"/>
      </g>
     </g>
    </g>
    <g id="ytick_4">
     <g id="line2d_11">
      <g>
       <use xlink:href="#m08145b1df2" x="25.321875" y="287.978906" style="fill: #262626; stroke: #262626; stroke-width: 0.8"/>
      </g>
     </g>
     <g id="text_11">
      <!-- 15 -->
      <g style="fill: #262626" transform="translate(7.2 291.557813) scale(0.1 -0.1)">
       <use xlink:href="#ArialMT-31"/>
       <use xlink:href="#ArialMT-35" x="55.615234"/>
      </g>
     </g>
    </g>
    <g id="ytick_5">
     <g id="line2d_12">
      <g>
       <use xlink:href="#m08145b1df2" x="25.321875" y="195.578906" style="fill: #262626; stroke: #262626; stroke-width: 0.8"/>
      </g>
     </g>
     <g id="text_12">
      <!-- 20 -->
      <g style="fill: #262626" transform="translate(7.2 199.157813) scale(0.1 -0.1)">
       <use xlink:href="#ArialMT-32"/>
       <use xlink:href="#ArialMT-30" x="55.615234"/>
      </g>
     </g>
    </g>
    <g id="ytick_6">
     <g id="line2d_13">
      <g>
       <use xlink:href="#m08145b1df2" x="25.321875" y="103.178906" style="fill: #262626; stroke: #262626; stroke-width: 0.8"/>
      </g>
     </g>
     <g id="text_13">
      <!-- 25 -->
      <g style="fill: #262626" transform="translate(7.2 106.757813) scale(0.1 -0.1)">
       <use xlink:href="#ArialMT-32"/>
       <use xlink:href="#ArialMT-35" x="55.615234"/>
      </g>
     </g>
    </g>
    <g id="ytick_7">
     <g id="line2d_14">
      <g>
       <use xlink:href="#m08145b1df2" x="25.321875" y="10.778906" style="fill: #262626; stroke: #262626; stroke-width: 0.8"/>
      </g>
     </g>
     <g id="text_14">
      <!-- 30 -->
      <g style="fill: #262626" transform="translate(7.2 14.357813) scale(0.1 -0.1)">
       <use xlink:href="#ArialMT-33"/>
       <use xlink:href="#ArialMT-30" x="55.615234"/>
      </g>
     </g>
    </g>
   </g>
   <g id="patch_3">
    <path d="M 59.549995 565.178906 
L 96.749995 565.178906 
L 96.749995 491.258906 
L 59.549995 491.258906 
z
" clip-path="url(#pe304acef6e)" style="fill: #0f8141; opacity: 0.5"/>
   </g>
   <g id="patch_4">
    <path d="M 96.749995 565.178906 
L 133.949995 565.178906 
L 133.949995 509.738906 
L 96.749995 509.738906 
z
" clip-path="url(#pe304acef6e)" style="fill: #0f8141; opacity: 0.5"/>
   </g>
   <g id="patch_5">
    <path d="M 133.949995 565.178906 
L 171.149995 565.178906 
L 171.149995 509.738906 
L 133.949995 509.738906 
z
" clip-path="url(#pe304acef6e)" style="fill: #0f8141; opacity: 0.5"/>
   </g>
   <g id="patch_6">
    <path d="M 122.782995 565.178906 
L 159.982995 565.178906 
L 159.982995 509.738906 
L 122.782995 509.738906 
z
" clip-path="url(#pe304acef6e)" style="fill: #3c54a4; opacity: 0.5"/>
   </g>
   <g id="patch_7">
    <path d="M 159.982995 565.178906 
L 197.182995 565.178906 
L 197.182995 509.738906 
L 159.982995 509.738906 
z
" clip-path="url(#pe304acef6e)" style="fill: #3c54a4; opacity: 0.5"/>
   </g>
   <g id="patch_8">
    <path d="M 197.182995 565.178906 
L 234.382995 565.178906 
L 234.382995 546.698906 
L 197.182995 546.698906 
z
" clip-path="url(#pe304acef6e)" style="fill: #3c54a4; opacity: 0.5"/>
   </g>
   <g id="patch_9">
    <path d="M 234.382995 565.178906 
L 271.582995 565.178906 
L 271.582995 565.178906 
L 234.382995 565.178906 
z
" clip-path="url(#pe304acef6e)" style="fill: #3c54a4; opacity: 0.5"/>
   </g>
   <g id="patch_10">
    <path d="M 271.582995 565.178906 
L 308.782995 565.178906 
L 308.782995 546.698906 
L 271.582995 546.698906 
z
" clip-path="url(#pe304acef6e)" style="fill: #3c54a4; opacity: 0.5"/>
   </g>
   <g id="patch_11">
    <path d="M 308.782995 565.178906 
L 345.982995 565.178906 
L 345.982995 546.698906 
L 308.782995 546.698906 
z
" clip-path="url(#pe304acef6e)" style="fill: #3c54a4; opacity: 0.5"/>
   </g>
   <g id="patch_12">
    <path d="M 345.982995 565.178906 
L 383.182995 565.178906 
L 383.182995 565.178906 
L 345.982995 565.178906 
z
" clip-path="url(#pe304acef6e)" style="fill: #3c54a4; opacity: 0.5"/>
   </g>
   <g id="patch_13">
    <path d="M 383.182995 565.178906 
L 420.382995 565.178906 
L 420.382995 546.698906 
L 383.182995 546.698906 
z
" clip-path="url(#pe304acef6e)" style="fill: #3c54a4; opacity: 0.5"/>
   </g>
   <g id="line2d_15">
    <path d="M 25.321875 565.178906 
L 25.321875 10.778906 
" clip-path="url(#pe304acef6e)" style="fill: none; stroke: #f06ca8; stroke-width: 1.5; stroke-linecap: round"/>
   </g>
   <g id="line2d_16">
    <path d="M 25.321875 560.376057 
L 26.440111 559.971202 
L 27.558348 559.538782 
L 28.676584 559.077554 
L 29.794821 558.586279 
L 30.913057 558.063724 
L 32.031294 557.508672 
L 33.14953 556.91993 
L 34.267767 556.296331 
L 35.386003 555.636749 
L 36.50424 554.9401 
L 37.622476 554.205357 
L 38.740713 553.431554 
L 39.858949 552.617801 
L 40.977186 551.763284 
L 42.095422 550.867286 
L 43.213659 549.929187 
L 44.331895 548.94848 
L 45.450132 547.924777 
L 46.568368 546.85782 
L 47.686604 545.74749 
L 48.804841 544.593818 
L 49.923077 543.396992 
L 51.041314 542.157364 
L 52.15955 540.875461 
L 53.277787 539.551993 
L 54.396023 538.187854 
L 55.51426 536.784135 
L 56.632496 535.342124 
L 57.750733 533.863313 
L 58.868969 532.3494 
L 59.987206 530.802292 
L 61.105442 529.224105 
L 62.223679 527.617163 
L 63.341915 525.984 
L 64.460152 524.327353 
L 65.578388 522.650161 
L 66.696624 520.95556 
L 67.814861 519.246871 
L 68.933097 517.527599 
L 70.051334 515.801417 
L 71.16957 514.072161 
L 72.287807 512.34381 
L 73.406043 510.620481 
L 74.52428 508.906408 
L 75.642516 507.205928 
L 76.760753 505.523462 
L 77.878989 503.863502 
L 78.997226 502.230585 
L 80.115462 500.629275 
L 81.233699 499.064147 
L 82.351935 497.539759 
L 83.470172 496.060633 
L 84.588408 494.631236 
L 85.706645 493.255951 
L 86.824881 491.939061 
L 87.943117 490.684723 
L 89.061354 489.49695 
L 90.17959 488.379584 
L 91.297827 487.336281 
L 92.416063 486.370488 
L 93.5343 485.485427 
L 94.652536 484.684071 
L 95.770773 483.969134 
L 96.889009 483.343052 
L 98.007246 482.807972 
L 99.125482 482.365736 
L 100.243719 482.017873 
L 101.361955 481.76559 
L 102.480192 481.609762 
L 103.598428 481.550935 
L 104.716665 481.589311 
L 105.834901 481.724759 
L 106.953138 481.956805 
L 108.071374 482.284643 
L 109.18961 482.707134 
L 110.307847 483.222818 
L 111.426083 483.829916 
L 112.54432 484.526346 
L 113.662556 485.309732 
L 114.780793 486.177416 
L 115.899029 487.126478 
L 117.017266 488.153748 
L 118.135502 489.255825 
L 119.253739 490.429094 
L 120.371975 491.669752 
L 121.490212 492.973818 
L 122.608448 494.337166 
L 123.726685 495.755537 
L 124.844921 497.224565 
L 125.963158 498.739802 
L 127.081394 500.296734 
L 128.199631 501.890809 
L 129.317867 503.517455 
L 130.436103 505.172102 
L 131.55434 506.850206 
L 132.672576 508.547265 
L 133.790813 510.258841 
L 134.909049 511.980578 
L 136.027286 513.708218 
L 137.145522 515.437619 
L 138.263759 517.164772 
L 139.381995 518.885809 
L 140.500232 520.597022 
L 141.618468 522.29487 
L 142.736705 523.975992 
L 143.854941 525.637213 
L 144.973178 527.275553 
L 146.091414 528.888231 
L 147.209651 530.47267 
L 148.327887 532.026501 
L 149.446123 533.547565 
L 150.56436 535.033911 
L 151.682596 536.483798 
L 152.800833 537.895689 
L 153.919069 539.268255 
L 155.037306 540.600363 
L 156.155542 541.891078 
L 157.273779 543.139653 
L 158.392015 544.345522 
L 159.510252 545.508297 
L 160.628488 546.627755 
L 161.746725 547.703835 
L 162.864961 548.736625 
L 163.983198 549.726352 
L 165.101434 550.67338 
L 166.219671 551.57819 
L 167.337907 552.44138 
L 168.456144 553.263647 
L 169.57438 554.045786 
L 170.692616 554.788671 
L 171.810853 555.493254 
L 172.929089 556.160549 
L 174.047326 556.791628 
L 175.165562 557.38761 
L 176.283799 557.949653 
L 177.402035 558.478947 
L 178.520272 558.976703 
L 179.638508 559.444152 
L 180.756745 559.882531 
L 181.874981 560.293084 
L 182.993218 560.677049 
L 184.111454 561.03566 
L 185.229691 561.370136 
L 186.347927 561.681678 
L 187.466164 561.971469 
L 188.5844 562.240666 
L 189.702637 562.490396 
L 190.820873 562.72176 
L 191.939109 562.935823 
L 193.057346 563.133617 
L 194.175582 563.316136 
L 195.293819 563.484339 
L 196.412055 563.639145 
L 197.530292 563.781435 
L 198.648528 563.912049 
L 199.766765 564.03179 
L 200.885001 564.141421 
L 202.003238 564.241664 
L 203.121474 564.333205 
L 204.239711 564.416693 
L 205.357947 564.492737 
L 206.476184 564.561911 
L 207.59442 564.624757 
L 208.712657 564.68178 
L 209.830893 564.733453 
L 210.94913 564.780219 
L 212.067366 564.82249 
L 213.185602 564.86065 
L 214.303839 564.895054 
L 215.422075 564.926033 
L 216.540312 564.953893 
L 217.658548 564.978916 
L 218.776785 565.001363 
L 219.895021 565.021473 
L 221.013258 565.039468 
L 222.131494 565.05555 
L 223.249731 565.069904 
L 224.367967 565.082699 
L 225.486204 565.094091 
L 226.60444 565.104221 
L 227.722677 565.113218 
L 228.840913 565.121198 
L 229.95915 565.128267 
L 231.077386 565.134522 
L 232.195622 565.14005 
L 233.313859 565.144928 
L 234.432095 565.149229 
L 235.550332 565.153016 
L 236.668568 565.156345 
L 237.786805 565.159269 
L 238.905041 565.161835 
L 240.023278 565.164082 
L 241.141514 565.166048 
L 242.259751 565.167767 
L 243.377987 565.169267 
L 244.496224 565.170575 
L 245.61446 565.171713 
L 246.732697 565.172704 
L 247.850933 565.173564 
L 248.96917 565.17431 
L 250.087406 565.174957 
L 251.205643 565.175516 
L 252.323879 565.176 
L 253.442115 565.176417 
L 254.560352 565.176777 
L 255.678588 565.177087 
L 256.796825 565.177354 
L 257.915061 565.177583 
L 259.033298 565.17778 
L 260.151534 565.177948 
L 261.269771 565.178093 
L 262.388007 565.178216 
L 263.506244 565.178321 
L 264.62448 565.178411 
L 265.742717 565.178488 
L 266.860953 565.178553 
L 267.97919 565.178608 
L 269.097426 565.178655 
L 270.215663 565.178695 
L 271.333899 565.178729 
L 272.452136 565.178757 
L 273.570372 565.178781 
L 274.688608 565.178801 
L 275.806845 565.178819 
L 276.925081 565.178833 
L 278.043318 565.178845 
L 279.161554 565.178855 
L 280.279791 565.178864 
L 281.398027 565.178871 
L 282.516264 565.178877 
L 283.6345 565.178882 
L 284.752737 565.178886 
L 285.870973 565.17889 
L 286.98921 565.178892 
L 288.107446 565.178895 
L 289.225683 565.178897 
L 290.343919 565.178898 
L 291.462156 565.1789 
L 292.580392 565.178901 
L 293.698629 565.178902 
L 294.816865 565.178903 
L 295.935101 565.178903 
L 297.053338 565.178904 
L 298.171574 565.178904 
L 299.289811 565.178905 
L 300.408047 565.178905 
L 301.526284 565.178905 
L 302.64452 565.178905 
L 303.762757 565.178906 
L 304.880993 565.178906 
L 305.99923 565.178906 
L 307.117466 565.178906 
L 308.235703 565.178906 
L 309.353939 565.178906 
L 310.472176 565.178906 
L 311.590412 565.178906 
L 312.708649 565.178906 
L 313.826885 565.178906 
L 314.945121 565.178906 
L 316.063358 565.178906 
L 317.181594 565.178906 
L 318.299831 565.178906 
L 319.418067 565.178906 
L 320.536304 565.178906 
L 321.65454 565.178906 
L 322.772777 565.178906 
L 323.891013 565.178906 
L 325.00925 565.178906 
L 326.127486 565.178906 
L 327.245723 565.178906 
L 328.363959 565.178906 
L 329.482196 565.178906 
L 330.600432 565.178906 
L 331.718669 565.178906 
L 332.836905 565.178906 
L 333.955142 565.178906 
L 335.073378 565.178906 
L 336.191614 565.178906 
L 337.309851 565.178906 
L 338.428087 565.178906 
L 339.546324 565.178906 
L 340.66456 565.178906 
L 341.782797 565.178906 
L 342.901033 565.178906 
L 344.01927 565.178906 
L 345.137506 565.178906 
L 346.255743 565.178906 
L 347.373979 565.178906 
L 348.492216 565.178906 
L 349.610452 565.178906 
L 350.728689 565.178906 
L 351.846925 565.178906 
L 352.965162 565.178906 
L 354.083398 565.178906 
L 355.201635 565.178906 
L 356.319871 565.178906 
L 357.438107 565.178906 
L 358.556344 565.178906 
L 359.67458 565.178906 
L 360.792817 565.178906 
L 361.911053 565.178906 
L 363.02929 565.178906 
L 364.147526 565.178906 
L 365.265763 565.178906 
L 366.383999 565.178906 
L 367.502236 565.178906 
L 368.620472 565.178906 
L 369.738709 565.178906 
L 370.856945 565.178906 
L 371.975182 565.178906 
L 373.093418 565.178906 
L 374.211655 565.178906 
L 375.329891 565.178906 
L 376.448128 565.178906 
L 377.566364 565.178906 
L 378.6846 565.178906 
L 379.802837 565.178906 
L 380.921073 565.178906 
L 382.03931 565.178906 
L 383.157546 565.178906 
L 384.275783 565.178906 
L 385.394019 565.178906 
L 386.512256 565.178906 
L 387.630492 565.178906 
L 388.748729 565.178906 
L 389.866965 565.178906 
L 390.985202 565.178906 
L 392.103438 565.178906 
L 393.221675 565.178906 
L 394.339911 565.178906 
L 395.458148 565.178906 
L 396.576384 565.178906 
L 397.69462 565.178906 
L 398.812857 565.178906 
L 399.931093 565.178906 
L 401.04933 565.178906 
L 402.167566 565.178906 
L 403.285803 565.178906 
L 404.404039 565.178906 
L 405.522276 565.178906 
L 406.640512 565.178906 
L 407.758749 565.178906 
L 408.876985 565.178906 
L 409.995222 565.178906 
L 411.113458 565.178906 
L 412.231695 565.178906 
L 413.349931 565.178906 
L 414.468168 565.178906 
L 415.586404 565.178906 
L 416.704641 565.178906 
L 417.822877 565.178906 
L 418.941113 565.178906 
L 420.05935 565.178906 
L 421.177586 565.178906 
L 422.295823 565.178906 
L 423.414059 565.178906 
L 424.532296 565.178906 
L 425.650532 565.178906 
L 426.768769 565.178906 
L 427.887005 565.178906 
L 429.005242 565.178906 
L 430.123478 565.178906 
L 431.241715 565.178906 
L 432.359951 565.178906 
L 433.478188 565.178906 
L 434.596424 565.178906 
L 435.714661 565.178906 
L 436.832897 565.178906 
L 437.951134 565.178906 
L 439.06937 565.178906 
L 440.187606 565.178906 
L 441.305843 565.178906 
L 442.424079 565.178906 
L 443.542316 565.178906 
L 444.660552 565.178906 
L 445.778789 565.178906 
L 446.897025 565.178906 
L 448.015262 565.178906 
L 449.133498 565.178906 
L 450.251735 565.178906 
L 451.369971 565.178906 
L 452.488208 565.178906 
L 453.606444 565.178906 
L 454.724681 565.178906 
L 455.842917 565.178906 
L 456.961154 565.178906 
L 458.07939 565.178906 
L 459.197627 565.178906 
L 460.315863 565.178906 
L 461.434099 565.178906 
L 462.552336 565.178906 
L 463.670572 565.178906 
L 464.788809 565.178906 
L 465.907045 565.178906 
L 467.025282 565.178906 
L 468.143518 565.178906 
L 469.261755 565.178906 
L 470.379991 565.178906 
L 471.498228 565.178906 
L 472.616464 565.178906 
L 473.734701 565.178906 
L 474.852937 565.178906 
L 475.971174 565.178906 
L 477.08941 565.178906 
L 478.207647 565.178906 
L 479.325883 565.178906 
L 480.444119 565.178906 
L 481.562356 565.178906 
L 482.680592 565.178906 
L 483.798829 565.178906 
L 484.917065 565.178906 
L 486.035302 565.178906 
L 487.153538 565.178906 
L 488.271775 565.178906 
L 489.390011 565.178906 
L 490.508248 565.178906 
L 491.626484 565.178906 
L 492.744721 565.178906 
L 493.862957 565.178906 
L 494.981194 565.178906 
L 496.09943 565.178906 
L 497.217667 565.178906 
L 498.335903 565.178906 
L 499.45414 565.178906 
L 500.572376 565.178906 
L 501.690612 565.178906 
L 502.808849 565.178906 
L 503.927085 565.178906 
L 505.045322 565.178906 
L 506.163558 565.178906 
L 507.281795 565.178906 
L 508.400031 565.178906 
L 509.518268 565.178906 
L 510.636504 565.178906 
L 511.754741 565.178906 
L 512.872977 565.178906 
L 513.991214 565.178906 
L 515.10945 565.178906 
L 516.227687 565.178906 
L 517.345923 565.178906 
L 518.46416 565.178906 
L 519.582396 565.178906 
L 520.700633 565.178906 
L 521.818869 565.178906 
L 522.937105 565.178906 
L 524.055342 565.178906 
L 525.173578 565.178906 
L 526.291815 565.178906 
L 527.410051 565.178906 
L 528.528288 565.178906 
L 529.646524 565.178906 
L 530.764761 565.178906 
L 531.882997 565.178906 
L 533.001234 565.178906 
L 534.11947 565.178906 
L 535.237707 565.178906 
L 536.355943 565.178906 
L 537.47418 565.178906 
L 538.592416 565.178906 
L 539.710653 565.178906 
L 540.828889 565.178906 
L 541.947126 565.178906 
L 543.065362 565.178906 
L 544.183598 565.178906 
L 545.301835 565.178906 
L 546.420071 565.178906 
L 547.538308 565.178906 
L 548.656544 565.178906 
L 549.774781 565.178906 
L 550.893017 565.178906 
L 552.011254 565.178906 
L 553.12949 565.178906 
L 554.247727 565.178906 
L 555.365963 565.178906 
L 556.4842 565.178906 
L 557.602436 565.178906 
L 558.720673 565.178906 
L 559.838909 565.178906 
L 560.957146 565.178906 
L 562.075382 565.178906 
L 563.193618 565.178906 
L 564.311855 565.178906 
L 565.430091 565.178906 
L 566.548328 565.178906 
L 567.666564 565.178906 
L 568.784801 565.178906 
L 569.903037 565.178906 
L 571.021274 565.178906 
L 572.13951 565.178906 
L 573.257747 565.178906 
L 574.375983 565.178906 
L 575.49422 565.178906 
L 576.612456 565.178906 
L 577.730693 565.178906 
L 578.848929 565.178906 
L 579.967166 565.178906 
L 581.085402 565.178906 
L 582.203639 565.178906 
L 583.321875 565.178906 
" clip-path="url(#pe304acef6e)" style="fill: none; stroke: #0f8141; stroke-width: 1.5; stroke-linecap: round"/>
   </g>
   <g id="line2d_17">
    <path d="M 103.716095 565.178906 
L 103.716095 10.778906 
" clip-path="url(#pe304acef6e)" style="fill: none; stroke-dasharray: 5.55,2.4; stroke-dashoffset: 0; stroke: #0f8141; stroke-width: 1.5"/>
   </g>
   <g id="line2d_18">
    <path d="M 25.321875 562.778501 
L 26.440111 562.705002 
L 27.558348 562.629701 
L 28.676584 562.552568 
L 29.794821 562.473577 
L 30.913057 562.3927 
L 32.031294 562.309908 
L 33.14953 562.225174 
L 34.267767 562.138472 
L 35.386003 562.049775 
L 36.50424 561.959055 
L 37.622476 561.866287 
L 38.740713 561.771444 
L 39.858949 561.674501 
L 40.977186 561.575433 
L 42.095422 561.474215 
L 43.213659 561.370822 
L 44.331895 561.265231 
L 45.450132 561.157418 
L 46.568368 561.047361 
L 47.686604 560.935037 
L 48.804841 560.820424 
L 49.923077 560.703502 
L 51.041314 560.58425 
L 52.15955 560.462649 
L 53.277787 560.338679 
L 54.396023 560.212323 
L 55.51426 560.083563 
L 56.632496 559.952382 
L 57.750733 559.818765 
L 58.868969 559.682698 
L 59.987206 559.544165 
L 61.105442 559.403156 
L 62.223679 559.259656 
L 63.341915 559.113657 
L 64.460152 558.965147 
L 65.578388 558.814119 
L 66.696624 558.660564 
L 67.814861 558.504477 
L 68.933097 558.345852 
L 70.051334 558.184685 
L 71.16957 558.020974 
L 72.287807 557.854717 
L 73.406043 557.685913 
L 74.52428 557.514565 
L 75.642516 557.340675 
L 76.760753 557.164248 
L 77.878989 556.985287 
L 78.997226 556.803801 
L 80.115462 556.619799 
L 81.233699 556.433289 
L 82.351935 556.244284 
L 83.470172 556.052796 
L 84.588408 555.858841 
L 85.706645 555.662435 
L 86.824881 555.463596 
L 87.943117 555.262344 
L 89.061354 555.0587 
L 90.17959 554.852687 
L 91.297827 554.64433 
L 92.416063 554.433655 
L 93.5343 554.220692 
L 94.652536 554.005469 
L 95.770773 553.78802 
L 96.889009 553.568377 
L 98.007246 553.346577 
L 99.125482 553.122657 
L 100.243719 552.896656 
L 101.361955 552.668615 
L 102.480192 552.438577 
L 103.598428 552.206587 
L 104.716665 551.972691 
L 105.834901 551.736939 
L 106.953138 551.499379 
L 108.071374 551.260066 
L 109.18961 551.019052 
L 110.307847 550.776394 
L 111.426083 550.532149 
L 112.54432 550.286377 
L 113.662556 550.039139 
L 114.780793 549.790499 
L 115.899029 549.540521 
L 117.017266 549.289273 
L 118.135502 549.036822 
L 119.253739 548.783239 
L 120.371975 548.528597 
L 121.490212 548.272968 
L 122.608448 548.016428 
L 123.726685 547.759053 
L 124.844921 547.500923 
L 125.963158 547.242118 
L 127.081394 546.982718 
L 128.199631 546.722808 
L 129.317867 546.462472 
L 130.436103 546.201796 
L 131.55434 545.940867 
L 132.672576 545.679774 
L 133.790813 545.418608 
L 134.909049 545.157459 
L 136.027286 544.89642 
L 137.145522 544.635585 
L 138.263759 544.375048 
L 139.381995 544.114906 
L 140.500232 543.855254 
L 141.618468 543.596192 
L 142.736705 543.337818 
L 143.854941 543.080231 
L 144.973178 542.823531 
L 146.091414 542.56782 
L 147.209651 542.313198 
L 148.327887 542.059769 
L 149.446123 541.807635 
L 150.56436 541.556898 
L 151.682596 541.307664 
L 152.800833 541.060034 
L 153.919069 540.814114 
L 155.037306 540.570007 
L 156.155542 540.327819 
L 157.273779 540.087652 
L 158.392015 539.849613 
L 159.510252 539.613803 
L 160.628488 539.380329 
L 161.746725 539.149292 
L 162.864961 538.920797 
L 163.983198 538.694947 
L 165.101434 538.471844 
L 166.219671 538.251589 
L 167.337907 538.034284 
L 168.456144 537.820029 
L 169.57438 537.608924 
L 170.692616 537.401068 
L 171.810853 537.196558 
L 172.929089 536.995491 
L 174.047326 536.797963 
L 175.165562 536.604067 
L 176.283799 536.413898 
L 177.402035 536.227546 
L 178.520272 536.045103 
L 179.638508 535.866657 
L 180.756745 535.692296 
L 181.874981 535.522105 
L 182.993218 535.356168 
L 184.111454 535.194567 
L 185.229691 535.037383 
L 186.347927 534.884695 
L 187.466164 534.736578 
L 188.5844 534.593108 
L 189.702637 534.454356 
L 190.820873 534.320394 
L 191.939109 534.191288 
L 193.057346 534.067105 
L 194.175582 533.947908 
L 195.293819 533.833759 
L 196.412055 533.724715 
L 197.530292 533.620833 
L 198.648528 533.522166 
L 199.766765 533.428766 
L 200.885001 533.340681 
L 202.003238 533.257956 
L 203.121474 533.180635 
L 204.239711 533.108758 
L 205.357947 533.042362 
L 206.476184 532.981482 
L 207.59442 532.92615 
L 208.712657 532.876395 
L 209.830893 532.832243 
L 210.94913 532.793717 
L 212.067366 532.760837 
L 213.185602 532.733621 
L 214.303839 532.712083 
L 215.422075 532.696234 
L 216.540312 532.686083 
L 217.658548 532.681634 
L 218.776785 532.682891 
L 219.895021 532.689853 
L 221.013258 532.702515 
L 222.131494 532.720872 
L 223.249731 532.744914 
L 224.367967 532.774627 
L 225.486204 532.809997 
L 226.60444 532.851005 
L 227.722677 532.897629 
L 228.840913 532.949845 
L 229.95915 533.007625 
L 231.077386 533.07094 
L 232.195622 533.139755 
L 233.313859 533.214036 
L 234.432095 533.293743 
L 235.550332 533.378835 
L 236.668568 533.469268 
L 237.786805 533.564994 
L 238.905041 533.665965 
L 240.023278 533.772129 
L 241.141514 533.883429 
L 242.259751 533.99981 
L 243.377987 534.121212 
L 244.496224 534.247571 
L 245.61446 534.378825 
L 246.732697 534.514907 
L 247.850933 534.655746 
L 248.96917 534.801273 
L 250.087406 534.951413 
L 251.205643 535.106092 
L 252.323879 535.265231 
L 253.442115 535.428753 
L 254.560352 535.596575 
L 255.678588 535.768614 
L 256.796825 535.944785 
L 257.915061 536.125004 
L 259.033298 536.30918 
L 260.151534 536.497225 
L 261.269771 536.689047 
L 262.388007 536.884555 
L 263.506244 537.083654 
L 264.62448 537.28625 
L 265.742717 537.492247 
L 266.860953 537.701546 
L 267.97919 537.914051 
L 269.097426 538.129662 
L 270.215663 538.34828 
L 271.333899 538.569802 
L 272.452136 538.794128 
L 273.570372 539.021157 
L 274.688608 539.250784 
L 275.806845 539.482907 
L 276.925081 539.717423 
L 278.043318 539.954228 
L 279.161554 540.193218 
L 280.279791 540.434288 
L 281.398027 540.677335 
L 282.516264 540.922254 
L 283.6345 541.16894 
L 284.752737 541.417289 
L 285.870973 541.667198 
L 286.98921 541.918564 
L 288.107446 542.171281 
L 289.225683 542.425248 
L 290.343919 542.680362 
L 291.462156 542.936522 
L 292.580392 543.193625 
L 293.698629 543.451571 
L 294.816865 543.710261 
L 295.935101 543.969595 
L 297.053338 544.229474 
L 298.171574 544.489802 
L 299.289811 544.750482 
L 300.408047 545.011419 
L 301.526284 545.272518 
L 302.64452 545.533686 
L 303.762757 545.794831 
L 304.880993 546.055862 
L 305.99923 546.316691 
L 307.117466 546.577228 
L 308.235703 546.837387 
L 309.353939 547.097082 
L 310.472176 547.35623 
L 311.590412 547.614748 
L 312.708649 547.872555 
L 313.826885 548.129571 
L 314.945121 548.385719 
L 316.063358 548.640923 
L 317.181594 548.895107 
L 318.299831 549.1482 
L 319.418067 549.40013 
L 320.536304 549.650826 
L 321.65454 549.900223 
L 322.772777 550.148253 
L 323.891013 550.394853 
L 325.00925 550.639959 
L 326.127486 550.883512 
L 327.245723 551.125453 
L 328.363959 551.365724 
L 329.482196 551.604272 
L 330.600432 551.841041 
L 331.718669 552.075981 
L 332.836905 552.309043 
L 333.955142 552.540179 
L 335.073378 552.769342 
L 336.191614 552.99649 
L 337.309851 553.221579 
L 338.428087 553.44457 
L 339.546324 553.665424 
L 340.66456 553.884104 
L 341.782797 554.100576 
L 342.901033 554.314807 
L 344.01927 554.526766 
L 345.137506 554.736423 
L 346.255743 554.94375 
L 347.373979 555.148722 
L 348.492216 555.351316 
L 349.610452 555.551507 
L 350.728689 555.749276 
L 351.846925 555.944604 
L 352.965162 556.137474 
L 354.083398 556.327869 
L 355.201635 556.515777 
L 356.319871 556.701183 
L 357.438107 556.884078 
L 358.556344 557.064452 
L 359.67458 557.242297 
L 360.792817 557.417608 
L 361.911053 557.590378 
L 363.02929 557.760605 
L 364.147526 557.928286 
L 365.265763 558.093422 
L 366.383999 558.256012 
L 367.502236 558.416058 
L 368.620472 558.573564 
L 369.738709 558.728535 
L 370.856945 558.880976 
L 371.975182 559.030893 
L 373.093418 559.178296 
L 374.211655 559.323192 
L 375.329891 559.465593 
L 376.448128 559.60551 
L 377.566364 559.742954 
L 378.6846 559.87794 
L 379.802837 560.010482 
L 380.921073 560.140594 
L 382.03931 560.268293 
L 383.157546 560.393595 
L 384.275783 560.516519 
L 385.394019 560.637083 
L 386.512256 560.755306 
L 387.630492 560.871208 
L 388.748729 560.984809 
L 389.866965 561.096132 
L 390.985202 561.205198 
L 392.103438 561.312029 
L 393.221675 561.416648 
L 394.339911 561.51908 
L 395.458148 561.619348 
L 396.576384 561.717476 
L 397.69462 561.813491 
L 398.812857 561.907416 
L 399.931093 561.999279 
L 401.04933 562.089104 
L 402.167566 562.176919 
L 403.285803 562.26275 
L 404.404039 562.346625 
L 405.522276 562.42857 
L 406.640512 562.508613 
L 407.758749 562.586782 
L 408.876985 562.663104 
L 409.995222 562.737608 
L 411.113458 562.810321 
L 412.231695 562.881272 
L 413.349931 562.950488 
L 414.468168 563.018 
L 415.586404 563.083833 
L 416.704641 563.148018 
L 417.822877 563.210582 
L 418.941113 563.271553 
L 420.05935 563.33096 
L 421.177586 563.388831 
L 422.295823 563.445195 
L 423.414059 563.500078 
L 424.532296 563.55351 
L 425.650532 563.605517 
L 426.768769 563.656127 
L 427.887005 563.705368 
L 429.005242 563.753268 
L 430.123478 563.799852 
L 431.241715 563.845148 
L 432.359951 563.889183 
L 433.478188 563.931983 
L 434.596424 563.973575 
L 435.714661 564.013984 
L 436.832897 564.053235 
L 437.951134 564.091355 
L 439.06937 564.128369 
L 440.187606 564.164301 
L 441.305843 564.199176 
L 442.424079 564.233018 
L 443.542316 564.265852 
L 444.660552 564.297701 
L 445.778789 564.328588 
L 446.897025 564.358536 
L 448.015262 564.387569 
L 449.133498 564.415708 
L 450.251735 564.442976 
L 451.369971 564.469394 
L 452.488208 564.494984 
L 453.606444 564.519767 
L 454.724681 564.543763 
L 455.842917 564.566993 
L 456.961154 564.589477 
L 458.07939 564.611234 
L 459.197627 564.632285 
L 460.315863 564.652647 
L 461.434099 564.672339 
L 462.552336 564.691381 
L 463.670572 564.709788 
L 464.788809 564.727581 
L 465.907045 564.744774 
L 467.025282 564.761386 
L 468.143518 564.777433 
L 469.261755 564.79293 
L 470.379991 564.807895 
L 471.498228 564.822342 
L 472.616464 564.836287 
L 473.734701 564.849744 
L 474.852937 564.862728 
L 475.971174 564.875253 
L 477.08941 564.887333 
L 478.207647 564.898982 
L 479.325883 564.910213 
L 480.444119 564.921038 
L 481.562356 564.931471 
L 482.680592 564.941523 
L 483.798829 564.951207 
L 484.917065 564.960534 
L 486.035302 564.969516 
L 487.153538 564.978163 
L 488.271775 564.986488 
L 489.390011 564.994499 
L 490.508248 565.002208 
L 491.626484 565.009624 
L 492.744721 565.016758 
L 493.862957 565.023618 
L 494.981194 565.030214 
L 496.09943 565.036555 
L 497.217667 565.04265 
L 498.335903 565.048506 
L 499.45414 565.054133 
L 500.572376 565.059538 
L 501.690612 565.064728 
L 502.808849 565.069712 
L 503.927085 565.074497 
L 505.045322 565.07909 
L 506.163558 565.083498 
L 507.281795 565.087727 
L 508.400031 565.091783 
L 509.518268 565.095674 
L 510.636504 565.099405 
L 511.754741 565.102982 
L 512.872977 565.106411 
L 513.991214 565.109698 
L 515.10945 565.112846 
L 516.227687 565.115863 
L 517.345923 565.118753 
L 518.46416 565.12152 
L 519.582396 565.124169 
L 520.700633 565.126705 
L 521.818869 565.129133 
L 522.937105 565.131456 
L 524.055342 565.133678 
L 525.173578 565.135804 
L 526.291815 565.137837 
L 527.410051 565.139782 
L 528.528288 565.14164 
L 529.646524 565.143417 
L 530.764761 565.145115 
L 531.882997 565.146737 
L 533.001234 565.148287 
L 534.11947 565.149767 
L 535.237707 565.151181 
L 536.355943 565.15253 
L 537.47418 565.153818 
L 538.592416 565.155048 
L 539.710653 565.156221 
L 540.828889 565.157341 
L 541.947126 565.158408 
L 543.065362 565.159427 
L 544.183598 565.160398 
L 545.301835 565.161323 
L 546.420071 565.162206 
L 547.538308 565.163046 
L 548.656544 565.163848 
L 549.774781 565.164611 
L 550.893017 565.165338 
L 552.011254 565.16603 
L 553.12949 565.166689 
L 554.247727 565.167316 
L 555.365963 565.167913 
L 556.4842 565.168481 
L 557.602436 565.169022 
L 558.720673 565.169536 
L 559.838909 565.170025 
L 560.957146 565.17049 
L 562.075382 565.170932 
L 563.193618 565.171352 
L 564.311855 565.171751 
L 565.430091 565.17213 
L 566.548328 565.172491 
L 567.666564 565.172833 
L 568.784801 565.173158 
L 569.903037 565.173466 
L 571.021274 565.173759 
L 572.13951 565.174037 
L 573.257747 565.174301 
L 574.375983 565.174551 
L 575.49422 565.174789 
L 576.612456 565.175014 
L 577.730693 565.175227 
L 578.848929 565.175429 
L 579.967166 565.175621 
L 581.085402 565.175803 
L 582.203639 565.175975 
L 583.321875 565.176138 
" clip-path="url(#pe304acef6e)" style="fill: none; stroke: #3c54a4; stroke-width: 1.5; stroke-linecap: round"/>
   </g>
   <g id="line2d_19">
    <path d="M 217.971309 565.178906 
L 217.971309 10.778906 
" clip-path="url(#pe304acef6e)" style="fill: none; stroke-dasharray: 5.55,2.4; stroke-dashoffset: 0; stroke: #3c54a4; stroke-width: 1.5"/>
   </g>
   <g id="patch_14">
    <path d="M 25.321875 565.178906 
L 25.321875 10.778906 
" style="fill: none; stroke: #262626; stroke-width: 0.8; stroke-linejoin: miter; stroke-linecap: square"/>
   </g>
   <g id="patch_15">
    <path d="M 1141.321875 565.178906 
L 1141.321875 10.778906 
" style="fill: none; stroke: #262626; stroke-width: 0.8; stroke-linejoin: miter; stroke-linecap: square"/>
   </g>
   <g id="patch_16">
    <path d="M 25.321875 565.178906 
L 1141.321875 565.178906 
" style="fill: none; stroke: #262626; stroke-width: 0.8; stroke-linejoin: miter; stroke-linecap: square"/>
   </g>
   <g id="patch_17">
    <path d="M 25.321875 10.778906 
L 1141.321875 10.778906 
" style="fill: none; stroke: #262626; stroke-width: 0.8; stroke-linejoin: miter; stroke-linecap: square"/>
   </g>
   <g id="legend_1">
    <g id="patch_18">
     <path d="M 1006.723437 75.360156 
L 1134.321875 75.360156 
Q 1136.321875 75.360156 1136.321875 73.360156 
L 1136.321875 17.778906 
Q 1136.321875 15.778906 1134.321875 15.778906 
L 1006.723437 15.778906 
Q 1004.723437 15.778906 1004.723437 17.778906 
L 1004.723437 73.360156 
Q 1004.723437 75.360156 1006.723437 75.360156 
z
" style="fill: #ffffff; opacity: 0.8; stroke: #cccccc; stroke-linejoin: miter"/>
    </g>
    <g id="patch_19">
     <path d="M 1008.723437 26.936719 
L 1028.723437 26.936719 
L 1028.723437 19.936719 
L 1008.723437 19.936719 
z
" style="fill: #0f8141; opacity: 0.5"/>
    </g>
    <g id="text_15">
     <!-- tl -->
     <g style="fill: #262626" transform="translate(1036.723437 26.936719) scale(0.1 -0.1)">
      <defs>
       <path id="ArialMT-74" d="M 1650 503 
L 1731 6 
Q 1494 -44 1306 -44 
Q 1000 -44 831 53 
Q 663 150 594 308 
Q 525 466 525 972 
L 525 2881 
L 113 2881 
L 113 3319 
L 525 3319 
L 525 4141 
L 1084 4478 
L 1084 3319 
L 1650 3319 
L 1650 2881 
L 1084 2881 
L 1084 941 
Q 1084 700 1114 631 
Q 1144 563 1211 522 
Q 1278 481 1403 481 
Q 1497 481 1650 503 
z
" transform="scale(0.015625)"/>
       <path id="ArialMT-6c" d="M 409 0 
L 409 4581 
L 972 4581 
L 972 0 
L 409 0 
z
" transform="scale(0.015625)"/>
      </defs>
      <use xlink:href="#ArialMT-74"/>
      <use xlink:href="#ArialMT-6c" x="27.783203"/>
     </g>
    </g>
    <g id="patch_20">
     <path d="M 1008.723437 41.082031 
L 1028.723437 41.082031 
L 1028.723437 34.082031 
L 1008.723437 34.082031 
z
" style="fill: #3c54a4; opacity: 0.5"/>
    </g>
    <g id="text_16">
     <!-- bp -->
     <g style="fill: #262626" transform="translate(1036.723437 41.082031) scale(0.1 -0.1)">
      <defs>
       <path id="ArialMT-62" d="M 941 0 
L 419 0 
L 419 4581 
L 981 4581 
L 981 2947 
Q 1338 3394 1891 3394 
Q 2197 3394 2470 3270 
Q 2744 3147 2920 2923 
Q 3097 2700 3197 2384 
Q 3297 2069 3297 1709 
Q 3297 856 2875 390 
Q 2453 -75 1863 -75 
Q 1275 -75 941 416 
L 941 0 
z
M 934 1684 
Q 934 1088 1097 822 
Q 1363 388 1816 388 
Q 2184 388 2453 708 
Q 2722 1028 2722 1663 
Q 2722 2313 2464 2622 
Q 2206 2931 1841 2931 
Q 1472 2931 1203 2611 
Q 934 2291 934 1684 
z
" transform="scale(0.015625)"/>
       <path id="ArialMT-70" d="M 422 -1272 
L 422 3319 
L 934 3319 
L 934 2888 
Q 1116 3141 1344 3267 
Q 1572 3394 1897 3394 
Q 2322 3394 2647 3175 
Q 2972 2956 3137 2557 
Q 3303 2159 3303 1684 
Q 3303 1175 3120 767 
Q 2938 359 2589 142 
Q 2241 -75 1856 -75 
Q 1575 -75 1351 44 
Q 1128 163 984 344 
L 984 -1272 
L 422 -1272 
z
M 931 1641 
Q 931 1000 1190 694 
Q 1450 388 1819 388 
Q 2194 388 2461 705 
Q 2728 1022 2728 1688 
Q 2728 2322 2467 2637 
Q 2206 2953 1844 2953 
Q 1484 2953 1207 2617 
Q 931 2281 931 1641 
z
" transform="scale(0.015625)"/>
      </defs>
      <use xlink:href="#ArialMT-62"/>
      <use xlink:href="#ArialMT-70" x="55.615234"/>
     </g>
    </g>
    <g id="line2d_20">
     <path d="M 1008.723437 51.727344 
L 1018.723437 51.727344 
L 1028.723437 51.727344 
" style="fill: none; stroke: #0f8141; stroke-width: 1.5; stroke-linecap: round"/>
    </g>
    <g id="text_17">
     <!-- tl normal distribution -->
     <g style="fill: #262626" transform="translate(1036.723437 55.227344) scale(0.1 -0.1)">
      <defs>
       <path id="ArialMT-20" transform="scale(0.015625)"/>
       <path id="ArialMT-6e" d="M 422 0 
L 422 3319 
L 928 3319 
L 928 2847 
Q 1294 3394 1984 3394 
Q 2284 3394 2536 3286 
Q 2788 3178 2913 3003 
Q 3038 2828 3088 2588 
Q 3119 2431 3119 2041 
L 3119 0 
L 2556 0 
L 2556 2019 
Q 2556 2363 2490 2533 
Q 2425 2703 2258 2804 
Q 2091 2906 1866 2906 
Q 1506 2906 1245 2678 
Q 984 2450 984 1813 
L 984 0 
L 422 0 
z
" transform="scale(0.015625)"/>
       <path id="ArialMT-6f" d="M 213 1659 
Q 213 2581 725 3025 
Q 1153 3394 1769 3394 
Q 2453 3394 2887 2945 
Q 3322 2497 3322 1706 
Q 3322 1066 3130 698 
Q 2938 331 2570 128 
Q 2203 -75 1769 -75 
Q 1072 -75 642 372 
Q 213 819 213 1659 
z
M 791 1659 
Q 791 1022 1069 705 
Q 1347 388 1769 388 
Q 2188 388 2466 706 
Q 2744 1025 2744 1678 
Q 2744 2294 2464 2611 
Q 2184 2928 1769 2928 
Q 1347 2928 1069 2612 
Q 791 2297 791 1659 
z
" transform="scale(0.015625)"/>
       <path id="ArialMT-72" d="M 416 0 
L 416 3319 
L 922 3319 
L 922 2816 
Q 1116 3169 1280 3281 
Q 1444 3394 1641 3394 
Q 1925 3394 2219 3213 
L 2025 2691 
Q 1819 2813 1613 2813 
Q 1428 2813 1281 2702 
Q 1134 2591 1072 2394 
Q 978 2094 978 1738 
L 978 0 
L 416 0 
z
" transform="scale(0.015625)"/>
       <path id="ArialMT-6d" d="M 422 0 
L 422 3319 
L 925 3319 
L 925 2853 
Q 1081 3097 1340 3245 
Q 1600 3394 1931 3394 
Q 2300 3394 2536 3241 
Q 2772 3088 2869 2813 
Q 3263 3394 3894 3394 
Q 4388 3394 4653 3120 
Q 4919 2847 4919 2278 
L 4919 0 
L 4359 0 
L 4359 2091 
Q 4359 2428 4304 2576 
Q 4250 2725 4106 2815 
Q 3963 2906 3769 2906 
Q 3419 2906 3187 2673 
Q 2956 2441 2956 1928 
L 2956 0 
L 2394 0 
L 2394 2156 
Q 2394 2531 2256 2718 
Q 2119 2906 1806 2906 
Q 1569 2906 1367 2781 
Q 1166 2656 1075 2415 
Q 984 2175 984 1722 
L 984 0 
L 422 0 
z
" transform="scale(0.015625)"/>
       <path id="ArialMT-61" d="M 2588 409 
Q 2275 144 1986 34 
Q 1697 -75 1366 -75 
Q 819 -75 525 192 
Q 231 459 231 875 
Q 231 1119 342 1320 
Q 453 1522 633 1644 
Q 813 1766 1038 1828 
Q 1203 1872 1538 1913 
Q 2219 1994 2541 2106 
Q 2544 2222 2544 2253 
Q 2544 2597 2384 2738 
Q 2169 2928 1744 2928 
Q 1347 2928 1158 2789 
Q 969 2650 878 2297 
L 328 2372 
Q 403 2725 575 2942 
Q 747 3159 1072 3276 
Q 1397 3394 1825 3394 
Q 2250 3394 2515 3294 
Q 2781 3194 2906 3042 
Q 3031 2891 3081 2659 
Q 3109 2516 3109 2141 
L 3109 1391 
Q 3109 606 3145 398 
Q 3181 191 3288 0 
L 2700 0 
Q 2613 175 2588 409 
z
M 2541 1666 
Q 2234 1541 1622 1453 
Q 1275 1403 1131 1340 
Q 988 1278 909 1158 
Q 831 1038 831 891 
Q 831 666 1001 516 
Q 1172 366 1500 366 
Q 1825 366 2078 508 
Q 2331 650 2450 897 
Q 2541 1088 2541 1459 
L 2541 1666 
z
" transform="scale(0.015625)"/>
       <path id="ArialMT-64" d="M 2575 0 
L 2575 419 
Q 2259 -75 1647 -75 
Q 1250 -75 917 144 
Q 584 363 401 755 
Q 219 1147 219 1656 
Q 219 2153 384 2558 
Q 550 2963 881 3178 
Q 1213 3394 1622 3394 
Q 1922 3394 2156 3267 
Q 2391 3141 2538 2938 
L 2538 4581 
L 3097 4581 
L 3097 0 
L 2575 0 
z
M 797 1656 
Q 797 1019 1065 703 
Q 1334 388 1700 388 
Q 2069 388 2326 689 
Q 2584 991 2584 1609 
Q 2584 2291 2321 2609 
Q 2059 2928 1675 2928 
Q 1300 2928 1048 2622 
Q 797 2316 797 1656 
z
" transform="scale(0.015625)"/>
       <path id="ArialMT-69" d="M 425 3934 
L 425 4581 
L 988 4581 
L 988 3934 
L 425 3934 
z
M 425 0 
L 425 3319 
L 988 3319 
L 988 0 
L 425 0 
z
" transform="scale(0.015625)"/>
       <path id="ArialMT-73" d="M 197 991 
L 753 1078 
Q 800 744 1014 566 
Q 1228 388 1613 388 
Q 2000 388 2187 545 
Q 2375 703 2375 916 
Q 2375 1106 2209 1216 
Q 2094 1291 1634 1406 
Q 1016 1563 777 1677 
Q 538 1791 414 1992 
Q 291 2194 291 2438 
Q 291 2659 392 2848 
Q 494 3038 669 3163 
Q 800 3259 1026 3326 
Q 1253 3394 1513 3394 
Q 1903 3394 2198 3281 
Q 2494 3169 2634 2976 
Q 2775 2784 2828 2463 
L 2278 2388 
Q 2241 2644 2061 2787 
Q 1881 2931 1553 2931 
Q 1166 2931 1000 2803 
Q 834 2675 834 2503 
Q 834 2394 903 2306 
Q 972 2216 1119 2156 
Q 1203 2125 1616 2013 
Q 2213 1853 2448 1751 
Q 2684 1650 2818 1456 
Q 2953 1263 2953 975 
Q 2953 694 2789 445 
Q 2625 197 2315 61 
Q 2006 -75 1616 -75 
Q 969 -75 630 194 
Q 291 463 197 991 
z
" transform="scale(0.015625)"/>
       <path id="ArialMT-75" d="M 2597 0 
L 2597 488 
Q 2209 -75 1544 -75 
Q 1250 -75 995 37 
Q 741 150 617 320 
Q 494 491 444 738 
Q 409 903 409 1263 
L 409 3319 
L 972 3319 
L 972 1478 
Q 972 1038 1006 884 
Q 1059 663 1231 536 
Q 1403 409 1656 409 
Q 1909 409 2131 539 
Q 2353 669 2445 892 
Q 2538 1116 2538 1541 
L 2538 3319 
L 3100 3319 
L 3100 0 
L 2597 0 
z
" transform="scale(0.015625)"/>
      </defs>
      <use xlink:href="#ArialMT-74"/>
      <use xlink:href="#ArialMT-6c" x="27.783203"/>
      <use xlink:href="#ArialMT-20" x="50"/>
      <use xlink:href="#ArialMT-6e" x="77.783203"/>
      <use xlink:href="#ArialMT-6f" x="133.398438"/>
      <use xlink:href="#ArialMT-72" x="189.013672"/>
      <use xlink:href="#ArialMT-6d" x="222.314453"/>
      <use xlink:href="#ArialMT-61" x="305.615234"/>
      <use xlink:href="#ArialMT-6c" x="361.230469"/>
      <use xlink:href="#ArialMT-20" x="383.447266"/>
      <use xlink:href="#ArialMT-64" x="411.230469"/>
      <use xlink:href="#ArialMT-69" x="466.845703"/>
      <use xlink:href="#ArialMT-73" x="489.0625"/>
      <use xlink:href="#ArialMT-74" x="539.0625"/>
      <use xlink:href="#ArialMT-72" x="566.845703"/>
      <use xlink:href="#ArialMT-69" x="600.146484"/>
      <use xlink:href="#ArialMT-62" x="622.363281"/>
      <use xlink:href="#ArialMT-75" x="677.978516"/>
      <use xlink:href="#ArialMT-74" x="733.59375"/>
      <use xlink:href="#ArialMT-69" x="761.376953"/>
      <use xlink:href="#ArialMT-6f" x="783.59375"/>
      <use xlink:href="#ArialMT-6e" x="839.208984"/>
     </g>
    </g>
    <g id="line2d_21">
     <path d="M 1008.723437 65.872656 
L 1018.723437 65.872656 
L 1028.723437 65.872656 
" style="fill: none; stroke: #3c54a4; stroke-width: 1.5; stroke-linecap: round"/>
    </g>
    <g id="text_18">
     <!-- bp normal distribution -->
     <g style="fill: #262626" transform="translate(1036.723437 69.372656) scale(0.1 -0.1)">
      <use xlink:href="#ArialMT-62"/>
      <use xlink:href="#ArialMT-70" x="55.615234"/>
      <use xlink:href="#ArialMT-20" x="111.230469"/>
      <use xlink:href="#ArialMT-6e" x="139.013672"/>
      <use xlink:href="#ArialMT-6f" x="194.628906"/>
      <use xlink:href="#ArialMT-72" x="250.244141"/>
      <use xlink:href="#ArialMT-6d" x="283.544922"/>
      <use xlink:href="#ArialMT-61" x="366.845703"/>
      <use xlink:href="#ArialMT-6c" x="422.460938"/>
      <use xlink:href="#ArialMT-20" x="444.677734"/>
      <use xlink:href="#ArialMT-64" x="472.460938"/>
      <use xlink:href="#ArialMT-69" x="528.076172"/>
      <use xlink:href="#ArialMT-73" x="550.292969"/>
      <use xlink:href="#ArialMT-74" x="600.292969"/>
      <use xlink:href="#ArialMT-72" x="628.076172"/>
      <use xlink:href="#ArialMT-69" x="661.376953"/>
      <use xlink:href="#ArialMT-62" x="683.59375"/>
      <use xlink:href="#ArialMT-75" x="739.208984"/>
      <use xlink:href="#ArialMT-74" x="794.824219"/>
      <use xlink:href="#ArialMT-69" x="822.607422"/>
      <use xlink:href="#ArialMT-6f" x="844.824219"/>
      <use xlink:href="#ArialMT-6e" x="900.439453"/>
     </g>
    </g>
   </g>
  </g>
 </g>
 <defs>
  <clipPath id="pe304acef6e">
   <rect x="25.321875" y="10.778906" width="1116" height="554.4"/>
  </clipPath>
 </defs>
</svg>
