<?xml version="1.0" encoding="utf-8" standalone="no"?>
<!DOCTYPE svg PUBLIC "-//W3C//DTD SVG 1.1//EN"
  "http://www.w3.org/Graphics/SVG/1.1/DTD/svg11.dtd">
<svg xmlns:xlink="http://www.w3.org/1999/xlink" width="1153.662031pt" height="588.359844pt" viewBox="0 0 1153.662031 588.359844" xmlns="http://www.w3.org/2000/svg" version="1.1">
 <metadata>
  <rdf:RDF xmlns:dc="http://purl.org/dc/elements/1.1/" xmlns:cc="http://creativecommons.org/ns#" xmlns:rdf="http://www.w3.org/1999/02/22-rdf-syntax-ns#">
   <cc:Work>
    <dc:type rdf:resource="http://purl.org/dc/dcmitype/StillImage"/>
    <dc:date>2024-08-26T19:23:52.183285</dc:date>
    <dc:format>image/svg+xml</dc:format>
    <dc:creator>
     <cc:Agent>
      <dc:title>Matplotlib v3.7.2, https://matplotlib.org/</dc:title>
     </cc:Agent>
    </dc:creator>
   </cc:Work>
  </rdf:RDF>
 </metadata>
 <defs>
  <style type="text/css">*{stroke-linejoin: round; stroke-linecap: butt}</style>
 </defs>
 <g id="figure_1">
  <g id="patch_1">
   <path d="M 0 588.359844 
L 1153.662031 588.359844 
L 1153.662031 0 
L 0 0 
z
" style="fill: #ffffff"/>
  </g>
  <g id="axes_1">
   <g id="patch_2">
    <path d="M 22.817031 561.6 
L 1138.817031 561.6 
L 1138.817031 7.2 
L 22.817031 7.2 
z
" style="fill: #ffffff"/>
   </g>
   <g id="matplotlib.axis_1">
    <g id="xtick_1">
     <g id="line2d_1">
      <defs>
       <path id="mc820ac82b7" d="M 0 0 
L 0 6 
" style="stroke: #262626; stroke-width: 1.25"/>
      </defs>
      <g>
       <use xlink:href="#mc820ac82b7" x="22.817031" y="561.6" style="fill: #262626; stroke: #262626; stroke-width: 1.25"/>
      </g>
     </g>
     <g id="text_1">
      <!-- 0.0 -->
      <g style="fill: #262626" transform="translate(15.172031 578.973594) scale(0.11 -0.11)">
       <defs>
        <path id="ArialMT-30" d="M 266 2259 
Q 266 3072 433 3567 
Q 600 4063 929 4331 
Q 1259 4600 1759 4600 
Q 2128 4600 2406 4451 
Q 2684 4303 2865 4023 
Q 3047 3744 3150 3342 
Q 3253 2941 3253 2259 
Q 3253 1453 3087 958 
Q 2922 463 2592 192 
Q 2263 -78 1759 -78 
Q 1097 -78 719 397 
Q 266 969 266 2259 
z
M 844 2259 
Q 844 1131 1108 757 
Q 1372 384 1759 384 
Q 2147 384 2411 759 
Q 2675 1134 2675 2259 
Q 2675 3391 2411 3762 
Q 2147 4134 1753 4134 
Q 1366 4134 1134 3806 
Q 844 3388 844 2259 
z
" transform="scale(0.015625)"/>
        <path id="ArialMT-2e" d="M 581 0 
L 581 641 
L 1222 641 
L 1222 0 
L 581 0 
z
" transform="scale(0.015625)"/>
       </defs>
       <use xlink:href="#ArialMT-30"/>
       <use xlink:href="#ArialMT-2e" x="55.615234"/>
       <use xlink:href="#ArialMT-30" x="83.398438"/>
      </g>
     </g>
    </g>
    <g id="xtick_2">
     <g id="line2d_2">
      <g>
       <use xlink:href="#mc820ac82b7" x="246.017031" y="561.6" style="fill: #262626; stroke: #262626; stroke-width: 1.25"/>
      </g>
     </g>
     <g id="text_2">
      <!-- 0.2 -->
      <g style="fill: #262626" transform="translate(238.372031 578.973594) scale(0.11 -0.11)">
       <defs>
        <path id="ArialMT-32" d="M 3222 541 
L 3222 0 
L 194 0 
Q 188 203 259 391 
Q 375 700 629 1000 
Q 884 1300 1366 1694 
Q 2113 2306 2375 2664 
Q 2638 3022 2638 3341 
Q 2638 3675 2398 3904 
Q 2159 4134 1775 4134 
Q 1369 4134 1125 3890 
Q 881 3647 878 3216 
L 300 3275 
Q 359 3922 746 4261 
Q 1134 4600 1788 4600 
Q 2447 4600 2831 4234 
Q 3216 3869 3216 3328 
Q 3216 3053 3103 2787 
Q 2991 2522 2730 2228 
Q 2469 1934 1863 1422 
Q 1356 997 1212 845 
Q 1069 694 975 541 
L 3222 541 
z
" transform="scale(0.015625)"/>
       </defs>
       <use xlink:href="#ArialMT-30"/>
       <use xlink:href="#ArialMT-2e" x="55.615234"/>
       <use xlink:href="#ArialMT-32" x="83.398438"/>
      </g>
     </g>
    </g>
    <g id="xtick_3">
     <g id="line2d_3">
      <g>
       <use xlink:href="#mc820ac82b7" x="469.217031" y="561.6" style="fill: #262626; stroke: #262626; stroke-width: 1.25"/>
      </g>
     </g>
     <g id="text_3">
      <!-- 0.4 -->
      <g style="fill: #262626" transform="translate(461.572031 578.973594) scale(0.11 -0.11)">
       <defs>
        <path id="ArialMT-34" d="M 2069 0 
L 2069 1097 
L 81 1097 
L 81 1613 
L 2172 4581 
L 2631 4581 
L 2631 1613 
L 3250 1613 
L 3250 1097 
L 2631 1097 
L 2631 0 
L 2069 0 
z
M 2069 1613 
L 2069 3678 
L 634 1613 
L 2069 1613 
z
" transform="scale(0.015625)"/>
       </defs>
       <use xlink:href="#ArialMT-30"/>
       <use xlink:href="#ArialMT-2e" x="55.615234"/>
       <use xlink:href="#ArialMT-34" x="83.398438"/>
      </g>
     </g>
    </g>
    <g id="xtick_4">
     <g id="line2d_4">
      <g>
       <use xlink:href="#mc820ac82b7" x="692.417031" y="561.6" style="fill: #262626; stroke: #262626; stroke-width: 1.25"/>
      </g>
     </g>
     <g id="text_4">
      <!-- 0.6 -->
      <g style="fill: #262626" transform="translate(684.772031 578.973594) scale(0.11 -0.11)">
       <defs>
        <path id="ArialMT-36" d="M 3184 3459 
L 2625 3416 
Q 2550 3747 2413 3897 
Q 2184 4138 1850 4138 
Q 1581 4138 1378 3988 
Q 1113 3794 959 3422 
Q 806 3050 800 2363 
Q 1003 2672 1297 2822 
Q 1591 2972 1913 2972 
Q 2475 2972 2870 2558 
Q 3266 2144 3266 1488 
Q 3266 1056 3080 686 
Q 2894 316 2569 119 
Q 2244 -78 1831 -78 
Q 1128 -78 684 439 
Q 241 956 241 2144 
Q 241 3472 731 4075 
Q 1159 4600 1884 4600 
Q 2425 4600 2770 4297 
Q 3116 3994 3184 3459 
z
M 888 1484 
Q 888 1194 1011 928 
Q 1134 663 1356 523 
Q 1578 384 1822 384 
Q 2178 384 2434 671 
Q 2691 959 2691 1453 
Q 2691 1928 2437 2201 
Q 2184 2475 1800 2475 
Q 1419 2475 1153 2201 
Q 888 1928 888 1484 
z
" transform="scale(0.015625)"/>
       </defs>
       <use xlink:href="#ArialMT-30"/>
       <use xlink:href="#ArialMT-2e" x="55.615234"/>
       <use xlink:href="#ArialMT-36" x="83.398438"/>
      </g>
     </g>
    </g>
    <g id="xtick_5">
     <g id="line2d_5">
      <g>
       <use xlink:href="#mc820ac82b7" x="915.617031" y="561.6" style="fill: #262626; stroke: #262626; stroke-width: 1.25"/>
      </g>
     </g>
     <g id="text_5">
      <!-- 0.8 -->
      <g style="fill: #262626" transform="translate(907.972031 578.973594) scale(0.11 -0.11)">
       <defs>
        <path id="ArialMT-38" d="M 1131 2484 
Q 781 2613 612 2850 
Q 444 3088 444 3419 
Q 444 3919 803 4259 
Q 1163 4600 1759 4600 
Q 2359 4600 2725 4251 
Q 3091 3903 3091 3403 
Q 3091 3084 2923 2848 
Q 2756 2613 2416 2484 
Q 2838 2347 3058 2040 
Q 3278 1734 3278 1309 
Q 3278 722 2862 322 
Q 2447 -78 1769 -78 
Q 1091 -78 675 323 
Q 259 725 259 1325 
Q 259 1772 486 2073 
Q 713 2375 1131 2484 
z
M 1019 3438 
Q 1019 3113 1228 2906 
Q 1438 2700 1772 2700 
Q 2097 2700 2305 2904 
Q 2513 3109 2513 3406 
Q 2513 3716 2298 3927 
Q 2084 4138 1766 4138 
Q 1444 4138 1231 3931 
Q 1019 3725 1019 3438 
z
M 838 1322 
Q 838 1081 952 856 
Q 1066 631 1291 507 
Q 1516 384 1775 384 
Q 2178 384 2440 643 
Q 2703 903 2703 1303 
Q 2703 1709 2433 1975 
Q 2163 2241 1756 2241 
Q 1359 2241 1098 1978 
Q 838 1716 838 1322 
z
" transform="scale(0.015625)"/>
       </defs>
       <use xlink:href="#ArialMT-30"/>
       <use xlink:href="#ArialMT-2e" x="55.615234"/>
       <use xlink:href="#ArialMT-38" x="83.398438"/>
      </g>
     </g>
    </g>
    <g id="xtick_6">
     <g id="line2d_6">
      <g>
       <use xlink:href="#mc820ac82b7" x="1138.817031" y="561.6" style="fill: #262626; stroke: #262626; stroke-width: 1.25"/>
      </g>
     </g>
     <g id="text_6">
      <!-- 1.0 -->
      <g style="fill: #262626" transform="translate(1131.172031 578.973594) scale(0.11 -0.11)">
       <defs>
        <path id="ArialMT-31" d="M 2384 0 
L 1822 0 
L 1822 3584 
Q 1619 3391 1289 3197 
Q 959 3003 697 2906 
L 697 3450 
Q 1169 3672 1522 3987 
Q 1875 4303 2022 4600 
L 2384 4600 
L 2384 0 
z
" transform="scale(0.015625)"/>
       </defs>
       <use xlink:href="#ArialMT-31"/>
       <use xlink:href="#ArialMT-2e" x="55.615234"/>
       <use xlink:href="#ArialMT-30" x="83.398438"/>
      </g>
     </g>
    </g>
   </g>
   <g id="matplotlib.axis_2">
    <g id="ytick_1">
     <g id="line2d_7">
      <defs>
       <path id="mddd721e37a" d="M 0 0 
L -6 0 
" style="stroke: #262626; stroke-width: 1.25"/>
      </defs>
      <g>
       <use xlink:href="#mddd721e37a" x="22.817031" y="561.6" style="fill: #262626; stroke: #262626; stroke-width: 1.25"/>
      </g>
     </g>
     <g id="text_7">
      <!-- 0 -->
      <g style="fill: #262626" transform="translate(7.2 565.536797) scale(0.11 -0.11)">
       <use xlink:href="#ArialMT-30"/>
      </g>
     </g>
    </g>
    <g id="ytick_2">
     <g id="line2d_8">
      <g>
       <use xlink:href="#mddd721e37a" x="22.817031" y="444.266667" style="fill: #262626; stroke: #262626; stroke-width: 1.25"/>
      </g>
     </g>
     <g id="text_8">
      <!-- 2 -->
      <g style="fill: #262626" transform="translate(7.2 448.203464) scale(0.11 -0.11)">
       <use xlink:href="#ArialMT-32"/>
      </g>
     </g>
    </g>
    <g id="ytick_3">
     <g id="line2d_9">
      <g>
       <use xlink:href="#mddd721e37a" x="22.817031" y="326.933333" style="fill: #262626; stroke: #262626; stroke-width: 1.25"/>
      </g>
     </g>
     <g id="text_9">
      <!-- 4 -->
      <g style="fill: #262626" transform="translate(7.2 330.87013) scale(0.11 -0.11)">
       <use xlink:href="#ArialMT-34"/>
      </g>
     </g>
    </g>
    <g id="ytick_4">
     <g id="line2d_10">
      <g>
       <use xlink:href="#mddd721e37a" x="22.817031" y="209.6" style="fill: #262626; stroke: #262626; stroke-width: 1.25"/>
      </g>
     </g>
     <g id="text_10">
      <!-- 6 -->
      <g style="fill: #262626" transform="translate(7.2 213.536797) scale(0.11 -0.11)">
       <use xlink:href="#ArialMT-36"/>
      </g>
     </g>
    </g>
    <g id="ytick_5">
     <g id="line2d_11">
      <g>
       <use xlink:href="#mddd721e37a" x="22.817031" y="92.266667" style="fill: #262626; stroke: #262626; stroke-width: 1.25"/>
      </g>
     </g>
     <g id="text_11">
      <!-- 8 -->
      <g style="fill: #262626" transform="translate(7.2 96.203464) scale(0.11 -0.11)">
       <use xlink:href="#ArialMT-38"/>
      </g>
     </g>
    </g>
   </g>
   <g id="patch_3">
    <path d="M 28.810334 561.6 
L 73.450334 561.6 
L 73.450334 326.933333 
L 28.810334 326.933333 
z
" clip-path="url(#p044303b085)" style="fill: #0f8141; opacity: 0.5"/>
   </g>
   <g id="patch_4">
    <path d="M 73.450334 561.6 
L 118.090334 561.6 
L 118.090334 33.6 
L 73.450334 33.6 
z
" clip-path="url(#p044303b085)" style="fill: #0f8141; opacity: 0.5"/>
   </g>
   <g id="patch_5">
    <path d="M 118.090334 561.6 
L 162.730334 561.6 
L 162.730334 92.266667 
L 118.090334 92.266667 
z
" clip-path="url(#p044303b085)" style="fill: #0f8141; opacity: 0.5"/>
   </g>
   <g id="patch_6">
    <path d="M 162.730334 561.6 
L 207.370334 561.6 
L 207.370334 326.933333 
L 162.730334 326.933333 
z
" clip-path="url(#p044303b085)" style="fill: #0f8141; opacity: 0.5"/>
   </g>
   <g id="patch_7">
    <path d="M 207.370334 561.6 
L 252.010334 561.6 
L 252.010334 326.933333 
L 207.370334 326.933333 
z
" clip-path="url(#p044303b085)" style="fill: #0f8141; opacity: 0.5"/>
   </g>
   <g id="patch_8">
    <path d="M 252.010334 561.6 
L 296.650334 561.6 
L 296.650334 502.933333 
L 252.010334 502.933333 
z
" clip-path="url(#p044303b085)" style="fill: #0f8141; opacity: 0.5"/>
   </g>
   <g id="patch_9">
    <path d="M 76.509649 561.6 
L 121.149649 561.6 
L 121.149649 502.933333 
L 76.509649 502.933333 
z
" clip-path="url(#p044303b085)" style="fill: #3c54a4; opacity: 0.5"/>
   </g>
   <g id="patch_10">
    <path d="M 121.149649 561.6 
L 165.789649 561.6 
L 165.789649 561.6 
L 121.149649 561.6 
z
" clip-path="url(#p044303b085)" style="fill: #3c54a4; opacity: 0.5"/>
   </g>
   <g id="patch_11">
    <path d="M 165.789649 561.6 
L 210.429649 561.6 
L 210.429649 502.933333 
L 165.789649 502.933333 
z
" clip-path="url(#p044303b085)" style="fill: #3c54a4; opacity: 0.5"/>
   </g>
   <g id="patch_12">
    <path d="M 210.429649 561.6 
L 255.069649 561.6 
L 255.069649 444.266667 
L 210.429649 444.266667 
z
" clip-path="url(#p044303b085)" style="fill: #3c54a4; opacity: 0.5"/>
   </g>
   <g id="patch_13">
    <path d="M 255.069649 561.6 
L 299.709649 561.6 
L 299.709649 209.6 
L 255.069649 209.6 
z
" clip-path="url(#p044303b085)" style="fill: #3c54a4; opacity: 0.5"/>
   </g>
   <g id="patch_14">
    <path d="M 299.709649 561.6 
L 344.349649 561.6 
L 344.349649 385.6 
L 299.709649 385.6 
z
" clip-path="url(#p044303b085)" style="fill: #3c54a4; opacity: 0.5"/>
   </g>
   <g id="patch_15">
    <path d="M 344.349649 561.6 
L 388.989649 561.6 
L 388.989649 385.6 
L 344.349649 385.6 
z
" clip-path="url(#p044303b085)" style="fill: #3c54a4; opacity: 0.5"/>
   </g>
   <g id="patch_16">
    <path d="M 388.989649 561.6 
L 433.629649 561.6 
L 433.629649 502.933333 
L 388.989649 502.933333 
z
" clip-path="url(#p044303b085)" style="fill: #3c54a4; opacity: 0.5"/>
   </g>
   <g id="patch_17">
    <path d="M 433.629649 561.6 
L 478.269649 561.6 
L 478.269649 444.266667 
L 433.629649 444.266667 
z
" clip-path="url(#p044303b085)" style="fill: #3c54a4; opacity: 0.5"/>
   </g>
   <g id="patch_18">
    <path d="M 478.269649 561.6 
L 522.909649 561.6 
L 522.909649 150.933333 
L 478.269649 150.933333 
z
" clip-path="url(#p044303b085)" style="fill: #3c54a4; opacity: 0.5"/>
   </g>
   <g id="patch_19">
    <path d="M 522.909649 561.6 
L 567.549649 561.6 
L 567.549649 502.933333 
L 522.909649 502.933333 
z
" clip-path="url(#p044303b085)" style="fill: #3c54a4; opacity: 0.5"/>
   </g>
   <g id="patch_20">
    <path d="M 567.549649 561.6 
L 612.189649 561.6 
L 612.189649 444.266667 
L 567.549649 444.266667 
z
" clip-path="url(#p044303b085)" style="fill: #3c54a4; opacity: 0.5"/>
   </g>
   <g id="patch_21">
    <path d="M 612.189649 561.6 
L 656.829649 561.6 
L 656.829649 561.6 
L 612.189649 561.6 
z
" clip-path="url(#p044303b085)" style="fill: #3c54a4; opacity: 0.5"/>
   </g>
   <g id="patch_22">
    <path d="M 656.829649 561.6 
L 701.469649 561.6 
L 701.469649 561.6 
L 656.829649 561.6 
z
" clip-path="url(#p044303b085)" style="fill: #3c54a4; opacity: 0.5"/>
   </g>
   <g id="patch_23">
    <path d="M 701.469649 561.6 
L 746.109649 561.6 
L 746.109649 561.6 
L 701.469649 561.6 
z
" clip-path="url(#p044303b085)" style="fill: #3c54a4; opacity: 0.5"/>
   </g>
   <g id="patch_24">
    <path d="M 746.109649 561.6 
L 790.749649 561.6 
L 790.749649 502.933333 
L 746.109649 502.933333 
z
" clip-path="url(#p044303b085)" style="fill: #3c54a4; opacity: 0.5"/>
   </g>
   <g id="line2d_12">
    <path d="M 22.817031 494.198747 
L 25.053504 488.906876 
L 27.289977 483.318945 
L 31.762923 471.235627 
L 36.235869 457.921267 
L 40.708815 443.368284 
L 45.181761 427.592168 
L 49.654707 410.634316 
L 54.127652 392.564403 
L 58.600598 373.482164 
L 63.073544 353.518414 
L 69.782963 322.282794 
L 92.147693 216.130728 
L 96.620638 196.550177 
L 101.093584 178.204747 
L 105.56653 161.385156 
L 107.803003 153.634559 
L 110.039476 146.36732 
L 112.275949 139.614387 
L 114.512422 133.404862 
L 116.748895 127.765798 
L 118.985368 122.722001 
L 121.221841 118.295846 
L 123.458314 114.507113 
L 125.694787 111.372843 
L 127.93126 108.907205 
L 130.167733 107.121392 
L 132.404206 106.023538 
L 134.640679 105.618654 
L 136.877151 105.908588 
L 139.113624 106.892016 
L 141.350097 108.56445 
L 143.58657 110.918268 
L 145.823043 113.942779 
L 148.059516 117.624299 
L 150.295989 121.946254 
L 152.532462 126.889309 
L 154.768935 132.431505 
L 157.005408 138.548428 
L 159.241881 145.213384 
L 161.478354 152.397595 
L 163.714827 160.070405 
L 165.9513 168.199495 
L 170.424246 185.690309 
L 174.897192 204.587023 
L 179.370137 224.594992 
L 186.079556 256.037789 
L 203.97134 341.541063 
L 208.444286 361.945762 
L 212.917232 381.559618 
L 217.390178 400.233569 
L 221.863123 417.849842 
L 226.336069 434.321414 
L 230.809015 449.590663 
L 235.281961 463.627322 
L 239.754907 476.425889 
L 244.227853 488.002662 
L 246.464326 493.343139 
L 248.700799 498.392519 
L 250.937272 503.157522 
L 253.173745 507.645618 
L 255.410218 511.864923 
L 257.646691 515.824105 
L 259.883164 519.532292 
L 262.119636 522.998976 
L 264.356109 526.233932 
L 266.592582 529.247139 
L 268.829055 532.048701 
L 271.065528 534.64878 
L 273.302001 537.057532 
L 275.538474 539.285044 
L 277.774947 541.34129 
L 280.01142 543.236075 
L 282.247893 544.978998 
L 286.720839 548.046406 
L 291.193785 550.614909 
L 295.666731 552.750787 
L 300.139677 554.514711 
L 304.612622 555.961516 
L 309.085568 557.140163 
L 313.558514 558.093874 
L 318.03146 558.860395 
L 324.740879 559.729261 
L 331.450298 560.339972 
L 340.39619 560.871771 
L 351.578554 561.245406 
L 367.233865 561.478556 
L 394.07154 561.583739 
L 501.422242 561.599999 
L 1138.817031 561.6 
L 1138.817031 561.6 
" clip-path="url(#p044303b085)" style="fill: none; stroke: #0f8141; stroke-width: 1.5; stroke-linecap: round"/>
   </g>
   <g id="line2d_13">
    <path d="M 134.825748 561.6 
L 134.825748 7.2 
" clip-path="url(#p044303b085)" style="fill: none; stroke-dasharray: 5.55,2.4; stroke-dashoffset: 0; stroke: #0f8141; stroke-width: 1.5"/>
   </g>
   <g id="line2d_14">
    <path d="M 22.817031 554.543875 
L 33.999396 553.012948 
L 42.945288 551.596424 
L 51.89118 549.991721 
L 60.837071 548.182188 
L 69.782963 546.151125 
L 78.728855 543.882054 
L 87.674747 541.359036 
L 96.620638 538.567009 
L 105.56653 535.492169 
L 114.512422 532.122368 
L 123.458314 528.447545 
L 132.404206 524.460152 
L 141.350097 520.155598 
L 150.295989 515.53268 
L 159.241881 510.593992 
L 168.187773 505.346305 
L 177.133665 499.800909 
L 186.079556 493.973884 
L 195.025448 487.886314 
L 203.97134 481.564415 
L 215.153705 473.380801 
L 228.572542 463.245199 
L 250.937272 445.982671 
L 266.592582 433.995754 
L 277.774947 425.68053 
L 286.720839 419.26756 
L 295.666731 413.133853 
L 302.376149 408.753556 
L 309.085568 404.589848 
L 315.794987 400.66718 
L 322.504406 397.009032 
L 329.213825 393.637676 
L 335.923244 390.57396 
L 342.632663 387.837082 
L 349.342081 385.4444 
L 353.815027 384.048157 
L 358.287973 382.815754 
L 362.760919 381.750746 
L 367.233865 380.856219 
L 371.706811 380.134773 
L 376.179757 379.588512 
L 380.652703 379.219033 
L 385.125648 379.027418 
L 389.598594 379.014228 
L 394.07154 379.179502 
L 398.544486 379.522755 
L 403.017432 380.042983 
L 407.490378 380.738664 
L 411.963324 381.607769 
L 416.43627 382.647769 
L 420.909216 383.85565 
L 425.382162 385.227926 
L 429.855107 386.760656 
L 436.564526 389.35091 
L 443.273945 392.275737 
L 449.983364 395.516707 
L 456.692783 399.053661 
L 463.402202 402.864914 
L 470.11162 406.927479 
L 476.821039 411.217296 
L 485.766931 417.247432 
L 494.712823 423.576684 
L 505.895188 431.815263 
L 519.314025 442.023594 
L 559.570538 472.888698 
L 570.752903 481.088885 
L 581.935268 488.976271 
L 590.88116 495.019708 
L 599.827051 500.798518 
L 608.772943 506.292509 
L 617.718835 511.486461 
L 626.664727 516.369904 
L 635.610618 520.936827 
L 644.55651 525.185333 
L 653.502402 529.117254 
L 662.448294 532.737731 
L 671.394186 536.054788 
L 680.340077 539.078886 
L 689.285969 541.822493 
L 698.231861 544.299663 
L 707.177753 546.52564 
L 716.123644 548.516482 
L 725.069536 550.288726 
L 734.015428 551.859084 
L 745.197793 553.563418 
L 756.380158 555.009948 
L 767.562522 556.229039 
L 778.744887 557.249281 
L 792.163725 558.248275 
L 807.819035 559.155089 
L 823.474346 559.837799 
L 841.366129 560.405565 
L 863.730859 560.881394 
L 890.568534 561.221844 
L 928.588574 561.456614 
L 988.973344 561.573421 
L 1138.817031 561.599812 
L 1138.817031 561.599812 
" clip-path="url(#p044303b085)" style="fill: none; stroke: #3c54a4; stroke-width: 1.5; stroke-linecap: round"/>
   </g>
   <g id="line2d_15">
    <path d="M 387.692583 561.6 
L 387.692583 7.2 
" clip-path="url(#p044303b085)" style="fill: none; stroke-dasharray: 5.55,2.4; stroke-dashoffset: 0; stroke: #3c54a4; stroke-width: 1.5"/>
   </g>
   <g id="patch_25">
    <path d="M 22.817031 561.6 
L 22.817031 7.2 
" style="fill: none; stroke: #262626; stroke-width: 1.25; stroke-linejoin: miter; stroke-linecap: square"/>
   </g>
   <g id="patch_26">
    <path d="M 1138.817031 561.6 
L 1138.817031 7.2 
" style="fill: none; stroke: #262626; stroke-width: 1.25; stroke-linejoin: miter; stroke-linecap: square"/>
   </g>
   <g id="patch_27">
    <path d="M 22.817031 561.6 
L 1138.817031 561.6 
" style="fill: none; stroke: #262626; stroke-width: 1.25; stroke-linejoin: miter; stroke-linecap: square"/>
   </g>
   <g id="patch_28">
    <path d="M 22.817031 7.2 
L 1138.817031 7.2 
" style="fill: none; stroke: #262626; stroke-width: 1.25; stroke-linejoin: miter; stroke-linecap: square"/>
   </g>
   <g id="legend_1">
    <g id="patch_29">
     <path d="M 990.75875 78.239375 
L 1131.117031 78.239375 
Q 1133.317031 78.239375 1133.317031 76.039375 
L 1133.317031 14.9 
Q 1133.317031 12.7 1131.117031 12.7 
L 990.75875 12.7 
Q 988.55875 12.7 988.55875 14.9 
L 988.55875 76.039375 
Q 988.55875 78.239375 990.75875 78.239375 
z
" style="fill: #ffffff; opacity: 0.8; stroke: #cccccc; stroke-linejoin: miter"/>
    </g>
    <g id="patch_30">
     <path d="M 992.95875 24.973594 
L 1014.95875 24.973594 
L 1014.95875 17.273594 
L 992.95875 17.273594 
z
" style="fill: #0f8141; opacity: 0.5"/>
    </g>
    <g id="text_12">
     <!-- tl -->
     <g style="fill: #262626" transform="translate(1023.75875 24.973594) scale(0.11 -0.11)">
      <defs>
       <path id="ArialMT-74" d="M 1650 503 
L 1731 6 
Q 1494 -44 1306 -44 
Q 1000 -44 831 53 
Q 663 150 594 308 
Q 525 466 525 972 
L 525 2881 
L 113 2881 
L 113 3319 
L 525 3319 
L 525 4141 
L 1084 4478 
L 1084 3319 
L 1650 3319 
L 1650 2881 
L 1084 2881 
L 1084 941 
Q 1084 700 1114 631 
Q 1144 563 1211 522 
Q 1278 481 1403 481 
Q 1497 481 1650 503 
z
" transform="scale(0.015625)"/>
       <path id="ArialMT-6c" d="M 409 0 
L 409 4581 
L 972 4581 
L 972 0 
L 409 0 
z
" transform="scale(0.015625)"/>
      </defs>
      <use xlink:href="#ArialMT-74"/>
      <use xlink:href="#ArialMT-6c" x="27.783203"/>
     </g>
    </g>
    <g id="patch_31">
     <path d="M 992.95875 40.533437 
L 1014.95875 40.533437 
L 1014.95875 32.833437 
L 992.95875 32.833437 
z
" style="fill: #3c54a4; opacity: 0.5"/>
    </g>
    <g id="text_13">
     <!-- bp -->
     <g style="fill: #262626" transform="translate(1023.75875 40.533437) scale(0.11 -0.11)">
      <defs>
       <path id="ArialMT-62" d="M 941 0 
L 419 0 
L 419 4581 
L 981 4581 
L 981 2947 
Q 1338 3394 1891 3394 
Q 2197 3394 2470 3270 
Q 2744 3147 2920 2923 
Q 3097 2700 3197 2384 
Q 3297 2069 3297 1709 
Q 3297 856 2875 390 
Q 2453 -75 1863 -75 
Q 1275 -75 941 416 
L 941 0 
z
M 934 1684 
Q 934 1088 1097 822 
Q 1363 388 1816 388 
Q 2184 388 2453 708 
Q 2722 1028 2722 1663 
Q 2722 2313 2464 2622 
Q 2206 2931 1841 2931 
Q 1472 2931 1203 2611 
Q 934 2291 934 1684 
z
" transform="scale(0.015625)"/>
       <path id="ArialMT-70" d="M 422 -1272 
L 422 3319 
L 934 3319 
L 934 2888 
Q 1116 3141 1344 3267 
Q 1572 3394 1897 3394 
Q 2322 3394 2647 3175 
Q 2972 2956 3137 2557 
Q 3303 2159 3303 1684 
Q 3303 1175 3120 767 
Q 2938 359 2589 142 
Q 2241 -75 1856 -75 
Q 1575 -75 1351 44 
Q 1128 163 984 344 
L 984 -1272 
L 422 -1272 
z
M 931 1641 
Q 931 1000 1190 694 
Q 1450 388 1819 388 
Q 2194 388 2461 705 
Q 2728 1022 2728 1688 
Q 2728 2322 2467 2637 
Q 2206 2953 1844 2953 
Q 1484 2953 1207 2617 
Q 931 2281 931 1641 
z
" transform="scale(0.015625)"/>
      </defs>
      <use xlink:href="#ArialMT-62"/>
      <use xlink:href="#ArialMT-70" x="55.615234"/>
     </g>
    </g>
    <g id="line2d_16">
     <path d="M 992.95875 52.243281 
L 1003.95875 52.243281 
L 1014.95875 52.243281 
" style="fill: none; stroke: #0f8141; stroke-width: 1.5; stroke-linecap: round"/>
    </g>
    <g id="text_14">
     <!-- tl normal distribution -->
     <g style="fill: #262626" transform="translate(1023.75875 56.093281) scale(0.11 -0.11)">
      <defs>
       <path id="ArialMT-20" transform="scale(0.015625)"/>
       <path id="ArialMT-6e" d="M 422 0 
L 422 3319 
L 928 3319 
L 928 2847 
Q 1294 3394 1984 3394 
Q 2284 3394 2536 3286 
Q 2788 3178 2913 3003 
Q 3038 2828 3088 2588 
Q 3119 2431 3119 2041 
L 3119 0 
L 2556 0 
L 2556 2019 
Q 2556 2363 2490 2533 
Q 2425 2703 2258 2804 
Q 2091 2906 1866 2906 
Q 1506 2906 1245 2678 
Q 984 2450 984 1813 
L 984 0 
L 422 0 
z
" transform="scale(0.015625)"/>
       <path id="ArialMT-6f" d="M 213 1659 
Q 213 2581 725 3025 
Q 1153 3394 1769 3394 
Q 2453 3394 2887 2945 
Q 3322 2497 3322 1706 
Q 3322 1066 3130 698 
Q 2938 331 2570 128 
Q 2203 -75 1769 -75 
Q 1072 -75 642 372 
Q 213 819 213 1659 
z
M 791 1659 
Q 791 1022 1069 705 
Q 1347 388 1769 388 
Q 2188 388 2466 706 
Q 2744 1025 2744 1678 
Q 2744 2294 2464 2611 
Q 2184 2928 1769 2928 
Q 1347 2928 1069 2612 
Q 791 2297 791 1659 
z
" transform="scale(0.015625)"/>
       <path id="ArialMT-72" d="M 416 0 
L 416 3319 
L 922 3319 
L 922 2816 
Q 1116 3169 1280 3281 
Q 1444 3394 1641 3394 
Q 1925 3394 2219 3213 
L 2025 2691 
Q 1819 2813 1613 2813 
Q 1428 2813 1281 2702 
Q 1134 2591 1072 2394 
Q 978 2094 978 1738 
L 978 0 
L 416 0 
z
" transform="scale(0.015625)"/>
       <path id="ArialMT-6d" d="M 422 0 
L 422 3319 
L 925 3319 
L 925 2853 
Q 1081 3097 1340 3245 
Q 1600 3394 1931 3394 
Q 2300 3394 2536 3241 
Q 2772 3088 2869 2813 
Q 3263 3394 3894 3394 
Q 4388 3394 4653 3120 
Q 4919 2847 4919 2278 
L 4919 0 
L 4359 0 
L 4359 2091 
Q 4359 2428 4304 2576 
Q 4250 2725 4106 2815 
Q 3963 2906 3769 2906 
Q 3419 2906 3187 2673 
Q 2956 2441 2956 1928 
L 2956 0 
L 2394 0 
L 2394 2156 
Q 2394 2531 2256 2718 
Q 2119 2906 1806 2906 
Q 1569 2906 1367 2781 
Q 1166 2656 1075 2415 
Q 984 2175 984 1722 
L 984 0 
L 422 0 
z
" transform="scale(0.015625)"/>
       <path id="ArialMT-61" d="M 2588 409 
Q 2275 144 1986 34 
Q 1697 -75 1366 -75 
Q 819 -75 525 192 
Q 231 459 231 875 
Q 231 1119 342 1320 
Q 453 1522 633 1644 
Q 813 1766 1038 1828 
Q 1203 1872 1538 1913 
Q 2219 1994 2541 2106 
Q 2544 2222 2544 2253 
Q 2544 2597 2384 2738 
Q 2169 2928 1744 2928 
Q 1347 2928 1158 2789 
Q 969 2650 878 2297 
L 328 2372 
Q 403 2725 575 2942 
Q 747 3159 1072 3276 
Q 1397 3394 1825 3394 
Q 2250 3394 2515 3294 
Q 2781 3194 2906 3042 
Q 3031 2891 3081 2659 
Q 3109 2516 3109 2141 
L 3109 1391 
Q 3109 606 3145 398 
Q 3181 191 3288 0 
L 2700 0 
Q 2613 175 2588 409 
z
M 2541 1666 
Q 2234 1541 1622 1453 
Q 1275 1403 1131 1340 
Q 988 1278 909 1158 
Q 831 1038 831 891 
Q 831 666 1001 516 
Q 1172 366 1500 366 
Q 1825 366 2078 508 
Q 2331 650 2450 897 
Q 2541 1088 2541 1459 
L 2541 1666 
z
" transform="scale(0.015625)"/>
       <path id="ArialMT-64" d="M 2575 0 
L 2575 419 
Q 2259 -75 1647 -75 
Q 1250 -75 917 144 
Q 584 363 401 755 
Q 219 1147 219 1656 
Q 219 2153 384 2558 
Q 550 2963 881 3178 
Q 1213 3394 1622 3394 
Q 1922 3394 2156 3267 
Q 2391 3141 2538 2938 
L 2538 4581 
L 3097 4581 
L 3097 0 
L 2575 0 
z
M 797 1656 
Q 797 1019 1065 703 
Q 1334 388 1700 388 
Q 2069 388 2326 689 
Q 2584 991 2584 1609 
Q 2584 2291 2321 2609 
Q 2059 2928 1675 2928 
Q 1300 2928 1048 2622 
Q 797 2316 797 1656 
z
" transform="scale(0.015625)"/>
       <path id="ArialMT-69" d="M 425 3934 
L 425 4581 
L 988 4581 
L 988 3934 
L 425 3934 
z
M 425 0 
L 425 3319 
L 988 3319 
L 988 0 
L 425 0 
z
" transform="scale(0.015625)"/>
       <path id="ArialMT-73" d="M 197 991 
L 753 1078 
Q 800 744 1014 566 
Q 1228 388 1613 388 
Q 2000 388 2187 545 
Q 2375 703 2375 916 
Q 2375 1106 2209 1216 
Q 2094 1291 1634 1406 
Q 1016 1563 777 1677 
Q 538 1791 414 1992 
Q 291 2194 291 2438 
Q 291 2659 392 2848 
Q 494 3038 669 3163 
Q 800 3259 1026 3326 
Q 1253 3394 1513 3394 
Q 1903 3394 2198 3281 
Q 2494 3169 2634 2976 
Q 2775 2784 2828 2463 
L 2278 2388 
Q 2241 2644 2061 2787 
Q 1881 2931 1553 2931 
Q 1166 2931 1000 2803 
Q 834 2675 834 2503 
Q 834 2394 903 2306 
Q 972 2216 1119 2156 
Q 1203 2125 1616 2013 
Q 2213 1853 2448 1751 
Q 2684 1650 2818 1456 
Q 2953 1263 2953 975 
Q 2953 694 2789 445 
Q 2625 197 2315 61 
Q 2006 -75 1616 -75 
Q 969 -75 630 194 
Q 291 463 197 991 
z
" transform="scale(0.015625)"/>
       <path id="ArialMT-75" d="M 2597 0 
L 2597 488 
Q 2209 -75 1544 -75 
Q 1250 -75 995 37 
Q 741 150 617 320 
Q 494 491 444 738 
Q 409 903 409 1263 
L 409 3319 
L 972 3319 
L 972 1478 
Q 972 1038 1006 884 
Q 1059 663 1231 536 
Q 1403 409 1656 409 
Q 1909 409 2131 539 
Q 2353 669 2445 892 
Q 2538 1116 2538 1541 
L 2538 3319 
L 3100 3319 
L 3100 0 
L 2597 0 
z
" transform="scale(0.015625)"/>
      </defs>
      <use xlink:href="#ArialMT-74"/>
      <use xlink:href="#ArialMT-6c" x="27.783203"/>
      <use xlink:href="#ArialMT-20" x="50"/>
      <use xlink:href="#ArialMT-6e" x="77.783203"/>
      <use xlink:href="#ArialMT-6f" x="133.398438"/>
      <use xlink:href="#ArialMT-72" x="189.013672"/>
      <use xlink:href="#ArialMT-6d" x="222.314453"/>
      <use xlink:href="#ArialMT-61" x="305.615234"/>
      <use xlink:href="#ArialMT-6c" x="361.230469"/>
      <use xlink:href="#ArialMT-20" x="383.447266"/>
      <use xlink:href="#ArialMT-64" x="411.230469"/>
      <use xlink:href="#ArialMT-69" x="466.845703"/>
      <use xlink:href="#ArialMT-73" x="489.0625"/>
      <use xlink:href="#ArialMT-74" x="539.0625"/>
      <use xlink:href="#ArialMT-72" x="566.845703"/>
      <use xlink:href="#ArialMT-69" x="600.146484"/>
      <use xlink:href="#ArialMT-62" x="622.363281"/>
      <use xlink:href="#ArialMT-75" x="677.978516"/>
      <use xlink:href="#ArialMT-74" x="733.59375"/>
      <use xlink:href="#ArialMT-69" x="761.376953"/>
      <use xlink:href="#ArialMT-6f" x="783.59375"/>
      <use xlink:href="#ArialMT-6e" x="839.208984"/>
     </g>
    </g>
    <g id="line2d_17">
     <path d="M 992.95875 67.803125 
L 1003.95875 67.803125 
L 1014.95875 67.803125 
" style="fill: none; stroke: #3c54a4; stroke-width: 1.5; stroke-linecap: round"/>
    </g>
    <g id="text_15">
     <!-- bp normal distribution -->
     <g style="fill: #262626" transform="translate(1023.75875 71.653125) scale(0.11 -0.11)">
      <use xlink:href="#ArialMT-62"/>
      <use xlink:href="#ArialMT-70" x="55.615234"/>
      <use xlink:href="#ArialMT-20" x="111.230469"/>
      <use xlink:href="#ArialMT-6e" x="139.013672"/>
      <use xlink:href="#ArialMT-6f" x="194.628906"/>
      <use xlink:href="#ArialMT-72" x="250.244141"/>
      <use xlink:href="#ArialMT-6d" x="283.544922"/>
      <use xlink:href="#ArialMT-61" x="366.845703"/>
      <use xlink:href="#ArialMT-6c" x="422.460938"/>
      <use xlink:href="#ArialMT-20" x="444.677734"/>
      <use xlink:href="#ArialMT-64" x="472.460938"/>
      <use xlink:href="#ArialMT-69" x="528.076172"/>
      <use xlink:href="#ArialMT-73" x="550.292969"/>
      <use xlink:href="#ArialMT-74" x="600.292969"/>
      <use xlink:href="#ArialMT-72" x="628.076172"/>
      <use xlink:href="#ArialMT-69" x="661.376953"/>
      <use xlink:href="#ArialMT-62" x="683.59375"/>
      <use xlink:href="#ArialMT-75" x="739.208984"/>
      <use xlink:href="#ArialMT-74" x="794.824219"/>
      <use xlink:href="#ArialMT-69" x="822.607422"/>
      <use xlink:href="#ArialMT-6f" x="844.824219"/>
      <use xlink:href="#ArialMT-6e" x="900.439453"/>
     </g>
    </g>
   </g>
  </g>
 </g>
 <defs>
  <clipPath id="p044303b085">
   <rect x="22.817031" y="7.2" width="1116" height="554.4"/>
  </clipPath>
 </defs>
</svg>
